<?xml version="1.0" encoding="utf-8" standalone="no"?>
<!DOCTYPE svg PUBLIC "-//W3C//DTD SVG 1.1//EN"
  "http://www.w3.org/Graphics/SVG/1.1/DTD/svg11.dtd">
<!-- Created with matplotlib (https://matplotlib.org/) -->
<svg height="345.6pt" version="1.1" viewBox="0 0 460.8 345.6" width="460.8pt" xmlns="http://www.w3.org/2000/svg" xmlns:xlink="http://www.w3.org/1999/xlink">
 <metadata>
  <rdf:RDF xmlns:cc="http://creativecommons.org/ns#" xmlns:dc="http://purl.org/dc/elements/1.1/" xmlns:rdf="http://www.w3.org/1999/02/22-rdf-syntax-ns#">
   <cc:Work>
    <dc:type rdf:resource="http://purl.org/dc/dcmitype/StillImage"/>
    <dc:date>2021-11-24T17:22:59.068322</dc:date>
    <dc:format>image/svg+xml</dc:format>
    <dc:creator>
     <cc:Agent>
      <dc:title>Matplotlib v3.3.4, https://matplotlib.org/</dc:title>
     </cc:Agent>
    </dc:creator>
   </cc:Work>
  </rdf:RDF>
 </metadata>
 <defs>
  <style type="text/css">*{stroke-linecap:butt;stroke-linejoin:round;}</style>
 </defs>
 <g id="figure_1">
  <g id="patch_1">
   <path d="M 0 345.6 
L 460.8 345.6 
L 460.8 0 
L 0 0 
z
" style="fill:#ffffff;"/>
  </g>
  <g id="axes_1">
   <g id="patch_2">
    <path d="M 57.6 307.584 
L 414.72 307.584 
L 414.72 41.472 
L 57.6 41.472 
z
" style="fill:#ffffff;"/>
   </g>
   <g id="PathCollection_1">
    <defs>
     <path d="M 0 0.5 
C 0.132602 0.5 0.25979 0.447317 0.353553 0.353553 
C 0.447317 0.25979 0.5 0.132602 0.5 0 
C 0.5 -0.132602 0.447317 -0.25979 0.353553 -0.353553 
C 0.25979 -0.447317 0.132602 -0.5 0 -0.5 
C -0.132602 -0.5 -0.25979 -0.447317 -0.353553 -0.353553 
C -0.447317 -0.25979 -0.5 -0.132602 -0.5 0 
C -0.5 0.132602 -0.447317 0.25979 -0.353553 0.353553 
C -0.25979 0.447317 -0.132602 0.5 0 0.5 
z
" id="maa51bb82ea" style="stroke:#0000ff;"/>
    </defs>
    <g clip-path="url(#pc27892616e)">
     <use style="fill:#0000ff;stroke:#0000ff;" x="73.832727" xlink:href="#maa51bb82ea" y="238.973384"/>
     <use style="fill:#0000ff;stroke:#0000ff;" x="120.211948" xlink:href="#maa51bb82ea" y="247.535249"/>
     <use style="fill:#0000ff;stroke:#0000ff;" x="166.591169" xlink:href="#maa51bb82ea" y="227.326163"/>
     <use style="fill:#0000ff;stroke:#0000ff;" x="212.97039" xlink:href="#maa51bb82ea" y="192.65447"/>
     <use style="fill:#0000ff;stroke:#0000ff;" x="259.34961" xlink:href="#maa51bb82ea" y="184.555409"/>
     <use style="fill:#0000ff;stroke:#0000ff;" x="305.728831" xlink:href="#maa51bb82ea" y="210.163868"/>
     <use style="fill:#0000ff;stroke:#0000ff;" x="352.108052" xlink:href="#maa51bb82ea" y="227.441864"/>
     <use style="fill:#0000ff;stroke:#0000ff;" x="398.487273" xlink:href="#maa51bb82ea" y="232.1856"/>
    </g>
   </g>
   <g id="PathCollection_2">
    <g clip-path="url(#pc27892616e)">
     <use style="fill:#0000ff;stroke:#0000ff;" x="73.832727" xlink:href="#maa51bb82ea" y="227.094762"/>
     <use style="fill:#0000ff;stroke:#0000ff;" x="120.211948" xlink:href="#maa51bb82ea" y="233.034073"/>
     <use style="fill:#0000ff;stroke:#0000ff;" x="166.591169" xlink:href="#maa51bb82ea" y="209.199694"/>
     <use style="fill:#0000ff;stroke:#0000ff;" x="212.97039" xlink:href="#maa51bb82ea" y="174.219464"/>
     <use style="fill:#0000ff;stroke:#0000ff;" x="259.34961" xlink:href="#maa51bb82ea" y="166.197537"/>
     <use style="fill:#0000ff;stroke:#0000ff;" x="305.728831" xlink:href="#maa51bb82ea" y="199.326553"/>
     <use style="fill:#0000ff;stroke:#0000ff;" x="352.108052" xlink:href="#maa51bb82ea" y="218.687165"/>
     <use style="fill:#0000ff;stroke:#0000ff;" x="398.487273" xlink:href="#maa51bb82ea" y="223.508035"/>
    </g>
   </g>
   <g id="PathCollection_3">
    <g clip-path="url(#pc27892616e)">
     <use style="fill:#0000ff;stroke:#0000ff;" x="73.832727" xlink:href="#maa51bb82ea" y="219.612772"/>
     <use style="fill:#0000ff;stroke:#0000ff;" x="120.211948" xlink:href="#maa51bb82ea" y="226.169155"/>
     <use style="fill:#0000ff;stroke:#0000ff;" x="166.591169" xlink:href="#maa51bb82ea" y="202.450477"/>
     <use style="fill:#0000ff;stroke:#0000ff;" x="212.97039" xlink:href="#maa51bb82ea" y="168.395854"/>
     <use style="fill:#0000ff;stroke:#0000ff;" x="259.34961" xlink:href="#maa51bb82ea" y="158.908383"/>
     <use style="fill:#0000ff;stroke:#0000ff;" x="305.728831" xlink:href="#maa51bb82ea" y="189.569113"/>
     <use style="fill:#0000ff;stroke:#0000ff;" x="352.108052" xlink:href="#maa51bb82ea" y="206.96281"/>
     <use style="fill:#0000ff;stroke:#0000ff;" x="398.487273" xlink:href="#maa51bb82ea" y="214.869037"/>
    </g>
   </g>
   <g id="PathCollection_4">
    <g clip-path="url(#pc27892616e)">
     <use style="fill:#0000ff;stroke:#0000ff;" x="73.832727" xlink:href="#maa51bb82ea" y="235.926595"/>
     <use style="fill:#0000ff;stroke:#0000ff;" x="120.211948" xlink:href="#maa51bb82ea" y="244.21849"/>
     <use style="fill:#0000ff;stroke:#0000ff;" x="166.591169" xlink:href="#maa51bb82ea" y="220.114143"/>
     <use style="fill:#0000ff;stroke:#0000ff;" x="212.97039" xlink:href="#maa51bb82ea" y="186.676591"/>
     <use style="fill:#0000ff;stroke:#0000ff;" x="259.34961" xlink:href="#maa51bb82ea" y="180.004508"/>
     <use style="fill:#0000ff;stroke:#0000ff;" x="305.728831" xlink:href="#maa51bb82ea" y="208.004118"/>
     <use style="fill:#0000ff;stroke:#0000ff;" x="352.108052" xlink:href="#maa51bb82ea" y="224.047972"/>
     <use style="fill:#0000ff;stroke:#0000ff;" x="398.487273" xlink:href="#maa51bb82ea" y="230.758623"/>
    </g>
   </g>
   <g id="PathCollection_5">
    <g clip-path="url(#pc27892616e)">
     <use style="fill:#0000ff;stroke:#0000ff;" x="73.832727" xlink:href="#maa51bb82ea" y="180.698713"/>
     <use style="fill:#0000ff;stroke:#0000ff;" x="120.211948" xlink:href="#maa51bb82ea" y="189.800515"/>
     <use style="fill:#0000ff;stroke:#0000ff;" x="166.591169" xlink:href="#maa51bb82ea" y="161.299534"/>
     <use style="fill:#0000ff;stroke:#0000ff;" x="212.97039" xlink:href="#maa51bb82ea" y="118.64448"/>
     <use style="fill:#0000ff;stroke:#0000ff;" x="259.34961" xlink:href="#maa51bb82ea" y="105.416014"/>
     <use style="fill:#0000ff;stroke:#0000ff;" x="305.728831" xlink:href="#maa51bb82ea" y="147.993934"/>
     <use style="fill:#0000ff;stroke:#0000ff;" x="352.108052" xlink:href="#maa51bb82ea" y="166.390372"/>
     <use style="fill:#0000ff;stroke:#0000ff;" x="398.487273" xlink:href="#maa51bb82ea" y="172.75392"/>
    </g>
   </g>
   <g id="PathCollection_6">
    <g clip-path="url(#pc27892616e)">
     <use style="fill:#0000ff;stroke:#0000ff;" x="73.832727" xlink:href="#maa51bb82ea" y="265.546017"/>
     <use style="fill:#0000ff;stroke:#0000ff;" x="120.211948" xlink:href="#maa51bb82ea" y="269.171311"/>
     <use style="fill:#0000ff;stroke:#0000ff;" x="166.591169" xlink:href="#maa51bb82ea" y="246.416807"/>
     <use style="fill:#0000ff;stroke:#0000ff;" x="212.97039" xlink:href="#maa51bb82ea" y="219.38137"/>
     <use style="fill:#0000ff;stroke:#0000ff;" x="259.34961" xlink:href="#maa51bb82ea" y="212.979256"/>
     <use style="fill:#0000ff;stroke:#0000ff;" x="305.728831" xlink:href="#maa51bb82ea" y="236.042296"/>
     <use style="fill:#0000ff;stroke:#0000ff;" x="352.108052" xlink:href="#maa51bb82ea" y="253.011757"/>
     <use style="fill:#0000ff;stroke:#0000ff;" x="398.487273" xlink:href="#maa51bb82ea" y="261.265085"/>
    </g>
   </g>
   <g id="PathCollection_7">
    <g clip-path="url(#pc27892616e)">
     <use style="fill:#0000ff;stroke:#0000ff;" x="73.832727" xlink:href="#maa51bb82ea" y="210.780939"/>
     <use style="fill:#0000ff;stroke:#0000ff;" x="120.211948" xlink:href="#maa51bb82ea" y="216.064612"/>
     <use style="fill:#0000ff;stroke:#0000ff;" x="166.591169" xlink:href="#maa51bb82ea" y="197.08967"/>
     <use style="fill:#0000ff;stroke:#0000ff;" x="212.97039" xlink:href="#maa51bb82ea" y="162.148007"/>
     <use style="fill:#0000ff;stroke:#0000ff;" x="259.34961" xlink:href="#maa51bb82ea" y="159.641155"/>
     <use style="fill:#0000ff;stroke:#0000ff;" x="305.728831" xlink:href="#maa51bb82ea" y="188.296403"/>
     <use style="fill:#0000ff;stroke:#0000ff;" x="352.108052" xlink:href="#maa51bb82ea" y="201.756271"/>
     <use style="fill:#0000ff;stroke:#0000ff;" x="398.487273" xlink:href="#maa51bb82ea" y="209.12256"/>
    </g>
   </g>
   <g id="PathCollection_8">
    <g clip-path="url(#pc27892616e)">
     <use style="fill:#0000ff;stroke:#0000ff;" x="73.832727" xlink:href="#maa51bb82ea" y="207.078511"/>
     <use style="fill:#0000ff;stroke:#0000ff;" x="120.211948" xlink:href="#maa51bb82ea" y="211.822247"/>
     <use style="fill:#0000ff;stroke:#0000ff;" x="166.591169" xlink:href="#maa51bb82ea" y="191.728863"/>
     <use style="fill:#0000ff;stroke:#0000ff;" x="212.97039" xlink:href="#maa51bb82ea" y="158.869816"/>
     <use style="fill:#0000ff;stroke:#0000ff;" x="259.34961" xlink:href="#maa51bb82ea" y="147.53113"/>
     <use style="fill:#0000ff;stroke:#0000ff;" x="305.728831" xlink:href="#maa51bb82ea" y="177.420522"/>
     <use style="fill:#0000ff;stroke:#0000ff;" x="352.108052" xlink:href="#maa51bb82ea" y="193.001572"/>
     <use style="fill:#0000ff;stroke:#0000ff;" x="398.487273" xlink:href="#maa51bb82ea" y="201.833405"/>
    </g>
   </g>
   <g id="PathCollection_9">
    <g clip-path="url(#pc27892616e)">
     <use style="fill:#0000ff;stroke:#0000ff;" x="73.832727" xlink:href="#maa51bb82ea" y="237.199304"/>
     <use style="fill:#0000ff;stroke:#0000ff;" x="120.211948" xlink:href="#maa51bb82ea" y="245.066963"/>
     <use style="fill:#0000ff;stroke:#0000ff;" x="166.591169" xlink:href="#maa51bb82ea" y="223.430901"/>
     <use style="fill:#0000ff;stroke:#0000ff;" x="212.97039" xlink:href="#maa51bb82ea" y="194.621384"/>
     <use style="fill:#0000ff;stroke:#0000ff;" x="259.34961" xlink:href="#maa51bb82ea" y="187.640765"/>
     <use style="fill:#0000ff;stroke:#0000ff;" x="305.728831" xlink:href="#maa51bb82ea" y="212.207917"/>
     <use style="fill:#0000ff;stroke:#0000ff;" x="352.108052" xlink:href="#maa51bb82ea" y="225.667784"/>
     <use style="fill:#0000ff;stroke:#0000ff;" x="398.487273" xlink:href="#maa51bb82ea" y="230.720056"/>
    </g>
   </g>
   <g id="PathCollection_10">
    <g clip-path="url(#pc27892616e)">
     <use style="fill:#0000ff;stroke:#0000ff;" x="73.832727" xlink:href="#maa51bb82ea" y="219.38137"/>
     <use style="fill:#0000ff;stroke:#0000ff;" x="120.211948" xlink:href="#maa51bb82ea" y="225.629217"/>
     <use style="fill:#0000ff;stroke:#0000ff;" x="166.591169" xlink:href="#maa51bb82ea" y="208.042685"/>
     <use style="fill:#0000ff;stroke:#0000ff;" x="212.97039" xlink:href="#maa51bb82ea" y="183.436967"/>
     <use style="fill:#0000ff;stroke:#0000ff;" x="259.34961" xlink:href="#maa51bb82ea" y="173.795228"/>
     <use style="fill:#0000ff;stroke:#0000ff;" x="305.728831" xlink:href="#maa51bb82ea" y="195.161322"/>
     <use style="fill:#0000ff;stroke:#0000ff;" x="352.108052" xlink:href="#maa51bb82ea" y="206.422873"/>
     <use style="fill:#0000ff;stroke:#0000ff;" x="398.487273" xlink:href="#maa51bb82ea" y="214.714769"/>
    </g>
   </g>
   <g id="PathCollection_11">
    <g clip-path="url(#pc27892616e)">
     <use style="fill:#0000ff;stroke:#0000ff;" x="73.832727" xlink:href="#maa51bb82ea" y="223.585169"/>
     <use style="fill:#0000ff;stroke:#0000ff;" x="120.211948" xlink:href="#maa51bb82ea" y="233.805412"/>
     <use style="fill:#0000ff;stroke:#0000ff;" x="166.591169" xlink:href="#maa51bb82ea" y="209.739631"/>
     <use style="fill:#0000ff;stroke:#0000ff;" x="212.97039" xlink:href="#maa51bb82ea" y="173.756661"/>
     <use style="fill:#0000ff;stroke:#0000ff;" x="259.34961" xlink:href="#maa51bb82ea" y="163.729252"/>
     <use style="fill:#0000ff;stroke:#0000ff;" x="305.728831" xlink:href="#maa51bb82ea" y="193.580077"/>
     <use style="fill:#0000ff;stroke:#0000ff;" x="352.108052" xlink:href="#maa51bb82ea" y="208.042685"/>
     <use style="fill:#0000ff;stroke:#0000ff;" x="398.487273" xlink:href="#maa51bb82ea" y="214.560501"/>
    </g>
   </g>
   <g id="PathCollection_12">
    <g clip-path="url(#pc27892616e)">
     <use style="fill:#0000ff;stroke:#0000ff;" x="73.832727" xlink:href="#maa51bb82ea" y="233.149774"/>
     <use style="fill:#0000ff;stroke:#0000ff;" x="120.211948" xlink:href="#maa51bb82ea" y="239.28192"/>
     <use style="fill:#0000ff;stroke:#0000ff;" x="166.591169" xlink:href="#maa51bb82ea" y="212.28505"/>
     <use style="fill:#0000ff;stroke:#0000ff;" x="212.97039" xlink:href="#maa51bb82ea" y="178.808932"/>
     <use style="fill:#0000ff;stroke:#0000ff;" x="259.34961" xlink:href="#maa51bb82ea" y="172.985322"/>
     <use style="fill:#0000ff;stroke:#0000ff;" x="305.728831" xlink:href="#maa51bb82ea" y="204.957329"/>
     <use style="fill:#0000ff;stroke:#0000ff;" x="352.108052" xlink:href="#maa51bb82ea" y="222.312459"/>
     <use style="fill:#0000ff;stroke:#0000ff;" x="398.487273" xlink:href="#maa51bb82ea" y="230.180118"/>
    </g>
   </g>
   <g id="PathCollection_13">
    <g clip-path="url(#pc27892616e)">
     <use style="fill:#0000ff;stroke:#0000ff;" x="73.832727" xlink:href="#maa51bb82ea" y="228.676007"/>
     <use style="fill:#0000ff;stroke:#0000ff;" x="120.211948" xlink:href="#maa51bb82ea" y="233.304042"/>
     <use style="fill:#0000ff;stroke:#0000ff;" x="166.591169" xlink:href="#maa51bb82ea" y="215.871777"/>
     <use style="fill:#0000ff;stroke:#0000ff;" x="212.97039" xlink:href="#maa51bb82ea" y="184.902511"/>
     <use style="fill:#0000ff;stroke:#0000ff;" x="259.34961" xlink:href="#maa51bb82ea" y="177.150553"/>
     <use style="fill:#0000ff;stroke:#0000ff;" x="305.728831" xlink:href="#maa51bb82ea" y="202.450477"/>
     <use style="fill:#0000ff;stroke:#0000ff;" x="352.108052" xlink:href="#maa51bb82ea" y="216.103179"/>
     <use style="fill:#0000ff;stroke:#0000ff;" x="398.487273" xlink:href="#maa51bb82ea" y="224.58791"/>
    </g>
   </g>
   <g id="PathCollection_14">
    <g clip-path="url(#pc27892616e)">
     <use style="fill:#0000ff;stroke:#0000ff;" x="73.832727" xlink:href="#maa51bb82ea" y="210.472403"/>
     <use style="fill:#0000ff;stroke:#0000ff;" x="120.211948" xlink:href="#maa51bb82ea" y="219.882741"/>
     <use style="fill:#0000ff;stroke:#0000ff;" x="166.591169" xlink:href="#maa51bb82ea" y="196.549732"/>
     <use style="fill:#0000ff;stroke:#0000ff;" x="212.97039" xlink:href="#maa51bb82ea" y="160.181092"/>
     <use style="fill:#0000ff;stroke:#0000ff;" x="259.34961" xlink:href="#maa51bb82ea" y="146.991193"/>
     <use style="fill:#0000ff;stroke:#0000ff;" x="305.728831" xlink:href="#maa51bb82ea" y="178.037593"/>
     <use style="fill:#0000ff;stroke:#0000ff;" x="352.108052" xlink:href="#maa51bb82ea" y="195.084188"/>
     <use style="fill:#0000ff;stroke:#0000ff;" x="398.487273" xlink:href="#maa51bb82ea" y="202.219075"/>
    </g>
   </g>
   <g id="PathCollection_15">
    <g clip-path="url(#pc27892616e)">
     <use style="fill:#0000ff;stroke:#0000ff;" x="73.832727" xlink:href="#maa51bb82ea" y="238.973384"/>
     <use style="fill:#0000ff;stroke:#0000ff;" x="120.211948" xlink:href="#maa51bb82ea" y="247.535249"/>
     <use style="fill:#0000ff;stroke:#0000ff;" x="166.591169" xlink:href="#maa51bb82ea" y="227.326163"/>
     <use style="fill:#0000ff;stroke:#0000ff;" x="212.97039" xlink:href="#maa51bb82ea" y="192.65447"/>
     <use style="fill:#0000ff;stroke:#0000ff;" x="259.34961" xlink:href="#maa51bb82ea" y="184.555409"/>
     <use style="fill:#0000ff;stroke:#0000ff;" x="305.728831" xlink:href="#maa51bb82ea" y="210.163868"/>
     <use style="fill:#0000ff;stroke:#0000ff;" x="352.108052" xlink:href="#maa51bb82ea" y="227.441864"/>
     <use style="fill:#0000ff;stroke:#0000ff;" x="398.487273" xlink:href="#maa51bb82ea" y="232.1856"/>
    </g>
   </g>
   <g id="PolyCollection_1">
    <path clip-path="url(#pc27892616e)" d="M 73.832727 321.097887 
L 73.832727 337.741051 
L 77.112066 329.997631 
L 80.391405 321.704086 
L 83.670744 312.906913 
L 86.950083 303.669108 
L 90.229421 294.070572 
L 93.50876 284.207791 
L 96.788099 274.192709 
L 100.067438 264.150769 
L 103.346777 254.218159 
L 106.626116 244.538312 
L 109.905455 235.257798 
L 113.184793 226.521725 
L 116.464132 218.46887 
L 119.743471 211.226709 
L 123.02281 204.906606 
L 126.302149 199.599376 
L 129.581488 195.371454 
L 132.860826 192.261883 
L 136.140165 190.280288 
L 139.419504 189.405981 
L 142.698843 189.588269 
L 145.978182 190.747998 
L 149.257521 192.780285 
L 152.53686 195.558343 
L 155.816198 198.938244 
L 159.095537 202.764406 
L 162.374876 206.875564 
L 165.654215 211.11094 
L 168.933554 215.316343 
L 172.212893 219.349898 
L 175.492231 223.087153 
L 178.77157 226.425325 
L 182.050909 229.286497 
L 185.330248 231.619632 
L 188.609587 233.40133 
L 191.888926 234.635291 
L 195.168264 235.350538 
L 198.447603 235.598495 
L 201.726942 235.44905 
L 205.006281 234.985835 
L 208.28562 234.300916 
L 211.564959 233.489199 
L 214.844298 232.642804 
L 218.123636 231.845701 
L 221.402975 231.168871 
L 224.682314 230.666234 
L 227.961653 230.371558 
L 231.240992 230.296482 
L 234.520331 230.42978 
L 237.799669 230.737886 
L 241.079008 231.166669 
L 244.358347 231.644371 
L 247.637686 232.085567 
L 250.917025 232.395958 
L 254.196364 232.477758 
L 257.475702 232.235417 
L 260.755041 231.581387 
L 264.03438 230.441656 
L 267.313719 228.760758 
L 270.593058 226.506021 
L 273.872397 223.670825 
L 277.151736 220.276699 
L 280.431074 216.37415 
L 283.710413 212.042156 
L 286.989752 207.386323 
L 290.269091 202.535786 
L 293.54843 197.63897 
L 296.827769 192.858392 
L 300.107107 188.364752 
L 303.386446 184.330559 
L 306.665785 180.923606 
L 309.945124 178.300585 
L 313.224463 176.601131 
L 316.503802 175.942579 
L 319.78314 176.415645 
L 323.062479 178.081231 
L 326.341818 180.968474 
L 329.621157 185.074084 
L 332.900496 190.362987 
L 336.179835 196.770187 
L 339.459174 204.203723 
L 342.738512 212.548557 
L 346.017851 221.671155 
L 349.29719 231.424556 
L 352.576529 241.653654 
L 355.855868 252.200459 
L 359.135207 262.909121 
L 362.414545 273.630489 
L 365.693884 284.226063 
L 368.973223 294.571191 
L 372.252562 304.557432 
L 375.531901 314.094045 
L 378.81124 323.108597 
L 382.090579 331.546748 
L 385.369917 339.371327 
L 388.649256 346.56086 
L 391.928595 353.107786 
L 395.207934 359.01657 
L 398.487273 364.301919 
L 398.487273 351.092636 
L 398.487273 351.092636 
L 395.207934 345.214406 
L 391.928595 338.557779 
L 388.649256 331.090895 
L 385.369917 322.797192 
L 382.090579 313.678328 
L 378.81124 303.756555 
L 375.531901 293.076472 
L 372.252562 281.706091 
L 368.973223 269.737192 
L 365.693884 257.284894 
L 362.414545 244.486378 
L 359.135207 231.498688 
L 355.855868 218.495597 
L 352.576529 205.663541 
L 349.29719 193.196704 
L 346.017851 181.291384 
L 342.738512 170.139829 
L 339.459174 159.923784 
L 336.179835 150.808017 
L 332.900496 142.934126 
L 329.621157 136.414933 
L 326.341818 131.32974 
L 323.062479 127.720735 
L 319.78314 125.590746 
L 316.503802 124.902508 
L 313.224463 125.579529 
L 309.945124 127.508565 
L 306.665785 130.543629 
L 303.386446 134.511387 
L 300.107107 139.21771 
L 296.827769 144.455109 
L 293.54843 150.010715 
L 290.269091 155.674435 
L 286.989752 161.246927 
L 283.710413 166.547017 
L 280.431074 171.418211 
L 277.151736 175.734021 
L 273.872397 179.401843 
L 270.593058 182.365234 
L 267.313719 184.604482 
L 264.03438 186.135465 
L 260.755041 187.006892 
L 257.475702 187.296053 
L 254.196364 187.10333 
L 250.917025 186.545748 
L 247.637686 185.749881 
L 244.358347 184.84448 
L 241.079008 183.953184 
L 237.799669 183.18766 
L 234.520331 182.641511 
L 231.240992 182.385246 
L 227.961653 182.462551 
L 224.682314 182.888028 
L 221.402975 183.646527 
L 218.123636 184.694074 
L 214.844298 185.960362 
L 211.564959 187.352678 
L 208.28562 188.761062 
L 205.006281 190.064452 
L 201.726942 191.137513 
L 198.447603 191.85781 
L 195.168264 192.112981 
L 191.888926 191.807547 
L 188.609587 190.869031 
L 185.330248 189.25306 
L 182.050909 186.947207 
L 178.77157 183.973357 
L 175.492231 180.388474 
L 172.212893 176.283706 
L 168.933554 171.78188 
L 165.654215 167.033482 
L 162.374876 162.211313 
L 159.095537 157.504081 
L 155.816198 153.109215 
L 152.53686 149.225251 
L 149.257521 146.044123 
L 145.978182 143.743732 
L 142.698843 142.48111 
L 139.419504 142.386498 
L 136.140165 143.55857 
L 132.860826 146.061015 
L 129.581488 149.920581 
L 126.302149 155.126645 
L 123.02281 161.632256 
L 119.743471 169.35657 
L 116.464132 178.188509 
L 113.184793 187.991407 
L 109.905455 198.608422 
L 106.626116 209.868402 
L 103.346777 221.591942 
L 100.067438 233.597359 
L 96.788099 245.706329 
L 93.50876 257.748983 
L 90.229421 269.568306 
L 86.950083 281.023716 
L 83.670744 291.993784 
L 80.391405 302.378084 
L 77.112066 312.098188 
L 73.832727 321.097887 
z
" style="fill:#1f77b4;fill-opacity:0.5;"/>
   </g>
   <g id="matplotlib.axis_1">
    <g id="xtick_1">
     <g id="line2d_1">
      <defs>
       <path d="M 0 0 
L 0 3.5 
" id="mdd8f42bc52" style="stroke:#000000;stroke-width:0.8;"/>
      </defs>
      <g>
       <use style="stroke:#000000;stroke-width:0.8;" x="120.211948" xlink:href="#mdd8f42bc52" y="307.584"/>
      </g>
     </g>
     <g id="text_1">
      <!-- 5 -->
      <g transform="translate(117.030698 322.182437)scale(0.1 -0.1)">
       <defs>
        <path d="M 10.796875 72.90625 
L 49.515625 72.90625 
L 49.515625 64.59375 
L 19.828125 64.59375 
L 19.828125 46.734375 
Q 21.96875 47.46875 24.109375 47.828125 
Q 26.265625 48.1875 28.421875 48.1875 
Q 40.625 48.1875 47.75 41.5 
Q 54.890625 34.8125 54.890625 23.390625 
Q 54.890625 11.625 47.5625 5.09375 
Q 40.234375 -1.421875 26.90625 -1.421875 
Q 22.3125 -1.421875 17.546875 -0.640625 
Q 12.796875 0.140625 7.71875 1.703125 
L 7.71875 11.625 
Q 12.109375 9.234375 16.796875 8.0625 
Q 21.484375 6.890625 26.703125 6.890625 
Q 35.15625 6.890625 40.078125 11.328125 
Q 45.015625 15.765625 45.015625 23.390625 
Q 45.015625 31 40.078125 35.4375 
Q 35.15625 39.890625 26.703125 39.890625 
Q 22.75 39.890625 18.8125 39.015625 
Q 14.890625 38.140625 10.796875 36.28125 
z
" id="DejaVuSans-53"/>
       </defs>
       <use xlink:href="#DejaVuSans-53"/>
      </g>
     </g>
    </g>
    <g id="xtick_2">
     <g id="line2d_2">
      <g>
       <use style="stroke:#000000;stroke-width:0.8;" x="197.510649" xlink:href="#mdd8f42bc52" y="307.584"/>
      </g>
     </g>
     <g id="text_2">
      <!-- 10 -->
      <g transform="translate(191.148149 322.182437)scale(0.1 -0.1)">
       <defs>
        <path d="M 12.40625 8.296875 
L 28.515625 8.296875 
L 28.515625 63.921875 
L 10.984375 60.40625 
L 10.984375 69.390625 
L 28.421875 72.90625 
L 38.28125 72.90625 
L 38.28125 8.296875 
L 54.390625 8.296875 
L 54.390625 0 
L 12.40625 0 
z
" id="DejaVuSans-49"/>
        <path d="M 31.78125 66.40625 
Q 24.171875 66.40625 20.328125 58.90625 
Q 16.5 51.421875 16.5 36.375 
Q 16.5 21.390625 20.328125 13.890625 
Q 24.171875 6.390625 31.78125 6.390625 
Q 39.453125 6.390625 43.28125 13.890625 
Q 47.125 21.390625 47.125 36.375 
Q 47.125 51.421875 43.28125 58.90625 
Q 39.453125 66.40625 31.78125 66.40625 
z
M 31.78125 74.21875 
Q 44.046875 74.21875 50.515625 64.515625 
Q 56.984375 54.828125 56.984375 36.375 
Q 56.984375 17.96875 50.515625 8.265625 
Q 44.046875 -1.421875 31.78125 -1.421875 
Q 19.53125 -1.421875 13.0625 8.265625 
Q 6.59375 17.96875 6.59375 36.375 
Q 6.59375 54.828125 13.0625 64.515625 
Q 19.53125 74.21875 31.78125 74.21875 
z
" id="DejaVuSans-48"/>
       </defs>
       <use xlink:href="#DejaVuSans-49"/>
       <use x="63.623047" xlink:href="#DejaVuSans-48"/>
      </g>
     </g>
    </g>
    <g id="xtick_3">
     <g id="line2d_3">
      <g>
       <use style="stroke:#000000;stroke-width:0.8;" x="274.809351" xlink:href="#mdd8f42bc52" y="307.584"/>
      </g>
     </g>
     <g id="text_3">
      <!-- 15 -->
      <g transform="translate(268.446851 322.182437)scale(0.1 -0.1)">
       <use xlink:href="#DejaVuSans-49"/>
       <use x="63.623047" xlink:href="#DejaVuSans-53"/>
      </g>
     </g>
    </g>
    <g id="xtick_4">
     <g id="line2d_4">
      <g>
       <use style="stroke:#000000;stroke-width:0.8;" x="352.108052" xlink:href="#mdd8f42bc52" y="307.584"/>
      </g>
     </g>
     <g id="text_4">
      <!-- 20 -->
      <g transform="translate(345.745552 322.182437)scale(0.1 -0.1)">
       <defs>
        <path d="M 19.1875 8.296875 
L 53.609375 8.296875 
L 53.609375 0 
L 7.328125 0 
L 7.328125 8.296875 
Q 12.9375 14.109375 22.625 23.890625 
Q 32.328125 33.6875 34.8125 36.53125 
Q 39.546875 41.84375 41.421875 45.53125 
Q 43.3125 49.21875 43.3125 52.78125 
Q 43.3125 58.59375 39.234375 62.25 
Q 35.15625 65.921875 28.609375 65.921875 
Q 23.96875 65.921875 18.8125 64.3125 
Q 13.671875 62.703125 7.8125 59.421875 
L 7.8125 69.390625 
Q 13.765625 71.78125 18.9375 73 
Q 24.125 74.21875 28.421875 74.21875 
Q 39.75 74.21875 46.484375 68.546875 
Q 53.21875 62.890625 53.21875 53.421875 
Q 53.21875 48.921875 51.53125 44.890625 
Q 49.859375 40.875 45.40625 35.40625 
Q 44.1875 33.984375 37.640625 27.21875 
Q 31.109375 20.453125 19.1875 8.296875 
z
" id="DejaVuSans-50"/>
       </defs>
       <use xlink:href="#DejaVuSans-50"/>
       <use x="63.623047" xlink:href="#DejaVuSans-48"/>
      </g>
     </g>
    </g>
   </g>
   <g id="matplotlib.axis_2">
    <g id="ytick_1">
     <g id="line2d_5">
      <defs>
       <path d="M 0 0 
L -3.5 0 
" id="mf8cbd446bd" style="stroke:#000000;stroke-width:0.8;"/>
      </defs>
      <g>
       <use style="stroke:#000000;stroke-width:0.8;" x="57.6" xlink:href="#mf8cbd446bd" y="272.873739"/>
      </g>
     </g>
     <g id="text_5">
      <!-- 10 -->
      <g transform="translate(37.875 276.672958)scale(0.1 -0.1)">
       <use xlink:href="#DejaVuSans-49"/>
       <use x="63.623047" xlink:href="#DejaVuSans-48"/>
      </g>
     </g>
    </g>
    <g id="ytick_2">
     <g id="line2d_6">
      <g>
       <use style="stroke:#000000;stroke-width:0.8;" x="57.6" xlink:href="#mf8cbd446bd" y="215.023304"/>
      </g>
     </g>
     <g id="text_6">
      <!-- 15 -->
      <g transform="translate(37.875 218.822523)scale(0.1 -0.1)">
       <use xlink:href="#DejaVuSans-49"/>
       <use x="63.623047" xlink:href="#DejaVuSans-53"/>
      </g>
     </g>
    </g>
    <g id="ytick_3">
     <g id="line2d_7">
      <g>
       <use style="stroke:#000000;stroke-width:0.8;" x="57.6" xlink:href="#mf8cbd446bd" y="157.17287"/>
      </g>
     </g>
     <g id="text_7">
      <!-- 20 -->
      <g transform="translate(37.875 160.972088)scale(0.1 -0.1)">
       <use xlink:href="#DejaVuSans-50"/>
       <use x="63.623047" xlink:href="#DejaVuSans-48"/>
      </g>
     </g>
    </g>
    <g id="ytick_4">
     <g id="line2d_8">
      <g>
       <use style="stroke:#000000;stroke-width:0.8;" x="57.6" xlink:href="#mf8cbd446bd" y="99.322435"/>
      </g>
     </g>
     <g id="text_8">
      <!-- 25 -->
      <g transform="translate(37.875 103.121654)scale(0.1 -0.1)">
       <use xlink:href="#DejaVuSans-50"/>
       <use x="63.623047" xlink:href="#DejaVuSans-53"/>
      </g>
     </g>
    </g>
    <g id="ytick_5">
     <g id="line2d_9">
      <g>
       <use style="stroke:#000000;stroke-width:0.8;" x="57.6" xlink:href="#mf8cbd446bd" y="41.472"/>
      </g>
     </g>
     <g id="text_9">
      <!-- 30 -->
      <g transform="translate(37.875 45.271219)scale(0.1 -0.1)">
       <defs>
        <path d="M 40.578125 39.3125 
Q 47.65625 37.796875 51.625 33 
Q 55.609375 28.21875 55.609375 21.1875 
Q 55.609375 10.40625 48.1875 4.484375 
Q 40.765625 -1.421875 27.09375 -1.421875 
Q 22.515625 -1.421875 17.65625 -0.515625 
Q 12.796875 0.390625 7.625 2.203125 
L 7.625 11.71875 
Q 11.71875 9.328125 16.59375 8.109375 
Q 21.484375 6.890625 26.8125 6.890625 
Q 36.078125 6.890625 40.9375 10.546875 
Q 45.796875 14.203125 45.796875 21.1875 
Q 45.796875 27.640625 41.28125 31.265625 
Q 36.765625 34.90625 28.71875 34.90625 
L 20.21875 34.90625 
L 20.21875 43.015625 
L 29.109375 43.015625 
Q 36.375 43.015625 40.234375 45.921875 
Q 44.09375 48.828125 44.09375 54.296875 
Q 44.09375 59.90625 40.109375 62.90625 
Q 36.140625 65.921875 28.71875 65.921875 
Q 24.65625 65.921875 20.015625 65.03125 
Q 15.375 64.15625 9.8125 62.3125 
L 9.8125 71.09375 
Q 15.4375 72.65625 20.34375 73.4375 
Q 25.25 74.21875 29.59375 74.21875 
Q 40.828125 74.21875 47.359375 69.109375 
Q 53.90625 64.015625 53.90625 55.328125 
Q 53.90625 49.265625 50.4375 45.09375 
Q 46.96875 40.921875 40.578125 39.3125 
z
" id="DejaVuSans-51"/>
       </defs>
       <use xlink:href="#DejaVuSans-51"/>
       <use x="63.623047" xlink:href="#DejaVuSans-48"/>
      </g>
     </g>
    </g>
   </g>
   <g id="line2d_10">
    <path clip-path="url(#pc27892616e)" d="M 73.832727 329.419469 
L 77.112066 321.04791 
L 80.391405 312.041085 
L 83.670744 302.450349 
L 86.950083 292.346412 
L 90.229421 281.819439 
L 93.50876 270.978387 
L 96.788099 259.949519 
L 100.067438 248.874064 
L 103.346777 237.90505 
L 106.626116 227.203357 
L 109.905455 216.93311 
L 113.184793 207.256566 
L 116.464132 198.32869 
L 119.743471 190.29164 
L 123.02281 183.269431 
L 126.302149 177.36301 
L 129.581488 172.646018 
L 132.860826 169.161449 
L 136.140165 166.919429 
L 139.419504 165.896239 
L 142.698843 166.03469 
L 145.978182 167.245865 
L 149.257521 169.412204 
L 152.53686 172.391797 
L 155.816198 176.02373 
L 159.095537 180.134244 
L 162.374876 184.543439 
L 165.654215 189.072211 
L 168.933554 193.549111 
L 172.212893 197.816802 
L 175.492231 201.737814 
L 178.77157 205.199341 
L 182.050909 208.116852 
L 185.330248 210.436346 
L 188.609587 212.135181 
L 191.888926 213.221419 
L 195.168264 213.73176 
L 198.447603 213.728152 
L 201.726942 213.293282 
L 205.006281 212.525144 
L 208.28562 211.530989 
L 211.564959 210.420938 
L 214.844298 209.301583 
L 218.123636 208.269887 
L 221.402975 207.407699 
L 224.682314 206.777131 
L 227.961653 206.417054 
L 231.240992 206.340864 
L 234.520331 206.535645 
L 237.799669 206.962773 
L 241.079008 207.559927 
L 244.358347 208.244425 
L 247.637686 208.917724 
L 250.917025 209.470853 
L 254.196364 209.790544 
L 257.475702 209.765735 
L 260.755041 209.29414 
L 264.03438 208.288561 
L 267.313719 206.68262 
L 270.593058 204.435628 
L 273.872397 201.536334 
L 277.151736 198.00536 
L 280.431074 193.89618 
L 283.710413 189.294586 
L 286.989752 184.316625 
L 290.269091 179.10511 
L 293.54843 173.824842 
L 296.827769 168.656751 
L 300.107107 163.791231 
L 303.386446 159.420973 
L 306.665785 155.733618 
L 309.945124 152.904575 
L 313.224463 151.09033 
L 316.503802 150.422544 
L 319.78314 151.003195 
L 323.062479 152.900983 
L 326.341818 156.149107 
L 329.621157 160.744508 
L 332.900496 166.648557 
L 336.179835 173.789102 
L 339.459174 182.063754 
L 342.738512 191.344193 
L 346.017851 201.48127 
L 349.29719 212.31063 
L 352.576529 223.658598 
L 355.855868 235.348028 
L 359.135207 247.203905 
L 362.414545 259.058434 
L 365.693884 270.755479 
L 368.973223 282.154191 
L 372.252562 293.131761 
L 375.531901 303.585259 
L 378.81124 313.432576 
L 382.090579 322.612538 
L 385.369917 331.084259 
L 388.649256 338.825878 
L 391.928595 345.832783 
L 392.329054 346.6 
" style="fill:none;stroke:#1f77b4;stroke-linecap:square;stroke-width:1.5;"/>
   </g>
   <g id="line2d_11">
    <path clip-path="url(#pc27892616e)" d="M 73.832727 328.330504 
L 77.112066 319.79942 
L 80.391405 310.618549 
L 83.670744 300.839179 
L 86.950083 290.53203 
L 90.229421 279.787285 
L 93.50876 268.713851 
L 96.788099 257.437761 
L 100.067438 246.099713 
L 103.346777 234.851742 
L 106.626116 223.853116 
L 109.905455 213.265546 
L 113.184793 203.247888 
L 116.464132 193.950547 
L 119.743471 185.509801 
L 123.02281 178.042331 
L 126.302149 171.640216 
L 129.581488 166.366662 
L 132.860826 162.252715 
L 136.140165 159.295156 
L 139.419504 157.45576 
L 142.698843 156.661991 
L 145.978182 156.809181 
L 149.257521 157.764151 
L 152.53686 159.370132 
L 155.816198 161.452827 
L 159.095537 163.82734 
L 162.374876 166.305685 
L 165.654215 168.704524 
L 168.933554 170.852786 
L 172.212893 172.598808 
L 175.492231 173.816643 
L 178.77157 174.411245 
L 182.050909 174.322261 
L 185.330248 173.526235 
L 188.609587 172.03712 
L 191.888926 169.90504 
L 195.168264 167.213357 
L 198.447603 164.074177 
L 201.726942 160.62249 
L 205.006281 157.009226 
L 208.28562 153.393546 
L 211.564959 149.934757 
L 214.844298 146.784213 
L 218.123636 144.077624 
L 221.402975 141.92813 
L 224.682314 140.420498 
L 227.961653 139.606714 
L 231.240992 139.503217 
L 234.520331 140.08989 
L 237.799669 141.310894 
L 241.079008 143.077294 
L 244.358347 145.271366 
L 247.637686 147.752384 
L 250.917025 150.363603 
L 254.196364 152.940117 
L 257.475702 155.317197 
L 260.755041 157.338728 
L 264.03438 158.865316 
L 267.313719 159.78169 
L 270.593058 160.003035 
L 273.872397 159.479943 
L 277.151736 158.201762 
L 280.431074 156.198152 
L 283.710413 153.538801 
L 286.989752 150.331293 
L 290.269091 146.717246 
L 293.54843 142.866881 
L 296.827769 138.972314 
L 300.107107 135.239853 
L 303.386446 131.88169 
L 306.665785 129.107359 
L 309.945124 127.115364 
L 313.224463 126.085352 
L 316.503802 126.171177 
L 319.78314 127.495148 
L 323.062479 130.143702 
L 326.341818 134.164642 
L 329.621157 139.566024 
L 332.900496 146.316683 
L 336.179835 154.348298 
L 339.459174 163.55886 
L 342.738512 173.817284 
L 346.017851 184.968943 
L 349.29719 196.84179 
L 352.576529 209.252783 
L 355.855868 222.014312 
L 359.135207 234.940336 
L 362.414545 247.851999 
L 365.693884 260.58252 
L 368.973223 272.981215 
L 372.252562 284.916553 
L 375.531901 296.278226 
L 378.81124 306.978233 
L 382.090579 316.95105 
L 385.369917 326.152982 
L 388.649256 334.560823 
L 391.928595 342.169971 
L 394.058058 346.6 
" style="fill:none;stroke:#ff7f0e;stroke-linecap:square;stroke-width:1.5;"/>
   </g>
   <g id="line2d_12">
    <path clip-path="url(#pc27892616e)" d="M 73.832727 336.071466 
L 77.112066 328.636279 
L 80.391405 320.634647 
L 83.670744 312.111214 
L 86.950083 303.127542 
L 90.229421 293.762141 
L 93.50876 284.109812 
L 96.788099 274.280258 
L 100.067438 264.39593 
L 103.346777 254.589124 
L 106.626116 244.998398 
L 109.905455 235.764392 
L 113.184793 227.025211 
L 116.464132 218.911535 
L 119.743471 211.541675 
L 123.02281 205.016806 
L 126.302149 199.416601 
L 129.581488 194.795511 
L 132.860826 191.17991 
L 136.140165 188.566268 
L 139.419504 186.920514 
L 142.698843 186.178665 
L 145.978182 186.248742 
L 149.257521 187.013952 
L 152.53686 188.337003 
L 155.816198 190.065426 
L 159.095537 192.03764 
L 162.374876 194.089535 
L 165.654215 196.061251 
L 168.933554 197.803848 
L 172.212893 199.185556 
L 175.492231 200.097297 
L 178.77157 200.457211 
L 182.050909 200.213969 
L 185.330248 199.348677 
L 188.609587 197.875304 
L 191.888926 195.839561 
L 195.168264 193.316302 
L 198.447603 190.405536 
L 201.726942 187.22725 
L 205.006281 183.915272 
L 208.28562 180.610469 
L 211.564959 177.453603 
L 214.844298 174.578192 
L 218.123636 172.103725 
L 221.402975 170.129558 
L 224.682314 168.729801 
L 227.961653 167.949446 
L 231.240992 167.801944 
L 234.520331 168.268343 
L 237.799669 169.298049 
L 241.079008 170.811185 
L 244.358347 172.702429 
L 247.637686 174.846165 
L 250.917025 177.102698 
L 254.196364 179.325237 
L 257.475702 181.367305 
L 260.755041 183.090231 
L 264.03438 184.370351 
L 267.313719 185.105582 
L 270.593058 185.221034 
L 273.872397 184.673408 
L 277.151736 183.453952 
L 280.431074 181.589835 
L 283.710413 179.143874 
L 286.989752 176.212624 
L 290.269091 172.922921 
L 293.54843 169.427038 
L 296.827769 165.89669 
L 300.107107 162.516172 
L 303.386446 159.474941 
L 306.665785 156.960007 
L 309.945124 155.148463 
L 313.224463 154.20051 
L 316.503802 154.253273 
L 319.78314 155.415678 
L 323.062479 157.764596 
L 326.341818 161.342384 
L 329.621157 166.155905 
L 332.900496 172.176994 
L 336.179835 179.344319 
L 339.459174 187.566472 
L 342.738512 196.726098 
L 346.017851 206.684836 
L 349.29719 217.288788 
L 352.576529 228.374261 
L 355.855868 239.773501 
L 359.135207 251.32018 
L 362.414545 262.854409 
L 365.693884 274.227103 
L 368.973223 285.303571 
L 372.252562 295.966252 
L 375.531901 306.116551 
L 378.81124 315.675814 
L 382.090579 324.585473 
L 385.369917 332.806471 
L 388.649256 340.318061 
L 391.679623 346.6 
" style="fill:none;stroke:#2ca02c;stroke-linecap:square;stroke-width:1.5;"/>
   </g>
   <g id="line2d_13">
    <path clip-path="url(#pc27892616e)" d="M 73.832727 341.210715 
L 77.112066 334.503401 
L 80.391405 327.28513 
L 83.670744 319.596195 
L 86.950083 311.492149 
L 90.229421 303.043843 
L 93.50876 294.33683 
L 96.788099 285.470113 
L 100.067438 276.554205 
L 103.346777 267.708511 
L 106.626116 259.058096 
L 109.905455 250.729918 
L 113.184793 242.848658 
L 116.464132 235.53232 
L 119.743471 228.887763 
L 123.02281 223.006407 
L 126.302149 217.960288 
L 129.581488 213.798709 
L 132.860826 210.545656 
L 136.140165 208.198151 
L 139.419504 206.725674 
L 142.698843 206.070722 
L 145.978182 206.150535 
L 149.257521 206.859957 
L 152.53686 208.075323 
L 155.816198 209.659244 
L 159.095537 211.466077 
L 162.374876 213.347848 
L 165.654215 215.160356 
L 168.933554 216.769183 
L 172.212893 218.055323 
L 175.492231 218.920155 
L 178.77157 219.289525 
L 182.050909 219.116724 
L 185.330248 218.384219 
L 188.609587 217.104032 
L 191.888926 215.316745 
L 195.168264 213.089165 
L 198.447603 210.510739 
L 201.726942 207.688909 
L 205.006281 204.74359 
L 208.28562 201.801063 
L 211.564959 198.987548 
L 214.844298 196.422793 
L 218.123636 194.213975 
L 221.402975 192.450209 
L 224.682314 191.197959 
L 227.961653 190.497558 
L 231.240992 190.361026 
L 234.520331 190.771298 
L 237.799669 191.682916 
L 241.079008 193.024138 
L 244.358347 194.700399 
L 247.637686 196.598943 
L 250.917025 198.594402 
L 254.196364 200.555081 
L 257.475702 202.34962 
L 260.755041 203.853727 
L 264.03438 204.956653 
L 267.313719 205.567098 
L 270.593058 205.618261 
L 273.872397 205.071784 
L 277.151736 203.920408 
L 280.431074 202.189206 
L 283.710413 199.935325 
L 286.989752 197.246264 
L 290.269091 194.236752 
L 293.54843 191.044382 
L 296.827769 187.824209 
L 300.107107 184.742562 
L 303.386446 181.970366 
L 306.665785 179.676277 
L 309.945124 178.01996 
L 313.224463 177.145802 
L 316.503802 177.17734 
L 319.78314 178.21265 
L 323.062479 180.32087 
L 326.341818 183.539995 
L 329.621157 187.875993 
L 332.900496 193.303231 
L 336.179835 199.76616 
L 339.459174 207.182101 
L 342.738512 215.444982 
L 346.017851 224.429785 
L 349.29719 233.997493 
L 352.576529 244.000263 
L 355.855868 254.286608 
L 359.135207 264.706336 
L 362.414545 275.115084 
L 365.693884 285.378249 
L 368.973223 295.37423 
L 372.252562 304.996892 
L 375.531901 314.157225 
L 378.81124 322.784222 
L 382.090579 330.825009 
L 385.369917 338.244322 
L 388.649256 345.023426 
L 389.491958 346.6 
" style="fill:none;stroke:#d62728;stroke-linecap:square;stroke-width:1.5;"/>
   </g>
   <g id="line2d_14">
    <path clip-path="url(#pc27892616e)" d="M 73.832727 330.653621 
L 77.112066 322.451685 
L 80.391405 313.62511 
L 83.670744 304.223241 
L 86.950083 294.31411 
L 90.229421 283.984477 
L 93.50876 273.339115 
L 96.788099 262.49928 
L 100.067438 251.600345 
L 103.346777 240.788607 
L 106.626116 230.217339 
L 109.905455 220.042191 
L 113.184793 210.416102 
L 116.464132 201.483915 
L 119.743471 193.376928 
L 123.02281 186.207632 
L 126.302149 180.064903 
L 129.581488 175.009889 
L 132.860826 171.072847 
L 136.140165 168.251121 
L 139.419504 166.508408 
L 142.698843 165.775426 
L 145.978182 165.951995 
L 149.257521 166.910492 
L 152.53686 168.500576 
L 155.816198 170.554988 
L 159.095537 172.896191 
L 162.374876 175.343564 
L 165.654215 177.720819 
L 168.933554 179.863304 
L 172.212893 181.624839 
L 175.492231 182.883767 
L 178.77157 183.547925 
L 182.050909 183.55827 
L 185.330248 182.891005 
L 188.609587 181.55806 
L 191.888926 179.60592 
L 195.168264 177.112815 
L 198.447603 174.184425 
L 201.726942 170.948273 
L 205.006281 167.547083 
L 208.28562 164.131412 
L 211.564959 160.851915 
L 214.844298 157.851609 
L 218.123636 155.258519 
L 221.402975 153.179077 
L 224.682314 151.692577 
L 227.961653 150.846993 
L 231.240992 150.656352 
L 234.520331 151.099816 
L 237.799669 152.122513 
L 241.079008 153.638103 
L 244.358347 155.532956 
L 247.637686 157.671746 
L 250.917025 159.904199 
L 254.196364 162.072676 
L 257.475702 164.020221 
L 260.755041 165.598691 
L 264.03438 166.676572 
L 267.313719 167.146105 
L 270.593058 166.929369 
L 273.872397 165.983034 
L 277.151736 164.301545 
L 280.431074 161.918575 
L 283.710413 158.90668 
L 286.989752 155.37517 
L 290.269091 151.466279 
L 293.54843 147.349828 
L 296.827769 143.21663 
L 300.107107 139.270936 
L 303.386446 135.72229 
L 306.665785 132.777159 
L 309.945124 130.630739 
L 313.224463 129.45929 
L 316.503802 129.413353 
L 319.78314 130.612137 
L 323.062479 133.139296 
L 326.341818 137.040251 
L 329.621157 142.321141 
L 332.900496 148.949369 
L 336.179835 156.855682 
L 339.459174 165.937609 
L 342.738512 176.064048 
L 346.017851 187.080738 
L 349.29719 198.816319 
L 352.576529 211.088687 
L 355.855868 223.711346 
L 359.135207 236.499474 
L 362.414545 249.275465 
L 365.693884 261.873763 
L 368.973223 274.14483 
L 372.252562 285.958159 
L 375.531901 297.204311 
L 378.81124 307.795979 
L 382.090579 317.66815 
L 385.369917 326.777453 
L 388.649256 335.100829 
L 391.928595 342.633658 
L 393.854461 346.6 
" style="fill:none;stroke:#9467bd;stroke-linecap:square;stroke-width:1.5;"/>
   </g>
   <g id="line2d_15">
    <path clip-path="url(#pc27892616e)" d="M 73.832727 332.0188 
L 77.112066 324.009906 
L 80.391405 315.390953 
L 83.670744 306.210069 
L 86.950083 296.53362 
L 90.229421 286.446236 
L 93.50876 276.050116 
L 96.788099 265.46353 
L 100.067438 254.8185 
L 103.346777 244.257682 
L 106.626116 233.930504 
L 109.905455 223.988673 
L 113.184793 214.581198 
L 116.464132 205.849132 
L 119.743471 197.920248 
L 123.02281 190.903899 
L 126.302149 184.886321 
L 129.581488 179.926626 
L 132.860826 176.053712 
L 136.140165 173.264302 
L 139.419504 171.522238 
L 142.698843 170.759154 
L 145.978182 170.87652 
L 149.257521 171.749053 
L 152.53686 173.229348 
L 155.816198 175.153583 
L 159.095537 177.34803 
L 162.374876 179.636126 
L 165.654215 181.845743 
L 168.933554 183.816359 
L 172.212893 185.405766 
L 175.492231 186.496011 
L 178.77157 186.998258 
L 182.050909 186.856361 
L 185.330248 186.048927 
L 188.609587 184.589791 
L 191.888926 182.526844 
L 195.168264 179.939268 
L 198.447603 176.933294 
L 201.726942 173.636682 
L 205.006281 170.192169 
L 208.28562 166.750213 
L 211.564959 163.461363 
L 214.844298 160.468636 
L 218.123636 157.90026 
L 221.402975 155.863154 
L 224.682314 154.437449 
L 227.961653 153.672342 
L 231.240992 153.583479 
L 234.520331 154.152007 
L 237.799669 155.325353 
L 241.079008 157.019696 
L 244.358347 159.124026 
L 247.637686 161.505583 
L 250.917025 164.016445 
L 254.196364 166.500917 
L 257.475702 168.803389 
L 260.755041 170.776283 
L 264.03438 172.287686 
L 267.313719 173.228325 
L 270.593058 173.517533 
L 273.872397 173.107919 
L 277.151736 171.988525 
L 280.431074 170.186305 
L 283.710413 167.765863 
L 286.989752 164.827467 
L 290.269091 161.50342 
L 293.54843 157.952971 
L 296.827769 154.356018 
L 300.107107 150.905872 
L 303.386446 147.801463 
L 306.665785 145.239311 
L 309.945124 143.405675 
L 313.224463 142.469188 
L 316.503802 142.574352 
L 319.78314 143.836131 
L 323.062479 146.335883 
L 326.341818 150.118759 
L 329.621157 155.192656 
L 332.900496 161.528699 
L 336.179835 169.063176 
L 339.459174 177.700778 
L 342.738512 187.318925 
L 346.017851 197.772947 
L 349.29719 208.901824 
L 352.576529 220.534208 
L 355.855868 232.494442 
L 359.135207 244.60832 
L 362.414545 256.708348 
L 365.693884 268.638328 
L 368.973223 280.257131 
L 372.252562 291.441563 
L 375.531901 302.088304 
L 378.81124 312.114928 
L 382.090579 321.460064 
L 385.369917 330.082788 
L 388.649256 337.961372 
L 391.928595 345.091518 
L 392.70242 346.6 
" style="fill:none;stroke:#8c564b;stroke-linecap:square;stroke-width:1.5;"/>
   </g>
   <g id="patch_3">
    <path d="M 57.6 307.584 
L 57.6 41.472 
" style="fill:none;stroke:#000000;stroke-linecap:square;stroke-linejoin:miter;stroke-width:0.8;"/>
   </g>
   <g id="patch_4">
    <path d="M 414.72 307.584 
L 414.72 41.472 
" style="fill:none;stroke:#000000;stroke-linecap:square;stroke-linejoin:miter;stroke-width:0.8;"/>
   </g>
   <g id="patch_5">
    <path d="M 57.6 307.584 
L 414.72 307.584 
" style="fill:none;stroke:#000000;stroke-linecap:square;stroke-linejoin:miter;stroke-width:0.8;"/>
   </g>
   <g id="patch_6">
    <path d="M 57.6 41.472 
L 414.72 41.472 
" style="fill:none;stroke:#000000;stroke-linecap:square;stroke-linejoin:miter;stroke-width:0.8;"/>
   </g>
  </g>
 </g>
 <defs>
  <clipPath id="pc27892616e">
   <rect height="266.112" width="357.12" x="57.6" y="41.472"/>
  </clipPath>
 </defs>
</svg>
