<?xml version="1.0" encoding="utf-8" standalone="no"?>
<!DOCTYPE svg PUBLIC "-//W3C//DTD SVG 1.1//EN"
  "http://www.w3.org/Graphics/SVG/1.1/DTD/svg11.dtd">
<!-- Created with matplotlib (https://matplotlib.org/) -->
<svg height="345.6pt" version="1.1" viewBox="0 0 460.8 345.6" width="460.8pt" xmlns="http://www.w3.org/2000/svg" xmlns:xlink="http://www.w3.org/1999/xlink">
 <metadata>
  <rdf:RDF xmlns:cc="http://creativecommons.org/ns#" xmlns:dc="http://purl.org/dc/elements/1.1/" xmlns:rdf="http://www.w3.org/1999/02/22-rdf-syntax-ns#">
   <cc:Work>
    <dc:type rdf:resource="http://purl.org/dc/dcmitype/StillImage"/>
    <dc:date>2021-11-24T17:23:00.161699</dc:date>
    <dc:format>image/svg+xml</dc:format>
    <dc:creator>
     <cc:Agent>
      <dc:title>Matplotlib v3.3.4, https://matplotlib.org/</dc:title>
     </cc:Agent>
    </dc:creator>
   </cc:Work>
  </rdf:RDF>
 </metadata>
 <defs>
  <style type="text/css">*{stroke-linecap:butt;stroke-linejoin:round;}</style>
 </defs>
 <g id="figure_1">
  <g id="patch_1">
   <path d="M 0 345.6 
L 460.8 345.6 
L 460.8 0 
L 0 0 
z
" style="fill:#ffffff;"/>
  </g>
  <g id="axes_1">
   <g id="patch_2">
    <path d="M 57.6 307.584 
L 414.72 307.584 
L 414.72 41.472 
L 57.6 41.472 
z
" style="fill:#ffffff;"/>
   </g>
   <g id="PathCollection_1">
    <defs>
     <path d="M 0 0.5 
C 0.132602 0.5 0.25979 0.447317 0.353553 0.353553 
C 0.447317 0.25979 0.5 0.132602 0.5 0 
C 0.5 -0.132602 0.447317 -0.25979 0.353553 -0.353553 
C 0.25979 -0.447317 0.132602 -0.5 0 -0.5 
C -0.132602 -0.5 -0.25979 -0.447317 -0.353553 -0.353553 
C -0.447317 -0.25979 -0.5 -0.132602 -0.5 0 
C -0.5 0.132602 -0.447317 0.25979 -0.353553 0.353553 
C -0.25979 0.447317 -0.132602 0.5 0 0.5 
z
" id="m01e5d418b5" style="stroke:#0000ff;"/>
    </defs>
    <g clip-path="url(#pffad41c8b7)">
     <use style="fill:#0000ff;stroke:#0000ff;" x="73.832727" xlink:href="#m01e5d418b5" y="238.973384"/>
     <use style="fill:#0000ff;stroke:#0000ff;" x="120.211948" xlink:href="#m01e5d418b5" y="247.535249"/>
     <use style="fill:#0000ff;stroke:#0000ff;" x="166.591169" xlink:href="#m01e5d418b5" y="227.326163"/>
     <use style="fill:#0000ff;stroke:#0000ff;" x="212.97039" xlink:href="#m01e5d418b5" y="192.65447"/>
     <use style="fill:#0000ff;stroke:#0000ff;" x="259.34961" xlink:href="#m01e5d418b5" y="184.555409"/>
     <use style="fill:#0000ff;stroke:#0000ff;" x="305.728831" xlink:href="#m01e5d418b5" y="210.163868"/>
     <use style="fill:#0000ff;stroke:#0000ff;" x="352.108052" xlink:href="#m01e5d418b5" y="227.441864"/>
     <use style="fill:#0000ff;stroke:#0000ff;" x="398.487273" xlink:href="#m01e5d418b5" y="232.1856"/>
    </g>
   </g>
   <g id="PathCollection_2">
    <g clip-path="url(#pffad41c8b7)">
     <use style="fill:#0000ff;stroke:#0000ff;" x="73.832727" xlink:href="#m01e5d418b5" y="227.094762"/>
     <use style="fill:#0000ff;stroke:#0000ff;" x="120.211948" xlink:href="#m01e5d418b5" y="233.034073"/>
     <use style="fill:#0000ff;stroke:#0000ff;" x="166.591169" xlink:href="#m01e5d418b5" y="209.199694"/>
     <use style="fill:#0000ff;stroke:#0000ff;" x="212.97039" xlink:href="#m01e5d418b5" y="174.219464"/>
     <use style="fill:#0000ff;stroke:#0000ff;" x="259.34961" xlink:href="#m01e5d418b5" y="166.197537"/>
     <use style="fill:#0000ff;stroke:#0000ff;" x="305.728831" xlink:href="#m01e5d418b5" y="199.326553"/>
     <use style="fill:#0000ff;stroke:#0000ff;" x="352.108052" xlink:href="#m01e5d418b5" y="218.687165"/>
     <use style="fill:#0000ff;stroke:#0000ff;" x="398.487273" xlink:href="#m01e5d418b5" y="223.508035"/>
    </g>
   </g>
   <g id="PathCollection_3">
    <g clip-path="url(#pffad41c8b7)">
     <use style="fill:#0000ff;stroke:#0000ff;" x="73.832727" xlink:href="#m01e5d418b5" y="219.612772"/>
     <use style="fill:#0000ff;stroke:#0000ff;" x="120.211948" xlink:href="#m01e5d418b5" y="226.169155"/>
     <use style="fill:#0000ff;stroke:#0000ff;" x="166.591169" xlink:href="#m01e5d418b5" y="202.450477"/>
     <use style="fill:#0000ff;stroke:#0000ff;" x="212.97039" xlink:href="#m01e5d418b5" y="168.395854"/>
     <use style="fill:#0000ff;stroke:#0000ff;" x="259.34961" xlink:href="#m01e5d418b5" y="158.908383"/>
     <use style="fill:#0000ff;stroke:#0000ff;" x="305.728831" xlink:href="#m01e5d418b5" y="189.569113"/>
     <use style="fill:#0000ff;stroke:#0000ff;" x="352.108052" xlink:href="#m01e5d418b5" y="206.96281"/>
     <use style="fill:#0000ff;stroke:#0000ff;" x="398.487273" xlink:href="#m01e5d418b5" y="214.869037"/>
    </g>
   </g>
   <g id="PathCollection_4">
    <g clip-path="url(#pffad41c8b7)">
     <use style="fill:#0000ff;stroke:#0000ff;" x="73.832727" xlink:href="#m01e5d418b5" y="235.926595"/>
     <use style="fill:#0000ff;stroke:#0000ff;" x="120.211948" xlink:href="#m01e5d418b5" y="244.21849"/>
     <use style="fill:#0000ff;stroke:#0000ff;" x="166.591169" xlink:href="#m01e5d418b5" y="220.114143"/>
     <use style="fill:#0000ff;stroke:#0000ff;" x="212.97039" xlink:href="#m01e5d418b5" y="186.676591"/>
     <use style="fill:#0000ff;stroke:#0000ff;" x="259.34961" xlink:href="#m01e5d418b5" y="180.004508"/>
     <use style="fill:#0000ff;stroke:#0000ff;" x="305.728831" xlink:href="#m01e5d418b5" y="208.004118"/>
     <use style="fill:#0000ff;stroke:#0000ff;" x="352.108052" xlink:href="#m01e5d418b5" y="224.047972"/>
     <use style="fill:#0000ff;stroke:#0000ff;" x="398.487273" xlink:href="#m01e5d418b5" y="230.758623"/>
    </g>
   </g>
   <g id="PathCollection_5">
    <g clip-path="url(#pffad41c8b7)">
     <use style="fill:#0000ff;stroke:#0000ff;" x="73.832727" xlink:href="#m01e5d418b5" y="180.698713"/>
     <use style="fill:#0000ff;stroke:#0000ff;" x="120.211948" xlink:href="#m01e5d418b5" y="189.800515"/>
     <use style="fill:#0000ff;stroke:#0000ff;" x="166.591169" xlink:href="#m01e5d418b5" y="161.299534"/>
     <use style="fill:#0000ff;stroke:#0000ff;" x="212.97039" xlink:href="#m01e5d418b5" y="118.64448"/>
     <use style="fill:#0000ff;stroke:#0000ff;" x="259.34961" xlink:href="#m01e5d418b5" y="105.416014"/>
     <use style="fill:#0000ff;stroke:#0000ff;" x="305.728831" xlink:href="#m01e5d418b5" y="147.993934"/>
     <use style="fill:#0000ff;stroke:#0000ff;" x="352.108052" xlink:href="#m01e5d418b5" y="166.390372"/>
     <use style="fill:#0000ff;stroke:#0000ff;" x="398.487273" xlink:href="#m01e5d418b5" y="172.75392"/>
    </g>
   </g>
   <g id="PathCollection_6">
    <g clip-path="url(#pffad41c8b7)">
     <use style="fill:#0000ff;stroke:#0000ff;" x="73.832727" xlink:href="#m01e5d418b5" y="265.546017"/>
     <use style="fill:#0000ff;stroke:#0000ff;" x="120.211948" xlink:href="#m01e5d418b5" y="269.171311"/>
     <use style="fill:#0000ff;stroke:#0000ff;" x="166.591169" xlink:href="#m01e5d418b5" y="246.416807"/>
     <use style="fill:#0000ff;stroke:#0000ff;" x="212.97039" xlink:href="#m01e5d418b5" y="219.38137"/>
     <use style="fill:#0000ff;stroke:#0000ff;" x="259.34961" xlink:href="#m01e5d418b5" y="212.979256"/>
     <use style="fill:#0000ff;stroke:#0000ff;" x="305.728831" xlink:href="#m01e5d418b5" y="236.042296"/>
     <use style="fill:#0000ff;stroke:#0000ff;" x="352.108052" xlink:href="#m01e5d418b5" y="253.011757"/>
     <use style="fill:#0000ff;stroke:#0000ff;" x="398.487273" xlink:href="#m01e5d418b5" y="261.265085"/>
    </g>
   </g>
   <g id="PathCollection_7">
    <g clip-path="url(#pffad41c8b7)">
     <use style="fill:#0000ff;stroke:#0000ff;" x="73.832727" xlink:href="#m01e5d418b5" y="210.780939"/>
     <use style="fill:#0000ff;stroke:#0000ff;" x="120.211948" xlink:href="#m01e5d418b5" y="216.064612"/>
     <use style="fill:#0000ff;stroke:#0000ff;" x="166.591169" xlink:href="#m01e5d418b5" y="197.08967"/>
     <use style="fill:#0000ff;stroke:#0000ff;" x="212.97039" xlink:href="#m01e5d418b5" y="162.148007"/>
     <use style="fill:#0000ff;stroke:#0000ff;" x="259.34961" xlink:href="#m01e5d418b5" y="159.641155"/>
     <use style="fill:#0000ff;stroke:#0000ff;" x="305.728831" xlink:href="#m01e5d418b5" y="188.296403"/>
     <use style="fill:#0000ff;stroke:#0000ff;" x="352.108052" xlink:href="#m01e5d418b5" y="201.756271"/>
     <use style="fill:#0000ff;stroke:#0000ff;" x="398.487273" xlink:href="#m01e5d418b5" y="209.12256"/>
    </g>
   </g>
   <g id="PathCollection_8">
    <g clip-path="url(#pffad41c8b7)">
     <use style="fill:#0000ff;stroke:#0000ff;" x="73.832727" xlink:href="#m01e5d418b5" y="207.078511"/>
     <use style="fill:#0000ff;stroke:#0000ff;" x="120.211948" xlink:href="#m01e5d418b5" y="211.822247"/>
     <use style="fill:#0000ff;stroke:#0000ff;" x="166.591169" xlink:href="#m01e5d418b5" y="191.728863"/>
     <use style="fill:#0000ff;stroke:#0000ff;" x="212.97039" xlink:href="#m01e5d418b5" y="158.869816"/>
     <use style="fill:#0000ff;stroke:#0000ff;" x="259.34961" xlink:href="#m01e5d418b5" y="147.53113"/>
     <use style="fill:#0000ff;stroke:#0000ff;" x="305.728831" xlink:href="#m01e5d418b5" y="177.420522"/>
     <use style="fill:#0000ff;stroke:#0000ff;" x="352.108052" xlink:href="#m01e5d418b5" y="193.001572"/>
     <use style="fill:#0000ff;stroke:#0000ff;" x="398.487273" xlink:href="#m01e5d418b5" y="201.833405"/>
    </g>
   </g>
   <g id="PathCollection_9">
    <g clip-path="url(#pffad41c8b7)">
     <use style="fill:#0000ff;stroke:#0000ff;" x="73.832727" xlink:href="#m01e5d418b5" y="237.199304"/>
     <use style="fill:#0000ff;stroke:#0000ff;" x="120.211948" xlink:href="#m01e5d418b5" y="245.066963"/>
     <use style="fill:#0000ff;stroke:#0000ff;" x="166.591169" xlink:href="#m01e5d418b5" y="223.430901"/>
     <use style="fill:#0000ff;stroke:#0000ff;" x="212.97039" xlink:href="#m01e5d418b5" y="194.621384"/>
     <use style="fill:#0000ff;stroke:#0000ff;" x="259.34961" xlink:href="#m01e5d418b5" y="187.640765"/>
     <use style="fill:#0000ff;stroke:#0000ff;" x="305.728831" xlink:href="#m01e5d418b5" y="212.207917"/>
     <use style="fill:#0000ff;stroke:#0000ff;" x="352.108052" xlink:href="#m01e5d418b5" y="225.667784"/>
     <use style="fill:#0000ff;stroke:#0000ff;" x="398.487273" xlink:href="#m01e5d418b5" y="230.720056"/>
    </g>
   </g>
   <g id="PathCollection_10">
    <g clip-path="url(#pffad41c8b7)">
     <use style="fill:#0000ff;stroke:#0000ff;" x="73.832727" xlink:href="#m01e5d418b5" y="219.38137"/>
     <use style="fill:#0000ff;stroke:#0000ff;" x="120.211948" xlink:href="#m01e5d418b5" y="225.629217"/>
     <use style="fill:#0000ff;stroke:#0000ff;" x="166.591169" xlink:href="#m01e5d418b5" y="208.042685"/>
     <use style="fill:#0000ff;stroke:#0000ff;" x="212.97039" xlink:href="#m01e5d418b5" y="183.436967"/>
     <use style="fill:#0000ff;stroke:#0000ff;" x="259.34961" xlink:href="#m01e5d418b5" y="173.795228"/>
     <use style="fill:#0000ff;stroke:#0000ff;" x="305.728831" xlink:href="#m01e5d418b5" y="195.161322"/>
     <use style="fill:#0000ff;stroke:#0000ff;" x="352.108052" xlink:href="#m01e5d418b5" y="206.422873"/>
     <use style="fill:#0000ff;stroke:#0000ff;" x="398.487273" xlink:href="#m01e5d418b5" y="214.714769"/>
    </g>
   </g>
   <g id="PathCollection_11">
    <g clip-path="url(#pffad41c8b7)">
     <use style="fill:#0000ff;stroke:#0000ff;" x="73.832727" xlink:href="#m01e5d418b5" y="223.585169"/>
     <use style="fill:#0000ff;stroke:#0000ff;" x="120.211948" xlink:href="#m01e5d418b5" y="233.805412"/>
     <use style="fill:#0000ff;stroke:#0000ff;" x="166.591169" xlink:href="#m01e5d418b5" y="209.739631"/>
     <use style="fill:#0000ff;stroke:#0000ff;" x="212.97039" xlink:href="#m01e5d418b5" y="173.756661"/>
     <use style="fill:#0000ff;stroke:#0000ff;" x="259.34961" xlink:href="#m01e5d418b5" y="163.729252"/>
     <use style="fill:#0000ff;stroke:#0000ff;" x="305.728831" xlink:href="#m01e5d418b5" y="193.580077"/>
     <use style="fill:#0000ff;stroke:#0000ff;" x="352.108052" xlink:href="#m01e5d418b5" y="208.042685"/>
     <use style="fill:#0000ff;stroke:#0000ff;" x="398.487273" xlink:href="#m01e5d418b5" y="214.560501"/>
    </g>
   </g>
   <g id="PathCollection_12">
    <g clip-path="url(#pffad41c8b7)">
     <use style="fill:#0000ff;stroke:#0000ff;" x="73.832727" xlink:href="#m01e5d418b5" y="233.149774"/>
     <use style="fill:#0000ff;stroke:#0000ff;" x="120.211948" xlink:href="#m01e5d418b5" y="239.28192"/>
     <use style="fill:#0000ff;stroke:#0000ff;" x="166.591169" xlink:href="#m01e5d418b5" y="212.28505"/>
     <use style="fill:#0000ff;stroke:#0000ff;" x="212.97039" xlink:href="#m01e5d418b5" y="178.808932"/>
     <use style="fill:#0000ff;stroke:#0000ff;" x="259.34961" xlink:href="#m01e5d418b5" y="172.985322"/>
     <use style="fill:#0000ff;stroke:#0000ff;" x="305.728831" xlink:href="#m01e5d418b5" y="204.957329"/>
     <use style="fill:#0000ff;stroke:#0000ff;" x="352.108052" xlink:href="#m01e5d418b5" y="222.312459"/>
     <use style="fill:#0000ff;stroke:#0000ff;" x="398.487273" xlink:href="#m01e5d418b5" y="230.180118"/>
    </g>
   </g>
   <g id="PathCollection_13">
    <g clip-path="url(#pffad41c8b7)">
     <use style="fill:#0000ff;stroke:#0000ff;" x="73.832727" xlink:href="#m01e5d418b5" y="228.676007"/>
     <use style="fill:#0000ff;stroke:#0000ff;" x="120.211948" xlink:href="#m01e5d418b5" y="233.304042"/>
     <use style="fill:#0000ff;stroke:#0000ff;" x="166.591169" xlink:href="#m01e5d418b5" y="215.871777"/>
     <use style="fill:#0000ff;stroke:#0000ff;" x="212.97039" xlink:href="#m01e5d418b5" y="184.902511"/>
     <use style="fill:#0000ff;stroke:#0000ff;" x="259.34961" xlink:href="#m01e5d418b5" y="177.150553"/>
     <use style="fill:#0000ff;stroke:#0000ff;" x="305.728831" xlink:href="#m01e5d418b5" y="202.450477"/>
     <use style="fill:#0000ff;stroke:#0000ff;" x="352.108052" xlink:href="#m01e5d418b5" y="216.103179"/>
     <use style="fill:#0000ff;stroke:#0000ff;" x="398.487273" xlink:href="#m01e5d418b5" y="224.58791"/>
    </g>
   </g>
   <g id="PathCollection_14">
    <g clip-path="url(#pffad41c8b7)">
     <use style="fill:#0000ff;stroke:#0000ff;" x="73.832727" xlink:href="#m01e5d418b5" y="210.472403"/>
     <use style="fill:#0000ff;stroke:#0000ff;" x="120.211948" xlink:href="#m01e5d418b5" y="219.882741"/>
     <use style="fill:#0000ff;stroke:#0000ff;" x="166.591169" xlink:href="#m01e5d418b5" y="196.549732"/>
     <use style="fill:#0000ff;stroke:#0000ff;" x="212.97039" xlink:href="#m01e5d418b5" y="160.181092"/>
     <use style="fill:#0000ff;stroke:#0000ff;" x="259.34961" xlink:href="#m01e5d418b5" y="146.991193"/>
     <use style="fill:#0000ff;stroke:#0000ff;" x="305.728831" xlink:href="#m01e5d418b5" y="178.037593"/>
     <use style="fill:#0000ff;stroke:#0000ff;" x="352.108052" xlink:href="#m01e5d418b5" y="195.084188"/>
     <use style="fill:#0000ff;stroke:#0000ff;" x="398.487273" xlink:href="#m01e5d418b5" y="202.219075"/>
    </g>
   </g>
   <g id="PathCollection_15">
    <g clip-path="url(#pffad41c8b7)">
     <use style="fill:#0000ff;stroke:#0000ff;" x="73.832727" xlink:href="#m01e5d418b5" y="238.973384"/>
     <use style="fill:#0000ff;stroke:#0000ff;" x="120.211948" xlink:href="#m01e5d418b5" y="247.535249"/>
     <use style="fill:#0000ff;stroke:#0000ff;" x="166.591169" xlink:href="#m01e5d418b5" y="227.326163"/>
     <use style="fill:#0000ff;stroke:#0000ff;" x="212.97039" xlink:href="#m01e5d418b5" y="192.65447"/>
     <use style="fill:#0000ff;stroke:#0000ff;" x="259.34961" xlink:href="#m01e5d418b5" y="184.555409"/>
     <use style="fill:#0000ff;stroke:#0000ff;" x="305.728831" xlink:href="#m01e5d418b5" y="210.163868"/>
     <use style="fill:#0000ff;stroke:#0000ff;" x="352.108052" xlink:href="#m01e5d418b5" y="227.441864"/>
     <use style="fill:#0000ff;stroke:#0000ff;" x="398.487273" xlink:href="#m01e5d418b5" y="232.1856"/>
    </g>
   </g>
   <g id="PolyCollection_1">
    <path clip-path="url(#pffad41c8b7)" d="M 73.832727 196.0693 
L 73.832727 234.275085 
L 77.112066 234.306522 
L 80.391405 234.317664 
L 83.670744 234.308924 
L 86.950083 234.280732 
L 90.229421 234.233533 
L 93.50876 234.167786 
L 96.788099 234.083968 
L 100.067438 233.982567 
L 103.346777 233.864088 
L 106.626116 233.729046 
L 109.905455 233.577972 
L 113.184793 233.411409 
L 116.464132 233.229911 
L 119.743471 233.034043 
L 123.02281 232.824382 
L 126.302149 232.601515 
L 129.581488 232.366038 
L 132.860826 232.118557 
L 136.140165 231.859686 
L 139.419504 231.590046 
L 142.698843 231.310269 
L 145.978182 231.02099 
L 149.257521 230.722853 
L 152.53686 230.416507 
L 155.816198 230.102607 
L 159.095537 229.781813 
L 162.374876 229.454791 
L 165.654215 229.122209 
L 168.933554 228.784741 
L 172.212893 228.443063 
L 175.492231 228.097857 
L 178.77157 227.749805 
L 182.050909 227.399594 
L 185.330248 227.047911 
L 188.609587 226.695447 
L 191.888926 226.342895 
L 195.168264 225.990948 
L 198.447603 225.640302 
L 201.726942 225.291653 
L 205.006281 224.9457 
L 208.28562 224.603141 
L 211.564959 224.264674 
L 214.844298 223.931 
L 218.123636 223.602819 
L 221.402975 223.280831 
L 224.682314 222.965737 
L 227.961653 222.658237 
L 231.240992 222.359032 
L 234.520331 222.068823 
L 237.799669 221.788311 
L 241.079008 221.518194 
L 244.358347 221.259175 
L 247.637686 221.011951 
L 250.917025 220.777223 
L 254.196364 220.555689 
L 257.475702 220.348049 
L 260.755041 220.155001 
L 264.03438 219.977243 
L 267.313719 219.815473 
L 270.593058 219.670389 
L 273.872397 219.542688 
L 277.151736 219.433069 
L 280.431074 219.342227 
L 283.710413 219.270861 
L 286.989752 219.219669 
L 290.269091 219.189347 
L 293.54843 219.180594 
L 296.827769 219.194109 
L 300.107107 219.23059 
L 303.386446 219.290738 
L 306.665785 219.375252 
L 309.945124 219.484835 
L 313.224463 219.620189 
L 316.503802 219.782019 
L 319.78314 219.971031 
L 323.062479 220.187932 
L 326.341818 220.433432 
L 329.621157 220.708244 
L 332.900496 221.013083 
L 336.179835 221.348666 
L 339.459174 221.715714 
L 342.738512 222.114954 
L 346.017851 222.547114 
L 349.29719 223.012927 
L 352.576529 223.513131 
L 355.855868 224.048472 
L 359.135207 224.619699 
L 362.414545 225.227569 
L 365.693884 225.872845 
L 368.973223 226.5563 
L 372.252562 227.278713 
L 375.531901 228.040874 
L 378.81124 228.843583 
L 382.090579 229.687652 
L 385.369917 230.573903 
L 388.649256 231.503174 
L 391.928595 232.476315 
L 395.207934 233.494194 
L 398.487273 234.557693 
L 398.487273 195.302957 
L 398.487273 195.302957 
L 395.207934 193.962368 
L 391.928595 192.674298 
L 388.649256 191.438117 
L 385.369917 190.253175 
L 382.090579 189.11881 
L 378.81124 188.034344 
L 375.531901 186.999085 
L 372.252562 186.012329 
L 368.973223 185.073362 
L 365.693884 184.181458 
L 362.414545 183.335884 
L 359.135207 182.535896 
L 355.855868 181.780743 
L 352.576529 181.069667 
L 349.29719 180.401903 
L 346.017851 179.776681 
L 342.738512 179.193224 
L 339.459174 178.650752 
L 336.179835 178.148477 
L 332.900496 177.685612 
L 329.621157 177.261361 
L 326.341818 176.874929 
L 323.062479 176.525515 
L 319.78314 176.212318 
L 316.503802 175.934531 
L 313.224463 175.691349 
L 309.945124 175.481962 
L 306.665785 175.30556 
L 303.386446 175.161331 
L 300.107107 175.048462 
L 296.827769 174.966139 
L 293.54843 174.913547 
L 290.269091 174.889869 
L 286.989752 174.89429 
L 283.710413 174.925993 
L 280.431074 174.984161 
L 277.151736 175.067977 
L 273.872397 175.176623 
L 270.593058 175.309282 
L 267.313719 175.465137 
L 264.03438 175.64337 
L 260.755041 175.843165 
L 257.475702 176.063704 
L 254.196364 176.304171 
L 250.917025 176.56375 
L 247.637686 176.841625 
L 244.358347 177.13698 
L 241.079008 177.448999 
L 237.799669 177.776869 
L 234.520331 178.119773 
L 231.240992 178.476898 
L 227.961653 178.847429 
L 224.682314 179.230552 
L 221.402975 179.625452 
L 218.123636 180.031316 
L 214.844298 180.44733 
L 211.564959 180.872679 
L 208.28562 181.306549 
L 205.006281 181.748124 
L 201.726942 182.196589 
L 198.447603 182.651128 
L 195.168264 183.110924 
L 191.888926 183.575158 
L 188.609587 184.043011 
L 185.330248 184.513662 
L 182.050909 184.98629 
L 178.77157 185.460069 
L 175.492231 185.934173 
L 172.212893 186.407774 
L 168.933554 186.880039 
L 165.654215 187.350135 
L 162.374876 187.817224 
L 159.095537 188.280463 
L 155.816198 188.739009 
L 152.53686 189.19201 
L 149.257521 189.638612 
L 145.978182 190.077956 
L 142.698843 190.509176 
L 139.419504 190.931401 
L 136.140165 191.343752 
L 132.860826 191.745345 
L 129.581488 192.135286 
L 126.302149 192.512676 
L 123.02281 192.876605 
L 119.743471 193.226154 
L 116.464132 193.560396 
L 113.184793 193.878392 
L 109.905455 194.179194 
L 106.626116 194.461841 
L 103.346777 194.72536 
L 100.067438 194.968767 
L 96.788099 195.191064 
L 93.50876 195.39124 
L 90.229421 195.568269 
L 86.950083 195.721112 
L 83.670744 195.848714 
L 80.391405 195.950005 
L 77.112066 196.023901 
L 73.832727 196.0693 
z
" style="fill:#1f77b4;fill-opacity:0.5;"/>
   </g>
   <g id="matplotlib.axis_1">
    <g id="xtick_1">
     <g id="line2d_1">
      <defs>
       <path d="M 0 0 
L 0 3.5 
" id="m47e86da900" style="stroke:#000000;stroke-width:0.8;"/>
      </defs>
      <g>
       <use style="stroke:#000000;stroke-width:0.8;" x="120.211948" xlink:href="#m47e86da900" y="307.584"/>
      </g>
     </g>
     <g id="text_1">
      <!-- 5 -->
      <g transform="translate(117.030698 322.182437)scale(0.1 -0.1)">
       <defs>
        <path d="M 10.796875 72.90625 
L 49.515625 72.90625 
L 49.515625 64.59375 
L 19.828125 64.59375 
L 19.828125 46.734375 
Q 21.96875 47.46875 24.109375 47.828125 
Q 26.265625 48.1875 28.421875 48.1875 
Q 40.625 48.1875 47.75 41.5 
Q 54.890625 34.8125 54.890625 23.390625 
Q 54.890625 11.625 47.5625 5.09375 
Q 40.234375 -1.421875 26.90625 -1.421875 
Q 22.3125 -1.421875 17.546875 -0.640625 
Q 12.796875 0.140625 7.71875 1.703125 
L 7.71875 11.625 
Q 12.109375 9.234375 16.796875 8.0625 
Q 21.484375 6.890625 26.703125 6.890625 
Q 35.15625 6.890625 40.078125 11.328125 
Q 45.015625 15.765625 45.015625 23.390625 
Q 45.015625 31 40.078125 35.4375 
Q 35.15625 39.890625 26.703125 39.890625 
Q 22.75 39.890625 18.8125 39.015625 
Q 14.890625 38.140625 10.796875 36.28125 
z
" id="DejaVuSans-53"/>
       </defs>
       <use xlink:href="#DejaVuSans-53"/>
      </g>
     </g>
    </g>
    <g id="xtick_2">
     <g id="line2d_2">
      <g>
       <use style="stroke:#000000;stroke-width:0.8;" x="197.510649" xlink:href="#m47e86da900" y="307.584"/>
      </g>
     </g>
     <g id="text_2">
      <!-- 10 -->
      <g transform="translate(191.148149 322.182437)scale(0.1 -0.1)">
       <defs>
        <path d="M 12.40625 8.296875 
L 28.515625 8.296875 
L 28.515625 63.921875 
L 10.984375 60.40625 
L 10.984375 69.390625 
L 28.421875 72.90625 
L 38.28125 72.90625 
L 38.28125 8.296875 
L 54.390625 8.296875 
L 54.390625 0 
L 12.40625 0 
z
" id="DejaVuSans-49"/>
        <path d="M 31.78125 66.40625 
Q 24.171875 66.40625 20.328125 58.90625 
Q 16.5 51.421875 16.5 36.375 
Q 16.5 21.390625 20.328125 13.890625 
Q 24.171875 6.390625 31.78125 6.390625 
Q 39.453125 6.390625 43.28125 13.890625 
Q 47.125 21.390625 47.125 36.375 
Q 47.125 51.421875 43.28125 58.90625 
Q 39.453125 66.40625 31.78125 66.40625 
z
M 31.78125 74.21875 
Q 44.046875 74.21875 50.515625 64.515625 
Q 56.984375 54.828125 56.984375 36.375 
Q 56.984375 17.96875 50.515625 8.265625 
Q 44.046875 -1.421875 31.78125 -1.421875 
Q 19.53125 -1.421875 13.0625 8.265625 
Q 6.59375 17.96875 6.59375 36.375 
Q 6.59375 54.828125 13.0625 64.515625 
Q 19.53125 74.21875 31.78125 74.21875 
z
" id="DejaVuSans-48"/>
       </defs>
       <use xlink:href="#DejaVuSans-49"/>
       <use x="63.623047" xlink:href="#DejaVuSans-48"/>
      </g>
     </g>
    </g>
    <g id="xtick_3">
     <g id="line2d_3">
      <g>
       <use style="stroke:#000000;stroke-width:0.8;" x="274.809351" xlink:href="#m47e86da900" y="307.584"/>
      </g>
     </g>
     <g id="text_3">
      <!-- 15 -->
      <g transform="translate(268.446851 322.182437)scale(0.1 -0.1)">
       <use xlink:href="#DejaVuSans-49"/>
       <use x="63.623047" xlink:href="#DejaVuSans-53"/>
      </g>
     </g>
    </g>
    <g id="xtick_4">
     <g id="line2d_4">
      <g>
       <use style="stroke:#000000;stroke-width:0.8;" x="352.108052" xlink:href="#m47e86da900" y="307.584"/>
      </g>
     </g>
     <g id="text_4">
      <!-- 20 -->
      <g transform="translate(345.745552 322.182437)scale(0.1 -0.1)">
       <defs>
        <path d="M 19.1875 8.296875 
L 53.609375 8.296875 
L 53.609375 0 
L 7.328125 0 
L 7.328125 8.296875 
Q 12.9375 14.109375 22.625 23.890625 
Q 32.328125 33.6875 34.8125 36.53125 
Q 39.546875 41.84375 41.421875 45.53125 
Q 43.3125 49.21875 43.3125 52.78125 
Q 43.3125 58.59375 39.234375 62.25 
Q 35.15625 65.921875 28.609375 65.921875 
Q 23.96875 65.921875 18.8125 64.3125 
Q 13.671875 62.703125 7.8125 59.421875 
L 7.8125 69.390625 
Q 13.765625 71.78125 18.9375 73 
Q 24.125 74.21875 28.421875 74.21875 
Q 39.75 74.21875 46.484375 68.546875 
Q 53.21875 62.890625 53.21875 53.421875 
Q 53.21875 48.921875 51.53125 44.890625 
Q 49.859375 40.875 45.40625 35.40625 
Q 44.1875 33.984375 37.640625 27.21875 
Q 31.109375 20.453125 19.1875 8.296875 
z
" id="DejaVuSans-50"/>
       </defs>
       <use xlink:href="#DejaVuSans-50"/>
       <use x="63.623047" xlink:href="#DejaVuSans-48"/>
      </g>
     </g>
    </g>
   </g>
   <g id="matplotlib.axis_2">
    <g id="ytick_1">
     <g id="line2d_5">
      <defs>
       <path d="M 0 0 
L -3.5 0 
" id="m26d65e8747" style="stroke:#000000;stroke-width:0.8;"/>
      </defs>
      <g>
       <use style="stroke:#000000;stroke-width:0.8;" x="57.6" xlink:href="#m26d65e8747" y="272.873739"/>
      </g>
     </g>
     <g id="text_5">
      <!-- 10 -->
      <g transform="translate(37.875 276.672958)scale(0.1 -0.1)">
       <use xlink:href="#DejaVuSans-49"/>
       <use x="63.623047" xlink:href="#DejaVuSans-48"/>
      </g>
     </g>
    </g>
    <g id="ytick_2">
     <g id="line2d_6">
      <g>
       <use style="stroke:#000000;stroke-width:0.8;" x="57.6" xlink:href="#m26d65e8747" y="215.023304"/>
      </g>
     </g>
     <g id="text_6">
      <!-- 15 -->
      <g transform="translate(37.875 218.822523)scale(0.1 -0.1)">
       <use xlink:href="#DejaVuSans-49"/>
       <use x="63.623047" xlink:href="#DejaVuSans-53"/>
      </g>
     </g>
    </g>
    <g id="ytick_3">
     <g id="line2d_7">
      <g>
       <use style="stroke:#000000;stroke-width:0.8;" x="57.6" xlink:href="#m26d65e8747" y="157.17287"/>
      </g>
     </g>
     <g id="text_7">
      <!-- 20 -->
      <g transform="translate(37.875 160.972088)scale(0.1 -0.1)">
       <use xlink:href="#DejaVuSans-50"/>
       <use x="63.623047" xlink:href="#DejaVuSans-48"/>
      </g>
     </g>
    </g>
    <g id="ytick_4">
     <g id="line2d_8">
      <g>
       <use style="stroke:#000000;stroke-width:0.8;" x="57.6" xlink:href="#m26d65e8747" y="99.322435"/>
      </g>
     </g>
     <g id="text_8">
      <!-- 25 -->
      <g transform="translate(37.875 103.121654)scale(0.1 -0.1)">
       <use xlink:href="#DejaVuSans-50"/>
       <use x="63.623047" xlink:href="#DejaVuSans-53"/>
      </g>
     </g>
    </g>
    <g id="ytick_5">
     <g id="line2d_9">
      <g>
       <use style="stroke:#000000;stroke-width:0.8;" x="57.6" xlink:href="#m26d65e8747" y="41.472"/>
      </g>
     </g>
     <g id="text_9">
      <!-- 30 -->
      <g transform="translate(37.875 45.271219)scale(0.1 -0.1)">
       <defs>
        <path d="M 40.578125 39.3125 
Q 47.65625 37.796875 51.625 33 
Q 55.609375 28.21875 55.609375 21.1875 
Q 55.609375 10.40625 48.1875 4.484375 
Q 40.765625 -1.421875 27.09375 -1.421875 
Q 22.515625 -1.421875 17.65625 -0.515625 
Q 12.796875 0.390625 7.625 2.203125 
L 7.625 11.71875 
Q 11.71875 9.328125 16.59375 8.109375 
Q 21.484375 6.890625 26.8125 6.890625 
Q 36.078125 6.890625 40.9375 10.546875 
Q 45.796875 14.203125 45.796875 21.1875 
Q 45.796875 27.640625 41.28125 31.265625 
Q 36.765625 34.90625 28.71875 34.90625 
L 20.21875 34.90625 
L 20.21875 43.015625 
L 29.109375 43.015625 
Q 36.375 43.015625 40.234375 45.921875 
Q 44.09375 48.828125 44.09375 54.296875 
Q 44.09375 59.90625 40.109375 62.90625 
Q 36.140625 65.921875 28.71875 65.921875 
Q 24.65625 65.921875 20.015625 65.03125 
Q 15.375 64.15625 9.8125 62.3125 
L 9.8125 71.09375 
Q 15.4375 72.65625 20.34375 73.4375 
Q 25.25 74.21875 29.59375 74.21875 
Q 40.828125 74.21875 47.359375 69.109375 
Q 53.90625 64.015625 53.90625 55.328125 
Q 53.90625 49.265625 50.4375 45.09375 
Q 46.96875 40.921875 40.578125 39.3125 
z
" id="DejaVuSans-51"/>
       </defs>
       <use xlink:href="#DejaVuSans-51"/>
       <use x="63.623047" xlink:href="#DejaVuSans-48"/>
      </g>
     </g>
    </g>
   </g>
   <g id="line2d_10">
    <path clip-path="url(#pffad41c8b7)" d="M 73.832727 215.172192 
L 77.112066 215.165212 
L 80.391405 215.133835 
L 83.670744 215.078819 
L 86.950083 215.000922 
L 90.229421 214.900901 
L 93.50876 214.779513 
L 96.788099 214.637516 
L 100.067438 214.475667 
L 103.346777 214.294724 
L 106.626116 214.095443 
L 109.905455 213.878583 
L 113.184793 213.644901 
L 116.464132 213.395153 
L 119.743471 213.130098 
L 123.02281 212.850493 
L 126.302149 212.557095 
L 129.581488 212.250662 
L 132.860826 211.931951 
L 136.140165 211.601719 
L 139.419504 211.260724 
L 142.698843 210.909723 
L 145.978182 210.549473 
L 149.257521 210.180733 
L 152.53686 209.804258 
L 155.816198 209.420808 
L 159.095537 209.031138 
L 162.374876 208.636007 
L 165.654215 208.236172 
L 168.933554 207.83239 
L 172.212893 207.425418 
L 175.492231 207.016015 
L 178.77157 206.604937 
L 182.050909 206.192942 
L 185.330248 205.780787 
L 188.609587 205.369229 
L 191.888926 204.959026 
L 195.168264 204.550936 
L 198.447603 204.145715 
L 201.726942 203.744121 
L 205.006281 203.346912 
L 208.28562 202.954845 
L 211.564959 202.568677 
L 214.844298 202.189165 
L 218.123636 201.817068 
L 221.402975 201.453142 
L 224.682314 201.098144 
L 227.961653 200.752833 
L 231.240992 200.417965 
L 234.520331 200.094298 
L 237.799669 199.78259 
L 241.079008 199.483597 
L 244.358347 199.198077 
L 247.637686 198.926788 
L 250.917025 198.670486 
L 254.196364 198.42993 
L 257.475702 198.205876 
L 260.755041 197.999083 
L 264.03438 197.810307 
L 267.313719 197.640305 
L 270.593058 197.489836 
L 273.872397 197.359656 
L 277.151736 197.250523 
L 280.431074 197.163194 
L 283.710413 197.098427 
L 286.989752 197.056979 
L 290.269091 197.039608 
L 293.54843 197.04707 
L 296.827769 197.080124 
L 300.107107 197.139526 
L 303.386446 197.226035 
L 306.665785 197.340406 
L 309.945124 197.483399 
L 313.224463 197.655769 
L 316.503802 197.858275 
L 319.78314 198.091674 
L 323.062479 198.356724 
L 326.341818 198.654181 
L 329.621157 198.984803 
L 332.900496 199.349347 
L 336.179835 199.748571 
L 339.459174 200.183233 
L 342.738512 200.654089 
L 346.017851 201.161897 
L 349.29719 201.707415 
L 352.576529 202.291399 
L 355.855868 202.914608 
L 359.135207 203.577798 
L 362.414545 204.281727 
L 365.693884 205.027152 
L 368.973223 205.814831 
L 372.252562 206.645521 
L 375.531901 207.519979 
L 378.81124 208.438963 
L 382.090579 209.403231 
L 385.369917 210.413539 
L 388.649256 211.470645 
L 391.928595 212.575307 
L 395.207934 213.728281 
L 398.487273 214.930325 
" style="fill:none;stroke:#1f77b4;stroke-linecap:square;stroke-width:1.5;"/>
   </g>
   <g id="line2d_11">
    <path clip-path="url(#pffad41c8b7)" d="M 73.832727 246.908499 
L 77.112066 245.8165 
L 80.391405 244.717351 
L 83.670744 243.611921 
L 86.950083 242.501079 
L 90.229421 241.385695 
L 93.50876 240.266637 
L 96.788099 239.144774 
L 100.067438 238.020977 
L 103.346777 236.896113 
L 106.626116 235.771053 
L 109.905455 234.646665 
L 113.184793 233.523819 
L 116.464132 232.403384 
L 119.743471 231.286229 
L 123.02281 230.173223 
L 126.302149 229.065236 
L 129.581488 227.963136 
L 132.860826 226.867793 
L 136.140165 225.780076 
L 139.419504 224.700854 
L 142.698843 223.630997 
L 145.978182 222.571373 
L 149.257521 221.522852 
L 152.53686 220.486303 
L 155.816198 219.462596 
L 159.095537 218.452599 
L 162.374876 217.457181 
L 165.654215 216.477212 
L 168.933554 215.513561 
L 172.212893 214.567097 
L 175.492231 213.63869 
L 178.77157 212.729208 
L 182.050909 211.839521 
L 185.330248 210.970498 
L 188.609587 210.123009 
L 191.888926 209.297921 
L 195.168264 208.496105 
L 198.447603 207.71843 
L 201.726942 206.965765 
L 205.006281 206.238979 
L 208.28562 205.538941 
L 211.564959 204.866521 
L 214.844298 204.222587 
L 218.123636 203.60801 
L 221.402975 203.023657 
L 224.682314 202.470399 
L 227.961653 201.949104 
L 231.240992 201.460642 
L 234.520331 201.005882 
L 237.799669 200.585694 
L 241.079008 200.200945 
L 244.358347 199.852506 
L 247.637686 199.541245 
L 250.917025 199.268033 
L 254.196364 199.033737 
L 257.475702 198.839228 
L 260.755041 198.685374 
L 264.03438 198.573045 
L 267.313719 198.50311 
L 270.593058 198.476437 
L 273.872397 198.493897 
L 277.151736 198.556359 
L 280.431074 198.664691 
L 283.710413 198.819763 
L 286.989752 199.022444 
L 290.269091 199.273603 
L 293.54843 199.574109 
L 296.827769 199.924833 
L 300.107107 200.326642 
L 303.386446 200.780406 
L 306.665785 201.286994 
L 309.945124 201.847276 
L 313.224463 202.46212 
L 316.503802 203.132396 
L 319.78314 203.858973 
L 323.062479 204.64272 
L 326.341818 205.484506 
L 329.621157 206.385202 
L 332.900496 207.345674 
L 336.179835 208.366794 
L 339.459174 209.44943 
L 342.738512 210.594452 
L 346.017851 211.802727 
L 349.29719 213.075127 
L 352.576529 214.41252 
L 355.855868 215.815774 
L 359.135207 217.28576 
L 362.414545 218.823347 
L 365.693884 220.429403 
L 368.973223 222.104798 
L 372.252562 223.850402 
L 375.531901 225.667082 
L 378.81124 227.55571 
L 382.090579 229.517152 
L 385.369917 231.55228 
L 388.649256 233.661962 
L 391.928595 235.847067 
L 395.207934 238.108465 
L 398.487273 240.447024 
" style="fill:none;stroke:#ff7f0e;stroke-linecap:square;stroke-width:1.5;"/>
   </g>
   <g id="line2d_12">
    <path clip-path="url(#pffad41c8b7)" d="M 73.832727 218.494478 
L 77.112066 217.291667 
L 80.391405 216.077745 
L 83.670744 214.853777 
L 86.950083 213.620829 
L 90.229421 212.379967 
L 93.50876 211.132256 
L 96.788099 209.878761 
L 100.067438 208.620549 
L 103.346777 207.358685 
L 106.626116 206.094233 
L 109.905455 204.828261 
L 113.184793 203.561833 
L 116.464132 202.296015 
L 119.743471 201.031873 
L 123.02281 199.770472 
L 126.302149 198.512877 
L 129.581488 197.260155 
L 132.860826 196.01337 
L 136.140165 194.773589 
L 139.419504 193.541876 
L 142.698843 192.319298 
L 145.978182 191.10692 
L 149.257521 189.905808 
L 152.53686 188.717026 
L 155.816198 187.541641 
L 159.095537 186.380719 
L 162.374876 185.235324 
L 165.654215 184.106522 
L 168.933554 182.995379 
L 172.212893 181.902961 
L 175.492231 180.830332 
L 178.77157 179.778559 
L 182.050909 178.748707 
L 185.330248 177.741842 
L 188.609587 176.759029 
L 191.888926 175.801334 
L 195.168264 174.869821 
L 198.447603 173.965558 
L 201.726942 173.089609 
L 205.006281 172.24304 
L 208.28562 171.426917 
L 211.564959 170.642304 
L 214.844298 169.890268 
L 218.123636 169.171875 
L 221.402975 168.488189 
L 224.682314 167.840276 
L 227.961653 167.229202 
L 231.240992 166.656032 
L 234.520331 166.121833 
L 237.799669 165.627669 
L 241.079008 165.174606 
L 244.358347 164.763709 
L 247.637686 164.396045 
L 250.917025 164.072678 
L 254.196364 163.794674 
L 257.475702 163.5631 
L 260.755041 163.379019 
L 264.03438 163.243499 
L 267.313719 163.157604 
L 270.593058 163.1224 
L 273.872397 163.138952 
L 277.151736 163.208327 
L 280.431074 163.33159 
L 283.710413 163.509805 
L 286.989752 163.74404 
L 290.269091 164.035358 
L 293.54843 164.384827 
L 296.827769 164.793511 
L 300.107107 165.262476 
L 303.386446 165.792788 
L 306.665785 166.385511 
L 309.945124 167.041713 
L 313.224463 167.762457 
L 316.503802 168.548811 
L 319.78314 169.401838 
L 323.062479 170.322606 
L 326.341818 171.312179 
L 329.621157 172.371623 
L 332.900496 173.502003 
L 336.179835 174.704386 
L 339.459174 175.979836 
L 342.738512 177.329419 
L 346.017851 178.754202 
L 349.29719 180.255248 
L 352.576529 181.833624 
L 355.855868 183.490396 
L 359.135207 185.226629 
L 362.414545 187.043388 
L 365.693884 188.941739 
L 368.973223 190.922748 
L 372.252562 192.98748 
L 375.531901 195.137001 
L 378.81124 197.372376 
L 382.090579 199.694671 
L 385.369917 202.104951 
L 388.649256 204.604283 
L 391.928595 207.193731 
L 395.207934 209.87436 
L 398.487273 212.647238 
" style="fill:none;stroke:#2ca02c;stroke-linecap:square;stroke-width:1.5;"/>
   </g>
   <g id="line2d_13">
    <path clip-path="url(#pffad41c8b7)" d="M 73.832727 236.264782 
L 77.112066 234.827394 
L 80.391405 233.393205 
L 83.670744 231.962998 
L 86.950083 230.537555 
L 90.229421 229.117659 
L 93.50876 227.704094 
L 96.788099 226.297643 
L 100.067438 224.899088 
L 103.346777 223.509212 
L 106.626116 222.128798 
L 109.905455 220.758631 
L 113.184793 219.399491 
L 116.464132 218.052163 
L 119.743471 216.717429 
L 123.02281 215.396073 
L 126.302149 214.088877 
L 129.581488 212.796625 
L 132.860826 211.520098 
L 136.140165 210.260082 
L 139.419504 209.017357 
L 142.698843 207.792708 
L 145.978182 206.586917 
L 149.257521 205.400768 
L 152.53686 204.235043 
L 155.816198 203.090525 
L 159.095537 201.967998 
L 162.374876 200.868244 
L 165.654215 199.792046 
L 168.933554 198.740188 
L 172.212893 197.713452 
L 175.492231 196.712621 
L 178.77157 195.738478 
L 182.050909 194.791807 
L 185.330248 193.87339 
L 188.609587 192.984011 
L 191.888926 192.124451 
L 195.168264 191.295495 
L 198.447603 190.497925 
L 201.726942 189.732525 
L 205.006281 189.000076 
L 208.28562 188.301363 
L 211.564959 187.637168 
L 214.844298 187.008275 
L 218.123636 186.415465 
L 221.402975 185.859523 
L 224.682314 185.341231 
L 227.961653 184.861372 
L 231.240992 184.42073 
L 234.520331 184.020086 
L 237.799669 183.660225 
L 241.079008 183.341929 
L 244.358347 183.065981 
L 247.637686 182.833164 
L 250.917025 182.644262 
L 254.196364 182.500056 
L 257.475702 182.401331 
L 260.755041 182.348869 
L 264.03438 182.343453 
L 267.313719 182.385866 
L 270.593058 182.476892 
L 273.872397 182.617312 
L 277.151736 182.807911 
L 280.431074 183.04947 
L 283.710413 183.342774 
L 286.989752 183.688605 
L 290.269091 184.087746 
L 293.54843 184.54098 
L 296.827769 185.04909 
L 300.107107 185.612859 
L 303.386446 186.233071 
L 306.665785 186.910507 
L 309.945124 187.645951 
L 313.224463 188.440187 
L 316.503802 189.293996 
L 319.78314 190.208163 
L 323.062479 191.183469 
L 326.341818 192.220699 
L 329.621157 193.320634 
L 332.900496 194.484059 
L 336.179835 195.711756 
L 339.459174 197.004507 
L 342.738512 198.363097 
L 346.017851 199.788308 
L 349.29719 201.280922 
L 352.576529 202.841724 
L 355.855868 204.471495 
L 359.135207 206.17102 
L 362.414545 207.94108 
L 365.693884 209.78246 
L 368.973223 211.695941 
L 372.252562 213.682308 
L 375.531901 215.742342 
L 378.81124 217.876827 
L 382.090579 220.086546 
L 385.369917 222.372282 
L 388.649256 224.734818 
L 391.928595 227.174937 
L 395.207934 229.693422 
L 398.487273 232.291056 
" style="fill:none;stroke:#d62728;stroke-linecap:square;stroke-width:1.5;"/>
   </g>
   <g id="line2d_14">
    <path clip-path="url(#pffad41c8b7)" d="M 73.832727 271.192245 
L 77.112066 270.178997 
L 80.391405 269.151387 
L 83.670744 268.110452 
L 86.950083 267.057233 
L 90.229421 265.992766 
L 93.50876 264.918089 
L 96.788099 263.834242 
L 100.067438 262.742263 
L 103.346777 261.64319 
L 106.626116 260.538061 
L 109.905455 259.427914 
L 113.184793 258.313788 
L 116.464132 257.196721 
L 119.743471 256.077752 
L 123.02281 254.957918 
L 126.302149 253.838258 
L 129.581488 252.719811 
L 132.860826 251.603614 
L 136.140165 250.490707 
L 139.419504 249.382126 
L 142.698843 248.278911 
L 145.978182 247.1821 
L 149.257521 246.092731 
L 152.53686 245.011842 
L 155.816198 243.940472 
L 159.095537 242.87966 
L 162.374876 241.830442 
L 165.654215 240.793859 
L 168.933554 239.770947 
L 172.212893 238.762745 
L 175.492231 237.770293 
L 178.77157 236.794627 
L 182.050909 235.836786 
L 185.330248 234.897808 
L 188.609587 233.978733 
L 191.888926 233.080598 
L 195.168264 232.204441 
L 198.447603 231.3513 
L 201.726942 230.522215 
L 205.006281 229.718223 
L 208.28562 228.940363 
L 211.564959 228.189672 
L 214.844298 227.46719 
L 218.123636 226.773955 
L 221.402975 226.111004 
L 224.682314 225.479376 
L 227.961653 224.88011 
L 231.240992 224.314244 
L 234.520331 223.782815 
L 237.799669 223.286863 
L 241.079008 222.827426 
L 244.358347 222.405542 
L 247.637686 222.022249 
L 250.917025 221.678585 
L 254.196364 221.375589 
L 257.475702 221.1143 
L 260.755041 220.895755 
L 264.03438 220.720993 
L 267.313719 220.591052 
L 270.593058 220.50697 
L 273.872397 220.469786 
L 277.151736 220.480538 
L 280.431074 220.540265 
L 283.710413 220.650004 
L 286.989752 220.810794 
L 290.269091 221.023673 
L 293.54843 221.28968 
L 296.827769 221.609852 
L 300.107107 221.985229 
L 303.386446 222.416848 
L 306.665785 222.905748 
L 309.945124 223.452967 
L 313.224463 224.059543 
L 316.503802 224.726515 
L 319.78314 225.454921 
L 323.062479 226.2458 
L 326.341818 227.100188 
L 329.621157 228.019126 
L 332.900496 229.003651 
L 336.179835 230.054801 
L 339.459174 231.173616 
L 342.738512 232.361132 
L 346.017851 233.618388 
L 349.29719 234.946424 
L 352.576529 236.346276 
L 355.855868 237.818984 
L 359.135207 239.365585 
L 362.414545 240.987118 
L 365.693884 242.684622 
L 368.973223 244.459134 
L 372.252562 246.311693 
L 375.531901 248.243337 
L 378.81124 250.255104 
L 382.090579 252.348033 
L 385.369917 254.523163 
L 388.649256 256.78153 
L 391.928595 259.124175 
L 395.207934 261.552134 
L 398.487273 264.066446 
" style="fill:none;stroke:#9467bd;stroke-linecap:square;stroke-width:1.5;"/>
   </g>
   <g id="line2d_15">
    <path clip-path="url(#pffad41c8b7)" d="M 73.832727 223.132752 
L 77.112066 221.635946 
L 80.391405 220.148779 
L 83.670744 218.671881 
L 86.950083 217.205884 
L 90.229421 215.75142 
L 93.50876 214.30912 
L 96.788099 212.879615 
L 100.067438 211.463537 
L 103.346777 210.061517 
L 106.626116 208.674186 
L 109.905455 207.302177 
L 113.184793 205.94612 
L 116.464132 204.606647 
L 119.743471 203.284389 
L 123.02281 201.979978 
L 126.302149 200.694045 
L 129.581488 199.427221 
L 132.860826 198.180139 
L 136.140165 196.953428 
L 139.419504 195.747722 
L 142.698843 194.56365 
L 145.978182 193.401846 
L 149.257521 192.262939 
L 152.53686 191.147562 
L 155.816198 190.056346 
L 159.095537 188.989922 
L 162.374876 187.948921 
L 165.654215 186.933976 
L 168.933554 185.945717 
L 172.212893 184.984777 
L 175.492231 184.051785 
L 178.77157 183.147375 
L 182.050909 182.272177 
L 185.330248 181.426822 
L 188.609587 180.611942 
L 191.888926 179.828169 
L 195.168264 179.076134 
L 198.447603 178.356468 
L 201.726942 177.669803 
L 205.006281 177.01677 
L 208.28562 176.398 
L 211.564959 175.814126 
L 214.844298 175.265778 
L 218.123636 174.753588 
L 221.402975 174.278187 
L 224.682314 173.840207 
L 227.961653 173.440278 
L 231.240992 173.079034 
L 234.520331 172.757104 
L 237.799669 172.47512 
L 241.079008 172.233715 
L 244.358347 172.033518 
L 247.637686 171.875162 
L 250.917025 171.759278 
L 254.196364 171.686498 
L 257.475702 171.657452 
L 260.755041 171.672773 
L 264.03438 171.733091 
L 267.313719 171.839039 
L 270.593058 171.991247 
L 273.872397 172.190347 
L 277.151736 172.43697 
L 280.431074 172.731748 
L 283.710413 173.075312 
L 286.989752 173.468294 
L 290.269091 173.911325 
L 293.54843 174.405037 
L 296.827769 174.95006 
L 300.107107 175.547027 
L 303.386446 176.196568 
L 306.665785 176.899316 
L 309.945124 177.655901 
L 313.224463 178.466955 
L 316.503802 179.333109 
L 319.78314 180.254995 
L 323.062479 181.233245 
L 326.341818 182.268489 
L 329.621157 183.361359 
L 332.900496 184.512486 
L 336.179835 185.722503 
L 339.459174 186.99204 
L 342.738512 188.321728 
L 346.017851 189.7122 
L 349.29719 191.164087 
L 352.576529 192.678019 
L 355.855868 194.254629 
L 359.135207 195.894547 
L 362.414545 197.598406 
L 365.693884 199.366837 
L 368.973223 201.20047 
L 372.252562 203.099938 
L 375.531901 205.065872 
L 378.81124 207.098904 
L 382.090579 209.199664 
L 385.369917 211.368784 
L 388.649256 213.606896 
L 391.928595 215.914631 
L 395.207934 218.292621 
L 398.487273 220.741496 
" style="fill:none;stroke:#8c564b;stroke-linecap:square;stroke-width:1.5;"/>
   </g>
   <g id="patch_3">
    <path d="M 57.6 307.584 
L 57.6 41.472 
" style="fill:none;stroke:#000000;stroke-linecap:square;stroke-linejoin:miter;stroke-width:0.8;"/>
   </g>
   <g id="patch_4">
    <path d="M 414.72 307.584 
L 414.72 41.472 
" style="fill:none;stroke:#000000;stroke-linecap:square;stroke-linejoin:miter;stroke-width:0.8;"/>
   </g>
   <g id="patch_5">
    <path d="M 57.6 307.584 
L 414.72 307.584 
" style="fill:none;stroke:#000000;stroke-linecap:square;stroke-linejoin:miter;stroke-width:0.8;"/>
   </g>
   <g id="patch_6">
    <path d="M 57.6 41.472 
L 414.72 41.472 
" style="fill:none;stroke:#000000;stroke-linecap:square;stroke-linejoin:miter;stroke-width:0.8;"/>
   </g>
  </g>
 </g>
 <defs>
  <clipPath id="pffad41c8b7">
   <rect height="266.112" width="357.12" x="57.6" y="41.472"/>
  </clipPath>
 </defs>
</svg>
