<?xml version="1.0" encoding="utf-8" standalone="no"?>
<!DOCTYPE svg PUBLIC "-//W3C//DTD SVG 1.1//EN"
  "http://www.w3.org/Graphics/SVG/1.1/DTD/svg11.dtd">
<!-- Created with matplotlib (https://matplotlib.org/) -->
<svg height="345.6pt" version="1.1" viewBox="0 0 460.8 345.6" width="460.8pt" xmlns="http://www.w3.org/2000/svg" xmlns:xlink="http://www.w3.org/1999/xlink">
 <metadata>
  <rdf:RDF xmlns:cc="http://creativecommons.org/ns#" xmlns:dc="http://purl.org/dc/elements/1.1/" xmlns:rdf="http://www.w3.org/1999/02/22-rdf-syntax-ns#">
   <cc:Work>
    <dc:type rdf:resource="http://purl.org/dc/dcmitype/StillImage"/>
    <dc:date>2021-11-24T17:22:59.446971</dc:date>
    <dc:format>image/svg+xml</dc:format>
    <dc:creator>
     <cc:Agent>
      <dc:title>Matplotlib v3.3.4, https://matplotlib.org/</dc:title>
     </cc:Agent>
    </dc:creator>
   </cc:Work>
  </rdf:RDF>
 </metadata>
 <defs>
  <style type="text/css">*{stroke-linecap:butt;stroke-linejoin:round;}</style>
 </defs>
 <g id="figure_1">
  <g id="patch_1">
   <path d="M 0 345.6 
L 460.8 345.6 
L 460.8 0 
L 0 0 
z
" style="fill:#ffffff;"/>
  </g>
  <g id="axes_1">
   <g id="patch_2">
    <path d="M 57.6 307.584 
L 414.72 307.584 
L 414.72 41.472 
L 57.6 41.472 
z
" style="fill:#ffffff;"/>
   </g>
   <g id="PathCollection_1">
    <defs>
     <path d="M 0 0.5 
C 0.132602 0.5 0.25979 0.447317 0.353553 0.353553 
C 0.447317 0.25979 0.5 0.132602 0.5 0 
C 0.5 -0.132602 0.447317 -0.25979 0.353553 -0.353553 
C 0.25979 -0.447317 0.132602 -0.5 0 -0.5 
C -0.132602 -0.5 -0.25979 -0.447317 -0.353553 -0.353553 
C -0.447317 -0.25979 -0.5 -0.132602 -0.5 0 
C -0.5 0.132602 -0.447317 0.25979 -0.353553 0.353553 
C -0.25979 0.447317 -0.132602 0.5 0 0.5 
z
" id="mdbbb070a5f" style="stroke:#0000ff;"/>
    </defs>
    <g clip-path="url(#pe1b7a4f00e)">
     <use style="fill:#0000ff;stroke:#0000ff;" x="73.832727" xlink:href="#mdbbb070a5f" y="238.973384"/>
     <use style="fill:#0000ff;stroke:#0000ff;" x="120.211948" xlink:href="#mdbbb070a5f" y="247.535249"/>
     <use style="fill:#0000ff;stroke:#0000ff;" x="166.591169" xlink:href="#mdbbb070a5f" y="227.326163"/>
     <use style="fill:#0000ff;stroke:#0000ff;" x="212.97039" xlink:href="#mdbbb070a5f" y="192.65447"/>
     <use style="fill:#0000ff;stroke:#0000ff;" x="259.34961" xlink:href="#mdbbb070a5f" y="184.555409"/>
     <use style="fill:#0000ff;stroke:#0000ff;" x="305.728831" xlink:href="#mdbbb070a5f" y="210.163868"/>
     <use style="fill:#0000ff;stroke:#0000ff;" x="352.108052" xlink:href="#mdbbb070a5f" y="227.441864"/>
     <use style="fill:#0000ff;stroke:#0000ff;" x="398.487273" xlink:href="#mdbbb070a5f" y="232.1856"/>
    </g>
   </g>
   <g id="PathCollection_2">
    <g clip-path="url(#pe1b7a4f00e)">
     <use style="fill:#0000ff;stroke:#0000ff;" x="73.832727" xlink:href="#mdbbb070a5f" y="227.094762"/>
     <use style="fill:#0000ff;stroke:#0000ff;" x="120.211948" xlink:href="#mdbbb070a5f" y="233.034073"/>
     <use style="fill:#0000ff;stroke:#0000ff;" x="166.591169" xlink:href="#mdbbb070a5f" y="209.199694"/>
     <use style="fill:#0000ff;stroke:#0000ff;" x="212.97039" xlink:href="#mdbbb070a5f" y="174.219464"/>
     <use style="fill:#0000ff;stroke:#0000ff;" x="259.34961" xlink:href="#mdbbb070a5f" y="166.197537"/>
     <use style="fill:#0000ff;stroke:#0000ff;" x="305.728831" xlink:href="#mdbbb070a5f" y="199.326553"/>
     <use style="fill:#0000ff;stroke:#0000ff;" x="352.108052" xlink:href="#mdbbb070a5f" y="218.687165"/>
     <use style="fill:#0000ff;stroke:#0000ff;" x="398.487273" xlink:href="#mdbbb070a5f" y="223.508035"/>
    </g>
   </g>
   <g id="PathCollection_3">
    <g clip-path="url(#pe1b7a4f00e)">
     <use style="fill:#0000ff;stroke:#0000ff;" x="73.832727" xlink:href="#mdbbb070a5f" y="219.612772"/>
     <use style="fill:#0000ff;stroke:#0000ff;" x="120.211948" xlink:href="#mdbbb070a5f" y="226.169155"/>
     <use style="fill:#0000ff;stroke:#0000ff;" x="166.591169" xlink:href="#mdbbb070a5f" y="202.450477"/>
     <use style="fill:#0000ff;stroke:#0000ff;" x="212.97039" xlink:href="#mdbbb070a5f" y="168.395854"/>
     <use style="fill:#0000ff;stroke:#0000ff;" x="259.34961" xlink:href="#mdbbb070a5f" y="158.908383"/>
     <use style="fill:#0000ff;stroke:#0000ff;" x="305.728831" xlink:href="#mdbbb070a5f" y="189.569113"/>
     <use style="fill:#0000ff;stroke:#0000ff;" x="352.108052" xlink:href="#mdbbb070a5f" y="206.96281"/>
     <use style="fill:#0000ff;stroke:#0000ff;" x="398.487273" xlink:href="#mdbbb070a5f" y="214.869037"/>
    </g>
   </g>
   <g id="PathCollection_4">
    <g clip-path="url(#pe1b7a4f00e)">
     <use style="fill:#0000ff;stroke:#0000ff;" x="73.832727" xlink:href="#mdbbb070a5f" y="235.926595"/>
     <use style="fill:#0000ff;stroke:#0000ff;" x="120.211948" xlink:href="#mdbbb070a5f" y="244.21849"/>
     <use style="fill:#0000ff;stroke:#0000ff;" x="166.591169" xlink:href="#mdbbb070a5f" y="220.114143"/>
     <use style="fill:#0000ff;stroke:#0000ff;" x="212.97039" xlink:href="#mdbbb070a5f" y="186.676591"/>
     <use style="fill:#0000ff;stroke:#0000ff;" x="259.34961" xlink:href="#mdbbb070a5f" y="180.004508"/>
     <use style="fill:#0000ff;stroke:#0000ff;" x="305.728831" xlink:href="#mdbbb070a5f" y="208.004118"/>
     <use style="fill:#0000ff;stroke:#0000ff;" x="352.108052" xlink:href="#mdbbb070a5f" y="224.047972"/>
     <use style="fill:#0000ff;stroke:#0000ff;" x="398.487273" xlink:href="#mdbbb070a5f" y="230.758623"/>
    </g>
   </g>
   <g id="PathCollection_5">
    <g clip-path="url(#pe1b7a4f00e)">
     <use style="fill:#0000ff;stroke:#0000ff;" x="73.832727" xlink:href="#mdbbb070a5f" y="180.698713"/>
     <use style="fill:#0000ff;stroke:#0000ff;" x="120.211948" xlink:href="#mdbbb070a5f" y="189.800515"/>
     <use style="fill:#0000ff;stroke:#0000ff;" x="166.591169" xlink:href="#mdbbb070a5f" y="161.299534"/>
     <use style="fill:#0000ff;stroke:#0000ff;" x="212.97039" xlink:href="#mdbbb070a5f" y="118.64448"/>
     <use style="fill:#0000ff;stroke:#0000ff;" x="259.34961" xlink:href="#mdbbb070a5f" y="105.416014"/>
     <use style="fill:#0000ff;stroke:#0000ff;" x="305.728831" xlink:href="#mdbbb070a5f" y="147.993934"/>
     <use style="fill:#0000ff;stroke:#0000ff;" x="352.108052" xlink:href="#mdbbb070a5f" y="166.390372"/>
     <use style="fill:#0000ff;stroke:#0000ff;" x="398.487273" xlink:href="#mdbbb070a5f" y="172.75392"/>
    </g>
   </g>
   <g id="PathCollection_6">
    <g clip-path="url(#pe1b7a4f00e)">
     <use style="fill:#0000ff;stroke:#0000ff;" x="73.832727" xlink:href="#mdbbb070a5f" y="265.546017"/>
     <use style="fill:#0000ff;stroke:#0000ff;" x="120.211948" xlink:href="#mdbbb070a5f" y="269.171311"/>
     <use style="fill:#0000ff;stroke:#0000ff;" x="166.591169" xlink:href="#mdbbb070a5f" y="246.416807"/>
     <use style="fill:#0000ff;stroke:#0000ff;" x="212.97039" xlink:href="#mdbbb070a5f" y="219.38137"/>
     <use style="fill:#0000ff;stroke:#0000ff;" x="259.34961" xlink:href="#mdbbb070a5f" y="212.979256"/>
     <use style="fill:#0000ff;stroke:#0000ff;" x="305.728831" xlink:href="#mdbbb070a5f" y="236.042296"/>
     <use style="fill:#0000ff;stroke:#0000ff;" x="352.108052" xlink:href="#mdbbb070a5f" y="253.011757"/>
     <use style="fill:#0000ff;stroke:#0000ff;" x="398.487273" xlink:href="#mdbbb070a5f" y="261.265085"/>
    </g>
   </g>
   <g id="PathCollection_7">
    <g clip-path="url(#pe1b7a4f00e)">
     <use style="fill:#0000ff;stroke:#0000ff;" x="73.832727" xlink:href="#mdbbb070a5f" y="210.780939"/>
     <use style="fill:#0000ff;stroke:#0000ff;" x="120.211948" xlink:href="#mdbbb070a5f" y="216.064612"/>
     <use style="fill:#0000ff;stroke:#0000ff;" x="166.591169" xlink:href="#mdbbb070a5f" y="197.08967"/>
     <use style="fill:#0000ff;stroke:#0000ff;" x="212.97039" xlink:href="#mdbbb070a5f" y="162.148007"/>
     <use style="fill:#0000ff;stroke:#0000ff;" x="259.34961" xlink:href="#mdbbb070a5f" y="159.641155"/>
     <use style="fill:#0000ff;stroke:#0000ff;" x="305.728831" xlink:href="#mdbbb070a5f" y="188.296403"/>
     <use style="fill:#0000ff;stroke:#0000ff;" x="352.108052" xlink:href="#mdbbb070a5f" y="201.756271"/>
     <use style="fill:#0000ff;stroke:#0000ff;" x="398.487273" xlink:href="#mdbbb070a5f" y="209.12256"/>
    </g>
   </g>
   <g id="PathCollection_8">
    <g clip-path="url(#pe1b7a4f00e)">
     <use style="fill:#0000ff;stroke:#0000ff;" x="73.832727" xlink:href="#mdbbb070a5f" y="207.078511"/>
     <use style="fill:#0000ff;stroke:#0000ff;" x="120.211948" xlink:href="#mdbbb070a5f" y="211.822247"/>
     <use style="fill:#0000ff;stroke:#0000ff;" x="166.591169" xlink:href="#mdbbb070a5f" y="191.728863"/>
     <use style="fill:#0000ff;stroke:#0000ff;" x="212.97039" xlink:href="#mdbbb070a5f" y="158.869816"/>
     <use style="fill:#0000ff;stroke:#0000ff;" x="259.34961" xlink:href="#mdbbb070a5f" y="147.53113"/>
     <use style="fill:#0000ff;stroke:#0000ff;" x="305.728831" xlink:href="#mdbbb070a5f" y="177.420522"/>
     <use style="fill:#0000ff;stroke:#0000ff;" x="352.108052" xlink:href="#mdbbb070a5f" y="193.001572"/>
     <use style="fill:#0000ff;stroke:#0000ff;" x="398.487273" xlink:href="#mdbbb070a5f" y="201.833405"/>
    </g>
   </g>
   <g id="PathCollection_9">
    <g clip-path="url(#pe1b7a4f00e)">
     <use style="fill:#0000ff;stroke:#0000ff;" x="73.832727" xlink:href="#mdbbb070a5f" y="237.199304"/>
     <use style="fill:#0000ff;stroke:#0000ff;" x="120.211948" xlink:href="#mdbbb070a5f" y="245.066963"/>
     <use style="fill:#0000ff;stroke:#0000ff;" x="166.591169" xlink:href="#mdbbb070a5f" y="223.430901"/>
     <use style="fill:#0000ff;stroke:#0000ff;" x="212.97039" xlink:href="#mdbbb070a5f" y="194.621384"/>
     <use style="fill:#0000ff;stroke:#0000ff;" x="259.34961" xlink:href="#mdbbb070a5f" y="187.640765"/>
     <use style="fill:#0000ff;stroke:#0000ff;" x="305.728831" xlink:href="#mdbbb070a5f" y="212.207917"/>
     <use style="fill:#0000ff;stroke:#0000ff;" x="352.108052" xlink:href="#mdbbb070a5f" y="225.667784"/>
     <use style="fill:#0000ff;stroke:#0000ff;" x="398.487273" xlink:href="#mdbbb070a5f" y="230.720056"/>
    </g>
   </g>
   <g id="PathCollection_10">
    <g clip-path="url(#pe1b7a4f00e)">
     <use style="fill:#0000ff;stroke:#0000ff;" x="73.832727" xlink:href="#mdbbb070a5f" y="219.38137"/>
     <use style="fill:#0000ff;stroke:#0000ff;" x="120.211948" xlink:href="#mdbbb070a5f" y="225.629217"/>
     <use style="fill:#0000ff;stroke:#0000ff;" x="166.591169" xlink:href="#mdbbb070a5f" y="208.042685"/>
     <use style="fill:#0000ff;stroke:#0000ff;" x="212.97039" xlink:href="#mdbbb070a5f" y="183.436967"/>
     <use style="fill:#0000ff;stroke:#0000ff;" x="259.34961" xlink:href="#mdbbb070a5f" y="173.795228"/>
     <use style="fill:#0000ff;stroke:#0000ff;" x="305.728831" xlink:href="#mdbbb070a5f" y="195.161322"/>
     <use style="fill:#0000ff;stroke:#0000ff;" x="352.108052" xlink:href="#mdbbb070a5f" y="206.422873"/>
     <use style="fill:#0000ff;stroke:#0000ff;" x="398.487273" xlink:href="#mdbbb070a5f" y="214.714769"/>
    </g>
   </g>
   <g id="PathCollection_11">
    <g clip-path="url(#pe1b7a4f00e)">
     <use style="fill:#0000ff;stroke:#0000ff;" x="73.832727" xlink:href="#mdbbb070a5f" y="223.585169"/>
     <use style="fill:#0000ff;stroke:#0000ff;" x="120.211948" xlink:href="#mdbbb070a5f" y="233.805412"/>
     <use style="fill:#0000ff;stroke:#0000ff;" x="166.591169" xlink:href="#mdbbb070a5f" y="209.739631"/>
     <use style="fill:#0000ff;stroke:#0000ff;" x="212.97039" xlink:href="#mdbbb070a5f" y="173.756661"/>
     <use style="fill:#0000ff;stroke:#0000ff;" x="259.34961" xlink:href="#mdbbb070a5f" y="163.729252"/>
     <use style="fill:#0000ff;stroke:#0000ff;" x="305.728831" xlink:href="#mdbbb070a5f" y="193.580077"/>
     <use style="fill:#0000ff;stroke:#0000ff;" x="352.108052" xlink:href="#mdbbb070a5f" y="208.042685"/>
     <use style="fill:#0000ff;stroke:#0000ff;" x="398.487273" xlink:href="#mdbbb070a5f" y="214.560501"/>
    </g>
   </g>
   <g id="PathCollection_12">
    <g clip-path="url(#pe1b7a4f00e)">
     <use style="fill:#0000ff;stroke:#0000ff;" x="73.832727" xlink:href="#mdbbb070a5f" y="233.149774"/>
     <use style="fill:#0000ff;stroke:#0000ff;" x="120.211948" xlink:href="#mdbbb070a5f" y="239.28192"/>
     <use style="fill:#0000ff;stroke:#0000ff;" x="166.591169" xlink:href="#mdbbb070a5f" y="212.28505"/>
     <use style="fill:#0000ff;stroke:#0000ff;" x="212.97039" xlink:href="#mdbbb070a5f" y="178.808932"/>
     <use style="fill:#0000ff;stroke:#0000ff;" x="259.34961" xlink:href="#mdbbb070a5f" y="172.985322"/>
     <use style="fill:#0000ff;stroke:#0000ff;" x="305.728831" xlink:href="#mdbbb070a5f" y="204.957329"/>
     <use style="fill:#0000ff;stroke:#0000ff;" x="352.108052" xlink:href="#mdbbb070a5f" y="222.312459"/>
     <use style="fill:#0000ff;stroke:#0000ff;" x="398.487273" xlink:href="#mdbbb070a5f" y="230.180118"/>
    </g>
   </g>
   <g id="PathCollection_13">
    <g clip-path="url(#pe1b7a4f00e)">
     <use style="fill:#0000ff;stroke:#0000ff;" x="73.832727" xlink:href="#mdbbb070a5f" y="228.676007"/>
     <use style="fill:#0000ff;stroke:#0000ff;" x="120.211948" xlink:href="#mdbbb070a5f" y="233.304042"/>
     <use style="fill:#0000ff;stroke:#0000ff;" x="166.591169" xlink:href="#mdbbb070a5f" y="215.871777"/>
     <use style="fill:#0000ff;stroke:#0000ff;" x="212.97039" xlink:href="#mdbbb070a5f" y="184.902511"/>
     <use style="fill:#0000ff;stroke:#0000ff;" x="259.34961" xlink:href="#mdbbb070a5f" y="177.150553"/>
     <use style="fill:#0000ff;stroke:#0000ff;" x="305.728831" xlink:href="#mdbbb070a5f" y="202.450477"/>
     <use style="fill:#0000ff;stroke:#0000ff;" x="352.108052" xlink:href="#mdbbb070a5f" y="216.103179"/>
     <use style="fill:#0000ff;stroke:#0000ff;" x="398.487273" xlink:href="#mdbbb070a5f" y="224.58791"/>
    </g>
   </g>
   <g id="PathCollection_14">
    <g clip-path="url(#pe1b7a4f00e)">
     <use style="fill:#0000ff;stroke:#0000ff;" x="73.832727" xlink:href="#mdbbb070a5f" y="210.472403"/>
     <use style="fill:#0000ff;stroke:#0000ff;" x="120.211948" xlink:href="#mdbbb070a5f" y="219.882741"/>
     <use style="fill:#0000ff;stroke:#0000ff;" x="166.591169" xlink:href="#mdbbb070a5f" y="196.549732"/>
     <use style="fill:#0000ff;stroke:#0000ff;" x="212.97039" xlink:href="#mdbbb070a5f" y="160.181092"/>
     <use style="fill:#0000ff;stroke:#0000ff;" x="259.34961" xlink:href="#mdbbb070a5f" y="146.991193"/>
     <use style="fill:#0000ff;stroke:#0000ff;" x="305.728831" xlink:href="#mdbbb070a5f" y="178.037593"/>
     <use style="fill:#0000ff;stroke:#0000ff;" x="352.108052" xlink:href="#mdbbb070a5f" y="195.084188"/>
     <use style="fill:#0000ff;stroke:#0000ff;" x="398.487273" xlink:href="#mdbbb070a5f" y="202.219075"/>
    </g>
   </g>
   <g id="PathCollection_15">
    <g clip-path="url(#pe1b7a4f00e)">
     <use style="fill:#0000ff;stroke:#0000ff;" x="73.832727" xlink:href="#mdbbb070a5f" y="238.973384"/>
     <use style="fill:#0000ff;stroke:#0000ff;" x="120.211948" xlink:href="#mdbbb070a5f" y="247.535249"/>
     <use style="fill:#0000ff;stroke:#0000ff;" x="166.591169" xlink:href="#mdbbb070a5f" y="227.326163"/>
     <use style="fill:#0000ff;stroke:#0000ff;" x="212.97039" xlink:href="#mdbbb070a5f" y="192.65447"/>
     <use style="fill:#0000ff;stroke:#0000ff;" x="259.34961" xlink:href="#mdbbb070a5f" y="184.555409"/>
     <use style="fill:#0000ff;stroke:#0000ff;" x="305.728831" xlink:href="#mdbbb070a5f" y="210.163868"/>
     <use style="fill:#0000ff;stroke:#0000ff;" x="352.108052" xlink:href="#mdbbb070a5f" y="227.441864"/>
     <use style="fill:#0000ff;stroke:#0000ff;" x="398.487273" xlink:href="#mdbbb070a5f" y="232.1856"/>
    </g>
   </g>
   <g id="PolyCollection_1">
    <path clip-path="url(#pe1b7a4f00e)" d="M 73.832727 229.908917 
L 73.832727 262.370329 
L 77.112066 253.357313 
L 80.391405 244.693048 
L 83.670744 236.503843 
L 86.950083 228.910426 
L 90.229421 222.023985 
L 93.50876 215.942398 
L 96.788099 210.746839 
L 100.067438 206.498912 
L 103.346777 203.238455 
L 106.626116 200.982125 
L 109.905455 199.722807 
L 113.184793 199.429889 
L 116.464132 200.050368 
L 119.743471 201.510723 
L 123.02281 203.719455 
L 126.302149 206.570161 
L 129.581488 209.944994 
L 132.860826 213.718338 
L 136.140165 217.760564 
L 139.419504 221.9417 
L 142.698843 226.134897 
L 145.978182 230.219604 
L 149.257521 234.084371 
L 152.53686 237.629234 
L 155.816198 240.767677 
L 159.095537 243.428159 
L 162.374876 245.555214 
L 165.654215 247.110138 
L 168.933554 248.071285 
L 172.212893 248.433986 
L 175.492231 248.210121 
L 178.77157 247.427365 
L 182.050909 246.128144 
L 185.330248 244.368321 
L 188.609587 242.215624 
L 191.888926 239.747835 
L 195.168264 237.050746 
L 198.447603 234.215884 
L 201.726942 231.338042 
L 205.006281 228.512632 
L 208.28562 225.832928 
L 211.564959 223.387278 
L 214.844298 221.256354 
L 218.123636 219.51056 
L 221.402975 218.207704 
L 224.682314 217.391024 
L 227.961653 217.087673 
L 231.240992 217.30773 
L 234.520331 218.043789 
L 237.799669 219.271141 
L 241.079008 220.948557 
L 244.358347 223.019612 
L 247.637686 225.414502 
L 250.917025 228.052269 
L 254.196364 230.843332 
L 257.475702 233.692219 
L 260.755041 236.500412 
L 264.03438 239.169193 
L 267.313719 241.602421 
L 270.593058 243.70918 
L 273.872397 245.406241 
L 277.151736 246.620306 
L 280.431074 247.290028 
L 283.710413 247.367764 
L 286.989752 246.821072 
L 290.269091 245.633917 
L 293.54843 243.807572 
L 296.827769 241.361194 
L 300.107107 238.332042 
L 303.386446 234.775317 
L 306.665785 230.763585 
L 309.945124 226.385776 
L 313.224463 221.745716 
L 316.503802 216.960184 
L 319.78314 212.156495 
L 323.062479 207.469608 
L 326.341818 203.038822 
L 329.621157 199.004116 
L 332.900496 195.502232 
L 336.179835 192.662647 
L 339.459174 190.603569 
L 342.738512 189.428138 
L 346.017851 189.220992 
L 349.29719 190.045378 
L 352.576529 191.940937 
L 355.855868 194.922296 
L 359.135207 198.978535 
L 362.414545 204.073581 
L 365.693884 210.147495 
L 368.973223 217.11862 
L 372.252562 224.886473 
L 375.531901 233.335249 
L 378.81124 242.337767 
L 382.090579 251.759683 
L 385.369917 261.463761 
L 388.649256 271.314035 
L 391.928595 281.179668 
L 395.207934 290.938363 
L 398.487273 300.479205 
L 398.487273 275.950935 
L 398.487273 275.950935 
L 395.207934 264.384291 
L 391.928595 252.511424 
L 388.649256 240.474029 
L 385.369917 228.427715 
L 382.090579 216.538356 
L 378.81124 204.977804 
L 375.531901 193.919067 
L 372.252562 183.531159 
L 368.973223 173.973799 
L 365.693884 165.392202 
L 362.414545 157.912198 
L 359.135207 151.635888 
L 355.855868 146.638066 
L 352.576529 142.963565 
L 349.29719 140.62566 
L 346.017851 139.605587 
L 342.738512 139.853224 
L 339.459174 141.288851 
L 336.179835 143.805935 
L 332.900496 147.274754 
L 329.621157 151.546725 
L 326.341818 156.45919 
L 323.062479 161.840476 
L 319.78314 167.515005 
L 316.503802 173.308263 
L 313.224463 179.051446 
L 309.945124 184.585668 
L 306.665785 189.765604 
L 303.386446 194.462528 
L 300.107107 198.566703 
L 296.827769 201.989153 
L 293.54843 204.662842 
L 290.269091 206.543305 
L 286.989752 207.608815 
L 283.710413 207.860116 
L 280.431074 207.319783 
L 277.151736 206.031219 
L 273.872397 204.057306 
L 270.593058 201.478697 
L 267.313719 198.391731 
L 264.03438 194.905983 
L 260.755041 191.141431 
L 257.475702 187.225273 
L 254.196364 183.288454 
L 250.917025 179.461946 
L 247.637686 175.872912 
L 244.358347 172.640852 
L 241.079008 169.873865 
L 237.799669 167.665195 
L 234.520331 166.090172 
L 231.240992 165.203712 
L 227.961653 165.038471 
L 224.682314 165.603758 
L 221.402975 166.88524 
L 218.123636 168.845474 
L 214.844298 171.425225 
L 211.564959 174.545514 
L 208.28562 178.110303 
L 205.006281 182.00968 
L 201.726942 186.123421 
L 198.447603 190.324781 
L 195.168264 194.484352 
L 191.888926 198.473881 
L 188.609587 202.169904 
L 185.330248 205.457125 
L 182.050909 208.231445 
L 178.77157 210.402619 
L 175.492231 211.896497 
L 172.212893 212.656866 
L 168.933554 212.646897 
L 165.654215 211.85022 
L 162.374876 210.271656 
L 159.095537 207.937603 
L 155.816198 204.896061 
L 152.53686 201.216276 
L 149.257521 196.987934 
L 145.978182 192.319858 
L 142.698843 187.338153 
L 139.419504 182.183765 
L 136.140165 177.009454 
L 132.860826 171.976205 
L 129.581488 167.249152 
L 126.302149 162.993105 
L 123.02281 159.367838 
L 119.743471 156.523291 
L 116.464132 154.594874 
L 113.184793 153.699088 
L 109.905455 153.929631 
L 106.626116 155.354214 
L 103.346777 158.012211 
L 100.067438 161.91328 
L 96.788099 167.037043 
L 93.50876 173.333824 
L 90.229421 180.726437 
L 86.950083 189.112932 
L 83.670744 198.370169 
L 80.391405 208.35805 
L 77.112066 218.924202 
L 73.832727 229.908917 
z
" style="fill:#1f77b4;fill-opacity:0.5;"/>
   </g>
   <g id="matplotlib.axis_1">
    <g id="xtick_1">
     <g id="line2d_1">
      <defs>
       <path d="M 0 0 
L 0 3.5 
" id="m1ff81ad6b3" style="stroke:#000000;stroke-width:0.8;"/>
      </defs>
      <g>
       <use style="stroke:#000000;stroke-width:0.8;" x="120.211948" xlink:href="#m1ff81ad6b3" y="307.584"/>
      </g>
     </g>
     <g id="text_1">
      <!-- 5 -->
      <g transform="translate(117.030698 322.182437)scale(0.1 -0.1)">
       <defs>
        <path d="M 10.796875 72.90625 
L 49.515625 72.90625 
L 49.515625 64.59375 
L 19.828125 64.59375 
L 19.828125 46.734375 
Q 21.96875 47.46875 24.109375 47.828125 
Q 26.265625 48.1875 28.421875 48.1875 
Q 40.625 48.1875 47.75 41.5 
Q 54.890625 34.8125 54.890625 23.390625 
Q 54.890625 11.625 47.5625 5.09375 
Q 40.234375 -1.421875 26.90625 -1.421875 
Q 22.3125 -1.421875 17.546875 -0.640625 
Q 12.796875 0.140625 7.71875 1.703125 
L 7.71875 11.625 
Q 12.109375 9.234375 16.796875 8.0625 
Q 21.484375 6.890625 26.703125 6.890625 
Q 35.15625 6.890625 40.078125 11.328125 
Q 45.015625 15.765625 45.015625 23.390625 
Q 45.015625 31 40.078125 35.4375 
Q 35.15625 39.890625 26.703125 39.890625 
Q 22.75 39.890625 18.8125 39.015625 
Q 14.890625 38.140625 10.796875 36.28125 
z
" id="DejaVuSans-53"/>
       </defs>
       <use xlink:href="#DejaVuSans-53"/>
      </g>
     </g>
    </g>
    <g id="xtick_2">
     <g id="line2d_2">
      <g>
       <use style="stroke:#000000;stroke-width:0.8;" x="197.510649" xlink:href="#m1ff81ad6b3" y="307.584"/>
      </g>
     </g>
     <g id="text_2">
      <!-- 10 -->
      <g transform="translate(191.148149 322.182437)scale(0.1 -0.1)">
       <defs>
        <path d="M 12.40625 8.296875 
L 28.515625 8.296875 
L 28.515625 63.921875 
L 10.984375 60.40625 
L 10.984375 69.390625 
L 28.421875 72.90625 
L 38.28125 72.90625 
L 38.28125 8.296875 
L 54.390625 8.296875 
L 54.390625 0 
L 12.40625 0 
z
" id="DejaVuSans-49"/>
        <path d="M 31.78125 66.40625 
Q 24.171875 66.40625 20.328125 58.90625 
Q 16.5 51.421875 16.5 36.375 
Q 16.5 21.390625 20.328125 13.890625 
Q 24.171875 6.390625 31.78125 6.390625 
Q 39.453125 6.390625 43.28125 13.890625 
Q 47.125 21.390625 47.125 36.375 
Q 47.125 51.421875 43.28125 58.90625 
Q 39.453125 66.40625 31.78125 66.40625 
z
M 31.78125 74.21875 
Q 44.046875 74.21875 50.515625 64.515625 
Q 56.984375 54.828125 56.984375 36.375 
Q 56.984375 17.96875 50.515625 8.265625 
Q 44.046875 -1.421875 31.78125 -1.421875 
Q 19.53125 -1.421875 13.0625 8.265625 
Q 6.59375 17.96875 6.59375 36.375 
Q 6.59375 54.828125 13.0625 64.515625 
Q 19.53125 74.21875 31.78125 74.21875 
z
" id="DejaVuSans-48"/>
       </defs>
       <use xlink:href="#DejaVuSans-49"/>
       <use x="63.623047" xlink:href="#DejaVuSans-48"/>
      </g>
     </g>
    </g>
    <g id="xtick_3">
     <g id="line2d_3">
      <g>
       <use style="stroke:#000000;stroke-width:0.8;" x="274.809351" xlink:href="#m1ff81ad6b3" y="307.584"/>
      </g>
     </g>
     <g id="text_3">
      <!-- 15 -->
      <g transform="translate(268.446851 322.182437)scale(0.1 -0.1)">
       <use xlink:href="#DejaVuSans-49"/>
       <use x="63.623047" xlink:href="#DejaVuSans-53"/>
      </g>
     </g>
    </g>
    <g id="xtick_4">
     <g id="line2d_4">
      <g>
       <use style="stroke:#000000;stroke-width:0.8;" x="352.108052" xlink:href="#m1ff81ad6b3" y="307.584"/>
      </g>
     </g>
     <g id="text_4">
      <!-- 20 -->
      <g transform="translate(345.745552 322.182437)scale(0.1 -0.1)">
       <defs>
        <path d="M 19.1875 8.296875 
L 53.609375 8.296875 
L 53.609375 0 
L 7.328125 0 
L 7.328125 8.296875 
Q 12.9375 14.109375 22.625 23.890625 
Q 32.328125 33.6875 34.8125 36.53125 
Q 39.546875 41.84375 41.421875 45.53125 
Q 43.3125 49.21875 43.3125 52.78125 
Q 43.3125 58.59375 39.234375 62.25 
Q 35.15625 65.921875 28.609375 65.921875 
Q 23.96875 65.921875 18.8125 64.3125 
Q 13.671875 62.703125 7.8125 59.421875 
L 7.8125 69.390625 
Q 13.765625 71.78125 18.9375 73 
Q 24.125 74.21875 28.421875 74.21875 
Q 39.75 74.21875 46.484375 68.546875 
Q 53.21875 62.890625 53.21875 53.421875 
Q 53.21875 48.921875 51.53125 44.890625 
Q 49.859375 40.875 45.40625 35.40625 
Q 44.1875 33.984375 37.640625 27.21875 
Q 31.109375 20.453125 19.1875 8.296875 
z
" id="DejaVuSans-50"/>
       </defs>
       <use xlink:href="#DejaVuSans-50"/>
       <use x="63.623047" xlink:href="#DejaVuSans-48"/>
      </g>
     </g>
    </g>
   </g>
   <g id="matplotlib.axis_2">
    <g id="ytick_1">
     <g id="line2d_5">
      <defs>
       <path d="M 0 0 
L -3.5 0 
" id="m4441b8370c" style="stroke:#000000;stroke-width:0.8;"/>
      </defs>
      <g>
       <use style="stroke:#000000;stroke-width:0.8;" x="57.6" xlink:href="#m4441b8370c" y="272.873739"/>
      </g>
     </g>
     <g id="text_5">
      <!-- 10 -->
      <g transform="translate(37.875 276.672958)scale(0.1 -0.1)">
       <use xlink:href="#DejaVuSans-49"/>
       <use x="63.623047" xlink:href="#DejaVuSans-48"/>
      </g>
     </g>
    </g>
    <g id="ytick_2">
     <g id="line2d_6">
      <g>
       <use style="stroke:#000000;stroke-width:0.8;" x="57.6" xlink:href="#m4441b8370c" y="215.023304"/>
      </g>
     </g>
     <g id="text_6">
      <!-- 15 -->
      <g transform="translate(37.875 218.822523)scale(0.1 -0.1)">
       <use xlink:href="#DejaVuSans-49"/>
       <use x="63.623047" xlink:href="#DejaVuSans-53"/>
      </g>
     </g>
    </g>
    <g id="ytick_3">
     <g id="line2d_7">
      <g>
       <use style="stroke:#000000;stroke-width:0.8;" x="57.6" xlink:href="#m4441b8370c" y="157.17287"/>
      </g>
     </g>
     <g id="text_7">
      <!-- 20 -->
      <g transform="translate(37.875 160.972088)scale(0.1 -0.1)">
       <use xlink:href="#DejaVuSans-50"/>
       <use x="63.623047" xlink:href="#DejaVuSans-48"/>
      </g>
     </g>
    </g>
    <g id="ytick_4">
     <g id="line2d_8">
      <g>
       <use style="stroke:#000000;stroke-width:0.8;" x="57.6" xlink:href="#m4441b8370c" y="99.322435"/>
      </g>
     </g>
     <g id="text_8">
      <!-- 25 -->
      <g transform="translate(37.875 103.121654)scale(0.1 -0.1)">
       <use xlink:href="#DejaVuSans-50"/>
       <use x="63.623047" xlink:href="#DejaVuSans-53"/>
      </g>
     </g>
    </g>
    <g id="ytick_5">
     <g id="line2d_9">
      <g>
       <use style="stroke:#000000;stroke-width:0.8;" x="57.6" xlink:href="#m4441b8370c" y="41.472"/>
      </g>
     </g>
     <g id="text_9">
      <!-- 30 -->
      <g transform="translate(37.875 45.271219)scale(0.1 -0.1)">
       <defs>
        <path d="M 40.578125 39.3125 
Q 47.65625 37.796875 51.625 33 
Q 55.609375 28.21875 55.609375 21.1875 
Q 55.609375 10.40625 48.1875 4.484375 
Q 40.765625 -1.421875 27.09375 -1.421875 
Q 22.515625 -1.421875 17.65625 -0.515625 
Q 12.796875 0.390625 7.625 2.203125 
L 7.625 11.71875 
Q 11.71875 9.328125 16.59375 8.109375 
Q 21.484375 6.890625 26.8125 6.890625 
Q 36.078125 6.890625 40.9375 10.546875 
Q 45.796875 14.203125 45.796875 21.1875 
Q 45.796875 27.640625 41.28125 31.265625 
Q 36.765625 34.90625 28.71875 34.90625 
L 20.21875 34.90625 
L 20.21875 43.015625 
L 29.109375 43.015625 
Q 36.375 43.015625 40.234375 45.921875 
Q 44.09375 48.828125 44.09375 54.296875 
Q 44.09375 59.90625 40.109375 62.90625 
Q 36.140625 65.921875 28.71875 65.921875 
Q 24.65625 65.921875 20.015625 65.03125 
Q 15.375 64.15625 9.8125 62.3125 
L 9.8125 71.09375 
Q 15.4375 72.65625 20.34375 73.4375 
Q 25.25 74.21875 29.59375 74.21875 
Q 40.828125 74.21875 47.359375 69.109375 
Q 53.90625 64.015625 53.90625 55.328125 
Q 53.90625 49.265625 50.4375 45.09375 
Q 46.96875 40.921875 40.578125 39.3125 
z
" id="DejaVuSans-51"/>
       </defs>
       <use xlink:href="#DejaVuSans-51"/>
       <use x="63.623047" xlink:href="#DejaVuSans-48"/>
      </g>
     </g>
    </g>
   </g>
   <g id="line2d_10">
    <path clip-path="url(#pe1b7a4f00e)" d="M 73.832727 246.139623 
L 77.112066 236.140758 
L 80.391405 226.525549 
L 83.670744 217.437006 
L 86.950083 209.011679 
L 90.229421 201.375211 
L 93.50876 194.638111 
L 96.788099 188.891941 
L 100.067438 184.206096 
L 103.346777 180.625333 
L 106.626116 178.16817 
L 109.905455 176.826219 
L 113.184793 176.564488 
L 116.464132 177.322621 
L 119.743471 179.017007 
L 123.02281 181.543646 
L 126.302149 184.781633 
L 129.581488 188.597073 
L 132.860826 192.847272 
L 136.140165 197.385009 
L 139.419504 202.062732 
L 142.698843 206.736525 
L 145.978182 211.269731 
L 149.257521 215.536153 
L 152.53686 219.422755 
L 155.816198 222.831869 
L 159.095537 225.682881 
L 162.374876 227.913435 
L 165.654215 229.480179 
L 168.933554 230.359091 
L 172.212893 230.545426 
L 175.492231 230.053309 
L 178.77157 228.914992 
L 182.050909 227.179795 
L 185.330248 224.912723 
L 188.609587 222.192764 
L 191.888926 219.110858 
L 195.168264 215.767549 
L 198.447603 212.270333 
L 201.726942 208.730732 
L 205.006281 205.261156 
L 208.28562 201.971616 
L 211.564959 198.966396 
L 214.844298 196.340789 
L 218.123636 194.178017 
L 221.402975 192.546472 
L 224.682314 191.497391 
L 227.961653 191.063072 
L 231.240992 191.255721 
L 234.520331 192.06698 
L 237.799669 193.468168 
L 241.079008 195.411211 
L 244.358347 197.830232 
L 247.637686 200.643707 
L 250.917025 203.757107 
L 254.196364 207.065893 
L 257.475702 210.458746 
L 260.755041 213.820921 
L 264.03438 217.037588 
L 267.313719 219.997076 
L 270.593058 222.593939 
L 273.872397 224.731773 
L 277.151736 226.325762 
L 280.431074 227.304905 
L 283.710413 227.61394 
L 286.989752 227.214944 
L 290.269091 226.088611 
L 293.54843 224.235207 
L 296.827769 221.675174 
L 300.107107 218.449372 
L 303.386446 214.618922 
L 306.665785 210.264595 
L 309.945124 205.485722 
L 313.224463 200.398581 
L 316.503802 195.134224 
L 319.78314 189.83575 
L 323.062479 184.655042 
L 326.341818 179.749006 
L 329.621157 175.27542 
L 332.900496 171.388493 
L 336.179835 168.234291 
L 339.459174 165.94621 
L 342.738512 164.640681 
L 346.017851 164.41329 
L 349.29719 165.335519 
L 352.576529 167.452251 
L 355.855868 170.780181 
L 359.135207 175.307211 
L 362.414545 180.992889 
L 365.693884 187.769848 
L 368.973223 195.546209 
L 372.252562 204.208816 
L 375.531901 213.627158 
L 378.81124 223.657786 
L 382.090579 234.149019 
L 385.369917 244.945738 
L 388.649256 255.894032 
L 391.928595 266.845546 
L 395.207934 277.661327 
L 398.487273 288.21507 
" style="fill:none;stroke:#1f77b4;stroke-linecap:square;stroke-width:1.5;"/>
   </g>
   <g id="line2d_11">
    <path clip-path="url(#pe1b7a4f00e)" d="M 73.832727 250.952267 
L 77.112066 241.287312 
L 80.391405 231.990843 
L 83.670744 223.200183 
L 86.950083 215.046154 
L 90.229421 207.648724 
L 93.50876 201.112847 
L 96.788099 195.524711 
L 100.067438 190.948535 
L 103.346777 187.4241 
L 106.626116 184.965105 
L 109.905455 183.55843 
L 113.184793 183.164344 
L 116.464132 183.717627 
L 119.743471 185.129545 
L 123.02281 187.290596 
L 126.302149 190.073861 
L 129.581488 193.338846 
L 132.860826 196.935617 
L 136.140165 200.709084 
L 139.419504 204.503276 
L 142.698843 208.165468 
L 145.978182 211.550048 
L 149.257521 214.52204 
L 152.53686 216.960228 
L 155.816198 218.759838 
L 159.095537 219.834768 
L 162.374876 220.119367 
L 165.654215 219.569762 
L 168.933554 218.164745 
L 172.212893 215.906229 
L 175.492231 212.819245 
L 178.77157 208.951504 
L 182.050909 204.372463 
L 185.330248 199.171911 
L 188.609587 193.458026 
L 191.888926 187.354912 
L 195.168264 180.999613 
L 198.447603 174.538637 
L 201.726942 168.124049 
L 205.006281 161.909221 
L 208.28562 156.044361 
L 211.564959 150.671961 
L 214.844298 145.922343 
L 218.123636 141.909475 
L 221.402975 138.727233 
L 224.682314 136.446294 
L 227.961653 135.111788 
L 231.240992 134.741833 
L 234.520331 135.327018 
L 237.799669 136.830865 
L 241.079008 139.191229 
L 244.358347 142.322577 
L 247.637686 146.119026 
L 250.917025 150.457983 
L 254.196364 155.204235 
L 257.475702 160.214292 
L 260.755041 165.340813 
L 264.03438 170.43695 
L 267.313719 175.360468 
L 270.593058 179.977531 
L 273.872397 184.166065 
L 277.151736 187.818662 
L 280.431074 190.844995 
L 283.710413 193.173755 
L 286.989752 194.754118 
L 290.269091 195.556779 
L 293.54843 195.574577 
L 296.827769 194.822711 
L 300.107107 193.338585 
L 303.386446 191.18125 
L 306.665785 188.430432 
L 309.945124 185.185131 
L 313.224463 181.561743 
L 316.503802 177.691705 
L 319.78314 173.718638 
L 323.062479 169.79501 
L 326.341818 166.078359 
L 329.621157 162.727153 
L 332.900496 159.896388 
L 336.179835 157.733068 
L 339.459174 156.371728 
L 342.738512 155.930183 
L 346.017851 156.505685 
L 349.29719 158.171668 
L 352.576529 160.975255 
L 355.855868 164.93564 
L 359.135207 170.043449 
L 362.414545 176.261119 
L 365.693884 183.524288 
L 368.973223 191.744129 
L 372.252562 200.810531 
L 375.531901 210.595961 
L 378.81124 220.959841 
L 382.090579 231.753216 
L 385.369917 242.823516 
L 388.649256 254.019203 
L 391.928595 265.194098 
L 395.207934 276.211239 
L 398.487273 286.946138 
" style="fill:none;stroke:#ff7f0e;stroke-linecap:square;stroke-width:1.5;"/>
   </g>
   <g id="line2d_12">
    <path clip-path="url(#pe1b7a4f00e)" d="M 73.832727 253.611937 
L 77.112066 244.136753 
L 80.391405 235.023678 
L 83.670744 226.407437 
L 86.950083 218.416363 
L 90.229421 211.168113 
L 93.50876 204.765592 
L 96.788099 199.29325 
L 100.067438 194.813944 
L 103.346777 191.366498 
L 106.626116 188.964086 
L 109.905455 187.593502 
L 113.184793 187.21535 
L 116.464132 187.765141 
L 119.743471 189.15523 
L 123.02281 191.277499 
L 126.302149 194.006657 
L 129.581488 197.204003 
L 132.860826 200.721497 
L 136.140165 204.405982 
L 139.419504 208.103388 
L 142.698843 211.662812 
L 145.978182 214.940342 
L 149.257521 217.802546 
L 152.53686 220.129576 
L 155.816198 221.817843 
L 159.095537 222.782245 
L 162.374876 222.957958 
L 165.654215 222.301781 
L 168.933554 220.793044 
L 172.212893 218.434082 
L 175.492231 215.250266 
L 178.77157 211.289577 
L 182.050909 206.6217 
L 185.330248 201.336622 
L 188.609587 195.542704 
L 191.888926 189.364228 
L 195.168264 182.93841 
L 198.447603 176.411934 
L 201.726942 169.937039 
L 205.006281 163.667269 
L 208.28562 157.753001 
L 211.564959 152.336889 
L 214.844298 147.549409 
L 218.123636 143.504673 
L 221.402975 140.296692 
L 224.682314 137.996269 
L 227.961653 136.648652 
L 231.240992 136.272077 
L 234.520331 136.857247 
L 237.799669 138.367802 
L 241.079008 140.741723 
L 244.358347 143.893613 
L 247.637686 147.717735 
L 250.917025 152.091664 
L 254.196364 156.880367 
L 257.475702 161.940551 
L 260.755041 167.125088 
L 264.03438 172.287353 
L 267.313719 177.285336 
L 270.593058 181.985417 
L 273.872397 186.265716 
L 277.151736 190.018976 
L 280.431074 193.154957 
L 283.710413 195.602343 
L 286.989752 197.310179 
L 290.269091 198.248878 
L 293.54843 198.410796 
L 296.827769 197.810434 
L 300.107107 196.48424 
L 303.386446 194.490031 
L 306.665785 191.906006 
L 309.945124 188.829337 
L 313.224463 185.3743 
L 316.503802 181.669942 
L 319.78314 177.85726 
L 323.062479 174.085913 
L 326.341818 170.510519 
L 329.621157 167.286586 
L 332.900496 164.566202 
L 336.179835 162.49361 
L 339.459174 161.200825 
L 342.738512 160.803477 
L 346.017851 161.397051 
L 349.29719 163.053713 
L 352.576529 165.819865 
L 355.855868 169.714571 
L 359.135207 174.728933 
L 362.414545 180.826465 
L 365.693884 187.944448 
L 368.973223 195.996223 
L 372.252562 204.874298 
L 375.531901 214.454127 
L 378.81124 224.59839 
L 382.090579 235.16156 
L 385.369917 245.994563 
L 388.649256 256.949319 
L 391.928595 267.882976 
L 395.207934 278.661688 
L 398.487273 289.163792 
" style="fill:none;stroke:#2ca02c;stroke-linecap:square;stroke-width:1.5;"/>
   </g>
   <g id="line2d_13">
    <path clip-path="url(#pe1b7a4f00e)" d="M 73.832727 265.456841 
L 77.112066 256.835965 
L 80.391405 248.551617 
L 83.670744 240.727476 
L 86.950083 233.481364 
L 90.229421 226.921318 
L 93.50876 221.141836 
L 96.788099 216.220474 
L 100.067438 212.214953 
L 103.346777 209.160901 
L 106.626116 207.070356 
L 109.905455 205.931071 
L 113.184793 205.706676 
L 116.464132 206.337664 
L 119.743471 207.743159 
L 123.02281 209.823362 
L 126.302149 212.462583 
L 129.581488 215.532698 
L 132.860826 218.896897 
L 136.140165 222.413571 
L 139.419504 225.940206 
L 142.698843 229.337151 
L 145.978182 232.471165 
L 149.257521 235.218659 
L 152.53686 237.468581 
L 155.816198 239.124901 
L 159.095537 240.108692 
L 162.374876 240.359787 
L 165.654215 239.838036 
L 168.933554 238.524135 
L 172.212893 236.420055 
L 175.492231 233.549059 
L 178.77157 229.955279 
L 182.050909 225.70286 
L 185.330248 220.874633 
L 188.609587 215.570309 
L 191.888926 209.904196 
L 195.168264 204.002424 
L 198.447603 197.999741 
L 201.726942 192.035908 
L 205.006281 186.251793 
L 208.28562 180.785268 
L 211.564959 175.767046 
L 214.844298 171.316612 
L 218.123636 167.53841 
L 221.402975 164.51845 
L 224.682314 162.321483 
L 227.961653 160.988886 
L 231.240992 160.537343 
L 234.520331 160.958398 
L 237.799669 162.21889 
L 241.079008 164.262247 
L 244.358347 167.010574 
L 247.637686 170.367424 
L 250.917025 174.221127 
L 254.196364 178.448507 
L 257.475702 182.918839 
L 260.755041 187.497878 
L 264.03438 192.051814 
L 267.313719 196.451017 
L 270.593058 200.573482 
L 273.872397 204.307899 
L 277.151736 207.556296 
L 280.431074 210.236244 
L 283.710413 212.282627 
L 286.989752 213.648988 
L 290.269091 214.308483 
L 293.54843 214.254448 
L 296.827769 213.50062 
L 300.107107 212.08099 
L 303.386446 210.049302 
L 306.665785 207.478176 
L 309.945124 204.45782 
L 313.224463 201.09433 
L 316.503802 197.507526 
L 319.78314 193.828353 
L 323.062479 190.195827 
L 326.341818 186.753587 
L 329.621157 183.646116 
L 332.900496 181.014726 
L 336.179835 178.993427 
L 339.459174 177.704852 
L 342.738512 177.256374 
L 346.017851 177.736609 
L 349.29719 179.212453 
L 352.576529 181.726805 
L 355.855868 185.297106 
L 359.135207 189.914754 
L 362.414545 195.545459 
L 365.693884 202.130508 
L 368.973223 209.5889 
L 372.252562 217.820247 
L 375.531901 226.708293 
L 378.81124 236.124903 
L 382.090579 245.934321 
L 385.369917 255.997502 
L 388.649256 266.176349 
L 391.928595 276.337652 
L 395.207934 286.356602 
L 398.487273 296.119754 
" style="fill:none;stroke:#d62728;stroke-linecap:square;stroke-width:1.5;"/>
   </g>
   <g id="line2d_14">
    <path clip-path="url(#pe1b7a4f00e)" d="M 73.832727 249.870774 
L 77.112066 240.147058 
L 80.391405 230.799576 
L 83.670744 221.967423 
L 86.950083 213.783163 
L 90.229421 206.368425 
L 93.50876 199.829713 
L 96.788099 194.254598 
L 100.067438 189.708492 
L 103.346777 186.232145 
L 106.626116 183.839982 
L 109.905455 182.519363 
L 113.184793 182.230785 
L 116.464132 182.909015 
L 119.743471 184.465096 
L 123.02281 186.789114 
L 126.302149 189.753592 
L 129.581488 193.217369 
L 132.860826 197.029785 
L 136.140165 201.034999 
L 139.419504 205.076308 
L 142.698843 209.000297 
L 145.978182 212.660729 
L 149.257521 215.92207 
L 152.53686 218.662604 
L 155.816198 220.777094 
L 159.095537 222.178965 
L 162.374876 222.802035 
L 165.654215 222.601779 
L 168.933554 221.556142 
L 172.212893 219.66592 
L 175.492231 216.954692 
L 178.77157 213.468311 
L 182.050909 209.273928 
L 185.330248 204.458541 
L 188.609587 199.127049 
L 191.888926 193.399807 
L 195.168264 187.409686 
L 198.447603 181.298672 
L 201.726942 175.214064 
L 205.006281 169.30435 
L 208.28562 163.714874 
L 211.564959 158.583446 
L 214.844298 154.036048 
L 218.123636 150.182795 
L 221.402975 147.114353 
L 224.682314 144.898944 
L 227.961653 143.580095 
L 231.240992 143.175237 
L 234.520331 143.675211 
L 237.799669 145.044717 
L 241.079008 147.223663 
L 244.358347 150.129363 
L 247.637686 153.659458 
L 250.917025 157.695419 
L 254.196364 162.106489 
L 257.475702 166.753859 
L 260.755041 171.494945 
L 264.03438 176.187579 
L 267.313719 180.694 
L 270.593058 184.884534 
L 273.872397 188.640873 
L 277.151736 191.858933 
L 280.431074 194.451248 
L 283.710413 196.348908 
L 286.989752 197.503073 
L 290.269091 197.886055 
L 293.54843 197.492011 
L 296.827769 196.337249 
L 300.107107 194.460151 
L 303.386446 191.920698 
L 306.665785 188.799573 
L 309.945124 185.196811 
L 313.224463 181.229976 
L 316.503802 177.031815 
L 319.78314 172.747412 
L 323.062479 168.530828 
L 326.341818 164.541287 
L 329.621157 160.938984 
L 332.900496 157.880618 
L 336.179835 155.514796 
L 339.459174 153.977485 
L 342.738512 153.38768 
L 346.017851 153.843497 
L 349.29719 155.41886 
L 352.576529 158.16096 
L 355.855868 162.088614 
L 359.135207 167.191613 
L 362.414545 173.431109 
L 365.693884 180.741032 
L 368.973223 189.030467 
L 372.252562 198.186892 
L 375.531901 208.080107 
L 378.81124 218.566686 
L 382.090579 229.494723 
L 385.369917 240.70868 
L 388.649256 252.054103 
L 391.928595 263.382024 
L 395.207934 274.552884 
L 398.487273 285.439831 
" style="fill:none;stroke:#9467bd;stroke-linecap:square;stroke-width:1.5;"/>
   </g>
   <g id="line2d_15">
    <path clip-path="url(#pe1b7a4f00e)" d="M 73.832727 261.890386 
L 77.112066 252.99541 
L 80.391405 244.440121 
L 83.670744 236.350982 
L 86.950083 228.848473 
L 90.229421 222.043071 
L 93.50876 216.031428 
L 96.788099 210.892905 
L 100.067438 206.686628 
L 103.346777 203.449207 
L 106.626116 201.193222 
L 109.905455 199.906544 
L 113.184793 199.55252 
L 116.464132 200.071005 
L 119.743471 201.380187 
L 123.02281 203.379101 
L 126.302149 205.95073 
L 129.581488 208.965531 
L 132.860826 212.285254 
L 136.140165 215.766886 
L 139.419504 219.266591 
L 142.698843 222.643518 
L 145.978182 225.763365 
L 149.257521 228.501634 
L 152.53686 230.746509 
L 155.816198 232.401337 
L 159.095537 233.386689 
L 162.374876 233.642 
L 165.654215 233.1268 
L 168.933554 231.821537 
L 172.212893 229.727994 
L 175.492231 226.869293 
L 178.77157 223.289488 
L 182.050909 219.052707 
L 185.330248 214.24184 
L 188.609587 208.956752 
L 191.888926 203.312002 
L 195.168264 197.434086 
L 198.447603 191.458231 
L 201.726942 185.524786 
L 205.006281 179.775299 
L 208.28562 174.348387 
L 211.564959 169.375546 
L 214.844298 164.977032 
L 218.123636 161.258007 
L 221.402975 158.305093 
L 224.682314 156.183506 
L 227.961653 154.934893 
L 231.240992 154.575987 
L 234.520331 155.098129 
L 237.799669 156.467698 
L 241.079008 158.627407 
L 244.358347 161.498405 
L 247.637686 164.983079 
L 250.917025 168.968417 
L 254.196364 173.329774 
L 257.475702 177.934883 
L 260.755041 182.647927 
L 264.03438 187.333552 
L 267.313719 191.86066 
L 270.593058 196.105895 
L 273.872397 199.956749 
L 277.151736 203.314228 
L 280.431074 206.095086 
L 283.710413 208.233599 
L 286.989752 209.682925 
L 290.269091 210.416055 
L 293.54843 210.426382 
L 296.827769 209.72791 
L 300.107107 208.355108 
L 303.386446 206.362394 
L 306.665785 203.823249 
L 309.945124 200.828917 
L 313.224463 197.486685 
L 316.503802 193.917708 
L 319.78314 190.254379 
L 323.062479 186.637253 
L 326.341818 183.211564 
L 329.621157 180.123411 
L 332.900496 177.515695 
L 336.179835 175.523955 
L 339.459174 174.272234 
L 342.738512 173.869161 
L 346.017851 174.404402 
L 349.29719 175.945661 
L 352.576529 178.536376 
L 355.855868 182.194228 
L 359.135207 186.910546 
L 362.414545 192.650661 
L 365.693884 199.355182 
L 368.973223 206.942153 
L 372.252562 215.309983 
L 375.531901 224.341011 
L 378.81124 233.905542 
L 382.090579 243.866151 
L 385.369917 254.082084 
L 388.649256 264.413532 
L 391.928595 274.725635 
L 395.207934 284.892038 
L 398.487273 294.797892 
" style="fill:none;stroke:#8c564b;stroke-linecap:square;stroke-width:1.5;"/>
   </g>
   <g id="patch_3">
    <path d="M 57.6 307.584 
L 57.6 41.472 
" style="fill:none;stroke:#000000;stroke-linecap:square;stroke-linejoin:miter;stroke-width:0.8;"/>
   </g>
   <g id="patch_4">
    <path d="M 414.72 307.584 
L 414.72 41.472 
" style="fill:none;stroke:#000000;stroke-linecap:square;stroke-linejoin:miter;stroke-width:0.8;"/>
   </g>
   <g id="patch_5">
    <path d="M 57.6 307.584 
L 414.72 307.584 
" style="fill:none;stroke:#000000;stroke-linecap:square;stroke-linejoin:miter;stroke-width:0.8;"/>
   </g>
   <g id="patch_6">
    <path d="M 57.6 41.472 
L 414.72 41.472 
" style="fill:none;stroke:#000000;stroke-linecap:square;stroke-linejoin:miter;stroke-width:0.8;"/>
   </g>
  </g>
 </g>
 <defs>
  <clipPath id="pe1b7a4f00e">
   <rect height="266.112" width="357.12" x="57.6" y="41.472"/>
  </clipPath>
 </defs>
</svg>
