<?xml version="1.0" encoding="utf-8" standalone="no"?>
<!DOCTYPE svg PUBLIC "-//W3C//DTD SVG 1.1//EN"
  "http://www.w3.org/Graphics/SVG/1.1/DTD/svg11.dtd">
<!-- Created with matplotlib (https://matplotlib.org/) -->
<svg height="345.6pt" version="1.1" viewBox="0 0 460.8 345.6" width="460.8pt" xmlns="http://www.w3.org/2000/svg" xmlns:xlink="http://www.w3.org/1999/xlink">
 <metadata>
  <rdf:RDF xmlns:cc="http://creativecommons.org/ns#" xmlns:dc="http://purl.org/dc/elements/1.1/" xmlns:rdf="http://www.w3.org/1999/02/22-rdf-syntax-ns#">
   <cc:Work>
    <dc:type rdf:resource="http://purl.org/dc/dcmitype/StillImage"/>
    <dc:date>2021-11-24T17:23:00.567641</dc:date>
    <dc:format>image/svg+xml</dc:format>
    <dc:creator>
     <cc:Agent>
      <dc:title>Matplotlib v3.3.4, https://matplotlib.org/</dc:title>
     </cc:Agent>
    </dc:creator>
   </cc:Work>
  </rdf:RDF>
 </metadata>
 <defs>
  <style type="text/css">*{stroke-linecap:butt;stroke-linejoin:round;}</style>
 </defs>
 <g id="figure_1">
  <g id="patch_1">
   <path d="M 0 345.6 
L 460.8 345.6 
L 460.8 0 
L 0 0 
z
" style="fill:#ffffff;"/>
  </g>
  <g id="axes_1">
   <g id="patch_2">
    <path d="M 57.6 307.584 
L 414.72 307.584 
L 414.72 41.472 
L 57.6 41.472 
z
" style="fill:#ffffff;"/>
   </g>
   <g id="PathCollection_1">
    <defs>
     <path d="M 0 0.5 
C 0.132602 0.5 0.25979 0.447317 0.353553 0.353553 
C 0.447317 0.25979 0.5 0.132602 0.5 0 
C 0.5 -0.132602 0.447317 -0.25979 0.353553 -0.353553 
C 0.25979 -0.447317 0.132602 -0.5 0 -0.5 
C -0.132602 -0.5 -0.25979 -0.447317 -0.353553 -0.353553 
C -0.447317 -0.25979 -0.5 -0.132602 -0.5 0 
C -0.5 0.132602 -0.447317 0.25979 -0.353553 0.353553 
C -0.25979 0.447317 -0.132602 0.5 0 0.5 
z
" id="m73f404f97c" style="stroke:#0000ff;"/>
    </defs>
    <g clip-path="url(#p9b92355e32)">
     <use style="fill:#0000ff;stroke:#0000ff;" x="73.832727" xlink:href="#m73f404f97c" y="238.973384"/>
     <use style="fill:#0000ff;stroke:#0000ff;" x="120.211948" xlink:href="#m73f404f97c" y="247.535249"/>
     <use style="fill:#0000ff;stroke:#0000ff;" x="166.591169" xlink:href="#m73f404f97c" y="227.326163"/>
     <use style="fill:#0000ff;stroke:#0000ff;" x="212.97039" xlink:href="#m73f404f97c" y="192.65447"/>
     <use style="fill:#0000ff;stroke:#0000ff;" x="259.34961" xlink:href="#m73f404f97c" y="184.555409"/>
     <use style="fill:#0000ff;stroke:#0000ff;" x="305.728831" xlink:href="#m73f404f97c" y="210.163868"/>
     <use style="fill:#0000ff;stroke:#0000ff;" x="352.108052" xlink:href="#m73f404f97c" y="227.441864"/>
     <use style="fill:#0000ff;stroke:#0000ff;" x="398.487273" xlink:href="#m73f404f97c" y="232.1856"/>
    </g>
   </g>
   <g id="PathCollection_2">
    <g clip-path="url(#p9b92355e32)">
     <use style="fill:#0000ff;stroke:#0000ff;" x="73.832727" xlink:href="#m73f404f97c" y="227.094762"/>
     <use style="fill:#0000ff;stroke:#0000ff;" x="120.211948" xlink:href="#m73f404f97c" y="233.034073"/>
     <use style="fill:#0000ff;stroke:#0000ff;" x="166.591169" xlink:href="#m73f404f97c" y="209.199694"/>
     <use style="fill:#0000ff;stroke:#0000ff;" x="212.97039" xlink:href="#m73f404f97c" y="174.219464"/>
     <use style="fill:#0000ff;stroke:#0000ff;" x="259.34961" xlink:href="#m73f404f97c" y="166.197537"/>
     <use style="fill:#0000ff;stroke:#0000ff;" x="305.728831" xlink:href="#m73f404f97c" y="199.326553"/>
     <use style="fill:#0000ff;stroke:#0000ff;" x="352.108052" xlink:href="#m73f404f97c" y="218.687165"/>
     <use style="fill:#0000ff;stroke:#0000ff;" x="398.487273" xlink:href="#m73f404f97c" y="223.508035"/>
    </g>
   </g>
   <g id="PathCollection_3">
    <g clip-path="url(#p9b92355e32)">
     <use style="fill:#0000ff;stroke:#0000ff;" x="73.832727" xlink:href="#m73f404f97c" y="219.612772"/>
     <use style="fill:#0000ff;stroke:#0000ff;" x="120.211948" xlink:href="#m73f404f97c" y="226.169155"/>
     <use style="fill:#0000ff;stroke:#0000ff;" x="166.591169" xlink:href="#m73f404f97c" y="202.450477"/>
     <use style="fill:#0000ff;stroke:#0000ff;" x="212.97039" xlink:href="#m73f404f97c" y="168.395854"/>
     <use style="fill:#0000ff;stroke:#0000ff;" x="259.34961" xlink:href="#m73f404f97c" y="158.908383"/>
     <use style="fill:#0000ff;stroke:#0000ff;" x="305.728831" xlink:href="#m73f404f97c" y="189.569113"/>
     <use style="fill:#0000ff;stroke:#0000ff;" x="352.108052" xlink:href="#m73f404f97c" y="206.96281"/>
     <use style="fill:#0000ff;stroke:#0000ff;" x="398.487273" xlink:href="#m73f404f97c" y="214.869037"/>
    </g>
   </g>
   <g id="PathCollection_4">
    <g clip-path="url(#p9b92355e32)">
     <use style="fill:#0000ff;stroke:#0000ff;" x="73.832727" xlink:href="#m73f404f97c" y="235.926595"/>
     <use style="fill:#0000ff;stroke:#0000ff;" x="120.211948" xlink:href="#m73f404f97c" y="244.21849"/>
     <use style="fill:#0000ff;stroke:#0000ff;" x="166.591169" xlink:href="#m73f404f97c" y="220.114143"/>
     <use style="fill:#0000ff;stroke:#0000ff;" x="212.97039" xlink:href="#m73f404f97c" y="186.676591"/>
     <use style="fill:#0000ff;stroke:#0000ff;" x="259.34961" xlink:href="#m73f404f97c" y="180.004508"/>
     <use style="fill:#0000ff;stroke:#0000ff;" x="305.728831" xlink:href="#m73f404f97c" y="208.004118"/>
     <use style="fill:#0000ff;stroke:#0000ff;" x="352.108052" xlink:href="#m73f404f97c" y="224.047972"/>
     <use style="fill:#0000ff;stroke:#0000ff;" x="398.487273" xlink:href="#m73f404f97c" y="230.758623"/>
    </g>
   </g>
   <g id="PathCollection_5">
    <g clip-path="url(#p9b92355e32)">
     <use style="fill:#0000ff;stroke:#0000ff;" x="73.832727" xlink:href="#m73f404f97c" y="180.698713"/>
     <use style="fill:#0000ff;stroke:#0000ff;" x="120.211948" xlink:href="#m73f404f97c" y="189.800515"/>
     <use style="fill:#0000ff;stroke:#0000ff;" x="166.591169" xlink:href="#m73f404f97c" y="161.299534"/>
     <use style="fill:#0000ff;stroke:#0000ff;" x="212.97039" xlink:href="#m73f404f97c" y="118.64448"/>
     <use style="fill:#0000ff;stroke:#0000ff;" x="259.34961" xlink:href="#m73f404f97c" y="105.416014"/>
     <use style="fill:#0000ff;stroke:#0000ff;" x="305.728831" xlink:href="#m73f404f97c" y="147.993934"/>
     <use style="fill:#0000ff;stroke:#0000ff;" x="352.108052" xlink:href="#m73f404f97c" y="166.390372"/>
     <use style="fill:#0000ff;stroke:#0000ff;" x="398.487273" xlink:href="#m73f404f97c" y="172.75392"/>
    </g>
   </g>
   <g id="PathCollection_6">
    <g clip-path="url(#p9b92355e32)">
     <use style="fill:#0000ff;stroke:#0000ff;" x="73.832727" xlink:href="#m73f404f97c" y="265.546017"/>
     <use style="fill:#0000ff;stroke:#0000ff;" x="120.211948" xlink:href="#m73f404f97c" y="269.171311"/>
     <use style="fill:#0000ff;stroke:#0000ff;" x="166.591169" xlink:href="#m73f404f97c" y="246.416807"/>
     <use style="fill:#0000ff;stroke:#0000ff;" x="212.97039" xlink:href="#m73f404f97c" y="219.38137"/>
     <use style="fill:#0000ff;stroke:#0000ff;" x="259.34961" xlink:href="#m73f404f97c" y="212.979256"/>
     <use style="fill:#0000ff;stroke:#0000ff;" x="305.728831" xlink:href="#m73f404f97c" y="236.042296"/>
     <use style="fill:#0000ff;stroke:#0000ff;" x="352.108052" xlink:href="#m73f404f97c" y="253.011757"/>
     <use style="fill:#0000ff;stroke:#0000ff;" x="398.487273" xlink:href="#m73f404f97c" y="261.265085"/>
    </g>
   </g>
   <g id="PathCollection_7">
    <g clip-path="url(#p9b92355e32)">
     <use style="fill:#0000ff;stroke:#0000ff;" x="73.832727" xlink:href="#m73f404f97c" y="210.780939"/>
     <use style="fill:#0000ff;stroke:#0000ff;" x="120.211948" xlink:href="#m73f404f97c" y="216.064612"/>
     <use style="fill:#0000ff;stroke:#0000ff;" x="166.591169" xlink:href="#m73f404f97c" y="197.08967"/>
     <use style="fill:#0000ff;stroke:#0000ff;" x="212.97039" xlink:href="#m73f404f97c" y="162.148007"/>
     <use style="fill:#0000ff;stroke:#0000ff;" x="259.34961" xlink:href="#m73f404f97c" y="159.641155"/>
     <use style="fill:#0000ff;stroke:#0000ff;" x="305.728831" xlink:href="#m73f404f97c" y="188.296403"/>
     <use style="fill:#0000ff;stroke:#0000ff;" x="352.108052" xlink:href="#m73f404f97c" y="201.756271"/>
     <use style="fill:#0000ff;stroke:#0000ff;" x="398.487273" xlink:href="#m73f404f97c" y="209.12256"/>
    </g>
   </g>
   <g id="PathCollection_8">
    <g clip-path="url(#p9b92355e32)">
     <use style="fill:#0000ff;stroke:#0000ff;" x="73.832727" xlink:href="#m73f404f97c" y="207.078511"/>
     <use style="fill:#0000ff;stroke:#0000ff;" x="120.211948" xlink:href="#m73f404f97c" y="211.822247"/>
     <use style="fill:#0000ff;stroke:#0000ff;" x="166.591169" xlink:href="#m73f404f97c" y="191.728863"/>
     <use style="fill:#0000ff;stroke:#0000ff;" x="212.97039" xlink:href="#m73f404f97c" y="158.869816"/>
     <use style="fill:#0000ff;stroke:#0000ff;" x="259.34961" xlink:href="#m73f404f97c" y="147.53113"/>
     <use style="fill:#0000ff;stroke:#0000ff;" x="305.728831" xlink:href="#m73f404f97c" y="177.420522"/>
     <use style="fill:#0000ff;stroke:#0000ff;" x="352.108052" xlink:href="#m73f404f97c" y="193.001572"/>
     <use style="fill:#0000ff;stroke:#0000ff;" x="398.487273" xlink:href="#m73f404f97c" y="201.833405"/>
    </g>
   </g>
   <g id="PathCollection_9">
    <g clip-path="url(#p9b92355e32)">
     <use style="fill:#0000ff;stroke:#0000ff;" x="73.832727" xlink:href="#m73f404f97c" y="237.199304"/>
     <use style="fill:#0000ff;stroke:#0000ff;" x="120.211948" xlink:href="#m73f404f97c" y="245.066963"/>
     <use style="fill:#0000ff;stroke:#0000ff;" x="166.591169" xlink:href="#m73f404f97c" y="223.430901"/>
     <use style="fill:#0000ff;stroke:#0000ff;" x="212.97039" xlink:href="#m73f404f97c" y="194.621384"/>
     <use style="fill:#0000ff;stroke:#0000ff;" x="259.34961" xlink:href="#m73f404f97c" y="187.640765"/>
     <use style="fill:#0000ff;stroke:#0000ff;" x="305.728831" xlink:href="#m73f404f97c" y="212.207917"/>
     <use style="fill:#0000ff;stroke:#0000ff;" x="352.108052" xlink:href="#m73f404f97c" y="225.667784"/>
     <use style="fill:#0000ff;stroke:#0000ff;" x="398.487273" xlink:href="#m73f404f97c" y="230.720056"/>
    </g>
   </g>
   <g id="PathCollection_10">
    <g clip-path="url(#p9b92355e32)">
     <use style="fill:#0000ff;stroke:#0000ff;" x="73.832727" xlink:href="#m73f404f97c" y="219.38137"/>
     <use style="fill:#0000ff;stroke:#0000ff;" x="120.211948" xlink:href="#m73f404f97c" y="225.629217"/>
     <use style="fill:#0000ff;stroke:#0000ff;" x="166.591169" xlink:href="#m73f404f97c" y="208.042685"/>
     <use style="fill:#0000ff;stroke:#0000ff;" x="212.97039" xlink:href="#m73f404f97c" y="183.436967"/>
     <use style="fill:#0000ff;stroke:#0000ff;" x="259.34961" xlink:href="#m73f404f97c" y="173.795228"/>
     <use style="fill:#0000ff;stroke:#0000ff;" x="305.728831" xlink:href="#m73f404f97c" y="195.161322"/>
     <use style="fill:#0000ff;stroke:#0000ff;" x="352.108052" xlink:href="#m73f404f97c" y="206.422873"/>
     <use style="fill:#0000ff;stroke:#0000ff;" x="398.487273" xlink:href="#m73f404f97c" y="214.714769"/>
    </g>
   </g>
   <g id="PathCollection_11">
    <g clip-path="url(#p9b92355e32)">
     <use style="fill:#0000ff;stroke:#0000ff;" x="73.832727" xlink:href="#m73f404f97c" y="223.585169"/>
     <use style="fill:#0000ff;stroke:#0000ff;" x="120.211948" xlink:href="#m73f404f97c" y="233.805412"/>
     <use style="fill:#0000ff;stroke:#0000ff;" x="166.591169" xlink:href="#m73f404f97c" y="209.739631"/>
     <use style="fill:#0000ff;stroke:#0000ff;" x="212.97039" xlink:href="#m73f404f97c" y="173.756661"/>
     <use style="fill:#0000ff;stroke:#0000ff;" x="259.34961" xlink:href="#m73f404f97c" y="163.729252"/>
     <use style="fill:#0000ff;stroke:#0000ff;" x="305.728831" xlink:href="#m73f404f97c" y="193.580077"/>
     <use style="fill:#0000ff;stroke:#0000ff;" x="352.108052" xlink:href="#m73f404f97c" y="208.042685"/>
     <use style="fill:#0000ff;stroke:#0000ff;" x="398.487273" xlink:href="#m73f404f97c" y="214.560501"/>
    </g>
   </g>
   <g id="PathCollection_12">
    <g clip-path="url(#p9b92355e32)">
     <use style="fill:#0000ff;stroke:#0000ff;" x="73.832727" xlink:href="#m73f404f97c" y="233.149774"/>
     <use style="fill:#0000ff;stroke:#0000ff;" x="120.211948" xlink:href="#m73f404f97c" y="239.28192"/>
     <use style="fill:#0000ff;stroke:#0000ff;" x="166.591169" xlink:href="#m73f404f97c" y="212.28505"/>
     <use style="fill:#0000ff;stroke:#0000ff;" x="212.97039" xlink:href="#m73f404f97c" y="178.808932"/>
     <use style="fill:#0000ff;stroke:#0000ff;" x="259.34961" xlink:href="#m73f404f97c" y="172.985322"/>
     <use style="fill:#0000ff;stroke:#0000ff;" x="305.728831" xlink:href="#m73f404f97c" y="204.957329"/>
     <use style="fill:#0000ff;stroke:#0000ff;" x="352.108052" xlink:href="#m73f404f97c" y="222.312459"/>
     <use style="fill:#0000ff;stroke:#0000ff;" x="398.487273" xlink:href="#m73f404f97c" y="230.180118"/>
    </g>
   </g>
   <g id="PathCollection_13">
    <g clip-path="url(#p9b92355e32)">
     <use style="fill:#0000ff;stroke:#0000ff;" x="73.832727" xlink:href="#m73f404f97c" y="228.676007"/>
     <use style="fill:#0000ff;stroke:#0000ff;" x="120.211948" xlink:href="#m73f404f97c" y="233.304042"/>
     <use style="fill:#0000ff;stroke:#0000ff;" x="166.591169" xlink:href="#m73f404f97c" y="215.871777"/>
     <use style="fill:#0000ff;stroke:#0000ff;" x="212.97039" xlink:href="#m73f404f97c" y="184.902511"/>
     <use style="fill:#0000ff;stroke:#0000ff;" x="259.34961" xlink:href="#m73f404f97c" y="177.150553"/>
     <use style="fill:#0000ff;stroke:#0000ff;" x="305.728831" xlink:href="#m73f404f97c" y="202.450477"/>
     <use style="fill:#0000ff;stroke:#0000ff;" x="352.108052" xlink:href="#m73f404f97c" y="216.103179"/>
     <use style="fill:#0000ff;stroke:#0000ff;" x="398.487273" xlink:href="#m73f404f97c" y="224.58791"/>
    </g>
   </g>
   <g id="PathCollection_14">
    <g clip-path="url(#p9b92355e32)">
     <use style="fill:#0000ff;stroke:#0000ff;" x="73.832727" xlink:href="#m73f404f97c" y="210.472403"/>
     <use style="fill:#0000ff;stroke:#0000ff;" x="120.211948" xlink:href="#m73f404f97c" y="219.882741"/>
     <use style="fill:#0000ff;stroke:#0000ff;" x="166.591169" xlink:href="#m73f404f97c" y="196.549732"/>
     <use style="fill:#0000ff;stroke:#0000ff;" x="212.97039" xlink:href="#m73f404f97c" y="160.181092"/>
     <use style="fill:#0000ff;stroke:#0000ff;" x="259.34961" xlink:href="#m73f404f97c" y="146.991193"/>
     <use style="fill:#0000ff;stroke:#0000ff;" x="305.728831" xlink:href="#m73f404f97c" y="178.037593"/>
     <use style="fill:#0000ff;stroke:#0000ff;" x="352.108052" xlink:href="#m73f404f97c" y="195.084188"/>
     <use style="fill:#0000ff;stroke:#0000ff;" x="398.487273" xlink:href="#m73f404f97c" y="202.219075"/>
    </g>
   </g>
   <g id="PathCollection_15">
    <g clip-path="url(#p9b92355e32)">
     <use style="fill:#0000ff;stroke:#0000ff;" x="73.832727" xlink:href="#m73f404f97c" y="238.973384"/>
     <use style="fill:#0000ff;stroke:#0000ff;" x="120.211948" xlink:href="#m73f404f97c" y="247.535249"/>
     <use style="fill:#0000ff;stroke:#0000ff;" x="166.591169" xlink:href="#m73f404f97c" y="227.326163"/>
     <use style="fill:#0000ff;stroke:#0000ff;" x="212.97039" xlink:href="#m73f404f97c" y="192.65447"/>
     <use style="fill:#0000ff;stroke:#0000ff;" x="259.34961" xlink:href="#m73f404f97c" y="184.555409"/>
     <use style="fill:#0000ff;stroke:#0000ff;" x="305.728831" xlink:href="#m73f404f97c" y="210.163868"/>
     <use style="fill:#0000ff;stroke:#0000ff;" x="352.108052" xlink:href="#m73f404f97c" y="227.441864"/>
     <use style="fill:#0000ff;stroke:#0000ff;" x="398.487273" xlink:href="#m73f404f97c" y="232.1856"/>
    </g>
   </g>
   <g id="PolyCollection_1">
    <path clip-path="url(#p9b92355e32)" d="M 73.832727 197.873574 
L 73.832727 236.079358 
L 77.112066 235.968922 
L 80.391405 235.843442 
L 83.670744 235.703262 
L 86.950083 235.548743 
L 90.229421 235.380261 
L 93.50876 235.198204 
L 96.788099 235.00298 
L 100.067438 234.795007 
L 103.346777 234.57472 
L 106.626116 234.342566 
L 109.905455 234.099004 
L 113.184793 233.844509 
L 116.464132 233.579564 
L 119.743471 233.304665 
L 123.02281 233.02032 
L 126.302149 232.727045 
L 129.581488 232.425367 
L 132.860826 232.115822 
L 136.140165 231.798954 
L 139.419504 231.475317 
L 142.698843 231.145469 
L 145.978182 230.809978 
L 149.257521 230.469418 
L 152.53686 230.124367 
L 155.816198 229.775413 
L 159.095537 229.423144 
L 162.374876 229.068156 
L 165.654215 228.71105 
L 168.933554 228.352427 
L 172.212893 227.992897 
L 175.492231 227.633069 
L 178.77157 227.273556 
L 182.050909 226.914976 
L 185.330248 226.557947 
L 188.609587 226.203089 
L 191.888926 225.851026 
L 195.168264 225.502381 
L 198.447603 225.15778 
L 201.726942 224.817851 
L 205.006281 224.483221 
L 208.28562 224.154518 
L 211.564959 223.832374 
L 214.844298 223.517417 
L 218.123636 223.210278 
L 221.402975 222.911588 
L 224.682314 222.621977 
L 227.961653 222.342077 
L 231.240992 222.072519 
L 234.520331 221.813933 
L 237.799669 221.566951 
L 241.079008 221.332202 
L 244.358347 221.110318 
L 247.637686 220.901927 
L 250.917025 220.707661 
L 254.196364 220.528148 
L 257.475702 220.364017 
L 260.755041 220.215898 
L 264.03438 220.084418 
L 267.313719 219.970207 
L 270.593058 219.873891 
L 273.872397 219.7961 
L 277.151736 219.73746 
L 280.431074 219.6986 
L 283.710413 219.680146 
L 286.989752 219.682728 
L 290.269091 219.706973 
L 293.54843 219.753508 
L 296.827769 219.822965 
L 300.107107 219.91597 
L 303.386446 220.033155 
L 306.665785 220.175151 
L 309.945124 220.342589 
L 313.224463 220.536103 
L 316.503802 220.756327 
L 319.78314 221.003897 
L 323.062479 221.279452 
L 326.341818 221.583632 
L 329.621157 221.91708 
L 332.900496 222.28044 
L 336.179835 222.67436 
L 339.459174 223.099494 
L 342.738512 223.556495 
L 346.017851 224.046024 
L 349.29719 224.568743 
L 352.576529 225.125323 
L 355.855868 225.716436 
L 359.135207 226.342765 
L 362.414545 227.004995 
L 365.693884 227.703821 
L 368.973223 228.439944 
L 372.252562 229.214076 
L 375.531901 230.026936 
L 378.81124 230.879254 
L 382.090579 231.771773 
L 385.369917 232.705246 
L 388.649256 233.680439 
L 391.928595 234.698134 
L 395.207934 235.759129 
L 398.487273 236.864238 
L 398.487273 197.609501 
L 398.487273 197.609501 
L 395.207934 196.227304 
L 391.928595 194.896118 
L 388.649256 193.615382 
L 385.369917 192.384518 
L 382.090579 191.202932 
L 378.81124 190.070015 
L 375.531901 188.985146 
L 372.252562 187.947692 
L 368.973223 186.957006 
L 365.693884 186.012433 
L 362.414545 185.11331 
L 359.135207 184.258961 
L 355.855868 183.448707 
L 352.576529 182.681858 
L 349.29719 181.95772 
L 346.017851 181.275591 
L 342.738512 180.634765 
L 339.459174 180.034531 
L 336.179835 179.474172 
L 332.900496 178.952969 
L 329.621157 178.470197 
L 326.341818 178.025129 
L 323.062479 177.617036 
L 319.78314 177.245184 
L 316.503802 176.908839 
L 313.224463 176.607263 
L 309.945124 176.339716 
L 306.665785 176.105459 
L 303.386446 175.903749 
L 300.107107 175.733842 
L 296.827769 175.594995 
L 293.54843 175.486461 
L 290.269091 175.407494 
L 286.989752 175.357349 
L 283.710413 175.335278 
L 280.431074 175.340534 
L 277.151736 175.372369 
L 273.872397 175.430035 
L 270.593058 175.512785 
L 267.313719 175.619871 
L 264.03438 175.750546 
L 260.755041 175.904062 
L 257.475702 176.079673 
L 254.196364 176.27663 
L 250.917025 176.494189 
L 247.637686 176.731602 
L 244.358347 176.988123 
L 241.079008 177.263007 
L 237.799669 177.555509 
L 234.520331 177.864883 
L 231.240992 178.190385 
L 227.961653 178.531269 
L 224.682314 178.886792 
L 221.402975 179.256209 
L 218.123636 179.638775 
L 214.844298 180.033747 
L 211.564959 180.440379 
L 208.28562 180.857927 
L 205.006281 181.285645 
L 201.726942 181.722787 
L 198.447603 182.168607 
L 195.168264 182.622357 
L 191.888926 183.083289 
L 188.609587 183.550653 
L 185.330248 184.023699 
L 182.050909 184.501672 
L 178.77157 184.98382 
L 175.492231 185.469385 
L 172.212893 185.957607 
L 168.933554 186.447726 
L 165.654215 186.938976 
L 162.374876 187.430589 
L 159.095537 187.921794 
L 155.816198 188.411814 
L 152.53686 188.89987 
L 149.257521 189.385177 
L 145.978182 189.866944 
L 142.698843 190.344376 
L 139.419504 190.816671 
L 136.140165 191.283021 
L 132.860826 191.74261 
L 129.581488 192.194615 
L 126.302149 192.638206 
L 123.02281 193.072542 
L 119.743471 193.496776 
L 116.464132 193.910049 
L 113.184793 194.311492 
L 109.905455 194.700226 
L 106.626116 195.075361 
L 103.346777 195.435993 
L 100.067438 195.781207 
L 96.788099 196.110076 
L 93.50876 196.421658 
L 90.229421 196.714997 
L 86.950083 196.989123 
L 83.670744 197.243052 
L 80.391405 197.475782 
L 77.112066 197.6863 
L 73.832727 197.873574 
z
" style="fill:#1f77b4;fill-opacity:0.5;"/>
   </g>
   <g id="matplotlib.axis_1">
    <g id="xtick_1">
     <g id="line2d_1">
      <defs>
       <path d="M 0 0 
L 0 3.5 
" id="m46acd61641" style="stroke:#000000;stroke-width:0.8;"/>
      </defs>
      <g>
       <use style="stroke:#000000;stroke-width:0.8;" x="120.211948" xlink:href="#m46acd61641" y="307.584"/>
      </g>
     </g>
     <g id="text_1">
      <!-- 5 -->
      <g transform="translate(117.030698 322.182437)scale(0.1 -0.1)">
       <defs>
        <path d="M 10.796875 72.90625 
L 49.515625 72.90625 
L 49.515625 64.59375 
L 19.828125 64.59375 
L 19.828125 46.734375 
Q 21.96875 47.46875 24.109375 47.828125 
Q 26.265625 48.1875 28.421875 48.1875 
Q 40.625 48.1875 47.75 41.5 
Q 54.890625 34.8125 54.890625 23.390625 
Q 54.890625 11.625 47.5625 5.09375 
Q 40.234375 -1.421875 26.90625 -1.421875 
Q 22.3125 -1.421875 17.546875 -0.640625 
Q 12.796875 0.140625 7.71875 1.703125 
L 7.71875 11.625 
Q 12.109375 9.234375 16.796875 8.0625 
Q 21.484375 6.890625 26.703125 6.890625 
Q 35.15625 6.890625 40.078125 11.328125 
Q 45.015625 15.765625 45.015625 23.390625 
Q 45.015625 31 40.078125 35.4375 
Q 35.15625 39.890625 26.703125 39.890625 
Q 22.75 39.890625 18.8125 39.015625 
Q 14.890625 38.140625 10.796875 36.28125 
z
" id="DejaVuSans-53"/>
       </defs>
       <use xlink:href="#DejaVuSans-53"/>
      </g>
     </g>
    </g>
    <g id="xtick_2">
     <g id="line2d_2">
      <g>
       <use style="stroke:#000000;stroke-width:0.8;" x="197.510649" xlink:href="#m46acd61641" y="307.584"/>
      </g>
     </g>
     <g id="text_2">
      <!-- 10 -->
      <g transform="translate(191.148149 322.182437)scale(0.1 -0.1)">
       <defs>
        <path d="M 12.40625 8.296875 
L 28.515625 8.296875 
L 28.515625 63.921875 
L 10.984375 60.40625 
L 10.984375 69.390625 
L 28.421875 72.90625 
L 38.28125 72.90625 
L 38.28125 8.296875 
L 54.390625 8.296875 
L 54.390625 0 
L 12.40625 0 
z
" id="DejaVuSans-49"/>
        <path d="M 31.78125 66.40625 
Q 24.171875 66.40625 20.328125 58.90625 
Q 16.5 51.421875 16.5 36.375 
Q 16.5 21.390625 20.328125 13.890625 
Q 24.171875 6.390625 31.78125 6.390625 
Q 39.453125 6.390625 43.28125 13.890625 
Q 47.125 21.390625 47.125 36.375 
Q 47.125 51.421875 43.28125 58.90625 
Q 39.453125 66.40625 31.78125 66.40625 
z
M 31.78125 74.21875 
Q 44.046875 74.21875 50.515625 64.515625 
Q 56.984375 54.828125 56.984375 36.375 
Q 56.984375 17.96875 50.515625 8.265625 
Q 44.046875 -1.421875 31.78125 -1.421875 
Q 19.53125 -1.421875 13.0625 8.265625 
Q 6.59375 17.96875 6.59375 36.375 
Q 6.59375 54.828125 13.0625 64.515625 
Q 19.53125 74.21875 31.78125 74.21875 
z
" id="DejaVuSans-48"/>
       </defs>
       <use xlink:href="#DejaVuSans-49"/>
       <use x="63.623047" xlink:href="#DejaVuSans-48"/>
      </g>
     </g>
    </g>
    <g id="xtick_3">
     <g id="line2d_3">
      <g>
       <use style="stroke:#000000;stroke-width:0.8;" x="274.809351" xlink:href="#m46acd61641" y="307.584"/>
      </g>
     </g>
     <g id="text_3">
      <!-- 15 -->
      <g transform="translate(268.446851 322.182437)scale(0.1 -0.1)">
       <use xlink:href="#DejaVuSans-49"/>
       <use x="63.623047" xlink:href="#DejaVuSans-53"/>
      </g>
     </g>
    </g>
    <g id="xtick_4">
     <g id="line2d_4">
      <g>
       <use style="stroke:#000000;stroke-width:0.8;" x="352.108052" xlink:href="#m46acd61641" y="307.584"/>
      </g>
     </g>
     <g id="text_4">
      <!-- 20 -->
      <g transform="translate(345.745552 322.182437)scale(0.1 -0.1)">
       <defs>
        <path d="M 19.1875 8.296875 
L 53.609375 8.296875 
L 53.609375 0 
L 7.328125 0 
L 7.328125 8.296875 
Q 12.9375 14.109375 22.625 23.890625 
Q 32.328125 33.6875 34.8125 36.53125 
Q 39.546875 41.84375 41.421875 45.53125 
Q 43.3125 49.21875 43.3125 52.78125 
Q 43.3125 58.59375 39.234375 62.25 
Q 35.15625 65.921875 28.609375 65.921875 
Q 23.96875 65.921875 18.8125 64.3125 
Q 13.671875 62.703125 7.8125 59.421875 
L 7.8125 69.390625 
Q 13.765625 71.78125 18.9375 73 
Q 24.125 74.21875 28.421875 74.21875 
Q 39.75 74.21875 46.484375 68.546875 
Q 53.21875 62.890625 53.21875 53.421875 
Q 53.21875 48.921875 51.53125 44.890625 
Q 49.859375 40.875 45.40625 35.40625 
Q 44.1875 33.984375 37.640625 27.21875 
Q 31.109375 20.453125 19.1875 8.296875 
z
" id="DejaVuSans-50"/>
       </defs>
       <use xlink:href="#DejaVuSans-50"/>
       <use x="63.623047" xlink:href="#DejaVuSans-48"/>
      </g>
     </g>
    </g>
   </g>
   <g id="matplotlib.axis_2">
    <g id="ytick_1">
     <g id="line2d_5">
      <defs>
       <path d="M 0 0 
L -3.5 0 
" id="m15cfdb7a4b" style="stroke:#000000;stroke-width:0.8;"/>
      </defs>
      <g>
       <use style="stroke:#000000;stroke-width:0.8;" x="57.6" xlink:href="#m15cfdb7a4b" y="272.873739"/>
      </g>
     </g>
     <g id="text_5">
      <!-- 10 -->
      <g transform="translate(37.875 276.672958)scale(0.1 -0.1)">
       <use xlink:href="#DejaVuSans-49"/>
       <use x="63.623047" xlink:href="#DejaVuSans-48"/>
      </g>
     </g>
    </g>
    <g id="ytick_2">
     <g id="line2d_6">
      <g>
       <use style="stroke:#000000;stroke-width:0.8;" x="57.6" xlink:href="#m15cfdb7a4b" y="215.023304"/>
      </g>
     </g>
     <g id="text_6">
      <!-- 15 -->
      <g transform="translate(37.875 218.822523)scale(0.1 -0.1)">
       <use xlink:href="#DejaVuSans-49"/>
       <use x="63.623047" xlink:href="#DejaVuSans-53"/>
      </g>
     </g>
    </g>
    <g id="ytick_3">
     <g id="line2d_7">
      <g>
       <use style="stroke:#000000;stroke-width:0.8;" x="57.6" xlink:href="#m15cfdb7a4b" y="157.17287"/>
      </g>
     </g>
     <g id="text_7">
      <!-- 20 -->
      <g transform="translate(37.875 160.972088)scale(0.1 -0.1)">
       <use xlink:href="#DejaVuSans-50"/>
       <use x="63.623047" xlink:href="#DejaVuSans-48"/>
      </g>
     </g>
    </g>
    <g id="ytick_4">
     <g id="line2d_8">
      <g>
       <use style="stroke:#000000;stroke-width:0.8;" x="57.6" xlink:href="#m15cfdb7a4b" y="99.322435"/>
      </g>
     </g>
     <g id="text_8">
      <!-- 25 -->
      <g transform="translate(37.875 103.121654)scale(0.1 -0.1)">
       <use xlink:href="#DejaVuSans-50"/>
       <use x="63.623047" xlink:href="#DejaVuSans-53"/>
      </g>
     </g>
    </g>
    <g id="ytick_5">
     <g id="line2d_9">
      <g>
       <use style="stroke:#000000;stroke-width:0.8;" x="57.6" xlink:href="#m15cfdb7a4b" y="41.472"/>
      </g>
     </g>
     <g id="text_9">
      <!-- 30 -->
      <g transform="translate(37.875 45.271219)scale(0.1 -0.1)">
       <defs>
        <path d="M 40.578125 39.3125 
Q 47.65625 37.796875 51.625 33 
Q 55.609375 28.21875 55.609375 21.1875 
Q 55.609375 10.40625 48.1875 4.484375 
Q 40.765625 -1.421875 27.09375 -1.421875 
Q 22.515625 -1.421875 17.65625 -0.515625 
Q 12.796875 0.390625 7.625 2.203125 
L 7.625 11.71875 
Q 11.71875 9.328125 16.59375 8.109375 
Q 21.484375 6.890625 26.8125 6.890625 
Q 36.078125 6.890625 40.9375 10.546875 
Q 45.796875 14.203125 45.796875 21.1875 
Q 45.796875 27.640625 41.28125 31.265625 
Q 36.765625 34.90625 28.71875 34.90625 
L 20.21875 34.90625 
L 20.21875 43.015625 
L 29.109375 43.015625 
Q 36.375 43.015625 40.234375 45.921875 
Q 44.09375 48.828125 44.09375 54.296875 
Q 44.09375 59.90625 40.109375 62.90625 
Q 36.140625 65.921875 28.71875 65.921875 
Q 24.65625 65.921875 20.015625 65.03125 
Q 15.375 64.15625 9.8125 62.3125 
L 9.8125 71.09375 
Q 15.4375 72.65625 20.34375 73.4375 
Q 25.25 74.21875 29.59375 74.21875 
Q 40.828125 74.21875 47.359375 69.109375 
Q 53.90625 64.015625 53.90625 55.328125 
Q 53.90625 49.265625 50.4375 45.09375 
Q 46.96875 40.921875 40.578125 39.3125 
z
" id="DejaVuSans-51"/>
       </defs>
       <use xlink:href="#DejaVuSans-51"/>
       <use x="63.623047" xlink:href="#DejaVuSans-48"/>
      </g>
     </g>
    </g>
   </g>
   <g id="line2d_10">
    <path clip-path="url(#p9b92355e32)" d="M 73.832727 216.976466 
L 77.112066 216.827611 
L 80.391405 216.659612 
L 83.670744 216.473157 
L 86.950083 216.268933 
L 90.229421 216.047629 
L 93.50876 215.809931 
L 96.788099 215.556528 
L 100.067438 215.288107 
L 103.346777 215.005356 
L 106.626116 214.708963 
L 109.905455 214.399615 
L 113.184793 214.078 
L 116.464132 213.744806 
L 119.743471 213.400721 
L 123.02281 213.046431 
L 126.302149 212.682625 
L 129.581488 212.309991 
L 132.860826 211.929216 
L 136.140165 211.540987 
L 139.419504 211.145994 
L 142.698843 210.744922 
L 145.978182 210.338461 
L 149.257521 209.927297 
L 152.53686 209.512119 
L 155.816198 209.093614 
L 159.095537 208.672469 
L 162.374876 208.249373 
L 165.654215 207.825013 
L 168.933554 207.400077 
L 172.212893 206.975252 
L 175.492231 206.551227 
L 178.77157 206.128688 
L 182.050909 205.708324 
L 185.330248 205.290823 
L 188.609587 204.876871 
L 191.888926 204.467157 
L 195.168264 204.062369 
L 198.447603 203.663193 
L 201.726942 203.270319 
L 205.006281 202.884433 
L 208.28562 202.506223 
L 211.564959 202.136376 
L 214.844298 201.775582 
L 218.123636 201.424527 
L 221.402975 201.083898 
L 224.682314 200.754384 
L 227.961653 200.436673 
L 231.240992 200.131452 
L 234.520331 199.839408 
L 237.799669 199.56123 
L 241.079008 199.297605 
L 244.358347 199.04922 
L 247.637686 198.816765 
L 250.917025 198.600925 
L 254.196364 198.402389 
L 257.475702 198.221845 
L 260.755041 198.05998 
L 264.03438 197.917482 
L 267.313719 197.795039 
L 270.593058 197.693338 
L 273.872397 197.613067 
L 277.151736 197.554914 
L 280.431074 197.519567 
L 283.710413 197.507712 
L 286.989752 197.520039 
L 290.269091 197.557233 
L 293.54843 197.619985 
L 296.827769 197.70898 
L 300.107107 197.824906 
L 303.386446 197.968452 
L 306.665785 198.140305 
L 309.945124 198.341153 
L 313.224463 198.571683 
L 316.503802 198.832583 
L 319.78314 199.124541 
L 323.062479 199.448244 
L 326.341818 199.804381 
L 329.621157 200.193638 
L 332.900496 200.616704 
L 336.179835 201.074266 
L 339.459174 201.567012 
L 342.738512 202.09563 
L 346.017851 202.660807 
L 349.29719 203.263231 
L 352.576529 203.90359 
L 355.855868 204.582572 
L 359.135207 205.300863 
L 362.414545 206.059152 
L 365.693884 206.858127 
L 368.973223 207.698475 
L 372.252562 208.580884 
L 375.531901 209.506041 
L 378.81124 210.474635 
L 382.090579 211.487352 
L 385.369917 212.544882 
L 388.649256 213.64791 
L 391.928595 214.797126 
L 395.207934 215.993217 
L 398.487273 217.23687 
" style="fill:none;stroke:#1f77b4;stroke-linecap:square;stroke-width:1.5;"/>
   </g>
   <g id="line2d_11">
    <path clip-path="url(#p9b92355e32)" d="M 73.832727 214.985281 
L 77.112066 214.027808 
L 80.391405 213.056224 
L 83.670744 212.071543 
L 86.950083 211.074776 
L 90.229421 210.066935 
L 93.50876 209.049031 
L 96.788099 208.022077 
L 100.067438 206.987084 
L 103.346777 205.945064 
L 106.626116 204.897029 
L 109.905455 203.843991 
L 113.184793 202.786961 
L 116.464132 201.726952 
L 119.743471 200.664975 
L 123.02281 199.602042 
L 126.302149 198.539165 
L 129.581488 197.477355 
L 132.860826 196.417626 
L 136.140165 195.360987 
L 139.419504 194.308452 
L 142.698843 193.261032 
L 145.978182 192.219738 
L 149.257521 191.185583 
L 152.53686 190.159579 
L 155.816198 189.142737 
L 159.095537 188.13607 
L 162.374876 187.140588 
L 165.654215 186.157304 
L 168.933554 185.18723 
L 172.212893 184.231377 
L 175.492231 183.290757 
L 178.77157 182.366383 
L 182.050909 181.459265 
L 185.330248 180.570417 
L 188.609587 179.700849 
L 191.888926 178.851573 
L 195.168264 178.023602 
L 198.447603 177.217946 
L 201.726942 176.435619 
L 205.006281 175.677631 
L 208.28562 174.944995 
L 211.564959 174.238722 
L 214.844298 173.559825 
L 218.123636 172.909314 
L 221.402975 172.288203 
L 224.682314 171.697502 
L 227.961653 171.138223 
L 231.240992 170.611379 
L 234.520331 170.117981 
L 237.799669 169.659042 
L 241.079008 169.235572 
L 244.358347 168.848583 
L 247.637686 168.499088 
L 250.917025 168.188099 
L 254.196364 167.916626 
L 257.475702 167.685683 
L 260.755041 167.49628 
L 264.03438 167.34943 
L 267.313719 167.246144 
L 270.593058 167.187435 
L 273.872397 167.174314 
L 277.151736 167.207793 
L 280.431074 167.288883 
L 283.710413 167.418597 
L 286.989752 167.597947 
L 290.269091 167.827943 
L 293.54843 168.109599 
L 296.827769 168.443926 
L 300.107107 168.831935 
L 303.386446 169.274639 
L 306.665785 169.773049 
L 309.945124 170.328178 
L 313.224463 170.941036 
L 316.503802 171.612636 
L 319.78314 172.34399 
L 323.062479 173.13611 
L 326.341818 173.990007 
L 329.621157 174.906693 
L 332.900496 175.88718 
L 336.179835 176.93248 
L 339.459174 178.043604 
L 342.738512 179.221565 
L 346.017851 180.467374 
L 349.29719 181.782044 
L 352.576529 183.166585 
L 355.855868 184.62201 
L 359.135207 186.149331 
L 362.414545 187.749559 
L 365.693884 189.423706 
L 368.973223 191.172785 
L 372.252562 192.997806 
L 375.531901 194.899782 
L 378.81124 196.879725 
L 382.090579 198.938646 
L 385.369917 201.077557 
L 388.649256 203.29747 
L 391.928595 205.599397 
L 395.207934 207.98435 
L 398.487273 210.453341 
" style="fill:none;stroke:#ff7f0e;stroke-linecap:square;stroke-width:1.5;"/>
   </g>
   <g id="line2d_12">
    <path clip-path="url(#p9b92355e32)" d="M 73.832727 231.071622 
L 77.112066 229.979512 
L 80.391405 228.87884 
L 83.670744 227.770524 
L 86.950083 226.655482 
L 90.229421 225.534632 
L 93.50876 224.408891 
L 96.788099 223.279178 
L 100.067438 222.14641 
L 103.346777 221.011505 
L 106.626116 219.875381 
L 109.905455 218.738955 
L 113.184793 217.603146 
L 116.464132 216.468871 
L 119.743471 215.337048 
L 123.02281 214.208596 
L 126.302149 213.084431 
L 129.581488 211.965471 
L 132.860826 210.852635 
L 136.140165 209.74684 
L 139.419504 208.649004 
L 142.698843 207.560045 
L 145.978182 206.480881 
L 149.257521 205.412429 
L 152.53686 204.355608 
L 155.816198 203.311334 
L 159.095537 202.280527 
L 162.374876 201.264103 
L 165.654215 200.262981 
L 168.933554 199.278078 
L 172.212893 198.310312 
L 175.492231 197.360602 
L 178.77157 196.429864 
L 182.050909 195.519017 
L 185.330248 194.628978 
L 188.609587 193.760666 
L 191.888926 192.914998 
L 195.168264 192.092891 
L 198.447603 191.295265 
L 201.726942 190.523036 
L 205.006281 189.777123 
L 208.28562 189.058442 
L 211.564959 188.367913 
L 214.844298 187.706453 
L 218.123636 187.074979 
L 221.402975 186.47441 
L 224.682314 185.905663 
L 227.961653 185.369656 
L 231.240992 184.867307 
L 234.520331 184.399534 
L 237.799669 183.967255 
L 241.079008 183.571387 
L 244.358347 183.212848 
L 247.637686 182.892556 
L 250.917025 182.611429 
L 254.196364 182.370385 
L 257.475702 182.170341 
L 260.755041 182.012216 
L 264.03438 181.896926 
L 267.313719 181.825391 
L 270.593058 181.798527 
L 273.872397 181.817253 
L 277.151736 181.882487 
L 280.431074 181.995146 
L 283.710413 182.156147 
L 286.989752 182.36641 
L 290.269091 182.626851 
L 293.54843 182.938389 
L 296.827769 183.301941 
L 300.107107 183.718425 
L 303.386446 184.188759 
L 306.665785 184.713861 
L 309.945124 185.294649 
L 313.224463 185.93204 
L 316.503802 186.626952 
L 319.78314 187.380303 
L 323.062479 188.193012 
L 326.341818 189.065994 
L 329.621157 190.00017 
L 332.900496 190.996456 
L 336.179835 192.055769 
L 339.459174 193.179029 
L 342.738512 194.367153 
L 346.017851 195.621058 
L 349.29719 196.941663 
L 352.576529 198.329885 
L 355.855868 199.786641 
L 359.135207 201.312851 
L 362.414545 202.909432 
L 365.693884 204.577301 
L 368.973223 206.317376 
L 372.252562 208.130576 
L 375.531901 210.017817 
L 378.81124 211.980019 
L 382.090579 214.018098 
L 385.369917 216.132972 
L 388.649256 218.32556 
L 391.928595 220.596778 
L 395.207934 222.947546 
L 398.487273 225.37878 
" style="fill:none;stroke:#2ca02c;stroke-linecap:square;stroke-width:1.5;"/>
   </g>
   <g id="line2d_13">
    <path clip-path="url(#p9b92355e32)" d="M 73.832727 212.004153 
L 77.112066 210.9298 
L 80.391405 209.842675 
L 83.670744 208.743806 
L 86.950083 207.634222 
L 90.229421 206.51495 
L 93.50876 205.387019 
L 96.788099 204.251457 
L 100.067438 203.109292 
L 103.346777 201.961553 
L 106.626116 200.809267 
L 109.905455 199.653462 
L 113.184793 198.495167 
L 116.464132 197.33541 
L 119.743471 196.175218 
L 123.02281 195.015621 
L 126.302149 193.857646 
L 129.581488 192.702322 
L 132.860826 191.550676 
L 136.140165 190.403736 
L 139.419504 189.262532 
L 142.698843 188.12809 
L 145.978182 187.00144 
L 149.257521 185.883609 
L 152.53686 184.775625 
L 155.816198 183.678517 
L 159.095537 182.593312 
L 162.374876 181.52104 
L 165.654215 180.462727 
L 168.933554 179.419403 
L 172.212893 178.392095 
L 175.492231 177.381831 
L 178.77157 176.38964 
L 182.050909 175.41655 
L 185.330248 174.463588 
L 188.609587 173.531784 
L 191.888926 172.622165 
L 195.168264 171.735759 
L 198.447603 170.873594 
L 201.726942 170.036699 
L 205.006281 169.226102 
L 208.28562 168.442831 
L 211.564959 167.687914 
L 214.844298 166.962379 
L 218.123636 166.267255 
L 221.402975 165.603569 
L 224.682314 164.97235 
L 227.961653 164.374625 
L 231.240992 163.811424 
L 234.520331 163.283773 
L 237.799669 162.792702 
L 241.079008 162.339238 
L 244.358347 161.92441 
L 247.637686 161.549245 
L 250.917025 161.214772 
L 254.196364 160.92202 
L 257.475702 160.672015 
L 260.755041 160.465786 
L 264.03438 160.304362 
L 267.313719 160.188771 
L 270.593058 160.12004 
L 273.872397 160.099198 
L 277.151736 160.127273 
L 280.431074 160.205294 
L 283.710413 160.334287 
L 286.989752 160.515282 
L 290.269091 160.749307 
L 293.54843 161.037389 
L 296.827769 161.380557 
L 300.107107 161.779839 
L 303.386446 162.236264 
L 306.665785 162.750859 
L 309.945124 163.324652 
L 313.224463 163.958672 
L 316.503802 164.653946 
L 319.78314 165.411504 
L 323.062479 166.232372 
L 326.341818 167.11758 
L 329.621157 168.068155 
L 332.900496 169.085126 
L 336.179835 170.16952 
L 339.459174 171.322366 
L 342.738512 172.544692 
L 346.017851 173.837526 
L 349.29719 175.201896 
L 352.576529 176.638831 
L 355.855868 178.149358 
L 359.135207 179.734506 
L 362.414545 181.395303 
L 365.693884 183.132776 
L 368.973223 184.947955 
L 372.252562 186.841867 
L 375.531901 188.815541 
L 378.81124 190.870004 
L 382.090579 193.006284 
L 385.369917 195.225411 
L 388.649256 197.528411 
L 391.928595 199.916314 
L 395.207934 202.390147 
L 398.487273 204.950939 
" style="fill:none;stroke:#d62728;stroke-linecap:square;stroke-width:1.5;"/>
   </g>
   <g id="line2d_14">
    <path clip-path="url(#p9b92355e32)" d="M 73.832727 237.161698 
L 77.112066 236.098148 
L 80.391405 235.028076 
L 83.670744 233.952318 
L 86.950083 232.871707 
L 90.229421 231.787078 
L 93.50876 230.699266 
L 96.788099 229.609104 
L 100.067438 228.517427 
L 103.346777 227.425069 
L 106.626116 226.332866 
L 109.905455 225.24165 
L 113.184793 224.152258 
L 116.464132 223.065522 
L 119.743471 221.982278 
L 123.02281 220.903359 
L 126.302149 219.829601 
L 129.581488 218.761838 
L 132.860826 217.700903 
L 136.140165 216.647632 
L 139.419504 215.602859 
L 142.698843 214.567418 
L 145.978182 213.542144 
L 149.257521 212.52787 
L 152.53686 211.525432 
L 155.816198 210.535664 
L 159.095537 209.5594 
L 162.374876 208.597475 
L 165.654215 207.650723 
L 168.933554 206.719978 
L 172.212893 205.806075 
L 175.492231 204.909848 
L 178.77157 204.032132 
L 182.050909 203.173761 
L 185.330248 202.335569 
L 188.609587 201.518391 
L 191.888926 200.723061 
L 195.168264 199.950414 
L 198.447603 199.201284 
L 201.726942 198.476505 
L 205.006281 197.776912 
L 208.28562 197.103339 
L 211.564959 196.456621 
L 214.844298 195.837592 
L 218.123636 195.247086 
L 221.402975 194.685938 
L 224.682314 194.154982 
L 227.961653 193.655052 
L 231.240992 193.186984 
L 234.520331 192.751611 
L 237.799669 192.349768 
L 241.079008 191.982289 
L 244.358347 191.650008 
L 247.637686 191.35376 
L 250.917025 191.09438 
L 254.196364 190.872702 
L 257.475702 190.689559 
L 260.755041 190.545788 
L 264.03438 190.442221 
L 267.313719 190.379693 
L 270.593058 190.359039 
L 273.872397 190.381094 
L 277.151736 190.446691 
L 280.431074 190.556664 
L 283.710413 190.71185 
L 286.989752 190.913081 
L 290.269091 191.161192 
L 293.54843 191.457017 
L 296.827769 191.801392 
L 300.107107 192.195149 
L 303.386446 192.639125 
L 306.665785 193.134152 
L 309.945124 193.681067 
L 313.224463 194.280702 
L 316.503802 194.933892 
L 319.78314 195.641472 
L 323.062479 196.404276 
L 326.341818 197.223139 
L 329.621157 198.098894 
L 332.900496 199.032377 
L 336.179835 200.024422 
L 339.459174 201.075862 
L 342.738512 202.187534 
L 346.017851 203.36027 
L 349.29719 204.594905 
L 352.576529 205.892274 
L 355.855868 207.253211 
L 359.135207 208.678551 
L 362.414545 210.169127 
L 365.693884 211.725775 
L 368.973223 213.349328 
L 372.252562 215.040621 
L 375.531901 216.800489 
L 378.81124 218.629766 
L 382.090579 220.529286 
L 385.369917 222.499884 
L 388.649256 224.542394 
L 391.928595 226.65765 
L 395.207934 228.846487 
L 398.487273 231.109739 
" style="fill:none;stroke:#9467bd;stroke-linecap:square;stroke-width:1.5;"/>
   </g>
   <g id="line2d_15">
    <path clip-path="url(#p9b92355e32)" d="M 73.832727 226.17952 
L 77.112066 225.233235 
L 80.391405 224.282475 
L 83.670744 223.32795 
L 86.950083 222.370368 
L 90.229421 221.410438 
L 93.50876 220.448868 
L 96.788099 219.486367 
L 100.067438 218.523645 
L 103.346777 217.561408 
L 106.626116 216.600367 
L 109.905455 215.64123 
L 113.184793 214.684705 
L 116.464132 213.731501 
L 119.743471 212.782327 
L 123.02281 211.837892 
L 126.302149 210.898903 
L 129.581488 209.96607 
L 132.860826 209.040102 
L 136.140165 208.121706 
L 139.419504 207.211593 
L 142.698843 206.310469 
L 145.978182 205.419045 
L 149.257521 204.538028 
L 152.53686 203.668128 
L 155.816198 202.810053 
L 159.095537 201.964511 
L 162.374876 201.132212 
L 165.654215 200.313864 
L 168.933554 199.510175 
L 172.212893 198.721854 
L 175.492231 197.949611 
L 178.77157 197.194153 
L 182.050909 196.456189 
L 185.330248 195.736429 
L 188.609587 195.03558 
L 191.888926 194.354351 
L 195.168264 193.693451 
L 198.447603 193.053588 
L 201.726942 192.435472 
L 205.006281 191.839811 
L 208.28562 191.267313 
L 211.564959 190.718687 
L 214.844298 190.194642 
L 218.123636 189.695887 
L 221.402975 189.22313 
L 224.682314 188.77708 
L 227.961653 188.358445 
L 231.240992 187.967934 
L 234.520331 187.606256 
L 237.799669 187.274119 
L 241.079008 186.972233 
L 244.358347 186.701305 
L 247.637686 186.462045 
L 250.917025 186.255161 
L 254.196364 186.081362 
L 257.475702 185.941356 
L 260.755041 185.835852 
L 264.03438 185.765558 
L 267.313719 185.731185 
L 270.593058 185.733439 
L 273.872397 185.77303 
L 277.151736 185.850666 
L 280.431074 185.967056 
L 283.710413 186.122909 
L 286.989752 186.318933 
L 290.269091 186.555837 
L 293.54843 186.83433 
L 296.827769 187.15512 
L 300.107107 187.518916 
L 303.386446 187.926427 
L 306.665785 188.37836 
L 309.945124 188.875426 
L 313.224463 189.418333 
L 316.503802 190.007788 
L 319.78314 190.644502 
L 323.062479 191.329182 
L 326.341818 192.062537 
L 329.621157 192.845276 
L 332.900496 193.678108 
L 336.179835 194.561741 
L 339.459174 195.496884 
L 342.738512 196.484245 
L 346.017851 197.524533 
L 349.29719 198.618458 
L 352.576529 199.766726 
L 355.855868 200.970048 
L 359.135207 202.229132 
L 362.414545 203.544686 
L 365.693884 204.917419 
L 368.973223 206.34804 
L 372.252562 207.837258 
L 375.531901 209.38578 
L 378.81124 210.994316 
L 382.090579 212.663575 
L 385.369917 214.394265 
L 388.649256 216.187094 
L 391.928595 218.042772 
L 395.207934 219.962007 
L 398.487273 221.945507 
" style="fill:none;stroke:#8c564b;stroke-linecap:square;stroke-width:1.5;"/>
   </g>
   <g id="patch_3">
    <path d="M 57.6 307.584 
L 57.6 41.472 
" style="fill:none;stroke:#000000;stroke-linecap:square;stroke-linejoin:miter;stroke-width:0.8;"/>
   </g>
   <g id="patch_4">
    <path d="M 414.72 307.584 
L 414.72 41.472 
" style="fill:none;stroke:#000000;stroke-linecap:square;stroke-linejoin:miter;stroke-width:0.8;"/>
   </g>
   <g id="patch_5">
    <path d="M 57.6 307.584 
L 414.72 307.584 
" style="fill:none;stroke:#000000;stroke-linecap:square;stroke-linejoin:miter;stroke-width:0.8;"/>
   </g>
   <g id="patch_6">
    <path d="M 57.6 41.472 
L 414.72 41.472 
" style="fill:none;stroke:#000000;stroke-linecap:square;stroke-linejoin:miter;stroke-width:0.8;"/>
   </g>
  </g>
 </g>
 <defs>
  <clipPath id="p9b92355e32">
   <rect height="266.112" width="357.12" x="57.6" y="41.472"/>
  </clipPath>
 </defs>
</svg>
