<?xml version="1.0" encoding="utf-8" standalone="no"?>
<!DOCTYPE svg PUBLIC "-//W3C//DTD SVG 1.1//EN"
  "http://www.w3.org/Graphics/SVG/1.1/DTD/svg11.dtd">
<!-- Created with matplotlib (https://matplotlib.org/) -->
<svg height="345.6pt" version="1.1" viewBox="0 0 460.8 345.6" width="460.8pt" xmlns="http://www.w3.org/2000/svg" xmlns:xlink="http://www.w3.org/1999/xlink">
 <metadata>
  <rdf:RDF xmlns:cc="http://creativecommons.org/ns#" xmlns:dc="http://purl.org/dc/elements/1.1/" xmlns:rdf="http://www.w3.org/1999/02/22-rdf-syntax-ns#">
   <cc:Work>
    <dc:type rdf:resource="http://purl.org/dc/dcmitype/StillImage"/>
    <dc:date>2021-11-24T17:22:59.634028</dc:date>
    <dc:format>image/svg+xml</dc:format>
    <dc:creator>
     <cc:Agent>
      <dc:title>Matplotlib v3.3.4, https://matplotlib.org/</dc:title>
     </cc:Agent>
    </dc:creator>
   </cc:Work>
  </rdf:RDF>
 </metadata>
 <defs>
  <style type="text/css">*{stroke-linecap:butt;stroke-linejoin:round;}</style>
 </defs>
 <g id="figure_1">
  <g id="patch_1">
   <path d="M 0 345.6 
L 460.8 345.6 
L 460.8 0 
L 0 0 
z
" style="fill:#ffffff;"/>
  </g>
  <g id="axes_1">
   <g id="patch_2">
    <path d="M 57.6 307.584 
L 414.72 307.584 
L 414.72 41.472 
L 57.6 41.472 
z
" style="fill:#ffffff;"/>
   </g>
   <g id="PathCollection_1">
    <defs>
     <path d="M 0 0.5 
C 0.132602 0.5 0.25979 0.447317 0.353553 0.353553 
C 0.447317 0.25979 0.5 0.132602 0.5 0 
C 0.5 -0.132602 0.447317 -0.25979 0.353553 -0.353553 
C 0.25979 -0.447317 0.132602 -0.5 0 -0.5 
C -0.132602 -0.5 -0.25979 -0.447317 -0.353553 -0.353553 
C -0.447317 -0.25979 -0.5 -0.132602 -0.5 0 
C -0.5 0.132602 -0.447317 0.25979 -0.353553 0.353553 
C -0.25979 0.447317 -0.132602 0.5 0 0.5 
z
" id="mb980c81b7c" style="stroke:#0000ff;"/>
    </defs>
    <g clip-path="url(#p12d6488170)">
     <use style="fill:#0000ff;stroke:#0000ff;" x="73.832727" xlink:href="#mb980c81b7c" y="238.973384"/>
     <use style="fill:#0000ff;stroke:#0000ff;" x="120.211948" xlink:href="#mb980c81b7c" y="247.535249"/>
     <use style="fill:#0000ff;stroke:#0000ff;" x="166.591169" xlink:href="#mb980c81b7c" y="227.326163"/>
     <use style="fill:#0000ff;stroke:#0000ff;" x="212.97039" xlink:href="#mb980c81b7c" y="192.65447"/>
     <use style="fill:#0000ff;stroke:#0000ff;" x="259.34961" xlink:href="#mb980c81b7c" y="184.555409"/>
     <use style="fill:#0000ff;stroke:#0000ff;" x="305.728831" xlink:href="#mb980c81b7c" y="210.163868"/>
     <use style="fill:#0000ff;stroke:#0000ff;" x="352.108052" xlink:href="#mb980c81b7c" y="227.441864"/>
     <use style="fill:#0000ff;stroke:#0000ff;" x="398.487273" xlink:href="#mb980c81b7c" y="232.1856"/>
    </g>
   </g>
   <g id="PathCollection_2">
    <g clip-path="url(#p12d6488170)">
     <use style="fill:#0000ff;stroke:#0000ff;" x="73.832727" xlink:href="#mb980c81b7c" y="227.094762"/>
     <use style="fill:#0000ff;stroke:#0000ff;" x="120.211948" xlink:href="#mb980c81b7c" y="233.034073"/>
     <use style="fill:#0000ff;stroke:#0000ff;" x="166.591169" xlink:href="#mb980c81b7c" y="209.199694"/>
     <use style="fill:#0000ff;stroke:#0000ff;" x="212.97039" xlink:href="#mb980c81b7c" y="174.219464"/>
     <use style="fill:#0000ff;stroke:#0000ff;" x="259.34961" xlink:href="#mb980c81b7c" y="166.197537"/>
     <use style="fill:#0000ff;stroke:#0000ff;" x="305.728831" xlink:href="#mb980c81b7c" y="199.326553"/>
     <use style="fill:#0000ff;stroke:#0000ff;" x="352.108052" xlink:href="#mb980c81b7c" y="218.687165"/>
     <use style="fill:#0000ff;stroke:#0000ff;" x="398.487273" xlink:href="#mb980c81b7c" y="223.508035"/>
    </g>
   </g>
   <g id="PathCollection_3">
    <g clip-path="url(#p12d6488170)">
     <use style="fill:#0000ff;stroke:#0000ff;" x="73.832727" xlink:href="#mb980c81b7c" y="219.612772"/>
     <use style="fill:#0000ff;stroke:#0000ff;" x="120.211948" xlink:href="#mb980c81b7c" y="226.169155"/>
     <use style="fill:#0000ff;stroke:#0000ff;" x="166.591169" xlink:href="#mb980c81b7c" y="202.450477"/>
     <use style="fill:#0000ff;stroke:#0000ff;" x="212.97039" xlink:href="#mb980c81b7c" y="168.395854"/>
     <use style="fill:#0000ff;stroke:#0000ff;" x="259.34961" xlink:href="#mb980c81b7c" y="158.908383"/>
     <use style="fill:#0000ff;stroke:#0000ff;" x="305.728831" xlink:href="#mb980c81b7c" y="189.569113"/>
     <use style="fill:#0000ff;stroke:#0000ff;" x="352.108052" xlink:href="#mb980c81b7c" y="206.96281"/>
     <use style="fill:#0000ff;stroke:#0000ff;" x="398.487273" xlink:href="#mb980c81b7c" y="214.869037"/>
    </g>
   </g>
   <g id="PathCollection_4">
    <g clip-path="url(#p12d6488170)">
     <use style="fill:#0000ff;stroke:#0000ff;" x="73.832727" xlink:href="#mb980c81b7c" y="235.926595"/>
     <use style="fill:#0000ff;stroke:#0000ff;" x="120.211948" xlink:href="#mb980c81b7c" y="244.21849"/>
     <use style="fill:#0000ff;stroke:#0000ff;" x="166.591169" xlink:href="#mb980c81b7c" y="220.114143"/>
     <use style="fill:#0000ff;stroke:#0000ff;" x="212.97039" xlink:href="#mb980c81b7c" y="186.676591"/>
     <use style="fill:#0000ff;stroke:#0000ff;" x="259.34961" xlink:href="#mb980c81b7c" y="180.004508"/>
     <use style="fill:#0000ff;stroke:#0000ff;" x="305.728831" xlink:href="#mb980c81b7c" y="208.004118"/>
     <use style="fill:#0000ff;stroke:#0000ff;" x="352.108052" xlink:href="#mb980c81b7c" y="224.047972"/>
     <use style="fill:#0000ff;stroke:#0000ff;" x="398.487273" xlink:href="#mb980c81b7c" y="230.758623"/>
    </g>
   </g>
   <g id="PathCollection_5">
    <g clip-path="url(#p12d6488170)">
     <use style="fill:#0000ff;stroke:#0000ff;" x="73.832727" xlink:href="#mb980c81b7c" y="180.698713"/>
     <use style="fill:#0000ff;stroke:#0000ff;" x="120.211948" xlink:href="#mb980c81b7c" y="189.800515"/>
     <use style="fill:#0000ff;stroke:#0000ff;" x="166.591169" xlink:href="#mb980c81b7c" y="161.299534"/>
     <use style="fill:#0000ff;stroke:#0000ff;" x="212.97039" xlink:href="#mb980c81b7c" y="118.64448"/>
     <use style="fill:#0000ff;stroke:#0000ff;" x="259.34961" xlink:href="#mb980c81b7c" y="105.416014"/>
     <use style="fill:#0000ff;stroke:#0000ff;" x="305.728831" xlink:href="#mb980c81b7c" y="147.993934"/>
     <use style="fill:#0000ff;stroke:#0000ff;" x="352.108052" xlink:href="#mb980c81b7c" y="166.390372"/>
     <use style="fill:#0000ff;stroke:#0000ff;" x="398.487273" xlink:href="#mb980c81b7c" y="172.75392"/>
    </g>
   </g>
   <g id="PathCollection_6">
    <g clip-path="url(#p12d6488170)">
     <use style="fill:#0000ff;stroke:#0000ff;" x="73.832727" xlink:href="#mb980c81b7c" y="265.546017"/>
     <use style="fill:#0000ff;stroke:#0000ff;" x="120.211948" xlink:href="#mb980c81b7c" y="269.171311"/>
     <use style="fill:#0000ff;stroke:#0000ff;" x="166.591169" xlink:href="#mb980c81b7c" y="246.416807"/>
     <use style="fill:#0000ff;stroke:#0000ff;" x="212.97039" xlink:href="#mb980c81b7c" y="219.38137"/>
     <use style="fill:#0000ff;stroke:#0000ff;" x="259.34961" xlink:href="#mb980c81b7c" y="212.979256"/>
     <use style="fill:#0000ff;stroke:#0000ff;" x="305.728831" xlink:href="#mb980c81b7c" y="236.042296"/>
     <use style="fill:#0000ff;stroke:#0000ff;" x="352.108052" xlink:href="#mb980c81b7c" y="253.011757"/>
     <use style="fill:#0000ff;stroke:#0000ff;" x="398.487273" xlink:href="#mb980c81b7c" y="261.265085"/>
    </g>
   </g>
   <g id="PathCollection_7">
    <g clip-path="url(#p12d6488170)">
     <use style="fill:#0000ff;stroke:#0000ff;" x="73.832727" xlink:href="#mb980c81b7c" y="210.780939"/>
     <use style="fill:#0000ff;stroke:#0000ff;" x="120.211948" xlink:href="#mb980c81b7c" y="216.064612"/>
     <use style="fill:#0000ff;stroke:#0000ff;" x="166.591169" xlink:href="#mb980c81b7c" y="197.08967"/>
     <use style="fill:#0000ff;stroke:#0000ff;" x="212.97039" xlink:href="#mb980c81b7c" y="162.148007"/>
     <use style="fill:#0000ff;stroke:#0000ff;" x="259.34961" xlink:href="#mb980c81b7c" y="159.641155"/>
     <use style="fill:#0000ff;stroke:#0000ff;" x="305.728831" xlink:href="#mb980c81b7c" y="188.296403"/>
     <use style="fill:#0000ff;stroke:#0000ff;" x="352.108052" xlink:href="#mb980c81b7c" y="201.756271"/>
     <use style="fill:#0000ff;stroke:#0000ff;" x="398.487273" xlink:href="#mb980c81b7c" y="209.12256"/>
    </g>
   </g>
   <g id="PathCollection_8">
    <g clip-path="url(#p12d6488170)">
     <use style="fill:#0000ff;stroke:#0000ff;" x="73.832727" xlink:href="#mb980c81b7c" y="207.078511"/>
     <use style="fill:#0000ff;stroke:#0000ff;" x="120.211948" xlink:href="#mb980c81b7c" y="211.822247"/>
     <use style="fill:#0000ff;stroke:#0000ff;" x="166.591169" xlink:href="#mb980c81b7c" y="191.728863"/>
     <use style="fill:#0000ff;stroke:#0000ff;" x="212.97039" xlink:href="#mb980c81b7c" y="158.869816"/>
     <use style="fill:#0000ff;stroke:#0000ff;" x="259.34961" xlink:href="#mb980c81b7c" y="147.53113"/>
     <use style="fill:#0000ff;stroke:#0000ff;" x="305.728831" xlink:href="#mb980c81b7c" y="177.420522"/>
     <use style="fill:#0000ff;stroke:#0000ff;" x="352.108052" xlink:href="#mb980c81b7c" y="193.001572"/>
     <use style="fill:#0000ff;stroke:#0000ff;" x="398.487273" xlink:href="#mb980c81b7c" y="201.833405"/>
    </g>
   </g>
   <g id="PathCollection_9">
    <g clip-path="url(#p12d6488170)">
     <use style="fill:#0000ff;stroke:#0000ff;" x="73.832727" xlink:href="#mb980c81b7c" y="237.199304"/>
     <use style="fill:#0000ff;stroke:#0000ff;" x="120.211948" xlink:href="#mb980c81b7c" y="245.066963"/>
     <use style="fill:#0000ff;stroke:#0000ff;" x="166.591169" xlink:href="#mb980c81b7c" y="223.430901"/>
     <use style="fill:#0000ff;stroke:#0000ff;" x="212.97039" xlink:href="#mb980c81b7c" y="194.621384"/>
     <use style="fill:#0000ff;stroke:#0000ff;" x="259.34961" xlink:href="#mb980c81b7c" y="187.640765"/>
     <use style="fill:#0000ff;stroke:#0000ff;" x="305.728831" xlink:href="#mb980c81b7c" y="212.207917"/>
     <use style="fill:#0000ff;stroke:#0000ff;" x="352.108052" xlink:href="#mb980c81b7c" y="225.667784"/>
     <use style="fill:#0000ff;stroke:#0000ff;" x="398.487273" xlink:href="#mb980c81b7c" y="230.720056"/>
    </g>
   </g>
   <g id="PathCollection_10">
    <g clip-path="url(#p12d6488170)">
     <use style="fill:#0000ff;stroke:#0000ff;" x="73.832727" xlink:href="#mb980c81b7c" y="219.38137"/>
     <use style="fill:#0000ff;stroke:#0000ff;" x="120.211948" xlink:href="#mb980c81b7c" y="225.629217"/>
     <use style="fill:#0000ff;stroke:#0000ff;" x="166.591169" xlink:href="#mb980c81b7c" y="208.042685"/>
     <use style="fill:#0000ff;stroke:#0000ff;" x="212.97039" xlink:href="#mb980c81b7c" y="183.436967"/>
     <use style="fill:#0000ff;stroke:#0000ff;" x="259.34961" xlink:href="#mb980c81b7c" y="173.795228"/>
     <use style="fill:#0000ff;stroke:#0000ff;" x="305.728831" xlink:href="#mb980c81b7c" y="195.161322"/>
     <use style="fill:#0000ff;stroke:#0000ff;" x="352.108052" xlink:href="#mb980c81b7c" y="206.422873"/>
     <use style="fill:#0000ff;stroke:#0000ff;" x="398.487273" xlink:href="#mb980c81b7c" y="214.714769"/>
    </g>
   </g>
   <g id="PathCollection_11">
    <g clip-path="url(#p12d6488170)">
     <use style="fill:#0000ff;stroke:#0000ff;" x="73.832727" xlink:href="#mb980c81b7c" y="223.585169"/>
     <use style="fill:#0000ff;stroke:#0000ff;" x="120.211948" xlink:href="#mb980c81b7c" y="233.805412"/>
     <use style="fill:#0000ff;stroke:#0000ff;" x="166.591169" xlink:href="#mb980c81b7c" y="209.739631"/>
     <use style="fill:#0000ff;stroke:#0000ff;" x="212.97039" xlink:href="#mb980c81b7c" y="173.756661"/>
     <use style="fill:#0000ff;stroke:#0000ff;" x="259.34961" xlink:href="#mb980c81b7c" y="163.729252"/>
     <use style="fill:#0000ff;stroke:#0000ff;" x="305.728831" xlink:href="#mb980c81b7c" y="193.580077"/>
     <use style="fill:#0000ff;stroke:#0000ff;" x="352.108052" xlink:href="#mb980c81b7c" y="208.042685"/>
     <use style="fill:#0000ff;stroke:#0000ff;" x="398.487273" xlink:href="#mb980c81b7c" y="214.560501"/>
    </g>
   </g>
   <g id="PathCollection_12">
    <g clip-path="url(#p12d6488170)">
     <use style="fill:#0000ff;stroke:#0000ff;" x="73.832727" xlink:href="#mb980c81b7c" y="233.149774"/>
     <use style="fill:#0000ff;stroke:#0000ff;" x="120.211948" xlink:href="#mb980c81b7c" y="239.28192"/>
     <use style="fill:#0000ff;stroke:#0000ff;" x="166.591169" xlink:href="#mb980c81b7c" y="212.28505"/>
     <use style="fill:#0000ff;stroke:#0000ff;" x="212.97039" xlink:href="#mb980c81b7c" y="178.808932"/>
     <use style="fill:#0000ff;stroke:#0000ff;" x="259.34961" xlink:href="#mb980c81b7c" y="172.985322"/>
     <use style="fill:#0000ff;stroke:#0000ff;" x="305.728831" xlink:href="#mb980c81b7c" y="204.957329"/>
     <use style="fill:#0000ff;stroke:#0000ff;" x="352.108052" xlink:href="#mb980c81b7c" y="222.312459"/>
     <use style="fill:#0000ff;stroke:#0000ff;" x="398.487273" xlink:href="#mb980c81b7c" y="230.180118"/>
    </g>
   </g>
   <g id="PathCollection_13">
    <g clip-path="url(#p12d6488170)">
     <use style="fill:#0000ff;stroke:#0000ff;" x="73.832727" xlink:href="#mb980c81b7c" y="228.676007"/>
     <use style="fill:#0000ff;stroke:#0000ff;" x="120.211948" xlink:href="#mb980c81b7c" y="233.304042"/>
     <use style="fill:#0000ff;stroke:#0000ff;" x="166.591169" xlink:href="#mb980c81b7c" y="215.871777"/>
     <use style="fill:#0000ff;stroke:#0000ff;" x="212.97039" xlink:href="#mb980c81b7c" y="184.902511"/>
     <use style="fill:#0000ff;stroke:#0000ff;" x="259.34961" xlink:href="#mb980c81b7c" y="177.150553"/>
     <use style="fill:#0000ff;stroke:#0000ff;" x="305.728831" xlink:href="#mb980c81b7c" y="202.450477"/>
     <use style="fill:#0000ff;stroke:#0000ff;" x="352.108052" xlink:href="#mb980c81b7c" y="216.103179"/>
     <use style="fill:#0000ff;stroke:#0000ff;" x="398.487273" xlink:href="#mb980c81b7c" y="224.58791"/>
    </g>
   </g>
   <g id="PathCollection_14">
    <g clip-path="url(#p12d6488170)">
     <use style="fill:#0000ff;stroke:#0000ff;" x="73.832727" xlink:href="#mb980c81b7c" y="210.472403"/>
     <use style="fill:#0000ff;stroke:#0000ff;" x="120.211948" xlink:href="#mb980c81b7c" y="219.882741"/>
     <use style="fill:#0000ff;stroke:#0000ff;" x="166.591169" xlink:href="#mb980c81b7c" y="196.549732"/>
     <use style="fill:#0000ff;stroke:#0000ff;" x="212.97039" xlink:href="#mb980c81b7c" y="160.181092"/>
     <use style="fill:#0000ff;stroke:#0000ff;" x="259.34961" xlink:href="#mb980c81b7c" y="146.991193"/>
     <use style="fill:#0000ff;stroke:#0000ff;" x="305.728831" xlink:href="#mb980c81b7c" y="178.037593"/>
     <use style="fill:#0000ff;stroke:#0000ff;" x="352.108052" xlink:href="#mb980c81b7c" y="195.084188"/>
     <use style="fill:#0000ff;stroke:#0000ff;" x="398.487273" xlink:href="#mb980c81b7c" y="202.219075"/>
    </g>
   </g>
   <g id="PathCollection_15">
    <g clip-path="url(#p12d6488170)">
     <use style="fill:#0000ff;stroke:#0000ff;" x="73.832727" xlink:href="#mb980c81b7c" y="238.973384"/>
     <use style="fill:#0000ff;stroke:#0000ff;" x="120.211948" xlink:href="#mb980c81b7c" y="247.535249"/>
     <use style="fill:#0000ff;stroke:#0000ff;" x="166.591169" xlink:href="#mb980c81b7c" y="227.326163"/>
     <use style="fill:#0000ff;stroke:#0000ff;" x="212.97039" xlink:href="#mb980c81b7c" y="192.65447"/>
     <use style="fill:#0000ff;stroke:#0000ff;" x="259.34961" xlink:href="#mb980c81b7c" y="184.555409"/>
     <use style="fill:#0000ff;stroke:#0000ff;" x="305.728831" xlink:href="#mb980c81b7c" y="210.163868"/>
     <use style="fill:#0000ff;stroke:#0000ff;" x="352.108052" xlink:href="#mb980c81b7c" y="227.441864"/>
     <use style="fill:#0000ff;stroke:#0000ff;" x="398.487273" xlink:href="#mb980c81b7c" y="232.1856"/>
    </g>
   </g>
   <g id="matplotlib.axis_1">
    <g id="xtick_1">
     <g id="line2d_1">
      <defs>
       <path d="M 0 0 
L 0 3.5 
" id="m13bc4c3967" style="stroke:#000000;stroke-width:0.8;"/>
      </defs>
      <g>
       <use style="stroke:#000000;stroke-width:0.8;" x="120.211948" xlink:href="#m13bc4c3967" y="307.584"/>
      </g>
     </g>
     <g id="text_1">
      <!-- 5 -->
      <g transform="translate(117.030698 322.182437)scale(0.1 -0.1)">
       <defs>
        <path d="M 10.796875 72.90625 
L 49.515625 72.90625 
L 49.515625 64.59375 
L 19.828125 64.59375 
L 19.828125 46.734375 
Q 21.96875 47.46875 24.109375 47.828125 
Q 26.265625 48.1875 28.421875 48.1875 
Q 40.625 48.1875 47.75 41.5 
Q 54.890625 34.8125 54.890625 23.390625 
Q 54.890625 11.625 47.5625 5.09375 
Q 40.234375 -1.421875 26.90625 -1.421875 
Q 22.3125 -1.421875 17.546875 -0.640625 
Q 12.796875 0.140625 7.71875 1.703125 
L 7.71875 11.625 
Q 12.109375 9.234375 16.796875 8.0625 
Q 21.484375 6.890625 26.703125 6.890625 
Q 35.15625 6.890625 40.078125 11.328125 
Q 45.015625 15.765625 45.015625 23.390625 
Q 45.015625 31 40.078125 35.4375 
Q 35.15625 39.890625 26.703125 39.890625 
Q 22.75 39.890625 18.8125 39.015625 
Q 14.890625 38.140625 10.796875 36.28125 
z
" id="DejaVuSans-53"/>
       </defs>
       <use xlink:href="#DejaVuSans-53"/>
      </g>
     </g>
    </g>
    <g id="xtick_2">
     <g id="line2d_2">
      <g>
       <use style="stroke:#000000;stroke-width:0.8;" x="197.510649" xlink:href="#m13bc4c3967" y="307.584"/>
      </g>
     </g>
     <g id="text_2">
      <!-- 10 -->
      <g transform="translate(191.148149 322.182437)scale(0.1 -0.1)">
       <defs>
        <path d="M 12.40625 8.296875 
L 28.515625 8.296875 
L 28.515625 63.921875 
L 10.984375 60.40625 
L 10.984375 69.390625 
L 28.421875 72.90625 
L 38.28125 72.90625 
L 38.28125 8.296875 
L 54.390625 8.296875 
L 54.390625 0 
L 12.40625 0 
z
" id="DejaVuSans-49"/>
        <path d="M 31.78125 66.40625 
Q 24.171875 66.40625 20.328125 58.90625 
Q 16.5 51.421875 16.5 36.375 
Q 16.5 21.390625 20.328125 13.890625 
Q 24.171875 6.390625 31.78125 6.390625 
Q 39.453125 6.390625 43.28125 13.890625 
Q 47.125 21.390625 47.125 36.375 
Q 47.125 51.421875 43.28125 58.90625 
Q 39.453125 66.40625 31.78125 66.40625 
z
M 31.78125 74.21875 
Q 44.046875 74.21875 50.515625 64.515625 
Q 56.984375 54.828125 56.984375 36.375 
Q 56.984375 17.96875 50.515625 8.265625 
Q 44.046875 -1.421875 31.78125 -1.421875 
Q 19.53125 -1.421875 13.0625 8.265625 
Q 6.59375 17.96875 6.59375 36.375 
Q 6.59375 54.828125 13.0625 64.515625 
Q 19.53125 74.21875 31.78125 74.21875 
z
" id="DejaVuSans-48"/>
       </defs>
       <use xlink:href="#DejaVuSans-49"/>
       <use x="63.623047" xlink:href="#DejaVuSans-48"/>
      </g>
     </g>
    </g>
    <g id="xtick_3">
     <g id="line2d_3">
      <g>
       <use style="stroke:#000000;stroke-width:0.8;" x="274.809351" xlink:href="#m13bc4c3967" y="307.584"/>
      </g>
     </g>
     <g id="text_3">
      <!-- 15 -->
      <g transform="translate(268.446851 322.182437)scale(0.1 -0.1)">
       <use xlink:href="#DejaVuSans-49"/>
       <use x="63.623047" xlink:href="#DejaVuSans-53"/>
      </g>
     </g>
    </g>
    <g id="xtick_4">
     <g id="line2d_4">
      <g>
       <use style="stroke:#000000;stroke-width:0.8;" x="352.108052" xlink:href="#m13bc4c3967" y="307.584"/>
      </g>
     </g>
     <g id="text_4">
      <!-- 20 -->
      <g transform="translate(345.745552 322.182437)scale(0.1 -0.1)">
       <defs>
        <path d="M 19.1875 8.296875 
L 53.609375 8.296875 
L 53.609375 0 
L 7.328125 0 
L 7.328125 8.296875 
Q 12.9375 14.109375 22.625 23.890625 
Q 32.328125 33.6875 34.8125 36.53125 
Q 39.546875 41.84375 41.421875 45.53125 
Q 43.3125 49.21875 43.3125 52.78125 
Q 43.3125 58.59375 39.234375 62.25 
Q 35.15625 65.921875 28.609375 65.921875 
Q 23.96875 65.921875 18.8125 64.3125 
Q 13.671875 62.703125 7.8125 59.421875 
L 7.8125 69.390625 
Q 13.765625 71.78125 18.9375 73 
Q 24.125 74.21875 28.421875 74.21875 
Q 39.75 74.21875 46.484375 68.546875 
Q 53.21875 62.890625 53.21875 53.421875 
Q 53.21875 48.921875 51.53125 44.890625 
Q 49.859375 40.875 45.40625 35.40625 
Q 44.1875 33.984375 37.640625 27.21875 
Q 31.109375 20.453125 19.1875 8.296875 
z
" id="DejaVuSans-50"/>
       </defs>
       <use xlink:href="#DejaVuSans-50"/>
       <use x="63.623047" xlink:href="#DejaVuSans-48"/>
      </g>
     </g>
    </g>
   </g>
   <g id="matplotlib.axis_2">
    <g id="ytick_1">
     <g id="line2d_5">
      <defs>
       <path d="M 0 0 
L -3.5 0 
" id="m2bb6b07d62" style="stroke:#000000;stroke-width:0.8;"/>
      </defs>
      <g>
       <use style="stroke:#000000;stroke-width:0.8;" x="57.6" xlink:href="#m2bb6b07d62" y="272.873739"/>
      </g>
     </g>
     <g id="text_5">
      <!-- 10 -->
      <g transform="translate(37.875 276.672958)scale(0.1 -0.1)">
       <use xlink:href="#DejaVuSans-49"/>
       <use x="63.623047" xlink:href="#DejaVuSans-48"/>
      </g>
     </g>
    </g>
    <g id="ytick_2">
     <g id="line2d_6">
      <g>
       <use style="stroke:#000000;stroke-width:0.8;" x="57.6" xlink:href="#m2bb6b07d62" y="215.023304"/>
      </g>
     </g>
     <g id="text_6">
      <!-- 15 -->
      <g transform="translate(37.875 218.822523)scale(0.1 -0.1)">
       <use xlink:href="#DejaVuSans-49"/>
       <use x="63.623047" xlink:href="#DejaVuSans-53"/>
      </g>
     </g>
    </g>
    <g id="ytick_3">
     <g id="line2d_7">
      <g>
       <use style="stroke:#000000;stroke-width:0.8;" x="57.6" xlink:href="#m2bb6b07d62" y="157.17287"/>
      </g>
     </g>
     <g id="text_7">
      <!-- 20 -->
      <g transform="translate(37.875 160.972088)scale(0.1 -0.1)">
       <use xlink:href="#DejaVuSans-50"/>
       <use x="63.623047" xlink:href="#DejaVuSans-48"/>
      </g>
     </g>
    </g>
    <g id="ytick_4">
     <g id="line2d_8">
      <g>
       <use style="stroke:#000000;stroke-width:0.8;" x="57.6" xlink:href="#m2bb6b07d62" y="99.322435"/>
      </g>
     </g>
     <g id="text_8">
      <!-- 25 -->
      <g transform="translate(37.875 103.121654)scale(0.1 -0.1)">
       <use xlink:href="#DejaVuSans-50"/>
       <use x="63.623047" xlink:href="#DejaVuSans-53"/>
      </g>
     </g>
    </g>
    <g id="ytick_5">
     <g id="line2d_9">
      <g>
       <use style="stroke:#000000;stroke-width:0.8;" x="57.6" xlink:href="#m2bb6b07d62" y="41.472"/>
      </g>
     </g>
     <g id="text_9">
      <!-- 30 -->
      <g transform="translate(37.875 45.271219)scale(0.1 -0.1)">
       <defs>
        <path d="M 40.578125 39.3125 
Q 47.65625 37.796875 51.625 33 
Q 55.609375 28.21875 55.609375 21.1875 
Q 55.609375 10.40625 48.1875 4.484375 
Q 40.765625 -1.421875 27.09375 -1.421875 
Q 22.515625 -1.421875 17.65625 -0.515625 
Q 12.796875 0.390625 7.625 2.203125 
L 7.625 11.71875 
Q 11.71875 9.328125 16.59375 8.109375 
Q 21.484375 6.890625 26.8125 6.890625 
Q 36.078125 6.890625 40.9375 10.546875 
Q 45.796875 14.203125 45.796875 21.1875 
Q 45.796875 27.640625 41.28125 31.265625 
Q 36.765625 34.90625 28.71875 34.90625 
L 20.21875 34.90625 
L 20.21875 43.015625 
L 29.109375 43.015625 
Q 36.375 43.015625 40.234375 45.921875 
Q 44.09375 48.828125 44.09375 54.296875 
Q 44.09375 59.90625 40.109375 62.90625 
Q 36.140625 65.921875 28.71875 65.921875 
Q 24.65625 65.921875 20.015625 65.03125 
Q 15.375 64.15625 9.8125 62.3125 
L 9.8125 71.09375 
Q 15.4375 72.65625 20.34375 73.4375 
Q 25.25 74.21875 29.59375 74.21875 
Q 40.828125 74.21875 47.359375 69.109375 
Q 53.90625 64.015625 53.90625 55.328125 
Q 53.90625 49.265625 50.4375 45.09375 
Q 46.96875 40.921875 40.578125 39.3125 
z
" id="DejaVuSans-51"/>
       </defs>
       <use xlink:href="#DejaVuSans-51"/>
       <use x="63.623047" xlink:href="#DejaVuSans-48"/>
      </g>
     </g>
    </g>
   </g>
   <g id="line2d_10">
    <path clip-path="url(#p12d6488170)" d="M 73.832727 221.305106 
L 77.112066 216.646817 
L 80.391405 213.065537 
L 83.670744 210.59911 
L 86.950083 209.252053 
L 90.229421 208.99385 
L 93.50876 209.75863 
L 96.788099 211.446324 
L 100.067438 213.925337 
L 103.346777 217.036655 
L 106.626116 220.599292 
L 109.905455 224.416847 
L 113.184793 228.284937 
L 116.464132 231.99915 
L 119.743471 235.363208 
L 123.02281 238.196923 
L 126.302149 240.343597 
L 129.581488 241.676504 
L 132.860826 242.104117 
L 136.140165 241.573836 
L 139.419504 240.074008 
L 142.698843 237.634121 
L 145.978182 234.323148 
L 149.257521 230.246098 
L 152.53686 225.538927 
L 155.816198 220.36203 
L 159.095537 214.892636 
L 162.374876 209.316437 
L 165.654215 203.818881 
L 168.933554 198.576516 
L 172.212893 193.748834 
L 175.492231 189.470982 
L 178.77157 185.847707 
L 182.050909 182.948841 
L 185.330248 180.806518 
L 188.609587 179.414285 
L 191.888926 178.728134 
L 195.168264 178.669404 
L 198.447603 179.129418 
L 201.726942 179.975609 
L 205.006281 181.05885 
L 208.28562 182.221612 
L 211.564959 183.306542 
L 214.844298 184.165058 
L 218.123636 184.665502 
L 221.402975 184.700463 
L 224.682314 184.192898 
L 227.961653 183.100724 
L 231.240992 181.419662 
L 234.520331 179.184153 
L 237.799669 176.466302 
L 241.079008 173.372866 
L 244.358347 170.040419 
L 247.637686 166.628917 
L 250.917025 163.313955 
L 254.196364 160.27808 
L 257.475702 157.701591 
L 260.755041 155.753262 
L 264.03438 154.581452 
L 267.313719 154.306042 
L 270.593058 155.011623 
L 273.872397 156.742271 
L 277.151736 159.498198 
L 280.431074 163.234475 
L 283.710413 167.861902 
L 286.989752 173.250026 
L 290.269091 179.23217 
L 293.54843 185.612268 
L 296.827769 192.173178 
L 300.107107 198.686099 
L 303.386446 204.920645 
L 306.665785 210.655097 
L 309.945124 215.686358 
L 313.224463 219.839131 
L 316.503802 222.973891 
L 319.78314 224.993281 
L 323.062479 225.846639 
L 326.341818 225.532452 
L 329.621157 224.098629 
L 332.900496 221.640621 
L 336.179835 218.297474 
L 339.459174 214.246035 
L 342.738512 209.693599 
L 346.017851 204.869366 
L 349.29719 200.015113 
L 352.576529 195.375519 
L 355.855868 191.1886 
L 359.135207 187.676672 
L 362.414545 185.038234 
L 365.693884 183.441101 
L 368.973223 183.017048 
L 372.252562 183.858142 
L 375.531901 186.014838 
L 378.81124 189.495847 
L 382.090579 194.269689 
L 385.369917 200.267743 
L 388.649256 207.388602 
L 391.928595 215.503418 
L 395.207934 224.461966 
L 398.487273 234.099081 
" style="fill:none;stroke:#1f77b4;stroke-linecap:square;stroke-width:1.5;"/>
   </g>
   <g id="patch_3">
    <path d="M 57.6 307.584 
L 57.6 41.472 
" style="fill:none;stroke:#000000;stroke-linecap:square;stroke-linejoin:miter;stroke-width:0.8;"/>
   </g>
   <g id="patch_4">
    <path d="M 414.72 307.584 
L 414.72 41.472 
" style="fill:none;stroke:#000000;stroke-linecap:square;stroke-linejoin:miter;stroke-width:0.8;"/>
   </g>
   <g id="patch_5">
    <path d="M 57.6 307.584 
L 414.72 307.584 
" style="fill:none;stroke:#000000;stroke-linecap:square;stroke-linejoin:miter;stroke-width:0.8;"/>
   </g>
   <g id="patch_6">
    <path d="M 57.6 41.472 
L 414.72 41.472 
" style="fill:none;stroke:#000000;stroke-linecap:square;stroke-linejoin:miter;stroke-width:0.8;"/>
   </g>
  </g>
 </g>
 <defs>
  <clipPath id="p12d6488170">
   <rect height="266.112" width="357.12" x="57.6" y="41.472"/>
  </clipPath>
 </defs>
</svg>
