<?xml version="1.0" encoding="utf-8" standalone="no"?>
<!DOCTYPE svg PUBLIC "-//W3C//DTD SVG 1.1//EN"
  "http://www.w3.org/Graphics/SVG/1.1/DTD/svg11.dtd">
<!-- Created with matplotlib (https://matplotlib.org/) -->
<svg height="345.6pt" version="1.1" viewBox="0 0 460.8 345.6" width="460.8pt" xmlns="http://www.w3.org/2000/svg" xmlns:xlink="http://www.w3.org/1999/xlink">
 <metadata>
  <rdf:RDF xmlns:cc="http://creativecommons.org/ns#" xmlns:dc="http://purl.org/dc/elements/1.1/" xmlns:rdf="http://www.w3.org/1999/02/22-rdf-syntax-ns#">
   <cc:Work>
    <dc:type rdf:resource="http://purl.org/dc/dcmitype/StillImage"/>
    <dc:date>2021-11-24T17:22:59.796807</dc:date>
    <dc:format>image/svg+xml</dc:format>
    <dc:creator>
     <cc:Agent>
      <dc:title>Matplotlib v3.3.4, https://matplotlib.org/</dc:title>
     </cc:Agent>
    </dc:creator>
   </cc:Work>
  </rdf:RDF>
 </metadata>
 <defs>
  <style type="text/css">*{stroke-linecap:butt;stroke-linejoin:round;}</style>
 </defs>
 <g id="figure_1">
  <g id="patch_1">
   <path d="M 0 345.6 
L 460.8 345.6 
L 460.8 0 
L 0 0 
z
" style="fill:#ffffff;"/>
  </g>
  <g id="axes_1">
   <g id="patch_2">
    <path d="M 57.6 307.584 
L 414.72 307.584 
L 414.72 41.472 
L 57.6 41.472 
z
" style="fill:#ffffff;"/>
   </g>
   <g id="PathCollection_1">
    <defs>
     <path d="M 0 0.5 
C 0.132602 0.5 0.25979 0.447317 0.353553 0.353553 
C 0.447317 0.25979 0.5 0.132602 0.5 0 
C 0.5 -0.132602 0.447317 -0.25979 0.353553 -0.353553 
C 0.25979 -0.447317 0.132602 -0.5 0 -0.5 
C -0.132602 -0.5 -0.25979 -0.447317 -0.353553 -0.353553 
C -0.447317 -0.25979 -0.5 -0.132602 -0.5 0 
C -0.5 0.132602 -0.447317 0.25979 -0.353553 0.353553 
C -0.25979 0.447317 -0.132602 0.5 0 0.5 
z
" id="m7cd5667d28" style="stroke:#0000ff;"/>
    </defs>
    <g clip-path="url(#pbed07b8695)">
     <use style="fill:#0000ff;stroke:#0000ff;" x="73.832727" xlink:href="#m7cd5667d28" y="238.973384"/>
     <use style="fill:#0000ff;stroke:#0000ff;" x="120.211948" xlink:href="#m7cd5667d28" y="247.535249"/>
     <use style="fill:#0000ff;stroke:#0000ff;" x="166.591169" xlink:href="#m7cd5667d28" y="227.326163"/>
     <use style="fill:#0000ff;stroke:#0000ff;" x="212.97039" xlink:href="#m7cd5667d28" y="192.65447"/>
     <use style="fill:#0000ff;stroke:#0000ff;" x="259.34961" xlink:href="#m7cd5667d28" y="184.555409"/>
     <use style="fill:#0000ff;stroke:#0000ff;" x="305.728831" xlink:href="#m7cd5667d28" y="210.163868"/>
     <use style="fill:#0000ff;stroke:#0000ff;" x="352.108052" xlink:href="#m7cd5667d28" y="227.441864"/>
     <use style="fill:#0000ff;stroke:#0000ff;" x="398.487273" xlink:href="#m7cd5667d28" y="232.1856"/>
    </g>
   </g>
   <g id="PathCollection_2">
    <g clip-path="url(#pbed07b8695)">
     <use style="fill:#0000ff;stroke:#0000ff;" x="73.832727" xlink:href="#m7cd5667d28" y="227.094762"/>
     <use style="fill:#0000ff;stroke:#0000ff;" x="120.211948" xlink:href="#m7cd5667d28" y="233.034073"/>
     <use style="fill:#0000ff;stroke:#0000ff;" x="166.591169" xlink:href="#m7cd5667d28" y="209.199694"/>
     <use style="fill:#0000ff;stroke:#0000ff;" x="212.97039" xlink:href="#m7cd5667d28" y="174.219464"/>
     <use style="fill:#0000ff;stroke:#0000ff;" x="259.34961" xlink:href="#m7cd5667d28" y="166.197537"/>
     <use style="fill:#0000ff;stroke:#0000ff;" x="305.728831" xlink:href="#m7cd5667d28" y="199.326553"/>
     <use style="fill:#0000ff;stroke:#0000ff;" x="352.108052" xlink:href="#m7cd5667d28" y="218.687165"/>
     <use style="fill:#0000ff;stroke:#0000ff;" x="398.487273" xlink:href="#m7cd5667d28" y="223.508035"/>
    </g>
   </g>
   <g id="PathCollection_3">
    <g clip-path="url(#pbed07b8695)">
     <use style="fill:#0000ff;stroke:#0000ff;" x="73.832727" xlink:href="#m7cd5667d28" y="219.612772"/>
     <use style="fill:#0000ff;stroke:#0000ff;" x="120.211948" xlink:href="#m7cd5667d28" y="226.169155"/>
     <use style="fill:#0000ff;stroke:#0000ff;" x="166.591169" xlink:href="#m7cd5667d28" y="202.450477"/>
     <use style="fill:#0000ff;stroke:#0000ff;" x="212.97039" xlink:href="#m7cd5667d28" y="168.395854"/>
     <use style="fill:#0000ff;stroke:#0000ff;" x="259.34961" xlink:href="#m7cd5667d28" y="158.908383"/>
     <use style="fill:#0000ff;stroke:#0000ff;" x="305.728831" xlink:href="#m7cd5667d28" y="189.569113"/>
     <use style="fill:#0000ff;stroke:#0000ff;" x="352.108052" xlink:href="#m7cd5667d28" y="206.96281"/>
     <use style="fill:#0000ff;stroke:#0000ff;" x="398.487273" xlink:href="#m7cd5667d28" y="214.869037"/>
    </g>
   </g>
   <g id="PathCollection_4">
    <g clip-path="url(#pbed07b8695)">
     <use style="fill:#0000ff;stroke:#0000ff;" x="73.832727" xlink:href="#m7cd5667d28" y="235.926595"/>
     <use style="fill:#0000ff;stroke:#0000ff;" x="120.211948" xlink:href="#m7cd5667d28" y="244.21849"/>
     <use style="fill:#0000ff;stroke:#0000ff;" x="166.591169" xlink:href="#m7cd5667d28" y="220.114143"/>
     <use style="fill:#0000ff;stroke:#0000ff;" x="212.97039" xlink:href="#m7cd5667d28" y="186.676591"/>
     <use style="fill:#0000ff;stroke:#0000ff;" x="259.34961" xlink:href="#m7cd5667d28" y="180.004508"/>
     <use style="fill:#0000ff;stroke:#0000ff;" x="305.728831" xlink:href="#m7cd5667d28" y="208.004118"/>
     <use style="fill:#0000ff;stroke:#0000ff;" x="352.108052" xlink:href="#m7cd5667d28" y="224.047972"/>
     <use style="fill:#0000ff;stroke:#0000ff;" x="398.487273" xlink:href="#m7cd5667d28" y="230.758623"/>
    </g>
   </g>
   <g id="PathCollection_5">
    <g clip-path="url(#pbed07b8695)">
     <use style="fill:#0000ff;stroke:#0000ff;" x="73.832727" xlink:href="#m7cd5667d28" y="180.698713"/>
     <use style="fill:#0000ff;stroke:#0000ff;" x="120.211948" xlink:href="#m7cd5667d28" y="189.800515"/>
     <use style="fill:#0000ff;stroke:#0000ff;" x="166.591169" xlink:href="#m7cd5667d28" y="161.299534"/>
     <use style="fill:#0000ff;stroke:#0000ff;" x="212.97039" xlink:href="#m7cd5667d28" y="118.64448"/>
     <use style="fill:#0000ff;stroke:#0000ff;" x="259.34961" xlink:href="#m7cd5667d28" y="105.416014"/>
     <use style="fill:#0000ff;stroke:#0000ff;" x="305.728831" xlink:href="#m7cd5667d28" y="147.993934"/>
     <use style="fill:#0000ff;stroke:#0000ff;" x="352.108052" xlink:href="#m7cd5667d28" y="166.390372"/>
     <use style="fill:#0000ff;stroke:#0000ff;" x="398.487273" xlink:href="#m7cd5667d28" y="172.75392"/>
    </g>
   </g>
   <g id="PathCollection_6">
    <g clip-path="url(#pbed07b8695)">
     <use style="fill:#0000ff;stroke:#0000ff;" x="73.832727" xlink:href="#m7cd5667d28" y="265.546017"/>
     <use style="fill:#0000ff;stroke:#0000ff;" x="120.211948" xlink:href="#m7cd5667d28" y="269.171311"/>
     <use style="fill:#0000ff;stroke:#0000ff;" x="166.591169" xlink:href="#m7cd5667d28" y="246.416807"/>
     <use style="fill:#0000ff;stroke:#0000ff;" x="212.97039" xlink:href="#m7cd5667d28" y="219.38137"/>
     <use style="fill:#0000ff;stroke:#0000ff;" x="259.34961" xlink:href="#m7cd5667d28" y="212.979256"/>
     <use style="fill:#0000ff;stroke:#0000ff;" x="305.728831" xlink:href="#m7cd5667d28" y="236.042296"/>
     <use style="fill:#0000ff;stroke:#0000ff;" x="352.108052" xlink:href="#m7cd5667d28" y="253.011757"/>
     <use style="fill:#0000ff;stroke:#0000ff;" x="398.487273" xlink:href="#m7cd5667d28" y="261.265085"/>
    </g>
   </g>
   <g id="PathCollection_7">
    <g clip-path="url(#pbed07b8695)">
     <use style="fill:#0000ff;stroke:#0000ff;" x="73.832727" xlink:href="#m7cd5667d28" y="210.780939"/>
     <use style="fill:#0000ff;stroke:#0000ff;" x="120.211948" xlink:href="#m7cd5667d28" y="216.064612"/>
     <use style="fill:#0000ff;stroke:#0000ff;" x="166.591169" xlink:href="#m7cd5667d28" y="197.08967"/>
     <use style="fill:#0000ff;stroke:#0000ff;" x="212.97039" xlink:href="#m7cd5667d28" y="162.148007"/>
     <use style="fill:#0000ff;stroke:#0000ff;" x="259.34961" xlink:href="#m7cd5667d28" y="159.641155"/>
     <use style="fill:#0000ff;stroke:#0000ff;" x="305.728831" xlink:href="#m7cd5667d28" y="188.296403"/>
     <use style="fill:#0000ff;stroke:#0000ff;" x="352.108052" xlink:href="#m7cd5667d28" y="201.756271"/>
     <use style="fill:#0000ff;stroke:#0000ff;" x="398.487273" xlink:href="#m7cd5667d28" y="209.12256"/>
    </g>
   </g>
   <g id="PathCollection_8">
    <g clip-path="url(#pbed07b8695)">
     <use style="fill:#0000ff;stroke:#0000ff;" x="73.832727" xlink:href="#m7cd5667d28" y="207.078511"/>
     <use style="fill:#0000ff;stroke:#0000ff;" x="120.211948" xlink:href="#m7cd5667d28" y="211.822247"/>
     <use style="fill:#0000ff;stroke:#0000ff;" x="166.591169" xlink:href="#m7cd5667d28" y="191.728863"/>
     <use style="fill:#0000ff;stroke:#0000ff;" x="212.97039" xlink:href="#m7cd5667d28" y="158.869816"/>
     <use style="fill:#0000ff;stroke:#0000ff;" x="259.34961" xlink:href="#m7cd5667d28" y="147.53113"/>
     <use style="fill:#0000ff;stroke:#0000ff;" x="305.728831" xlink:href="#m7cd5667d28" y="177.420522"/>
     <use style="fill:#0000ff;stroke:#0000ff;" x="352.108052" xlink:href="#m7cd5667d28" y="193.001572"/>
     <use style="fill:#0000ff;stroke:#0000ff;" x="398.487273" xlink:href="#m7cd5667d28" y="201.833405"/>
    </g>
   </g>
   <g id="PathCollection_9">
    <g clip-path="url(#pbed07b8695)">
     <use style="fill:#0000ff;stroke:#0000ff;" x="73.832727" xlink:href="#m7cd5667d28" y="237.199304"/>
     <use style="fill:#0000ff;stroke:#0000ff;" x="120.211948" xlink:href="#m7cd5667d28" y="245.066963"/>
     <use style="fill:#0000ff;stroke:#0000ff;" x="166.591169" xlink:href="#m7cd5667d28" y="223.430901"/>
     <use style="fill:#0000ff;stroke:#0000ff;" x="212.97039" xlink:href="#m7cd5667d28" y="194.621384"/>
     <use style="fill:#0000ff;stroke:#0000ff;" x="259.34961" xlink:href="#m7cd5667d28" y="187.640765"/>
     <use style="fill:#0000ff;stroke:#0000ff;" x="305.728831" xlink:href="#m7cd5667d28" y="212.207917"/>
     <use style="fill:#0000ff;stroke:#0000ff;" x="352.108052" xlink:href="#m7cd5667d28" y="225.667784"/>
     <use style="fill:#0000ff;stroke:#0000ff;" x="398.487273" xlink:href="#m7cd5667d28" y="230.720056"/>
    </g>
   </g>
   <g id="PathCollection_10">
    <g clip-path="url(#pbed07b8695)">
     <use style="fill:#0000ff;stroke:#0000ff;" x="73.832727" xlink:href="#m7cd5667d28" y="219.38137"/>
     <use style="fill:#0000ff;stroke:#0000ff;" x="120.211948" xlink:href="#m7cd5667d28" y="225.629217"/>
     <use style="fill:#0000ff;stroke:#0000ff;" x="166.591169" xlink:href="#m7cd5667d28" y="208.042685"/>
     <use style="fill:#0000ff;stroke:#0000ff;" x="212.97039" xlink:href="#m7cd5667d28" y="183.436967"/>
     <use style="fill:#0000ff;stroke:#0000ff;" x="259.34961" xlink:href="#m7cd5667d28" y="173.795228"/>
     <use style="fill:#0000ff;stroke:#0000ff;" x="305.728831" xlink:href="#m7cd5667d28" y="195.161322"/>
     <use style="fill:#0000ff;stroke:#0000ff;" x="352.108052" xlink:href="#m7cd5667d28" y="206.422873"/>
     <use style="fill:#0000ff;stroke:#0000ff;" x="398.487273" xlink:href="#m7cd5667d28" y="214.714769"/>
    </g>
   </g>
   <g id="PathCollection_11">
    <g clip-path="url(#pbed07b8695)">
     <use style="fill:#0000ff;stroke:#0000ff;" x="73.832727" xlink:href="#m7cd5667d28" y="223.585169"/>
     <use style="fill:#0000ff;stroke:#0000ff;" x="120.211948" xlink:href="#m7cd5667d28" y="233.805412"/>
     <use style="fill:#0000ff;stroke:#0000ff;" x="166.591169" xlink:href="#m7cd5667d28" y="209.739631"/>
     <use style="fill:#0000ff;stroke:#0000ff;" x="212.97039" xlink:href="#m7cd5667d28" y="173.756661"/>
     <use style="fill:#0000ff;stroke:#0000ff;" x="259.34961" xlink:href="#m7cd5667d28" y="163.729252"/>
     <use style="fill:#0000ff;stroke:#0000ff;" x="305.728831" xlink:href="#m7cd5667d28" y="193.580077"/>
     <use style="fill:#0000ff;stroke:#0000ff;" x="352.108052" xlink:href="#m7cd5667d28" y="208.042685"/>
     <use style="fill:#0000ff;stroke:#0000ff;" x="398.487273" xlink:href="#m7cd5667d28" y="214.560501"/>
    </g>
   </g>
   <g id="PathCollection_12">
    <g clip-path="url(#pbed07b8695)">
     <use style="fill:#0000ff;stroke:#0000ff;" x="73.832727" xlink:href="#m7cd5667d28" y="233.149774"/>
     <use style="fill:#0000ff;stroke:#0000ff;" x="120.211948" xlink:href="#m7cd5667d28" y="239.28192"/>
     <use style="fill:#0000ff;stroke:#0000ff;" x="166.591169" xlink:href="#m7cd5667d28" y="212.28505"/>
     <use style="fill:#0000ff;stroke:#0000ff;" x="212.97039" xlink:href="#m7cd5667d28" y="178.808932"/>
     <use style="fill:#0000ff;stroke:#0000ff;" x="259.34961" xlink:href="#m7cd5667d28" y="172.985322"/>
     <use style="fill:#0000ff;stroke:#0000ff;" x="305.728831" xlink:href="#m7cd5667d28" y="204.957329"/>
     <use style="fill:#0000ff;stroke:#0000ff;" x="352.108052" xlink:href="#m7cd5667d28" y="222.312459"/>
     <use style="fill:#0000ff;stroke:#0000ff;" x="398.487273" xlink:href="#m7cd5667d28" y="230.180118"/>
    </g>
   </g>
   <g id="PathCollection_13">
    <g clip-path="url(#pbed07b8695)">
     <use style="fill:#0000ff;stroke:#0000ff;" x="73.832727" xlink:href="#m7cd5667d28" y="228.676007"/>
     <use style="fill:#0000ff;stroke:#0000ff;" x="120.211948" xlink:href="#m7cd5667d28" y="233.304042"/>
     <use style="fill:#0000ff;stroke:#0000ff;" x="166.591169" xlink:href="#m7cd5667d28" y="215.871777"/>
     <use style="fill:#0000ff;stroke:#0000ff;" x="212.97039" xlink:href="#m7cd5667d28" y="184.902511"/>
     <use style="fill:#0000ff;stroke:#0000ff;" x="259.34961" xlink:href="#m7cd5667d28" y="177.150553"/>
     <use style="fill:#0000ff;stroke:#0000ff;" x="305.728831" xlink:href="#m7cd5667d28" y="202.450477"/>
     <use style="fill:#0000ff;stroke:#0000ff;" x="352.108052" xlink:href="#m7cd5667d28" y="216.103179"/>
     <use style="fill:#0000ff;stroke:#0000ff;" x="398.487273" xlink:href="#m7cd5667d28" y="224.58791"/>
    </g>
   </g>
   <g id="PathCollection_14">
    <g clip-path="url(#pbed07b8695)">
     <use style="fill:#0000ff;stroke:#0000ff;" x="73.832727" xlink:href="#m7cd5667d28" y="210.472403"/>
     <use style="fill:#0000ff;stroke:#0000ff;" x="120.211948" xlink:href="#m7cd5667d28" y="219.882741"/>
     <use style="fill:#0000ff;stroke:#0000ff;" x="166.591169" xlink:href="#m7cd5667d28" y="196.549732"/>
     <use style="fill:#0000ff;stroke:#0000ff;" x="212.97039" xlink:href="#m7cd5667d28" y="160.181092"/>
     <use style="fill:#0000ff;stroke:#0000ff;" x="259.34961" xlink:href="#m7cd5667d28" y="146.991193"/>
     <use style="fill:#0000ff;stroke:#0000ff;" x="305.728831" xlink:href="#m7cd5667d28" y="178.037593"/>
     <use style="fill:#0000ff;stroke:#0000ff;" x="352.108052" xlink:href="#m7cd5667d28" y="195.084188"/>
     <use style="fill:#0000ff;stroke:#0000ff;" x="398.487273" xlink:href="#m7cd5667d28" y="202.219075"/>
    </g>
   </g>
   <g id="PathCollection_15">
    <g clip-path="url(#pbed07b8695)">
     <use style="fill:#0000ff;stroke:#0000ff;" x="73.832727" xlink:href="#m7cd5667d28" y="238.973384"/>
     <use style="fill:#0000ff;stroke:#0000ff;" x="120.211948" xlink:href="#m7cd5667d28" y="247.535249"/>
     <use style="fill:#0000ff;stroke:#0000ff;" x="166.591169" xlink:href="#m7cd5667d28" y="227.326163"/>
     <use style="fill:#0000ff;stroke:#0000ff;" x="212.97039" xlink:href="#m7cd5667d28" y="192.65447"/>
     <use style="fill:#0000ff;stroke:#0000ff;" x="259.34961" xlink:href="#m7cd5667d28" y="184.555409"/>
     <use style="fill:#0000ff;stroke:#0000ff;" x="305.728831" xlink:href="#m7cd5667d28" y="210.163868"/>
     <use style="fill:#0000ff;stroke:#0000ff;" x="352.108052" xlink:href="#m7cd5667d28" y="227.441864"/>
     <use style="fill:#0000ff;stroke:#0000ff;" x="398.487273" xlink:href="#m7cd5667d28" y="232.1856"/>
    </g>
   </g>
   <g id="PolyCollection_1">
    <path clip-path="url(#pbed07b8695)" d="M 73.832727 193.024604 
L 73.832727 232.906092 
L 77.112066 227.676628 
L 80.391405 223.349474 
L 83.670744 219.970811 
L 86.950083 217.560607 
L 90.229421 216.111021 
L 93.50876 215.5859 
L 96.788099 215.921427 
L 100.067438 217.027945 
L 103.346777 218.792919 
L 106.626116 221.084932 
L 109.905455 223.758563 
L 113.184793 226.659971 
L 116.464132 229.632926 
L 119.743471 232.525052 
L 123.02281 235.193993 
L 126.302149 237.513215 
L 129.581488 239.377166 
L 132.860826 240.705509 
L 136.140165 241.446197 
L 139.419504 241.577203 
L 142.698843 241.106789 
L 145.978182 240.072323 
L 149.257521 238.537704 
L 152.53686 236.58957 
L 155.816198 234.332504 
L 159.095537 231.883493 
L 162.374876 229.365918 
L 165.654215 226.903331 
L 168.933554 224.613335 
L 172.212893 222.60181 
L 175.492231 220.957771 
L 178.77157 219.749087 
L 182.050909 219.019272 
L 185.330248 218.785486 
L 188.609587 219.037869 
L 191.888926 219.740219 
L 195.168264 220.831995 
L 198.447603 222.231558 
L 201.726942 223.840474 
L 205.006281 225.548705 
L 208.28562 227.240409 
L 211.564959 228.800093 
L 214.844298 230.1188 
L 218.123636 231.100015 
L 221.402975 231.665003 
L 224.682314 231.757258 
L 227.961653 231.345845 
L 231.240992 230.427425 
L 234.520331 229.026859 
L 237.799669 227.196338 
L 241.079008 225.013097 
L 244.358347 222.575822 
L 247.637686 219.999934 
L 250.917025 217.411973 
L 254.196364 214.943362 
L 257.475702 212.72385 
L 260.755041 210.874928 
L 264.03438 209.50356 
L 267.313719 208.696525 
L 270.593058 208.515646 
L 273.872397 208.994167 
L 277.151736 210.134464 
L 280.431074 211.907216 
L 283.710413 214.25211 
L 286.989752 217.080044 
L 290.269091 220.27677 
L 293.54843 223.70778 
L 296.827769 227.224245 
L 300.107107 230.669714 
L 303.386446 233.887274 
L 306.665785 236.726859 
L 309.945124 239.05237 
L 313.224463 240.748306 
L 316.503802 241.725605 
L 319.78314 241.926401 
L 323.062479 241.327439 
L 326.341818 239.941929 
L 329.621157 237.819692 
L 332.900496 235.045563 
L 336.179835 231.736158 
L 339.459174 228.035184 
L 342.738512 224.1076 
L 346.017851 220.13292 
L 349.29719 216.298006 
L 352.576529 212.789681 
L 355.855868 209.787485 
L 359.135207 207.456881 
L 362.414545 205.943192 
L 365.693884 205.366516 
L 368.973223 205.817806 
L 372.252562 207.356253 
L 375.531901 210.008042 
L 378.81124 213.766473 
L 382.090579 218.593386 
L 385.369917 224.421762 
L 388.649256 231.159325 
L 391.928595 238.692923 
L 395.207934 246.893452 
L 398.487273 255.621076 
L 398.487273 218.129087 
L 398.487273 218.129087 
L 395.207934 207.334288 
L 391.928595 197.219873 
L 388.649256 187.966694 
L 385.369917 179.740917 
L 382.090579 172.687308 
L 378.81124 166.922897 
L 375.531901 162.531358 
L 372.252562 159.558414 
L 368.973223 158.008552 
L 365.693884 157.843284 
L 362.414545 158.981117 
L 359.135207 161.299333 
L 355.855868 164.637567 
L 352.576529 168.803105 
L 349.29719 173.577713 
L 346.017851 178.725733 
L 342.738512 184.003088 
L 339.459174 189.166803 
L 336.179835 193.984597 
L 332.900496 198.24407 
L 329.621157 201.76108 
L 326.341818 204.386906 
L 323.062479 206.013901 
L 319.78314 206.579415 
L 316.503802 206.067833 
L 313.224463 204.510636 
L 309.945124 201.984461 
L 306.665785 198.607176 
L 303.386446 194.53211 
L 300.107107 189.940662 
L 296.827769 185.033655 
L 293.54843 180.021835 
L 290.269091 175.116027 
L 286.989752 170.517418 
L 283.710413 166.40846 
L 280.431074 162.944809 
L 277.151736 160.2487 
L 273.872397 158.404027 
L 270.593058 157.453365 
L 267.313719 157.397024 
L 264.03438 158.194169 
L 260.755041 159.765897 
L 257.475702 162.00011 
L 254.196364 164.757894 
L 250.917025 167.881082 
L 247.637686 171.200596 
L 244.358347 174.545146 
L 241.079008 177.749835 
L 237.799669 180.664254 
L 234.520331 183.159667 
L 231.240992 185.134952 
L 227.961653 186.521031 
L 224.682314 187.283611 
L 221.402975 187.424151 
L 218.123636 186.979033 
L 214.844298 186.01701 
L 211.564959 184.635083 
L 208.28562 182.952994 
L 205.006281 181.106622 
L 201.726942 179.240591 
L 198.447603 177.500452 
L 195.168264 176.024838 
L 191.888926 174.937977 
L 188.609587 174.342951 
L 185.330248 174.316042 
L 182.050909 174.902453 
L 178.77157 176.113629 
L 175.492231 177.926319 
L 172.212893 180.283418 
L 168.933554 183.096576 
L 165.654215 186.250422 
L 162.374876 189.608213 
L 159.095537 193.018622 
L 155.816198 196.323321 
L 152.53686 199.364978 
L 149.257521 201.995246 
L 145.978182 204.082356 
L 142.698843 205.517919 
L 139.419504 206.22262 
L 136.140165 206.150553 
L 132.860826 205.292037 
L 129.581488 203.674807 
L 126.302149 201.363579 
L 123.02281 198.457999 
L 119.743471 195.089074 
L 116.464132 191.414224 
L 113.184793 187.611163 
L 109.905455 183.870868 
L 106.626116 180.389977 
L 103.346777 177.36296 
L 100.067438 174.97443 
L 96.788099 173.391976 
L 93.50876 172.759819 
L 90.229421 173.193576 
L 86.950083 174.77634 
L 83.670744 177.55621 
L 80.391405 181.545328 
L 77.112066 186.720397 
L 73.832727 193.024604 
z
" style="fill:#1f77b4;fill-opacity:0.5;"/>
   </g>
   <g id="matplotlib.axis_1">
    <g id="xtick_1">
     <g id="line2d_1">
      <defs>
       <path d="M 0 0 
L 0 3.5 
" id="mb8db6f03e6" style="stroke:#000000;stroke-width:0.8;"/>
      </defs>
      <g>
       <use style="stroke:#000000;stroke-width:0.8;" x="120.211948" xlink:href="#mb8db6f03e6" y="307.584"/>
      </g>
     </g>
     <g id="text_1">
      <!-- 5 -->
      <g transform="translate(117.030698 322.182437)scale(0.1 -0.1)">
       <defs>
        <path d="M 10.796875 72.90625 
L 49.515625 72.90625 
L 49.515625 64.59375 
L 19.828125 64.59375 
L 19.828125 46.734375 
Q 21.96875 47.46875 24.109375 47.828125 
Q 26.265625 48.1875 28.421875 48.1875 
Q 40.625 48.1875 47.75 41.5 
Q 54.890625 34.8125 54.890625 23.390625 
Q 54.890625 11.625 47.5625 5.09375 
Q 40.234375 -1.421875 26.90625 -1.421875 
Q 22.3125 -1.421875 17.546875 -0.640625 
Q 12.796875 0.140625 7.71875 1.703125 
L 7.71875 11.625 
Q 12.109375 9.234375 16.796875 8.0625 
Q 21.484375 6.890625 26.703125 6.890625 
Q 35.15625 6.890625 40.078125 11.328125 
Q 45.015625 15.765625 45.015625 23.390625 
Q 45.015625 31 40.078125 35.4375 
Q 35.15625 39.890625 26.703125 39.890625 
Q 22.75 39.890625 18.8125 39.015625 
Q 14.890625 38.140625 10.796875 36.28125 
z
" id="DejaVuSans-53"/>
       </defs>
       <use xlink:href="#DejaVuSans-53"/>
      </g>
     </g>
    </g>
    <g id="xtick_2">
     <g id="line2d_2">
      <g>
       <use style="stroke:#000000;stroke-width:0.8;" x="197.510649" xlink:href="#mb8db6f03e6" y="307.584"/>
      </g>
     </g>
     <g id="text_2">
      <!-- 10 -->
      <g transform="translate(191.148149 322.182437)scale(0.1 -0.1)">
       <defs>
        <path d="M 12.40625 8.296875 
L 28.515625 8.296875 
L 28.515625 63.921875 
L 10.984375 60.40625 
L 10.984375 69.390625 
L 28.421875 72.90625 
L 38.28125 72.90625 
L 38.28125 8.296875 
L 54.390625 8.296875 
L 54.390625 0 
L 12.40625 0 
z
" id="DejaVuSans-49"/>
        <path d="M 31.78125 66.40625 
Q 24.171875 66.40625 20.328125 58.90625 
Q 16.5 51.421875 16.5 36.375 
Q 16.5 21.390625 20.328125 13.890625 
Q 24.171875 6.390625 31.78125 6.390625 
Q 39.453125 6.390625 43.28125 13.890625 
Q 47.125 21.390625 47.125 36.375 
Q 47.125 51.421875 43.28125 58.90625 
Q 39.453125 66.40625 31.78125 66.40625 
z
M 31.78125 74.21875 
Q 44.046875 74.21875 50.515625 64.515625 
Q 56.984375 54.828125 56.984375 36.375 
Q 56.984375 17.96875 50.515625 8.265625 
Q 44.046875 -1.421875 31.78125 -1.421875 
Q 19.53125 -1.421875 13.0625 8.265625 
Q 6.59375 17.96875 6.59375 36.375 
Q 6.59375 54.828125 13.0625 64.515625 
Q 19.53125 74.21875 31.78125 74.21875 
z
" id="DejaVuSans-48"/>
       </defs>
       <use xlink:href="#DejaVuSans-49"/>
       <use x="63.623047" xlink:href="#DejaVuSans-48"/>
      </g>
     </g>
    </g>
    <g id="xtick_3">
     <g id="line2d_3">
      <g>
       <use style="stroke:#000000;stroke-width:0.8;" x="274.809351" xlink:href="#mb8db6f03e6" y="307.584"/>
      </g>
     </g>
     <g id="text_3">
      <!-- 15 -->
      <g transform="translate(268.446851 322.182437)scale(0.1 -0.1)">
       <use xlink:href="#DejaVuSans-49"/>
       <use x="63.623047" xlink:href="#DejaVuSans-53"/>
      </g>
     </g>
    </g>
    <g id="xtick_4">
     <g id="line2d_4">
      <g>
       <use style="stroke:#000000;stroke-width:0.8;" x="352.108052" xlink:href="#mb8db6f03e6" y="307.584"/>
      </g>
     </g>
     <g id="text_4">
      <!-- 20 -->
      <g transform="translate(345.745552 322.182437)scale(0.1 -0.1)">
       <defs>
        <path d="M 19.1875 8.296875 
L 53.609375 8.296875 
L 53.609375 0 
L 7.328125 0 
L 7.328125 8.296875 
Q 12.9375 14.109375 22.625 23.890625 
Q 32.328125 33.6875 34.8125 36.53125 
Q 39.546875 41.84375 41.421875 45.53125 
Q 43.3125 49.21875 43.3125 52.78125 
Q 43.3125 58.59375 39.234375 62.25 
Q 35.15625 65.921875 28.609375 65.921875 
Q 23.96875 65.921875 18.8125 64.3125 
Q 13.671875 62.703125 7.8125 59.421875 
L 7.8125 69.390625 
Q 13.765625 71.78125 18.9375 73 
Q 24.125 74.21875 28.421875 74.21875 
Q 39.75 74.21875 46.484375 68.546875 
Q 53.21875 62.890625 53.21875 53.421875 
Q 53.21875 48.921875 51.53125 44.890625 
Q 49.859375 40.875 45.40625 35.40625 
Q 44.1875 33.984375 37.640625 27.21875 
Q 31.109375 20.453125 19.1875 8.296875 
z
" id="DejaVuSans-50"/>
       </defs>
       <use xlink:href="#DejaVuSans-50"/>
       <use x="63.623047" xlink:href="#DejaVuSans-48"/>
      </g>
     </g>
    </g>
   </g>
   <g id="matplotlib.axis_2">
    <g id="ytick_1">
     <g id="line2d_5">
      <defs>
       <path d="M 0 0 
L -3.5 0 
" id="mffc144650e" style="stroke:#000000;stroke-width:0.8;"/>
      </defs>
      <g>
       <use style="stroke:#000000;stroke-width:0.8;" x="57.6" xlink:href="#mffc144650e" y="272.873739"/>
      </g>
     </g>
     <g id="text_5">
      <!-- 10 -->
      <g transform="translate(37.875 276.672958)scale(0.1 -0.1)">
       <use xlink:href="#DejaVuSans-49"/>
       <use x="63.623047" xlink:href="#DejaVuSans-48"/>
      </g>
     </g>
    </g>
    <g id="ytick_2">
     <g id="line2d_6">
      <g>
       <use style="stroke:#000000;stroke-width:0.8;" x="57.6" xlink:href="#mffc144650e" y="215.023304"/>
      </g>
     </g>
     <g id="text_6">
      <!-- 15 -->
      <g transform="translate(37.875 218.822523)scale(0.1 -0.1)">
       <use xlink:href="#DejaVuSans-49"/>
       <use x="63.623047" xlink:href="#DejaVuSans-53"/>
      </g>
     </g>
    </g>
    <g id="ytick_3">
     <g id="line2d_7">
      <g>
       <use style="stroke:#000000;stroke-width:0.8;" x="57.6" xlink:href="#mffc144650e" y="157.17287"/>
      </g>
     </g>
     <g id="text_7">
      <!-- 20 -->
      <g transform="translate(37.875 160.972088)scale(0.1 -0.1)">
       <use xlink:href="#DejaVuSans-50"/>
       <use x="63.623047" xlink:href="#DejaVuSans-48"/>
      </g>
     </g>
    </g>
    <g id="ytick_4">
     <g id="line2d_8">
      <g>
       <use style="stroke:#000000;stroke-width:0.8;" x="57.6" xlink:href="#mffc144650e" y="99.322435"/>
      </g>
     </g>
     <g id="text_8">
      <!-- 25 -->
      <g transform="translate(37.875 103.121654)scale(0.1 -0.1)">
       <use xlink:href="#DejaVuSans-50"/>
       <use x="63.623047" xlink:href="#DejaVuSans-53"/>
      </g>
     </g>
    </g>
    <g id="ytick_5">
     <g id="line2d_9">
      <g>
       <use style="stroke:#000000;stroke-width:0.8;" x="57.6" xlink:href="#mffc144650e" y="41.472"/>
      </g>
     </g>
     <g id="text_9">
      <!-- 30 -->
      <g transform="translate(37.875 45.271219)scale(0.1 -0.1)">
       <defs>
        <path d="M 40.578125 39.3125 
Q 47.65625 37.796875 51.625 33 
Q 55.609375 28.21875 55.609375 21.1875 
Q 55.609375 10.40625 48.1875 4.484375 
Q 40.765625 -1.421875 27.09375 -1.421875 
Q 22.515625 -1.421875 17.65625 -0.515625 
Q 12.796875 0.390625 7.625 2.203125 
L 7.625 11.71875 
Q 11.71875 9.328125 16.59375 8.109375 
Q 21.484375 6.890625 26.8125 6.890625 
Q 36.078125 6.890625 40.9375 10.546875 
Q 45.796875 14.203125 45.796875 21.1875 
Q 45.796875 27.640625 41.28125 31.265625 
Q 36.765625 34.90625 28.71875 34.90625 
L 20.21875 34.90625 
L 20.21875 43.015625 
L 29.109375 43.015625 
Q 36.375 43.015625 40.234375 45.921875 
Q 44.09375 48.828125 44.09375 54.296875 
Q 44.09375 59.90625 40.109375 62.90625 
Q 36.140625 65.921875 28.71875 65.921875 
Q 24.65625 65.921875 20.015625 65.03125 
Q 15.375 64.15625 9.8125 62.3125 
L 9.8125 71.09375 
Q 15.4375 72.65625 20.34375 73.4375 
Q 25.25 74.21875 29.59375 74.21875 
Q 40.828125 74.21875 47.359375 69.109375 
Q 53.90625 64.015625 53.90625 55.328125 
Q 53.90625 49.265625 50.4375 45.09375 
Q 46.96875 40.921875 40.578125 39.3125 
z
" id="DejaVuSans-51"/>
       </defs>
       <use xlink:href="#DejaVuSans-51"/>
       <use x="63.623047" xlink:href="#DejaVuSans-48"/>
      </g>
     </g>
    </g>
   </g>
   <g id="line2d_10">
    <path clip-path="url(#pbed07b8695)" d="M 73.832727 212.965348 
L 77.112066 207.198512 
L 80.391405 202.447401 
L 83.670744 198.763511 
L 86.950083 196.168473 
L 90.229421 194.652298 
L 93.50876 194.17286 
L 96.788099 194.656701 
L 100.067438 196.001187 
L 103.346777 198.07794 
L 106.626116 200.737455 
L 109.905455 203.814715 
L 113.184793 207.135567 
L 116.464132 210.523575 
L 119.743471 213.807063 
L 123.02281 216.825996 
L 126.302149 219.438397 
L 129.581488 221.525987 
L 132.860826 222.998773 
L 136.140165 223.798375 
L 139.419504 223.899911 
L 142.698843 223.312354 
L 145.978182 222.077339 
L 149.257521 220.266475 
L 152.53686 217.977274 
L 155.816198 215.327912 
L 159.095537 212.451057 
L 162.374876 209.487065 
L 165.654215 206.576877 
L 168.933554 203.854956 
L 172.212893 201.442614 
L 175.492231 199.442045 
L 178.77157 197.931358 
L 182.050909 196.960862 
L 185.330248 196.550764 
L 188.609587 196.69041 
L 191.888926 197.339098 
L 195.168264 198.428417 
L 198.447603 199.866005 
L 201.726942 201.540533 
L 205.006281 203.327663 
L 208.28562 205.096701 
L 211.564959 206.717588 
L 214.844298 208.067905 
L 218.123636 209.039524 
L 221.402975 209.544577 
L 224.682314 209.520435 
L 227.961653 208.933438 
L 231.240992 207.781189 
L 234.520331 206.093263 
L 237.799669 203.930296 
L 241.079008 201.381466 
L 244.358347 198.560484 
L 247.637686 195.600265 
L 250.917025 192.646527 
L 254.196364 189.850628 
L 257.475702 187.36198 
L 260.755041 185.320412 
L 264.03438 183.848864 
L 267.313719 183.046775 
L 270.593058 182.984505 
L 273.872397 183.699097 
L 277.151736 185.191582 
L 280.431074 187.426013 
L 283.710413 190.330285 
L 286.989752 193.798731 
L 290.269091 197.696398 
L 293.54843 201.864807 
L 296.827769 206.12895 
L 300.107107 210.305188 
L 303.386446 214.209692 
L 306.665785 217.667018 
L 309.945124 220.518416 
L 313.224463 222.629471 
L 316.503802 223.896719 
L 319.78314 224.252908 
L 323.062479 223.67067 
L 326.341818 222.164417 
L 329.621157 219.790386 
L 332.900496 216.644817 
L 336.179835 212.860377 
L 339.459174 208.600994 
L 342.738512 204.055344 
L 346.017851 199.429327 
L 349.29719 194.93786 
L 352.576529 190.796393 
L 355.855868 187.212526 
L 359.135207 184.378107 
L 362.414545 182.462155 
L 365.693884 181.6049 
L 368.973223 181.913179 
L 372.252562 183.457333 
L 375.531901 186.2697 
L 378.81124 190.344685 
L 382.090579 195.640347 
L 385.369917 202.08134 
L 388.649256 209.563009 
L 391.928595 217.956398 
L 395.207934 227.11387 
L 398.487273 236.875082 
" style="fill:none;stroke:#1f77b4;stroke-linecap:square;stroke-width:1.5;"/>
   </g>
   <g id="line2d_11">
    <path clip-path="url(#pbed07b8695)" d="M 73.832727 245.357997 
L 77.112066 241.214113 
L 80.391405 237.967761 
L 83.670744 235.65179 
L 86.950083 234.271172 
L 90.229421 233.801558 
L 93.50876 234.189003 
L 96.788099 235.350924 
L 100.067438 237.178325 
L 103.346777 239.539232 
L 106.626116 242.283241 
L 109.905455 245.247005 
L 113.184793 248.260437 
L 116.464132 251.153376 
L 119.743471 253.762395 
L 123.02281 255.937465 
L 126.302149 257.548136 
L 129.581488 258.488959 
L 132.860826 258.683852 
L 136.140165 258.089222 
L 139.419504 256.695646 
L 142.698843 254.528039 
L 145.978182 251.64426 
L 149.257521 248.132233 
L 152.53686 244.105683 
L 155.816198 239.698698 
L 159.095537 235.05936 
L 162.374876 230.342748 
L 165.654215 225.703644 
L 168.933554 221.289304 
L 172.212893 217.232621 
L 175.492231 213.646035 
L 178.77157 210.61647 
L 182.050909 208.201555 
L 185.330248 206.427304 
L 188.609587 205.287377 
L 191.888926 204.743957 
L 195.168264 204.730189 
L 198.447603 205.154071 
L 201.726942 205.903603 
L 205.006281 206.852934 
L 208.28562 207.869205 
L 211.564959 208.819759 
L 214.844298 209.579338 
L 218.123636 210.036932 
L 221.402975 210.101924 
L 224.682314 209.709225 
L 227.961653 208.823134 
L 231.240992 207.439722 
L 234.520331 205.587613 
L 237.799669 203.327101 
L 241.079008 200.747631 
L 244.358347 197.963757 
L 247.637686 195.10975 
L 250.917025 192.333114 
L 254.196364 189.78731 
L 257.475702 187.624053 
L 260.755041 185.985531 
L 264.03438 184.996961 
L 267.313719 184.759827 
L 270.593058 185.346166 
L 273.872397 186.794181 
L 277.151736 189.105422 
L 280.431074 192.243699 
L 283.710413 196.135789 
L 286.989752 200.673936 
L 290.269091 205.720038 
L 293.54843 211.111336 
L 296.827769 216.667341 
L 300.107107 222.197686 
L 303.386446 227.510516 
L 306.665785 232.421047 
L 309.945124 236.759858 
L 313.224463 240.380544 
L 316.503802 243.166375 
L 319.78314 245.035624 
L 323.062479 245.94535 
L 326.341818 245.893448 
L 329.621157 244.918896 
L 332.900496 243.10019 
L 336.179835 240.552072 
L 339.459174 237.420716 
L 342.738512 233.877621 
L 346.017851 230.112499 
L 349.29719 226.325527 
L 352.576529 222.719299 
L 355.855868 219.490869 
L 359.135207 216.824241 
L 362.414545 214.883611 
L 365.693884 213.80766 
L 368.973223 213.705102 
L 372.252562 214.651632 
L 375.531901 216.688344 
L 378.81124 219.821632 
L 382.090579 224.024478 
L 385.369917 229.239004 
L 388.649256 235.3801 
L 391.928595 242.339877 
L 395.207934 249.992725 
L 398.487273 258.200675 
" style="fill:none;stroke:#ff7f0e;stroke-linecap:square;stroke-width:1.5;"/>
   </g>
   <g id="line2d_12">
    <path clip-path="url(#pbed07b8695)" d="M 73.832727 200.222728 
L 77.112066 194.894998 
L 80.391405 190.769423 
L 83.670744 187.889799 
L 86.950083 186.262883 
L 90.229421 185.856476 
L 93.50876 186.599038 
L 96.788099 188.380957 
L 100.067438 191.057478 
L 103.346777 194.453255 
L 106.626116 198.368361 
L 109.905455 202.585557 
L 113.184793 206.878508 
L 116.464132 211.020603 
L 119.743471 214.793984 
L 123.02281 217.998364 
L 126.302149 220.459232 
L 129.581488 222.035022 
L 132.860826 222.622928 
L 136.140165 222.163035 
L 139.419504 220.640574 
L 142.698843 218.08616 
L 145.978182 214.573984 
L 149.257521 210.218026 
L 152.53686 205.166457 
L 155.816198 199.594474 
L 159.095537 193.695923 
L 162.374876 187.674082 
L 165.654215 181.732061 
L 168.933554 176.063275 
L 172.212893 170.842451 
L 175.492231 166.217601 
L 178.77157 162.303362 
L 182.050909 159.176015 
L 185.330248 156.870434 
L 188.609587 155.379117 
L 191.888926 154.653331 
L 195.168264 154.60633 
L 198.447603 155.118475 
L 201.726942 156.044011 
L 205.006281 157.219154 
L 208.28562 158.4711 
L 211.564959 159.627504 
L 214.844298 160.525951 
L 218.123636 161.022955 
L 221.402975 161.002034 
L 224.682314 160.380437 
L 227.961653 159.114195 
L 231.240992 157.201219 
L 234.520331 154.682264 
L 237.799669 151.639708 
L 241.079008 148.194151 
L 244.358347 144.499009 
L 247.637686 140.73331 
L 250.917025 137.093056 
L 254.196364 133.781534 
L 257.475702 130.999058 
L 260.755041 128.932633 
L 264.03438 127.746055 
L 267.313719 127.570944 
L 270.593058 128.499166 
L 273.872397 130.577047 
L 277.151736 133.80168 
L 280.431074 138.119551 
L 283.710413 143.427571 
L 286.989752 149.57652 
L 290.269091 156.376734 
L 293.54843 163.605823 
L 296.827769 171.018043 
L 300.107107 178.354903 
L 303.386446 185.356508 
L 306.665785 191.773095 
L 309.945124 197.376238 
L 313.224463 201.969163 
L 316.503802 205.395715 
L 319.78314 207.547538 
L 323.062479 208.36915 
L 326.341818 207.860671 
L 329.621157 206.078113 
L 332.900496 203.131209 
L 336.179835 199.178935 
L 339.459174 194.422934 
L 342.738512 189.099188 
L 346.017851 183.468343 
L 349.29719 177.805146 
L 352.576529 172.387506 
L 355.855868 167.485667 
L 359.135207 163.351982 
L 362.414545 160.211739 
L 365.693884 158.255392 
L 368.973223 157.632508 
L 372.252562 158.447624 
L 375.531901 160.758099 
L 378.81124 164.573974 
L 382.090579 169.859734 
L 385.369917 176.537773 
L 388.649256 184.49332 
L 391.928595 193.580504 
L 395.207934 203.629218 
L 398.487273 214.45241 
" style="fill:none;stroke:#2ca02c;stroke-linecap:square;stroke-width:1.5;"/>
   </g>
   <g id="line2d_13">
    <path clip-path="url(#pbed07b8695)" d="M 73.832727 189.260117 
L 77.112066 183.654745 
L 80.391405 179.324242 
L 83.670744 176.313936 
L 86.950083 174.629692 
L 90.229421 174.235878 
L 93.50876 175.054991 
L 96.788099 176.96902 
L 100.067438 179.822607 
L 103.346777 183.42791 
L 106.626116 187.571054 
L 109.905455 192.019897 
L 113.184793 196.532818 
L 116.464132 200.868154 
L 119.743471 204.79384 
L 123.02281 208.096844 
L 126.302149 210.591913 
L 129.581488 212.129241 
L 132.860826 212.600653 
L 136.140165 211.944003 
L 139.419504 210.145547 
L 142.698843 207.240157 
L 145.978182 203.309339 
L 149.257521 198.47712 
L 152.53686 192.903998 
L 155.816198 186.779214 
L 159.095537 180.311708 
L 162.374876 173.72019 
L 165.654215 167.222802 
L 168.933554 161.026858 
L 172.212893 155.319167 
L 175.492231 150.257413 
L 178.77157 145.962997 
L 182.050909 142.515716 
L 185.330248 139.950526 
L 188.609587 138.256548 
L 191.888926 137.378382 
L 195.168264 137.21965 
L 198.447603 137.648612 
L 201.726942 138.505564 
L 205.006281 139.611667 
L 208.28562 140.778767 
L 211.564959 141.819714 
L 214.844298 142.558682 
L 218.123636 142.840963 
L 221.402975 142.541736 
L 224.682314 141.573392 
L 227.961653 139.890998 
L 231.240992 137.495638 
L 234.520331 134.435428 
L 237.799669 130.804122 
L 241.079008 126.737359 
L 244.358347 122.406689 
L 247.637686 118.011656 
L 250.917025 113.770291 
L 254.196364 109.908472 
L 257.475702 106.648649 
L 260.755041 104.198486 
L 264.03438 102.739992 
L 267.313719 102.41966 
L 270.593058 103.340143 
L 273.872397 105.553886 
L 277.151736 109.05906 
L 280.431074 113.798033 
L 283.710413 119.658485 
L 286.989752 126.477161 
L 290.269091 134.046094 
L 293.54843 142.121038 
L 296.827769 150.431731 
L 300.107107 158.693504 
L 303.386446 166.619694 
L 306.665785 173.934288 
L 309.945124 180.384181 
L 313.224463 185.750492 
L 316.503802 189.85839 
L 319.78314 192.584985 
L 323.062479 193.864913 
L 326.341818 193.693375 
L 329.621157 192.126502 
L 332.900496 189.279063 
L 336.179835 185.31964 
L 339.459174 180.46353 
L 342.738512 174.96374 
L 346.017851 169.100508 
L 349.29719 163.169865 
L 352.576529 157.471779 
L 355.855868 152.298419 
L 359.135207 147.923068 
L 362.414545 144.590167 
L 365.693884 142.50688 
L 368.973223 141.836511 
L 372.252562 142.693986 
L 375.531901 145.143488 
L 378.81124 149.198262 
L 382.090579 154.822472 
L 385.369917 161.934899 
L 388.649256 170.414218 
L 391.928595 180.105504 
L 395.207934 190.827597 
L 398.487273 202.38094 
" style="fill:none;stroke:#d62728;stroke-linecap:square;stroke-width:1.5;"/>
   </g>
   <g id="line2d_14">
    <path clip-path="url(#pbed07b8695)" d="M 73.832727 206.483038 
L 77.112066 201.422954 
L 80.391405 197.53969 
L 83.670744 194.875433 
L 86.950083 193.436197 
L 90.229421 193.18995 
L 93.50876 194.066251 
L 96.788099 195.95748 
L 100.067438 198.721708 
L 103.346777 202.187138 
L 106.626116 206.157976 
L 109.905455 210.421527 
L 113.184793 214.75622 
L 116.464132 218.940216 
L 119.743471 222.760233 
L 123.02281 226.020152 
L 126.302149 228.549034 
L 129.581488 230.208128 
L 132.860826 230.896548 
L 136.140165 230.555324 
L 139.419504 229.169605 
L 142.698843 226.76891 
L 145.978182 223.425373 
L 149.257521 219.250064 
L 152.53686 214.387536 
L 155.816198 209.008855 
L 159.095537 203.303433 
L 162.374876 197.470052 
L 165.654215 191.707508 
L 168.933554 186.205322 
L 172.212893 181.134968 
L 175.492231 176.642043 
L 178.77157 172.839757 
L 182.050909 169.804053 
L 185.330248 167.570611 
L 188.609587 166.133857 
L 191.888926 165.448034 
L 195.168264 165.430285 
L 198.447603 165.965578 
L 201.726942 166.91324 
L 205.006281 168.114765 
L 208.28562 169.402521 
L 211.564959 170.60891 
L 214.844298 171.575533 
L 218.123636 172.161903 
L 221.402975 172.253264 
L 224.682314 171.767126 
L 227.961653 170.658187 
L 231.240992 168.921364 
L 234.520331 166.592795 
L 237.799669 163.74872 
L 241.079008 160.502281 
L 244.358347 156.998385 
L 247.637686 153.406852 
L 250.917025 149.914171 
L 254.196364 146.714255 
L 257.475702 143.998639 
L 260.755041 141.946604 
L 264.03438 140.715708 
L 267.313719 140.433205 
L 270.593058 141.188786 
L 273.872397 143.029018 
L 277.151736 145.953788 
L 280.431074 149.914939 
L 283.710413 154.817206 
L 286.989752 160.521441 
L 290.269091 166.849972 
L 293.54843 173.593898 
L 296.827769 180.521949 
L 300.107107 187.39053 
L 303.386446 193.954462 
L 306.665785 199.977909 
L 309.945124 205.244995 
L 313.224463 209.569581 
L 316.503802 212.803768 
L 319.78314 214.844709 
L 323.062479 215.639425 
L 326.341818 215.187414 
L 329.621157 213.540932 
L 332.900496 210.802969 
L 336.179835 207.123022 
L 339.459174 202.690898 
L 342.738512 197.728852 
L 346.017851 192.482449 
L 349.29719 187.210589 
L 352.576529 182.175175 
L 355.855868 177.630881 
L 359.135207 173.815493 
L 362.414545 170.941242 
L 365.693884 169.187458 
L 368.973223 168.694857 
L 372.252562 169.561619 
L 375.531901 171.841367 
L 378.81124 175.543031 
L 382.090579 180.632513 
L 385.369917 187.035967 
L 388.649256 194.644459 
L 391.928595 203.319698 
L 395.207934 212.900526 
L 398.487273 223.209814 
" style="fill:none;stroke:#9467bd;stroke-linecap:square;stroke-width:1.5;"/>
   </g>
   <g id="line2d_15">
    <path clip-path="url(#pbed07b8695)" d="M 73.832727 215.084607 
L 77.112066 210.212347 
L 80.391405 206.454019 
L 83.670744 203.850282 
L 86.950083 202.4076 
L 90.229421 202.096464 
L 93.50876 202.851035 
L 96.788099 204.570305 
L 100.067438 207.120803 
L 103.346777 210.340782 
L 106.626116 214.045767 
L 109.905455 218.035256 
L 113.184793 222.100297 
L 116.464132 226.031623 
L 119.743471 229.62798 
L 123.02281 232.704266 
L 126.302149 235.099094 
L 129.581488 236.681416 
L 132.860826 237.355885 
L 136.140165 237.06668 
L 139.419504 235.799587 
L 142.698843 233.582235 
L 145.978182 230.482441 
L 149.257521 226.604735 
L 152.53686 222.085208 
L 155.816198 217.084935 
L 159.095537 211.782255 
L 162.374876 206.364301 
L 165.654215 201.01816 
L 168.933554 195.922102 
L 172.212893 191.237297 
L 175.492231 187.100418 
L 178.77157 183.6175 
L 182.050909 180.85933 
L 185.330248 178.858622 
L 188.609587 177.609085 
L 191.888926 177.066451 
L 195.168264 177.151381 
L 198.447603 177.754139 
L 201.726942 178.740774 
L 205.006281 179.960505 
L 208.28562 181.253963 
L 211.564959 182.461858 
L 214.844298 183.433651 
L 218.123636 184.035795 
L 221.402975 184.159139 
L 224.682314 183.725112 
L 227.961653 182.69037 
L 231.240992 181.049681 
L 234.520331 178.836862 
L 237.799669 176.123724 
L 241.079008 173.017052 
L 244.358347 169.653738 
L 247.637686 166.194306 
L 250.917025 162.815117 
L 254.196364 159.699617 
L 257.475702 157.029081 
L 260.755041 154.973263 
L 264.03438 153.681449 
L 267.313719 153.274342 
L 270.593058 153.8372 
L 273.872397 155.414588 
L 277.151736 158.007005 
L 280.431074 161.569614 
L 283.710413 166.013121 
L 286.989752 171.206832 
L 290.269091 176.983728 
L 293.54843 183.14736 
L 296.827769 189.480238 
L 300.107107 195.753325 
L 303.386446 201.736198 
L 306.665785 207.207381 
L 309.945124 211.964381 
L 313.224463 215.832934 
L 316.503802 218.675034 
L 319.78314 220.395365 
L 323.062479 220.945846 
L 326.341818 220.328076 
L 329.621157 218.593575 
L 332.900496 215.841843 
L 336.179835 212.216329 
L 339.459174 207.898527 
L 342.738512 203.100499 
L 346.017851 198.056185 
L 349.29719 193.011924 
L 352.576529 188.216622 
L 355.855868 183.912042 
L 359.135207 180.32362 
L 362.414545 177.652229 
L 365.693884 176.067214 
L 368.973223 175.700969 
L 372.252562 176.645228 
L 375.531901 178.949165 
L 378.81124 182.619293 
L 382.090579 187.621075 
L 385.369917 193.882085 
L 388.649256 201.29647 
L 391.928595 209.730449 
L 395.207934 219.028519 
L 398.487273 229.020063 
" style="fill:none;stroke:#8c564b;stroke-linecap:square;stroke-width:1.5;"/>
   </g>
   <g id="patch_3">
    <path d="M 57.6 307.584 
L 57.6 41.472 
" style="fill:none;stroke:#000000;stroke-linecap:square;stroke-linejoin:miter;stroke-width:0.8;"/>
   </g>
   <g id="patch_4">
    <path d="M 414.72 307.584 
L 414.72 41.472 
" style="fill:none;stroke:#000000;stroke-linecap:square;stroke-linejoin:miter;stroke-width:0.8;"/>
   </g>
   <g id="patch_5">
    <path d="M 57.6 307.584 
L 414.72 307.584 
" style="fill:none;stroke:#000000;stroke-linecap:square;stroke-linejoin:miter;stroke-width:0.8;"/>
   </g>
   <g id="patch_6">
    <path d="M 57.6 41.472 
L 414.72 41.472 
" style="fill:none;stroke:#000000;stroke-linecap:square;stroke-linejoin:miter;stroke-width:0.8;"/>
   </g>
  </g>
 </g>
 <defs>
  <clipPath id="pbed07b8695">
   <rect height="266.112" width="357.12" x="57.6" y="41.472"/>
  </clipPath>
 </defs>
</svg>
