<?xml version="1.0" encoding="utf-8" standalone="no"?>
<!DOCTYPE svg PUBLIC "-//W3C//DTD SVG 1.1//EN"
  "http://www.w3.org/Graphics/SVG/1.1/DTD/svg11.dtd">
<!-- Created with matplotlib (https://matplotlib.org/) -->
<svg height="345.6pt" version="1.1" viewBox="0 0 460.8 345.6" width="460.8pt" xmlns="http://www.w3.org/2000/svg" xmlns:xlink="http://www.w3.org/1999/xlink">
 <metadata>
  <rdf:RDF xmlns:cc="http://creativecommons.org/ns#" xmlns:dc="http://purl.org/dc/elements/1.1/" xmlns:rdf="http://www.w3.org/1999/02/22-rdf-syntax-ns#">
   <cc:Work>
    <dc:type rdf:resource="http://purl.org/dc/dcmitype/StillImage"/>
    <dc:date>2021-11-24T17:23:00.892282</dc:date>
    <dc:format>image/svg+xml</dc:format>
    <dc:creator>
     <cc:Agent>
      <dc:title>Matplotlib v3.3.4, https://matplotlib.org/</dc:title>
     </cc:Agent>
    </dc:creator>
   </cc:Work>
  </rdf:RDF>
 </metadata>
 <defs>
  <style type="text/css">*{stroke-linecap:butt;stroke-linejoin:round;}</style>
 </defs>
 <g id="figure_1">
  <g id="patch_1">
   <path d="M 0 345.6 
L 460.8 345.6 
L 460.8 0 
L 0 0 
z
" style="fill:#ffffff;"/>
  </g>
  <g id="axes_1">
   <g id="patch_2">
    <path d="M 57.6 307.584 
L 414.72 307.584 
L 414.72 41.472 
L 57.6 41.472 
z
" style="fill:#ffffff;"/>
   </g>
   <g id="PathCollection_1">
    <defs>
     <path d="M 0 0.5 
C 0.132602 0.5 0.25979 0.447317 0.353553 0.353553 
C 0.447317 0.25979 0.5 0.132602 0.5 0 
C 0.5 -0.132602 0.447317 -0.25979 0.353553 -0.353553 
C 0.25979 -0.447317 0.132602 -0.5 0 -0.5 
C -0.132602 -0.5 -0.25979 -0.447317 -0.353553 -0.353553 
C -0.447317 -0.25979 -0.5 -0.132602 -0.5 0 
C -0.5 0.132602 -0.447317 0.25979 -0.353553 0.353553 
C -0.25979 0.447317 -0.132602 0.5 0 0.5 
z
" id="m41990c2f64" style="stroke:#0000ff;"/>
    </defs>
    <g clip-path="url(#pefa091ed2b)">
     <use style="fill:#0000ff;stroke:#0000ff;" x="73.832727" xlink:href="#m41990c2f64" y="238.973384"/>
     <use style="fill:#0000ff;stroke:#0000ff;" x="120.211948" xlink:href="#m41990c2f64" y="247.535249"/>
     <use style="fill:#0000ff;stroke:#0000ff;" x="166.591169" xlink:href="#m41990c2f64" y="227.326163"/>
     <use style="fill:#0000ff;stroke:#0000ff;" x="212.97039" xlink:href="#m41990c2f64" y="192.65447"/>
     <use style="fill:#0000ff;stroke:#0000ff;" x="259.34961" xlink:href="#m41990c2f64" y="184.555409"/>
     <use style="fill:#0000ff;stroke:#0000ff;" x="305.728831" xlink:href="#m41990c2f64" y="210.163868"/>
     <use style="fill:#0000ff;stroke:#0000ff;" x="352.108052" xlink:href="#m41990c2f64" y="227.441864"/>
     <use style="fill:#0000ff;stroke:#0000ff;" x="398.487273" xlink:href="#m41990c2f64" y="232.1856"/>
    </g>
   </g>
   <g id="PathCollection_2">
    <g clip-path="url(#pefa091ed2b)">
     <use style="fill:#0000ff;stroke:#0000ff;" x="73.832727" xlink:href="#m41990c2f64" y="227.094762"/>
     <use style="fill:#0000ff;stroke:#0000ff;" x="120.211948" xlink:href="#m41990c2f64" y="233.034073"/>
     <use style="fill:#0000ff;stroke:#0000ff;" x="166.591169" xlink:href="#m41990c2f64" y="209.199694"/>
     <use style="fill:#0000ff;stroke:#0000ff;" x="212.97039" xlink:href="#m41990c2f64" y="174.219464"/>
     <use style="fill:#0000ff;stroke:#0000ff;" x="259.34961" xlink:href="#m41990c2f64" y="166.197537"/>
     <use style="fill:#0000ff;stroke:#0000ff;" x="305.728831" xlink:href="#m41990c2f64" y="199.326553"/>
     <use style="fill:#0000ff;stroke:#0000ff;" x="352.108052" xlink:href="#m41990c2f64" y="218.687165"/>
     <use style="fill:#0000ff;stroke:#0000ff;" x="398.487273" xlink:href="#m41990c2f64" y="223.508035"/>
    </g>
   </g>
   <g id="PathCollection_3">
    <g clip-path="url(#pefa091ed2b)">
     <use style="fill:#0000ff;stroke:#0000ff;" x="73.832727" xlink:href="#m41990c2f64" y="219.612772"/>
     <use style="fill:#0000ff;stroke:#0000ff;" x="120.211948" xlink:href="#m41990c2f64" y="226.169155"/>
     <use style="fill:#0000ff;stroke:#0000ff;" x="166.591169" xlink:href="#m41990c2f64" y="202.450477"/>
     <use style="fill:#0000ff;stroke:#0000ff;" x="212.97039" xlink:href="#m41990c2f64" y="168.395854"/>
     <use style="fill:#0000ff;stroke:#0000ff;" x="259.34961" xlink:href="#m41990c2f64" y="158.908383"/>
     <use style="fill:#0000ff;stroke:#0000ff;" x="305.728831" xlink:href="#m41990c2f64" y="189.569113"/>
     <use style="fill:#0000ff;stroke:#0000ff;" x="352.108052" xlink:href="#m41990c2f64" y="206.96281"/>
     <use style="fill:#0000ff;stroke:#0000ff;" x="398.487273" xlink:href="#m41990c2f64" y="214.869037"/>
    </g>
   </g>
   <g id="PathCollection_4">
    <g clip-path="url(#pefa091ed2b)">
     <use style="fill:#0000ff;stroke:#0000ff;" x="73.832727" xlink:href="#m41990c2f64" y="235.926595"/>
     <use style="fill:#0000ff;stroke:#0000ff;" x="120.211948" xlink:href="#m41990c2f64" y="244.21849"/>
     <use style="fill:#0000ff;stroke:#0000ff;" x="166.591169" xlink:href="#m41990c2f64" y="220.114143"/>
     <use style="fill:#0000ff;stroke:#0000ff;" x="212.97039" xlink:href="#m41990c2f64" y="186.676591"/>
     <use style="fill:#0000ff;stroke:#0000ff;" x="259.34961" xlink:href="#m41990c2f64" y="180.004508"/>
     <use style="fill:#0000ff;stroke:#0000ff;" x="305.728831" xlink:href="#m41990c2f64" y="208.004118"/>
     <use style="fill:#0000ff;stroke:#0000ff;" x="352.108052" xlink:href="#m41990c2f64" y="224.047972"/>
     <use style="fill:#0000ff;stroke:#0000ff;" x="398.487273" xlink:href="#m41990c2f64" y="230.758623"/>
    </g>
   </g>
   <g id="PathCollection_5">
    <g clip-path="url(#pefa091ed2b)">
     <use style="fill:#0000ff;stroke:#0000ff;" x="73.832727" xlink:href="#m41990c2f64" y="180.698713"/>
     <use style="fill:#0000ff;stroke:#0000ff;" x="120.211948" xlink:href="#m41990c2f64" y="189.800515"/>
     <use style="fill:#0000ff;stroke:#0000ff;" x="166.591169" xlink:href="#m41990c2f64" y="161.299534"/>
     <use style="fill:#0000ff;stroke:#0000ff;" x="212.97039" xlink:href="#m41990c2f64" y="118.64448"/>
     <use style="fill:#0000ff;stroke:#0000ff;" x="259.34961" xlink:href="#m41990c2f64" y="105.416014"/>
     <use style="fill:#0000ff;stroke:#0000ff;" x="305.728831" xlink:href="#m41990c2f64" y="147.993934"/>
     <use style="fill:#0000ff;stroke:#0000ff;" x="352.108052" xlink:href="#m41990c2f64" y="166.390372"/>
     <use style="fill:#0000ff;stroke:#0000ff;" x="398.487273" xlink:href="#m41990c2f64" y="172.75392"/>
    </g>
   </g>
   <g id="PathCollection_6">
    <g clip-path="url(#pefa091ed2b)">
     <use style="fill:#0000ff;stroke:#0000ff;" x="73.832727" xlink:href="#m41990c2f64" y="265.546017"/>
     <use style="fill:#0000ff;stroke:#0000ff;" x="120.211948" xlink:href="#m41990c2f64" y="269.171311"/>
     <use style="fill:#0000ff;stroke:#0000ff;" x="166.591169" xlink:href="#m41990c2f64" y="246.416807"/>
     <use style="fill:#0000ff;stroke:#0000ff;" x="212.97039" xlink:href="#m41990c2f64" y="219.38137"/>
     <use style="fill:#0000ff;stroke:#0000ff;" x="259.34961" xlink:href="#m41990c2f64" y="212.979256"/>
     <use style="fill:#0000ff;stroke:#0000ff;" x="305.728831" xlink:href="#m41990c2f64" y="236.042296"/>
     <use style="fill:#0000ff;stroke:#0000ff;" x="352.108052" xlink:href="#m41990c2f64" y="253.011757"/>
     <use style="fill:#0000ff;stroke:#0000ff;" x="398.487273" xlink:href="#m41990c2f64" y="261.265085"/>
    </g>
   </g>
   <g id="PathCollection_7">
    <g clip-path="url(#pefa091ed2b)">
     <use style="fill:#0000ff;stroke:#0000ff;" x="73.832727" xlink:href="#m41990c2f64" y="210.780939"/>
     <use style="fill:#0000ff;stroke:#0000ff;" x="120.211948" xlink:href="#m41990c2f64" y="216.064612"/>
     <use style="fill:#0000ff;stroke:#0000ff;" x="166.591169" xlink:href="#m41990c2f64" y="197.08967"/>
     <use style="fill:#0000ff;stroke:#0000ff;" x="212.97039" xlink:href="#m41990c2f64" y="162.148007"/>
     <use style="fill:#0000ff;stroke:#0000ff;" x="259.34961" xlink:href="#m41990c2f64" y="159.641155"/>
     <use style="fill:#0000ff;stroke:#0000ff;" x="305.728831" xlink:href="#m41990c2f64" y="188.296403"/>
     <use style="fill:#0000ff;stroke:#0000ff;" x="352.108052" xlink:href="#m41990c2f64" y="201.756271"/>
     <use style="fill:#0000ff;stroke:#0000ff;" x="398.487273" xlink:href="#m41990c2f64" y="209.12256"/>
    </g>
   </g>
   <g id="PathCollection_8">
    <g clip-path="url(#pefa091ed2b)">
     <use style="fill:#0000ff;stroke:#0000ff;" x="73.832727" xlink:href="#m41990c2f64" y="207.078511"/>
     <use style="fill:#0000ff;stroke:#0000ff;" x="120.211948" xlink:href="#m41990c2f64" y="211.822247"/>
     <use style="fill:#0000ff;stroke:#0000ff;" x="166.591169" xlink:href="#m41990c2f64" y="191.728863"/>
     <use style="fill:#0000ff;stroke:#0000ff;" x="212.97039" xlink:href="#m41990c2f64" y="158.869816"/>
     <use style="fill:#0000ff;stroke:#0000ff;" x="259.34961" xlink:href="#m41990c2f64" y="147.53113"/>
     <use style="fill:#0000ff;stroke:#0000ff;" x="305.728831" xlink:href="#m41990c2f64" y="177.420522"/>
     <use style="fill:#0000ff;stroke:#0000ff;" x="352.108052" xlink:href="#m41990c2f64" y="193.001572"/>
     <use style="fill:#0000ff;stroke:#0000ff;" x="398.487273" xlink:href="#m41990c2f64" y="201.833405"/>
    </g>
   </g>
   <g id="PathCollection_9">
    <g clip-path="url(#pefa091ed2b)">
     <use style="fill:#0000ff;stroke:#0000ff;" x="73.832727" xlink:href="#m41990c2f64" y="237.199304"/>
     <use style="fill:#0000ff;stroke:#0000ff;" x="120.211948" xlink:href="#m41990c2f64" y="245.066963"/>
     <use style="fill:#0000ff;stroke:#0000ff;" x="166.591169" xlink:href="#m41990c2f64" y="223.430901"/>
     <use style="fill:#0000ff;stroke:#0000ff;" x="212.97039" xlink:href="#m41990c2f64" y="194.621384"/>
     <use style="fill:#0000ff;stroke:#0000ff;" x="259.34961" xlink:href="#m41990c2f64" y="187.640765"/>
     <use style="fill:#0000ff;stroke:#0000ff;" x="305.728831" xlink:href="#m41990c2f64" y="212.207917"/>
     <use style="fill:#0000ff;stroke:#0000ff;" x="352.108052" xlink:href="#m41990c2f64" y="225.667784"/>
     <use style="fill:#0000ff;stroke:#0000ff;" x="398.487273" xlink:href="#m41990c2f64" y="230.720056"/>
    </g>
   </g>
   <g id="PathCollection_10">
    <g clip-path="url(#pefa091ed2b)">
     <use style="fill:#0000ff;stroke:#0000ff;" x="73.832727" xlink:href="#m41990c2f64" y="219.38137"/>
     <use style="fill:#0000ff;stroke:#0000ff;" x="120.211948" xlink:href="#m41990c2f64" y="225.629217"/>
     <use style="fill:#0000ff;stroke:#0000ff;" x="166.591169" xlink:href="#m41990c2f64" y="208.042685"/>
     <use style="fill:#0000ff;stroke:#0000ff;" x="212.97039" xlink:href="#m41990c2f64" y="183.436967"/>
     <use style="fill:#0000ff;stroke:#0000ff;" x="259.34961" xlink:href="#m41990c2f64" y="173.795228"/>
     <use style="fill:#0000ff;stroke:#0000ff;" x="305.728831" xlink:href="#m41990c2f64" y="195.161322"/>
     <use style="fill:#0000ff;stroke:#0000ff;" x="352.108052" xlink:href="#m41990c2f64" y="206.422873"/>
     <use style="fill:#0000ff;stroke:#0000ff;" x="398.487273" xlink:href="#m41990c2f64" y="214.714769"/>
    </g>
   </g>
   <g id="PathCollection_11">
    <g clip-path="url(#pefa091ed2b)">
     <use style="fill:#0000ff;stroke:#0000ff;" x="73.832727" xlink:href="#m41990c2f64" y="223.585169"/>
     <use style="fill:#0000ff;stroke:#0000ff;" x="120.211948" xlink:href="#m41990c2f64" y="233.805412"/>
     <use style="fill:#0000ff;stroke:#0000ff;" x="166.591169" xlink:href="#m41990c2f64" y="209.739631"/>
     <use style="fill:#0000ff;stroke:#0000ff;" x="212.97039" xlink:href="#m41990c2f64" y="173.756661"/>
     <use style="fill:#0000ff;stroke:#0000ff;" x="259.34961" xlink:href="#m41990c2f64" y="163.729252"/>
     <use style="fill:#0000ff;stroke:#0000ff;" x="305.728831" xlink:href="#m41990c2f64" y="193.580077"/>
     <use style="fill:#0000ff;stroke:#0000ff;" x="352.108052" xlink:href="#m41990c2f64" y="208.042685"/>
     <use style="fill:#0000ff;stroke:#0000ff;" x="398.487273" xlink:href="#m41990c2f64" y="214.560501"/>
    </g>
   </g>
   <g id="PathCollection_12">
    <g clip-path="url(#pefa091ed2b)">
     <use style="fill:#0000ff;stroke:#0000ff;" x="73.832727" xlink:href="#m41990c2f64" y="233.149774"/>
     <use style="fill:#0000ff;stroke:#0000ff;" x="120.211948" xlink:href="#m41990c2f64" y="239.28192"/>
     <use style="fill:#0000ff;stroke:#0000ff;" x="166.591169" xlink:href="#m41990c2f64" y="212.28505"/>
     <use style="fill:#0000ff;stroke:#0000ff;" x="212.97039" xlink:href="#m41990c2f64" y="178.808932"/>
     <use style="fill:#0000ff;stroke:#0000ff;" x="259.34961" xlink:href="#m41990c2f64" y="172.985322"/>
     <use style="fill:#0000ff;stroke:#0000ff;" x="305.728831" xlink:href="#m41990c2f64" y="204.957329"/>
     <use style="fill:#0000ff;stroke:#0000ff;" x="352.108052" xlink:href="#m41990c2f64" y="222.312459"/>
     <use style="fill:#0000ff;stroke:#0000ff;" x="398.487273" xlink:href="#m41990c2f64" y="230.180118"/>
    </g>
   </g>
   <g id="PathCollection_13">
    <g clip-path="url(#pefa091ed2b)">
     <use style="fill:#0000ff;stroke:#0000ff;" x="73.832727" xlink:href="#m41990c2f64" y="228.676007"/>
     <use style="fill:#0000ff;stroke:#0000ff;" x="120.211948" xlink:href="#m41990c2f64" y="233.304042"/>
     <use style="fill:#0000ff;stroke:#0000ff;" x="166.591169" xlink:href="#m41990c2f64" y="215.871777"/>
     <use style="fill:#0000ff;stroke:#0000ff;" x="212.97039" xlink:href="#m41990c2f64" y="184.902511"/>
     <use style="fill:#0000ff;stroke:#0000ff;" x="259.34961" xlink:href="#m41990c2f64" y="177.150553"/>
     <use style="fill:#0000ff;stroke:#0000ff;" x="305.728831" xlink:href="#m41990c2f64" y="202.450477"/>
     <use style="fill:#0000ff;stroke:#0000ff;" x="352.108052" xlink:href="#m41990c2f64" y="216.103179"/>
     <use style="fill:#0000ff;stroke:#0000ff;" x="398.487273" xlink:href="#m41990c2f64" y="224.58791"/>
    </g>
   </g>
   <g id="PathCollection_14">
    <g clip-path="url(#pefa091ed2b)">
     <use style="fill:#0000ff;stroke:#0000ff;" x="73.832727" xlink:href="#m41990c2f64" y="210.472403"/>
     <use style="fill:#0000ff;stroke:#0000ff;" x="120.211948" xlink:href="#m41990c2f64" y="219.882741"/>
     <use style="fill:#0000ff;stroke:#0000ff;" x="166.591169" xlink:href="#m41990c2f64" y="196.549732"/>
     <use style="fill:#0000ff;stroke:#0000ff;" x="212.97039" xlink:href="#m41990c2f64" y="160.181092"/>
     <use style="fill:#0000ff;stroke:#0000ff;" x="259.34961" xlink:href="#m41990c2f64" y="146.991193"/>
     <use style="fill:#0000ff;stroke:#0000ff;" x="305.728831" xlink:href="#m41990c2f64" y="178.037593"/>
     <use style="fill:#0000ff;stroke:#0000ff;" x="352.108052" xlink:href="#m41990c2f64" y="195.084188"/>
     <use style="fill:#0000ff;stroke:#0000ff;" x="398.487273" xlink:href="#m41990c2f64" y="202.219075"/>
    </g>
   </g>
   <g id="PathCollection_15">
    <g clip-path="url(#pefa091ed2b)">
     <use style="fill:#0000ff;stroke:#0000ff;" x="73.832727" xlink:href="#m41990c2f64" y="238.973384"/>
     <use style="fill:#0000ff;stroke:#0000ff;" x="120.211948" xlink:href="#m41990c2f64" y="247.535249"/>
     <use style="fill:#0000ff;stroke:#0000ff;" x="166.591169" xlink:href="#m41990c2f64" y="227.326163"/>
     <use style="fill:#0000ff;stroke:#0000ff;" x="212.97039" xlink:href="#m41990c2f64" y="192.65447"/>
     <use style="fill:#0000ff;stroke:#0000ff;" x="259.34961" xlink:href="#m41990c2f64" y="184.555409"/>
     <use style="fill:#0000ff;stroke:#0000ff;" x="305.728831" xlink:href="#m41990c2f64" y="210.163868"/>
     <use style="fill:#0000ff;stroke:#0000ff;" x="352.108052" xlink:href="#m41990c2f64" y="227.441864"/>
     <use style="fill:#0000ff;stroke:#0000ff;" x="398.487273" xlink:href="#m41990c2f64" y="232.1856"/>
    </g>
   </g>
   <g id="PolyCollection_1">
    <path clip-path="url(#pefa091ed2b)" d="M 73.832727 195.398201 
L 73.832727 233.603985 
L 77.112066 233.714609 
L 80.391405 233.80058 
L 83.670744 233.862392 
L 86.950083 233.900555 
L 90.229421 233.915593 
L 93.50876 233.908047 
L 96.788099 233.878471 
L 100.067438 233.827435 
L 103.346777 233.755522 
L 106.626116 233.663328 
L 109.905455 233.551465 
L 113.184793 233.420553 
L 116.464132 233.271227 
L 119.743471 233.104134 
L 123.02281 232.919928 
L 126.302149 232.719277 
L 129.581488 232.502856 
L 132.860826 232.271352 
L 136.140165 232.025459 
L 139.419504 231.765877 
L 142.698843 231.493317 
L 145.978182 231.208496 
L 149.257521 230.912136 
L 152.53686 230.604967 
L 155.816198 230.287724 
L 159.095537 229.961146 
L 162.374876 229.625978 
L 165.654215 229.282969 
L 168.933554 228.932873 
L 172.212893 228.576447 
L 175.492231 228.21445 
L 178.77157 227.847646 
L 182.050909 227.4768 
L 185.330248 227.102681 
L 188.609587 226.726058 
L 191.888926 226.347705 
L 195.168264 225.968395 
L 198.447603 225.588903 
L 201.726942 225.210005 
L 205.006281 224.83248 
L 208.28562 224.457105 
L 211.564959 224.08466 
L 214.844298 223.715924 
L 218.123636 223.351677 
L 221.402975 222.9927 
L 224.682314 222.639772 
L 227.961653 222.293674 
L 231.240992 221.955188 
L 234.520331 221.625093 
L 237.799669 221.304169 
L 241.079008 220.993197 
L 244.358347 220.692956 
L 247.637686 220.404226 
L 250.917025 220.127787 
L 254.196364 219.864416 
L 257.475702 219.614894 
L 260.755041 219.379998 
L 264.03438 219.160506 
L 267.313719 218.957196 
L 270.593058 218.770845 
L 273.872397 218.602232 
L 277.151736 218.452133 
L 280.431074 218.321325 
L 283.710413 218.210587 
L 286.989752 218.120694 
L 290.269091 218.052425 
L 293.54843 218.006558 
L 296.827769 217.98387 
L 300.107107 217.985142 
L 303.386446 218.011151 
L 306.665785 218.06268 
L 309.945124 218.140509 
L 313.224463 218.245421 
L 316.503802 218.3782 
L 319.78314 218.539632 
L 323.062479 218.730505 
L 326.341818 218.951608 
L 329.621157 219.203733 
L 332.900496 219.487676 
L 336.179835 219.804234 
L 339.459174 220.154208 
L 342.738512 220.538403 
L 346.017851 220.957627 
L 349.29719 221.412696 
L 352.576529 221.904425 
L 355.855868 222.433641 
L 359.135207 223.001172 
L 362.414545 223.607855 
L 365.693884 224.254533 
L 368.973223 224.942058 
L 372.252562 225.671291 
L 375.531901 226.4431 
L 378.81124 227.258367 
L 382.090579 228.11798 
L 385.369917 229.022845 
L 388.649256 229.973877 
L 391.928595 230.972007 
L 395.207934 232.018182 
L 398.487273 233.113366 
L 398.487273 193.858629 
L 398.487273 193.858629 
L 395.207934 192.486356 
L 391.928595 191.16999 
L 388.649256 189.908819 
L 385.369917 188.702117 
L 382.090579 187.549139 
L 378.81124 186.449127 
L 375.531901 185.401311 
L 372.252562 184.404907 
L 368.973223 183.45912 
L 365.693884 182.563146 
L 362.414545 181.71617 
L 359.135207 180.917368 
L 355.855868 180.165911 
L 352.576529 179.460961 
L 349.29719 178.801672 
L 346.017851 178.187195 
L 342.738512 177.616673 
L 339.459174 177.089245 
L 336.179835 176.604046 
L 332.900496 176.160205 
L 329.621157 175.75685 
L 326.341818 175.393105 
L 323.062479 175.068088 
L 319.78314 174.780919 
L 316.503802 174.530712 
L 313.224463 174.316581 
L 309.945124 174.137636 
L 306.665785 173.992988 
L 303.386446 173.881745 
L 300.107107 173.803014 
L 296.827769 173.7559 
L 293.54843 173.73951 
L 290.269091 173.752947 
L 286.989752 173.795315 
L 283.710413 173.865719 
L 280.431074 173.96326 
L 277.151736 174.087041 
L 273.872397 174.236167 
L 270.593058 174.409739 
L 267.313719 174.60686 
L 264.03438 174.826633 
L 260.755041 175.068162 
L 257.475702 175.330549 
L 254.196364 175.612899 
L 250.917025 175.914314 
L 247.637686 176.2339 
L 244.358347 176.570761 
L 241.079008 176.924002 
L 237.799669 177.292727 
L 234.520331 177.676042 
L 231.240992 178.073054 
L 227.961653 178.482866 
L 224.682314 178.904587 
L 221.402975 179.337321 
L 218.123636 179.780175 
L 214.844298 180.232254 
L 211.564959 180.692666 
L 208.28562 181.160514 
L 205.006281 181.634904 
L 201.726942 182.114941 
L 198.447603 182.599729 
L 195.168264 183.088371 
L 191.888926 183.579968 
L 188.609587 184.073622 
L 185.330248 184.568432 
L 182.050909 185.063496 
L 178.77157 185.557909 
L 175.492231 186.050766 
L 172.212893 186.541157 
L 168.933554 187.028172 
L 165.654215 187.510895 
L 162.374876 187.98841 
L 159.095537 188.459795 
L 155.816198 188.924125 
L 152.53686 189.38047 
L 149.257521 189.827896 
L 145.978182 190.265462 
L 142.698843 190.692225 
L 139.419504 191.107232 
L 136.140165 191.509525 
L 132.860826 191.89814 
L 129.581488 192.272105 
L 126.302149 192.630438 
L 123.02281 192.97215 
L 119.743471 193.296245 
L 116.464132 193.601713 
L 113.184793 193.887536 
L 109.905455 194.152686 
L 106.626116 194.396123 
L 103.346777 194.616794 
L 100.067438 194.813634 
L 96.788099 194.985567 
L 93.50876 195.1315 
L 90.229421 195.250329 
L 86.950083 195.340935 
L 83.670744 195.402182 
L 80.391405 195.432921 
L 77.112066 195.431987 
L 73.832727 195.398201 
z
" style="fill:#1f77b4;fill-opacity:0.5;"/>
   </g>
   <g id="matplotlib.axis_1">
    <g id="xtick_1">
     <g id="line2d_1">
      <defs>
       <path d="M 0 0 
L 0 3.5 
" id="mb61a1fe138" style="stroke:#000000;stroke-width:0.8;"/>
      </defs>
      <g>
       <use style="stroke:#000000;stroke-width:0.8;" x="120.211948" xlink:href="#mb61a1fe138" y="307.584"/>
      </g>
     </g>
     <g id="text_1">
      <!-- 5 -->
      <g transform="translate(117.030698 322.182437)scale(0.1 -0.1)">
       <defs>
        <path d="M 10.796875 72.90625 
L 49.515625 72.90625 
L 49.515625 64.59375 
L 19.828125 64.59375 
L 19.828125 46.734375 
Q 21.96875 47.46875 24.109375 47.828125 
Q 26.265625 48.1875 28.421875 48.1875 
Q 40.625 48.1875 47.75 41.5 
Q 54.890625 34.8125 54.890625 23.390625 
Q 54.890625 11.625 47.5625 5.09375 
Q 40.234375 -1.421875 26.90625 -1.421875 
Q 22.3125 -1.421875 17.546875 -0.640625 
Q 12.796875 0.140625 7.71875 1.703125 
L 7.71875 11.625 
Q 12.109375 9.234375 16.796875 8.0625 
Q 21.484375 6.890625 26.703125 6.890625 
Q 35.15625 6.890625 40.078125 11.328125 
Q 45.015625 15.765625 45.015625 23.390625 
Q 45.015625 31 40.078125 35.4375 
Q 35.15625 39.890625 26.703125 39.890625 
Q 22.75 39.890625 18.8125 39.015625 
Q 14.890625 38.140625 10.796875 36.28125 
z
" id="DejaVuSans-53"/>
       </defs>
       <use xlink:href="#DejaVuSans-53"/>
      </g>
     </g>
    </g>
    <g id="xtick_2">
     <g id="line2d_2">
      <g>
       <use style="stroke:#000000;stroke-width:0.8;" x="197.510649" xlink:href="#mb61a1fe138" y="307.584"/>
      </g>
     </g>
     <g id="text_2">
      <!-- 10 -->
      <g transform="translate(191.148149 322.182437)scale(0.1 -0.1)">
       <defs>
        <path d="M 12.40625 8.296875 
L 28.515625 8.296875 
L 28.515625 63.921875 
L 10.984375 60.40625 
L 10.984375 69.390625 
L 28.421875 72.90625 
L 38.28125 72.90625 
L 38.28125 8.296875 
L 54.390625 8.296875 
L 54.390625 0 
L 12.40625 0 
z
" id="DejaVuSans-49"/>
        <path d="M 31.78125 66.40625 
Q 24.171875 66.40625 20.328125 58.90625 
Q 16.5 51.421875 16.5 36.375 
Q 16.5 21.390625 20.328125 13.890625 
Q 24.171875 6.390625 31.78125 6.390625 
Q 39.453125 6.390625 43.28125 13.890625 
Q 47.125 21.390625 47.125 36.375 
Q 47.125 51.421875 43.28125 58.90625 
Q 39.453125 66.40625 31.78125 66.40625 
z
M 31.78125 74.21875 
Q 44.046875 74.21875 50.515625 64.515625 
Q 56.984375 54.828125 56.984375 36.375 
Q 56.984375 17.96875 50.515625 8.265625 
Q 44.046875 -1.421875 31.78125 -1.421875 
Q 19.53125 -1.421875 13.0625 8.265625 
Q 6.59375 17.96875 6.59375 36.375 
Q 6.59375 54.828125 13.0625 64.515625 
Q 19.53125 74.21875 31.78125 74.21875 
z
" id="DejaVuSans-48"/>
       </defs>
       <use xlink:href="#DejaVuSans-49"/>
       <use x="63.623047" xlink:href="#DejaVuSans-48"/>
      </g>
     </g>
    </g>
    <g id="xtick_3">
     <g id="line2d_3">
      <g>
       <use style="stroke:#000000;stroke-width:0.8;" x="274.809351" xlink:href="#mb61a1fe138" y="307.584"/>
      </g>
     </g>
     <g id="text_3">
      <!-- 15 -->
      <g transform="translate(268.446851 322.182437)scale(0.1 -0.1)">
       <use xlink:href="#DejaVuSans-49"/>
       <use x="63.623047" xlink:href="#DejaVuSans-53"/>
      </g>
     </g>
    </g>
    <g id="xtick_4">
     <g id="line2d_4">
      <g>
       <use style="stroke:#000000;stroke-width:0.8;" x="352.108052" xlink:href="#mb61a1fe138" y="307.584"/>
      </g>
     </g>
     <g id="text_4">
      <!-- 20 -->
      <g transform="translate(345.745552 322.182437)scale(0.1 -0.1)">
       <defs>
        <path d="M 19.1875 8.296875 
L 53.609375 8.296875 
L 53.609375 0 
L 7.328125 0 
L 7.328125 8.296875 
Q 12.9375 14.109375 22.625 23.890625 
Q 32.328125 33.6875 34.8125 36.53125 
Q 39.546875 41.84375 41.421875 45.53125 
Q 43.3125 49.21875 43.3125 52.78125 
Q 43.3125 58.59375 39.234375 62.25 
Q 35.15625 65.921875 28.609375 65.921875 
Q 23.96875 65.921875 18.8125 64.3125 
Q 13.671875 62.703125 7.8125 59.421875 
L 7.8125 69.390625 
Q 13.765625 71.78125 18.9375 73 
Q 24.125 74.21875 28.421875 74.21875 
Q 39.75 74.21875 46.484375 68.546875 
Q 53.21875 62.890625 53.21875 53.421875 
Q 53.21875 48.921875 51.53125 44.890625 
Q 49.859375 40.875 45.40625 35.40625 
Q 44.1875 33.984375 37.640625 27.21875 
Q 31.109375 20.453125 19.1875 8.296875 
z
" id="DejaVuSans-50"/>
       </defs>
       <use xlink:href="#DejaVuSans-50"/>
       <use x="63.623047" xlink:href="#DejaVuSans-48"/>
      </g>
     </g>
    </g>
   </g>
   <g id="matplotlib.axis_2">
    <g id="ytick_1">
     <g id="line2d_5">
      <defs>
       <path d="M 0 0 
L -3.5 0 
" id="m7eaa0d5478" style="stroke:#000000;stroke-width:0.8;"/>
      </defs>
      <g>
       <use style="stroke:#000000;stroke-width:0.8;" x="57.6" xlink:href="#m7eaa0d5478" y="272.873739"/>
      </g>
     </g>
     <g id="text_5">
      <!-- 10 -->
      <g transform="translate(37.875 276.672958)scale(0.1 -0.1)">
       <use xlink:href="#DejaVuSans-49"/>
       <use x="63.623047" xlink:href="#DejaVuSans-48"/>
      </g>
     </g>
    </g>
    <g id="ytick_2">
     <g id="line2d_6">
      <g>
       <use style="stroke:#000000;stroke-width:0.8;" x="57.6" xlink:href="#m7eaa0d5478" y="215.023304"/>
      </g>
     </g>
     <g id="text_6">
      <!-- 15 -->
      <g transform="translate(37.875 218.822523)scale(0.1 -0.1)">
       <use xlink:href="#DejaVuSans-49"/>
       <use x="63.623047" xlink:href="#DejaVuSans-53"/>
      </g>
     </g>
    </g>
    <g id="ytick_3">
     <g id="line2d_7">
      <g>
       <use style="stroke:#000000;stroke-width:0.8;" x="57.6" xlink:href="#m7eaa0d5478" y="157.17287"/>
      </g>
     </g>
     <g id="text_7">
      <!-- 20 -->
      <g transform="translate(37.875 160.972088)scale(0.1 -0.1)">
       <use xlink:href="#DejaVuSans-50"/>
       <use x="63.623047" xlink:href="#DejaVuSans-48"/>
      </g>
     </g>
    </g>
    <g id="ytick_4">
     <g id="line2d_8">
      <g>
       <use style="stroke:#000000;stroke-width:0.8;" x="57.6" xlink:href="#m7eaa0d5478" y="99.322435"/>
      </g>
     </g>
     <g id="text_8">
      <!-- 25 -->
      <g transform="translate(37.875 103.121654)scale(0.1 -0.1)">
       <use xlink:href="#DejaVuSans-50"/>
       <use x="63.623047" xlink:href="#DejaVuSans-53"/>
      </g>
     </g>
    </g>
    <g id="ytick_5">
     <g id="line2d_9">
      <g>
       <use style="stroke:#000000;stroke-width:0.8;" x="57.6" xlink:href="#m7eaa0d5478" y="41.472"/>
      </g>
     </g>
     <g id="text_9">
      <!-- 30 -->
      <g transform="translate(37.875 45.271219)scale(0.1 -0.1)">
       <defs>
        <path d="M 40.578125 39.3125 
Q 47.65625 37.796875 51.625 33 
Q 55.609375 28.21875 55.609375 21.1875 
Q 55.609375 10.40625 48.1875 4.484375 
Q 40.765625 -1.421875 27.09375 -1.421875 
Q 22.515625 -1.421875 17.65625 -0.515625 
Q 12.796875 0.390625 7.625 2.203125 
L 7.625 11.71875 
Q 11.71875 9.328125 16.59375 8.109375 
Q 21.484375 6.890625 26.8125 6.890625 
Q 36.078125 6.890625 40.9375 10.546875 
Q 45.796875 14.203125 45.796875 21.1875 
Q 45.796875 27.640625 41.28125 31.265625 
Q 36.765625 34.90625 28.71875 34.90625 
L 20.21875 34.90625 
L 20.21875 43.015625 
L 29.109375 43.015625 
Q 36.375 43.015625 40.234375 45.921875 
Q 44.09375 48.828125 44.09375 54.296875 
Q 44.09375 59.90625 40.109375 62.90625 
Q 36.140625 65.921875 28.71875 65.921875 
Q 24.65625 65.921875 20.015625 65.03125 
Q 15.375 64.15625 9.8125 62.3125 
L 9.8125 71.09375 
Q 15.4375 72.65625 20.34375 73.4375 
Q 25.25 74.21875 29.59375 74.21875 
Q 40.828125 74.21875 47.359375 69.109375 
Q 53.90625 64.015625 53.90625 55.328125 
Q 53.90625 49.265625 50.4375 45.09375 
Q 46.96875 40.921875 40.578125 39.3125 
z
" id="DejaVuSans-51"/>
       </defs>
       <use xlink:href="#DejaVuSans-51"/>
       <use x="63.623047" xlink:href="#DejaVuSans-48"/>
      </g>
     </g>
    </g>
   </g>
   <g id="line2d_10">
    <path clip-path="url(#pefa091ed2b)" d="M 73.832727 214.501093 
L 77.112066 214.573298 
L 80.391405 214.61675 
L 83.670744 214.632287 
L 86.950083 214.620745 
L 90.229421 214.582961 
L 93.50876 214.519774 
L 96.788099 214.432019 
L 100.067438 214.320535 
L 103.346777 214.186158 
L 106.626116 214.029726 
L 109.905455 213.852076 
L 113.184793 213.654045 
L 116.464132 213.43647 
L 119.743471 213.200189 
L 123.02281 212.946039 
L 126.302149 212.674857 
L 129.581488 212.38748 
L 132.860826 212.084746 
L 136.140165 211.767492 
L 139.419504 211.436554 
L 142.698843 211.092771 
L 145.978182 210.736979 
L 149.257521 210.370016 
L 152.53686 209.992719 
L 155.816198 209.605924 
L 159.095537 209.21047 
L 162.374876 208.807194 
L 165.654215 208.396932 
L 168.933554 207.980523 
L 172.212893 207.558802 
L 175.492231 207.132608 
L 178.77157 206.702778 
L 182.050909 206.270148 
L 185.330248 205.835557 
L 188.609587 205.39984 
L 191.888926 204.963837 
L 195.168264 204.528383 
L 198.447603 204.094316 
L 201.726942 203.662473 
L 205.006281 203.233692 
L 208.28562 202.80881 
L 211.564959 202.388663 
L 214.844298 201.974089 
L 218.123636 201.565926 
L 221.402975 201.16501 
L 224.682314 200.772179 
L 227.961653 200.38827 
L 231.240992 200.014121 
L 234.520331 199.650567 
L 237.799669 199.298448 
L 241.079008 198.958599 
L 244.358347 198.631858 
L 247.637686 198.319063 
L 250.917025 198.02105 
L 254.196364 197.738657 
L 257.475702 197.472721 
L 260.755041 197.22408 
L 264.03438 196.993569 
L 267.313719 196.782028 
L 270.593058 196.590292 
L 273.872397 196.419199 
L 277.151736 196.269587 
L 280.431074 196.142293 
L 283.710413 196.038153 
L 286.989752 195.958005 
L 290.269091 195.902686 
L 293.54843 195.873034 
L 296.827769 195.869885 
L 300.107107 195.894078 
L 303.386446 195.946448 
L 306.665785 196.027834 
L 309.945124 196.139073 
L 313.224463 196.281001 
L 316.503802 196.454456 
L 319.78314 196.660276 
L 323.062479 196.899297 
L 326.341818 197.172356 
L 329.621157 197.480292 
L 332.900496 197.823941 
L 336.179835 198.20414 
L 339.459174 198.621726 
L 342.738512 199.077538 
L 346.017851 199.572411 
L 349.29719 200.107184 
L 352.576529 200.682693 
L 355.855868 201.299776 
L 359.135207 201.95927 
L 362.414545 202.662012 
L 365.693884 203.408839 
L 368.973223 204.200589 
L 372.252562 205.038099 
L 375.531901 205.922206 
L 378.81124 206.853747 
L 382.090579 207.83356 
L 385.369917 208.862481 
L 388.649256 209.941348 
L 391.928595 211.070998 
L 395.207934 212.252269 
L 398.487273 213.485997 
" style="fill:none;stroke:#1f77b4;stroke-linecap:square;stroke-width:1.5;"/>
   </g>
   <g id="line2d_11">
    <path clip-path="url(#pefa091ed2b)" d="M 73.832727 239.340194 
L 77.112066 238.135097 
L 80.391405 236.921018 
L 83.670744 235.698958 
L 86.950083 234.469916 
L 90.229421 233.234895 
L 93.50876 231.994892 
L 96.788099 230.750911 
L 100.067438 229.50395 
L 103.346777 228.25501 
L 106.626116 227.005092 
L 109.905455 225.755195 
L 113.184793 224.506322 
L 116.464132 223.259471 
L 119.743471 222.015644 
L 123.02281 220.77584 
L 126.302149 219.541061 
L 129.581488 218.312307 
L 132.860826 217.090578 
L 136.140165 215.876874 
L 139.419504 214.672196 
L 142.698843 213.477545 
L 145.978182 212.293921 
L 149.257521 211.122324 
L 152.53686 209.963755 
L 155.816198 208.819214 
L 159.095537 207.689702 
L 162.374876 206.576218 
L 165.654215 205.479765 
L 168.933554 204.401341 
L 172.212893 203.341948 
L 175.492231 202.302586 
L 178.77157 201.284255 
L 182.050909 200.287955 
L 185.330248 199.314688 
L 188.609587 198.365454 
L 191.888926 197.441252 
L 195.168264 196.543085 
L 198.447603 195.671951 
L 201.726942 194.828851 
L 205.006281 194.014786 
L 208.28562 193.230757 
L 211.564959 192.477763 
L 214.844298 191.756805 
L 218.123636 191.068884 
L 221.402975 190.415 
L 224.682314 189.796154 
L 227.961653 189.213345 
L 231.240992 188.667575 
L 234.520331 188.159843 
L 237.799669 187.691151 
L 241.079008 187.262498 
L 244.358347 186.874886 
L 247.637686 186.529313 
L 250.917025 186.226782 
L 254.196364 185.968293 
L 257.475702 185.754845 
L 260.755041 185.587439 
L 264.03438 185.467077 
L 267.313719 185.394757 
L 270.593058 185.371481 
L 273.872397 185.398249 
L 277.151736 185.476062 
L 280.431074 185.605919 
L 283.710413 185.788822 
L 286.989752 186.025771 
L 290.269091 186.317766 
L 293.54843 186.665807 
L 296.827769 187.070896 
L 300.107107 187.534032 
L 303.386446 188.056217 
L 306.665785 188.638449 
L 309.945124 189.281731 
L 313.224463 189.987062 
L 316.503802 190.755443 
L 319.78314 191.587874 
L 323.062479 192.485355 
L 326.341818 193.448888 
L 329.621157 194.479472 
L 332.900496 195.578108 
L 336.179835 196.745797 
L 339.459174 197.983538 
L 342.738512 199.292333 
L 346.017851 200.673181 
L 349.29719 202.127084 
L 352.576529 203.655041 
L 355.855868 205.258054 
L 359.135207 206.937121 
L 362.414545 208.693245 
L 365.693884 210.527425 
L 368.973223 212.440662 
L 372.252562 214.433956 
L 375.531901 216.508307 
L 378.81124 218.664717 
L 382.090579 220.904186 
L 385.369917 223.227713 
L 388.649256 225.6363 
L 391.928595 228.130947 
L 395.207934 230.712654 
L 398.487273 233.382421 
" style="fill:none;stroke:#ff7f0e;stroke-linecap:square;stroke-width:1.5;"/>
   </g>
   <g id="line2d_12">
    <path clip-path="url(#pefa091ed2b)" d="M 73.832727 247.585787 
L 77.112066 246.560012 
L 80.391405 245.527044 
L 83.670744 244.487722 
L 86.950083 243.442882 
L 90.229421 242.393365 
L 93.50876 241.340008 
L 96.788099 240.283651 
L 100.067438 239.225131 
L 103.346777 238.165287 
L 106.626116 237.104957 
L 109.905455 236.04498 
L 113.184793 234.986195 
L 116.464132 233.929439 
L 119.743471 232.875552 
L 123.02281 231.825372 
L 126.302149 230.779737 
L 129.581488 229.739486 
L 132.860826 228.705457 
L 136.140165 227.678488 
L 139.419504 226.659419 
L 142.698843 225.649087 
L 145.978182 224.648332 
L 149.257521 223.657991 
L 152.53686 222.678903 
L 155.816198 221.711907 
L 159.095537 220.757841 
L 162.374876 219.817543 
L 165.654215 218.891852 
L 168.933554 217.981607 
L 172.212893 217.087646 
L 175.492231 216.210806 
L 178.77157 215.351928 
L 182.050909 214.511849 
L 185.330248 213.691408 
L 188.609587 212.891443 
L 191.888926 212.112793 
L 195.168264 211.356296 
L 198.447603 210.622791 
L 201.726942 209.913116 
L 205.006281 209.228109 
L 208.28562 208.56861 
L 211.564959 207.935456 
L 214.844298 207.329486 
L 218.123636 206.751539 
L 221.402975 206.202452 
L 224.682314 205.683065 
L 227.961653 205.194217 
L 231.240992 204.736744 
L 234.520331 204.311486 
L 237.799669 203.919282 
L 241.079008 203.560969 
L 244.358347 203.237387 
L 247.637686 202.949374 
L 250.917025 202.697768 
L 254.196364 202.483407 
L 257.475702 202.307131 
L 260.755041 202.169777 
L 264.03438 202.072185 
L 267.313719 202.015192 
L 270.593058 201.999637 
L 273.872397 202.026358 
L 277.151736 202.096195 
L 280.431074 202.209985 
L 283.710413 202.368567 
L 286.989752 202.57278 
L 290.269091 202.823461 
L 293.54843 203.12145 
L 296.827769 203.467585 
L 300.107107 203.862704 
L 303.386446 204.307646 
L 306.665785 204.803249 
L 309.945124 205.350351 
L 313.224463 205.949793 
L 316.503802 206.60241 
L 319.78314 207.309043 
L 323.062479 208.07053 
L 326.341818 208.887708 
L 329.621157 209.761417 
L 332.900496 210.692495 
L 336.179835 211.681781 
L 339.459174 212.730113 
L 342.738512 213.838329 
L 346.017851 215.007268 
L 349.29719 216.237769 
L 352.576529 217.530669 
L 355.855868 218.886808 
L 359.135207 220.307023 
L 362.414545 221.792154 
L 365.693884 223.343039 
L 368.973223 224.960516 
L 372.252562 226.645423 
L 375.531901 228.3986 
L 378.81124 230.220885 
L 382.090579 232.113115 
L 385.369917 234.076131 
L 388.649256 236.110769 
L 391.928595 238.217869 
L 395.207934 240.398268 
L 398.487273 242.652807 
" style="fill:none;stroke:#2ca02c;stroke-linecap:square;stroke-width:1.5;"/>
   </g>
   <g id="line2d_13">
    <path clip-path="url(#pefa091ed2b)" d="M 73.832727 211.664899 
L 77.112066 210.627364 
L 80.391405 209.567485 
L 83.670744 208.486543 
L 86.950083 207.385819 
L 90.229421 206.266595 
L 93.50876 205.13015 
L 96.788099 203.977767 
L 100.067438 202.810727 
L 103.346777 201.630311 
L 106.626116 200.437799 
L 109.905455 199.234474 
L 113.184793 198.021615 
L 116.464132 196.800505 
L 119.743471 195.572425 
L 123.02281 194.338655 
L 126.302149 193.100477 
L 129.581488 191.859172 
L 132.860826 190.616022 
L 136.140165 189.372306 
L 139.419504 188.129307 
L 142.698843 186.888305 
L 145.978182 185.650582 
L 149.257521 184.417418 
L 152.53686 183.190096 
L 155.816198 181.969896 
L 159.095537 180.758099 
L 162.374876 179.555986 
L 165.654215 178.364839 
L 168.933554 177.185939 
L 172.212893 176.020566 
L 175.492231 174.870002 
L 178.77157 173.735529 
L 182.050909 172.618426 
L 185.330248 171.519977 
L 188.609587 170.44146 
L 191.888926 169.384158 
L 195.168264 168.349353 
L 198.447603 167.338324 
L 201.726942 166.352353 
L 205.006281 165.392722 
L 208.28562 164.46071 
L 211.564959 163.557601 
L 214.844298 162.684674 
L 218.123636 161.843211 
L 221.402975 161.034493 
L 224.682314 160.259801 
L 227.961653 159.520417 
L 231.240992 158.81762 
L 234.520331 158.152694 
L 237.799669 157.526918 
L 241.079008 156.941574 
L 244.358347 156.397943 
L 247.637686 155.897306 
L 250.917025 155.440944 
L 254.196364 155.030139 
L 257.475702 154.666171 
L 260.755041 154.350322 
L 264.03438 154.083873 
L 267.313719 153.868105 
L 270.593058 153.704299 
L 273.872397 153.593737 
L 277.151736 153.537699 
L 280.431074 153.537466 
L 283.710413 153.59432 
L 286.989752 153.709542 
L 290.269091 153.884413 
L 293.54843 154.120215 
L 296.827769 154.418227 
L 300.107107 154.779732 
L 303.386446 155.206011 
L 306.665785 155.698344 
L 309.945124 156.258013 
L 313.224463 156.886299 
L 316.503802 157.584484 
L 319.78314 158.353847 
L 323.062479 159.195672 
L 326.341818 160.111237 
L 329.621157 161.101826 
L 332.900496 162.168718 
L 336.179835 163.313196 
L 339.459174 164.536539 
L 342.738512 165.84003 
L 346.017851 167.22495 
L 349.29719 168.692579 
L 352.576529 170.244199 
L 355.855868 171.88109 
L 359.135207 173.604535 
L 362.414545 175.415814 
L 365.693884 177.316209 
L 368.973223 179.306999 
L 372.252562 181.389468 
L 375.531901 183.564895 
L 378.81124 185.834562 
L 382.090579 188.19975 
L 385.369917 190.661741 
L 388.649256 193.221814 
L 391.928595 195.881253 
L 395.207934 198.641337 
L 398.487273 201.503347 
" style="fill:none;stroke:#d62728;stroke-linecap:square;stroke-width:1.5;"/>
   </g>
   <g id="line2d_14">
    <path clip-path="url(#pefa091ed2b)" d="M 73.832727 216.420805 
L 77.112066 214.950927 
L 80.391405 213.48073 
L 83.670744 212.011114 
L 86.950083 210.542977 
L 90.229421 209.077218 
L 93.50876 207.614735 
L 96.788099 206.156428 
L 100.067438 204.703194 
L 103.346777 203.255933 
L 106.626116 201.815543 
L 109.905455 200.382923 
L 113.184793 198.958972 
L 116.464132 197.544587 
L 119.743471 196.140669 
L 123.02281 194.748116 
L 126.302149 193.367826 
L 129.581488 192.000697 
L 132.860826 190.64763 
L 136.140165 189.309522 
L 139.419504 187.987272 
L 142.698843 186.681779 
L 145.978182 185.393942 
L 149.257521 184.124658 
L 152.53686 182.874827 
L 155.816198 181.645348 
L 159.095537 180.43712 
L 162.374876 179.25104 
L 165.654215 178.088007 
L 168.933554 176.948921 
L 172.212893 175.83468 
L 175.492231 174.746183 
L 178.77157 173.684328 
L 182.050909 172.650013 
L 185.330248 171.644139 
L 188.609587 170.667603 
L 191.888926 169.721304 
L 195.168264 168.806141 
L 198.447603 167.923013 
L 201.726942 167.072817 
L 205.006281 166.256454 
L 208.28562 165.474821 
L 211.564959 164.728817 
L 214.844298 164.019341 
L 218.123636 163.347291 
L 221.402975 162.713567 
L 224.682314 162.119067 
L 227.961653 161.56469 
L 231.240992 161.051334 
L 234.520331 160.579898 
L 237.799669 160.15128 
L 241.079008 159.76638 
L 244.358347 159.426096 
L 247.637686 159.131327 
L 250.917025 158.882972 
L 254.196364 158.681928 
L 257.475702 158.529095 
L 260.755041 158.425372 
L 264.03438 158.371657 
L 267.313719 158.368849 
L 270.593058 158.417847 
L 273.872397 158.519549 
L 277.151736 158.674853 
L 280.431074 158.88466 
L 283.710413 159.149867 
L 286.989752 159.471372 
L 290.269091 159.850076 
L 293.54843 160.286876 
L 296.827769 160.782671 
L 300.107107 161.338359 
L 303.386446 161.954841 
L 306.665785 162.633013 
L 309.945124 163.373775 
L 313.224463 164.178026 
L 316.503802 165.046664 
L 319.78314 165.980588 
L 323.062479 166.980696 
L 326.341818 168.047888 
L 329.621157 169.183061 
L 332.900496 170.387115 
L 336.179835 171.660949 
L 339.459174 173.005461 
L 342.738512 174.421549 
L 346.017851 175.910112 
L 349.29719 177.47205 
L 352.576529 179.108261 
L 355.855868 180.819643 
L 359.135207 182.607095 
L 362.414545 184.471516 
L 365.693884 186.413804 
L 368.973223 188.434859 
L 372.252562 190.535578 
L 375.531901 192.716861 
L 378.81124 194.979607 
L 382.090579 197.324713 
L 385.369917 199.753079 
L 388.649256 202.265603 
L 391.928595 204.863185 
L 395.207934 207.546722 
L 398.487273 210.317113 
" style="fill:none;stroke:#9467bd;stroke-linecap:square;stroke-width:1.5;"/>
   </g>
   <g id="line2d_15">
    <path clip-path="url(#pefa091ed2b)" d="M 73.832727 217.739941 
L 77.112066 217.059717 
L 80.391405 216.356226 
L 83.670744 215.63057 
L 86.950083 214.88385 
L 90.229421 214.117165 
L 93.50876 213.331617 
L 96.788099 212.528306 
L 100.067438 211.708333 
L 103.346777 210.872799 
L 106.626116 210.022803 
L 109.905455 209.159448 
L 113.184793 208.283833 
L 116.464132 207.39706 
L 119.743471 206.500228 
L 123.02281 205.594439 
L 126.302149 204.680793 
L 129.581488 203.76039 
L 132.860826 202.834332 
L 136.140165 201.90372 
L 139.419504 200.969653 
L 142.698843 200.033232 
L 145.978182 199.095559 
L 149.257521 198.157733 
L 152.53686 197.220856 
L 155.816198 196.286028 
L 159.095537 195.354349 
L 162.374876 194.426921 
L 165.654215 193.504844 
L 168.933554 192.589218 
L 172.212893 191.681145 
L 175.492231 190.781725 
L 178.77157 189.892059 
L 182.050909 189.013247 
L 185.330248 188.146389 
L 188.609587 187.292588 
L 191.888926 186.452942 
L 195.168264 185.628554 
L 198.447603 184.820523 
L 201.726942 184.029951 
L 205.006281 183.257937 
L 208.28562 182.505583 
L 211.564959 181.773989 
L 214.844298 181.064256 
L 218.123636 180.377484 
L 221.402975 179.714775 
L 224.682314 179.077229 
L 227.961653 178.465946 
L 231.240992 177.882027 
L 234.520331 177.326573 
L 237.799669 176.800684 
L 241.079008 176.305462 
L 244.358347 175.842006 
L 247.637686 175.411417 
L 250.917025 175.014797 
L 254.196364 174.653246 
L 257.475702 174.327864 
L 260.755041 174.039752 
L 264.03438 173.79001 
L 267.313719 173.57974 
L 270.593058 173.410042 
L 273.872397 173.282017 
L 277.151736 173.196765 
L 280.431074 173.155387 
L 283.710413 173.158984 
L 286.989752 173.208656 
L 290.269091 173.305504 
L 293.54843 173.450628 
L 296.827769 173.64513 
L 300.107107 173.89011 
L 303.386446 174.186668 
L 306.665785 174.535905 
L 309.945124 174.938923 
L 313.224463 175.396821 
L 316.503802 175.9107 
L 319.78314 176.481661 
L 323.062479 177.110804 
L 326.341818 177.799231 
L 329.621157 178.548042 
L 332.900496 179.358337 
L 336.179835 180.231217 
L 339.459174 181.167783 
L 342.738512 182.169135 
L 346.017851 183.236374 
L 349.29719 184.370602 
L 352.576529 185.572917 
L 355.855868 186.844422 
L 359.135207 188.186217 
L 362.414545 189.599401 
L 365.693884 191.085077 
L 368.973223 192.644345 
L 372.252562 194.278305 
L 375.531901 195.988058 
L 378.81124 197.774704 
L 382.090579 199.639345 
L 385.369917 201.583081 
L 388.649256 203.607013 
L 391.928595 205.71224 
L 395.207934 207.899865 
L 398.487273 210.170988 
" style="fill:none;stroke:#8c564b;stroke-linecap:square;stroke-width:1.5;"/>
   </g>
   <g id="patch_3">
    <path d="M 57.6 307.584 
L 57.6 41.472 
" style="fill:none;stroke:#000000;stroke-linecap:square;stroke-linejoin:miter;stroke-width:0.8;"/>
   </g>
   <g id="patch_4">
    <path d="M 414.72 307.584 
L 414.72 41.472 
" style="fill:none;stroke:#000000;stroke-linecap:square;stroke-linejoin:miter;stroke-width:0.8;"/>
   </g>
   <g id="patch_5">
    <path d="M 57.6 307.584 
L 414.72 307.584 
" style="fill:none;stroke:#000000;stroke-linecap:square;stroke-linejoin:miter;stroke-width:0.8;"/>
   </g>
   <g id="patch_6">
    <path d="M 57.6 41.472 
L 414.72 41.472 
" style="fill:none;stroke:#000000;stroke-linecap:square;stroke-linejoin:miter;stroke-width:0.8;"/>
   </g>
  </g>
 </g>
 <defs>
  <clipPath id="pefa091ed2b">
   <rect height="266.112" width="357.12" x="57.6" y="41.472"/>
  </clipPath>
 </defs>
</svg>
