<?xml version="1.0" encoding="utf-8" standalone="no"?>
<!DOCTYPE svg PUBLIC "-//W3C//DTD SVG 1.1//EN"
  "http://www.w3.org/Graphics/SVG/1.1/DTD/svg11.dtd">
<!-- Created with matplotlib (https://matplotlib.org/) -->
<svg height="345.6pt" version="1.1" viewBox="0 0 460.8 345.6" width="460.8pt" xmlns="http://www.w3.org/2000/svg" xmlns:xlink="http://www.w3.org/1999/xlink">
 <metadata>
  <rdf:RDF xmlns:cc="http://creativecommons.org/ns#" xmlns:dc="http://purl.org/dc/elements/1.1/" xmlns:rdf="http://www.w3.org/1999/02/22-rdf-syntax-ns#">
   <cc:Work>
    <dc:type rdf:resource="http://purl.org/dc/dcmitype/StillImage"/>
    <dc:date>2021-11-24T17:23:00.724323</dc:date>
    <dc:format>image/svg+xml</dc:format>
    <dc:creator>
     <cc:Agent>
      <dc:title>Matplotlib v3.3.4, https://matplotlib.org/</dc:title>
     </cc:Agent>
    </dc:creator>
   </cc:Work>
  </rdf:RDF>
 </metadata>
 <defs>
  <style type="text/css">*{stroke-linecap:butt;stroke-linejoin:round;}</style>
 </defs>
 <g id="figure_1">
  <g id="patch_1">
   <path d="M 0 345.6 
L 460.8 345.6 
L 460.8 0 
L 0 0 
z
" style="fill:#ffffff;"/>
  </g>
  <g id="axes_1">
   <g id="patch_2">
    <path d="M 57.6 307.584 
L 414.72 307.584 
L 414.72 41.472 
L 57.6 41.472 
z
" style="fill:#ffffff;"/>
   </g>
   <g id="PathCollection_1">
    <defs>
     <path d="M 0 0.5 
C 0.132602 0.5 0.25979 0.447317 0.353553 0.353553 
C 0.447317 0.25979 0.5 0.132602 0.5 0 
C 0.5 -0.132602 0.447317 -0.25979 0.353553 -0.353553 
C 0.25979 -0.447317 0.132602 -0.5 0 -0.5 
C -0.132602 -0.5 -0.25979 -0.447317 -0.353553 -0.353553 
C -0.447317 -0.25979 -0.5 -0.132602 -0.5 0 
C -0.5 0.132602 -0.447317 0.25979 -0.353553 0.353553 
C -0.25979 0.447317 -0.132602 0.5 0 0.5 
z
" id="m6b51504319" style="stroke:#0000ff;"/>
    </defs>
    <g clip-path="url(#pf1c89b915a)">
     <use style="fill:#0000ff;stroke:#0000ff;" x="73.832727" xlink:href="#m6b51504319" y="238.973384"/>
     <use style="fill:#0000ff;stroke:#0000ff;" x="120.211948" xlink:href="#m6b51504319" y="247.535249"/>
     <use style="fill:#0000ff;stroke:#0000ff;" x="166.591169" xlink:href="#m6b51504319" y="227.326163"/>
     <use style="fill:#0000ff;stroke:#0000ff;" x="212.97039" xlink:href="#m6b51504319" y="192.65447"/>
     <use style="fill:#0000ff;stroke:#0000ff;" x="259.34961" xlink:href="#m6b51504319" y="184.555409"/>
     <use style="fill:#0000ff;stroke:#0000ff;" x="305.728831" xlink:href="#m6b51504319" y="210.163868"/>
     <use style="fill:#0000ff;stroke:#0000ff;" x="352.108052" xlink:href="#m6b51504319" y="227.441864"/>
     <use style="fill:#0000ff;stroke:#0000ff;" x="398.487273" xlink:href="#m6b51504319" y="232.1856"/>
    </g>
   </g>
   <g id="PathCollection_2">
    <g clip-path="url(#pf1c89b915a)">
     <use style="fill:#0000ff;stroke:#0000ff;" x="73.832727" xlink:href="#m6b51504319" y="227.094762"/>
     <use style="fill:#0000ff;stroke:#0000ff;" x="120.211948" xlink:href="#m6b51504319" y="233.034073"/>
     <use style="fill:#0000ff;stroke:#0000ff;" x="166.591169" xlink:href="#m6b51504319" y="209.199694"/>
     <use style="fill:#0000ff;stroke:#0000ff;" x="212.97039" xlink:href="#m6b51504319" y="174.219464"/>
     <use style="fill:#0000ff;stroke:#0000ff;" x="259.34961" xlink:href="#m6b51504319" y="166.197537"/>
     <use style="fill:#0000ff;stroke:#0000ff;" x="305.728831" xlink:href="#m6b51504319" y="199.326553"/>
     <use style="fill:#0000ff;stroke:#0000ff;" x="352.108052" xlink:href="#m6b51504319" y="218.687165"/>
     <use style="fill:#0000ff;stroke:#0000ff;" x="398.487273" xlink:href="#m6b51504319" y="223.508035"/>
    </g>
   </g>
   <g id="PathCollection_3">
    <g clip-path="url(#pf1c89b915a)">
     <use style="fill:#0000ff;stroke:#0000ff;" x="73.832727" xlink:href="#m6b51504319" y="219.612772"/>
     <use style="fill:#0000ff;stroke:#0000ff;" x="120.211948" xlink:href="#m6b51504319" y="226.169155"/>
     <use style="fill:#0000ff;stroke:#0000ff;" x="166.591169" xlink:href="#m6b51504319" y="202.450477"/>
     <use style="fill:#0000ff;stroke:#0000ff;" x="212.97039" xlink:href="#m6b51504319" y="168.395854"/>
     <use style="fill:#0000ff;stroke:#0000ff;" x="259.34961" xlink:href="#m6b51504319" y="158.908383"/>
     <use style="fill:#0000ff;stroke:#0000ff;" x="305.728831" xlink:href="#m6b51504319" y="189.569113"/>
     <use style="fill:#0000ff;stroke:#0000ff;" x="352.108052" xlink:href="#m6b51504319" y="206.96281"/>
     <use style="fill:#0000ff;stroke:#0000ff;" x="398.487273" xlink:href="#m6b51504319" y="214.869037"/>
    </g>
   </g>
   <g id="PathCollection_4">
    <g clip-path="url(#pf1c89b915a)">
     <use style="fill:#0000ff;stroke:#0000ff;" x="73.832727" xlink:href="#m6b51504319" y="235.926595"/>
     <use style="fill:#0000ff;stroke:#0000ff;" x="120.211948" xlink:href="#m6b51504319" y="244.21849"/>
     <use style="fill:#0000ff;stroke:#0000ff;" x="166.591169" xlink:href="#m6b51504319" y="220.114143"/>
     <use style="fill:#0000ff;stroke:#0000ff;" x="212.97039" xlink:href="#m6b51504319" y="186.676591"/>
     <use style="fill:#0000ff;stroke:#0000ff;" x="259.34961" xlink:href="#m6b51504319" y="180.004508"/>
     <use style="fill:#0000ff;stroke:#0000ff;" x="305.728831" xlink:href="#m6b51504319" y="208.004118"/>
     <use style="fill:#0000ff;stroke:#0000ff;" x="352.108052" xlink:href="#m6b51504319" y="224.047972"/>
     <use style="fill:#0000ff;stroke:#0000ff;" x="398.487273" xlink:href="#m6b51504319" y="230.758623"/>
    </g>
   </g>
   <g id="PathCollection_5">
    <g clip-path="url(#pf1c89b915a)">
     <use style="fill:#0000ff;stroke:#0000ff;" x="73.832727" xlink:href="#m6b51504319" y="180.698713"/>
     <use style="fill:#0000ff;stroke:#0000ff;" x="120.211948" xlink:href="#m6b51504319" y="189.800515"/>
     <use style="fill:#0000ff;stroke:#0000ff;" x="166.591169" xlink:href="#m6b51504319" y="161.299534"/>
     <use style="fill:#0000ff;stroke:#0000ff;" x="212.97039" xlink:href="#m6b51504319" y="118.64448"/>
     <use style="fill:#0000ff;stroke:#0000ff;" x="259.34961" xlink:href="#m6b51504319" y="105.416014"/>
     <use style="fill:#0000ff;stroke:#0000ff;" x="305.728831" xlink:href="#m6b51504319" y="147.993934"/>
     <use style="fill:#0000ff;stroke:#0000ff;" x="352.108052" xlink:href="#m6b51504319" y="166.390372"/>
     <use style="fill:#0000ff;stroke:#0000ff;" x="398.487273" xlink:href="#m6b51504319" y="172.75392"/>
    </g>
   </g>
   <g id="PathCollection_6">
    <g clip-path="url(#pf1c89b915a)">
     <use style="fill:#0000ff;stroke:#0000ff;" x="73.832727" xlink:href="#m6b51504319" y="265.546017"/>
     <use style="fill:#0000ff;stroke:#0000ff;" x="120.211948" xlink:href="#m6b51504319" y="269.171311"/>
     <use style="fill:#0000ff;stroke:#0000ff;" x="166.591169" xlink:href="#m6b51504319" y="246.416807"/>
     <use style="fill:#0000ff;stroke:#0000ff;" x="212.97039" xlink:href="#m6b51504319" y="219.38137"/>
     <use style="fill:#0000ff;stroke:#0000ff;" x="259.34961" xlink:href="#m6b51504319" y="212.979256"/>
     <use style="fill:#0000ff;stroke:#0000ff;" x="305.728831" xlink:href="#m6b51504319" y="236.042296"/>
     <use style="fill:#0000ff;stroke:#0000ff;" x="352.108052" xlink:href="#m6b51504319" y="253.011757"/>
     <use style="fill:#0000ff;stroke:#0000ff;" x="398.487273" xlink:href="#m6b51504319" y="261.265085"/>
    </g>
   </g>
   <g id="PathCollection_7">
    <g clip-path="url(#pf1c89b915a)">
     <use style="fill:#0000ff;stroke:#0000ff;" x="73.832727" xlink:href="#m6b51504319" y="210.780939"/>
     <use style="fill:#0000ff;stroke:#0000ff;" x="120.211948" xlink:href="#m6b51504319" y="216.064612"/>
     <use style="fill:#0000ff;stroke:#0000ff;" x="166.591169" xlink:href="#m6b51504319" y="197.08967"/>
     <use style="fill:#0000ff;stroke:#0000ff;" x="212.97039" xlink:href="#m6b51504319" y="162.148007"/>
     <use style="fill:#0000ff;stroke:#0000ff;" x="259.34961" xlink:href="#m6b51504319" y="159.641155"/>
     <use style="fill:#0000ff;stroke:#0000ff;" x="305.728831" xlink:href="#m6b51504319" y="188.296403"/>
     <use style="fill:#0000ff;stroke:#0000ff;" x="352.108052" xlink:href="#m6b51504319" y="201.756271"/>
     <use style="fill:#0000ff;stroke:#0000ff;" x="398.487273" xlink:href="#m6b51504319" y="209.12256"/>
    </g>
   </g>
   <g id="PathCollection_8">
    <g clip-path="url(#pf1c89b915a)">
     <use style="fill:#0000ff;stroke:#0000ff;" x="73.832727" xlink:href="#m6b51504319" y="207.078511"/>
     <use style="fill:#0000ff;stroke:#0000ff;" x="120.211948" xlink:href="#m6b51504319" y="211.822247"/>
     <use style="fill:#0000ff;stroke:#0000ff;" x="166.591169" xlink:href="#m6b51504319" y="191.728863"/>
     <use style="fill:#0000ff;stroke:#0000ff;" x="212.97039" xlink:href="#m6b51504319" y="158.869816"/>
     <use style="fill:#0000ff;stroke:#0000ff;" x="259.34961" xlink:href="#m6b51504319" y="147.53113"/>
     <use style="fill:#0000ff;stroke:#0000ff;" x="305.728831" xlink:href="#m6b51504319" y="177.420522"/>
     <use style="fill:#0000ff;stroke:#0000ff;" x="352.108052" xlink:href="#m6b51504319" y="193.001572"/>
     <use style="fill:#0000ff;stroke:#0000ff;" x="398.487273" xlink:href="#m6b51504319" y="201.833405"/>
    </g>
   </g>
   <g id="PathCollection_9">
    <g clip-path="url(#pf1c89b915a)">
     <use style="fill:#0000ff;stroke:#0000ff;" x="73.832727" xlink:href="#m6b51504319" y="237.199304"/>
     <use style="fill:#0000ff;stroke:#0000ff;" x="120.211948" xlink:href="#m6b51504319" y="245.066963"/>
     <use style="fill:#0000ff;stroke:#0000ff;" x="166.591169" xlink:href="#m6b51504319" y="223.430901"/>
     <use style="fill:#0000ff;stroke:#0000ff;" x="212.97039" xlink:href="#m6b51504319" y="194.621384"/>
     <use style="fill:#0000ff;stroke:#0000ff;" x="259.34961" xlink:href="#m6b51504319" y="187.640765"/>
     <use style="fill:#0000ff;stroke:#0000ff;" x="305.728831" xlink:href="#m6b51504319" y="212.207917"/>
     <use style="fill:#0000ff;stroke:#0000ff;" x="352.108052" xlink:href="#m6b51504319" y="225.667784"/>
     <use style="fill:#0000ff;stroke:#0000ff;" x="398.487273" xlink:href="#m6b51504319" y="230.720056"/>
    </g>
   </g>
   <g id="PathCollection_10">
    <g clip-path="url(#pf1c89b915a)">
     <use style="fill:#0000ff;stroke:#0000ff;" x="73.832727" xlink:href="#m6b51504319" y="219.38137"/>
     <use style="fill:#0000ff;stroke:#0000ff;" x="120.211948" xlink:href="#m6b51504319" y="225.629217"/>
     <use style="fill:#0000ff;stroke:#0000ff;" x="166.591169" xlink:href="#m6b51504319" y="208.042685"/>
     <use style="fill:#0000ff;stroke:#0000ff;" x="212.97039" xlink:href="#m6b51504319" y="183.436967"/>
     <use style="fill:#0000ff;stroke:#0000ff;" x="259.34961" xlink:href="#m6b51504319" y="173.795228"/>
     <use style="fill:#0000ff;stroke:#0000ff;" x="305.728831" xlink:href="#m6b51504319" y="195.161322"/>
     <use style="fill:#0000ff;stroke:#0000ff;" x="352.108052" xlink:href="#m6b51504319" y="206.422873"/>
     <use style="fill:#0000ff;stroke:#0000ff;" x="398.487273" xlink:href="#m6b51504319" y="214.714769"/>
    </g>
   </g>
   <g id="PathCollection_11">
    <g clip-path="url(#pf1c89b915a)">
     <use style="fill:#0000ff;stroke:#0000ff;" x="73.832727" xlink:href="#m6b51504319" y="223.585169"/>
     <use style="fill:#0000ff;stroke:#0000ff;" x="120.211948" xlink:href="#m6b51504319" y="233.805412"/>
     <use style="fill:#0000ff;stroke:#0000ff;" x="166.591169" xlink:href="#m6b51504319" y="209.739631"/>
     <use style="fill:#0000ff;stroke:#0000ff;" x="212.97039" xlink:href="#m6b51504319" y="173.756661"/>
     <use style="fill:#0000ff;stroke:#0000ff;" x="259.34961" xlink:href="#m6b51504319" y="163.729252"/>
     <use style="fill:#0000ff;stroke:#0000ff;" x="305.728831" xlink:href="#m6b51504319" y="193.580077"/>
     <use style="fill:#0000ff;stroke:#0000ff;" x="352.108052" xlink:href="#m6b51504319" y="208.042685"/>
     <use style="fill:#0000ff;stroke:#0000ff;" x="398.487273" xlink:href="#m6b51504319" y="214.560501"/>
    </g>
   </g>
   <g id="PathCollection_12">
    <g clip-path="url(#pf1c89b915a)">
     <use style="fill:#0000ff;stroke:#0000ff;" x="73.832727" xlink:href="#m6b51504319" y="233.149774"/>
     <use style="fill:#0000ff;stroke:#0000ff;" x="120.211948" xlink:href="#m6b51504319" y="239.28192"/>
     <use style="fill:#0000ff;stroke:#0000ff;" x="166.591169" xlink:href="#m6b51504319" y="212.28505"/>
     <use style="fill:#0000ff;stroke:#0000ff;" x="212.97039" xlink:href="#m6b51504319" y="178.808932"/>
     <use style="fill:#0000ff;stroke:#0000ff;" x="259.34961" xlink:href="#m6b51504319" y="172.985322"/>
     <use style="fill:#0000ff;stroke:#0000ff;" x="305.728831" xlink:href="#m6b51504319" y="204.957329"/>
     <use style="fill:#0000ff;stroke:#0000ff;" x="352.108052" xlink:href="#m6b51504319" y="222.312459"/>
     <use style="fill:#0000ff;stroke:#0000ff;" x="398.487273" xlink:href="#m6b51504319" y="230.180118"/>
    </g>
   </g>
   <g id="PathCollection_13">
    <g clip-path="url(#pf1c89b915a)">
     <use style="fill:#0000ff;stroke:#0000ff;" x="73.832727" xlink:href="#m6b51504319" y="228.676007"/>
     <use style="fill:#0000ff;stroke:#0000ff;" x="120.211948" xlink:href="#m6b51504319" y="233.304042"/>
     <use style="fill:#0000ff;stroke:#0000ff;" x="166.591169" xlink:href="#m6b51504319" y="215.871777"/>
     <use style="fill:#0000ff;stroke:#0000ff;" x="212.97039" xlink:href="#m6b51504319" y="184.902511"/>
     <use style="fill:#0000ff;stroke:#0000ff;" x="259.34961" xlink:href="#m6b51504319" y="177.150553"/>
     <use style="fill:#0000ff;stroke:#0000ff;" x="305.728831" xlink:href="#m6b51504319" y="202.450477"/>
     <use style="fill:#0000ff;stroke:#0000ff;" x="352.108052" xlink:href="#m6b51504319" y="216.103179"/>
     <use style="fill:#0000ff;stroke:#0000ff;" x="398.487273" xlink:href="#m6b51504319" y="224.58791"/>
    </g>
   </g>
   <g id="PathCollection_14">
    <g clip-path="url(#pf1c89b915a)">
     <use style="fill:#0000ff;stroke:#0000ff;" x="73.832727" xlink:href="#m6b51504319" y="210.472403"/>
     <use style="fill:#0000ff;stroke:#0000ff;" x="120.211948" xlink:href="#m6b51504319" y="219.882741"/>
     <use style="fill:#0000ff;stroke:#0000ff;" x="166.591169" xlink:href="#m6b51504319" y="196.549732"/>
     <use style="fill:#0000ff;stroke:#0000ff;" x="212.97039" xlink:href="#m6b51504319" y="160.181092"/>
     <use style="fill:#0000ff;stroke:#0000ff;" x="259.34961" xlink:href="#m6b51504319" y="146.991193"/>
     <use style="fill:#0000ff;stroke:#0000ff;" x="305.728831" xlink:href="#m6b51504319" y="178.037593"/>
     <use style="fill:#0000ff;stroke:#0000ff;" x="352.108052" xlink:href="#m6b51504319" y="195.084188"/>
     <use style="fill:#0000ff;stroke:#0000ff;" x="398.487273" xlink:href="#m6b51504319" y="202.219075"/>
    </g>
   </g>
   <g id="PathCollection_15">
    <g clip-path="url(#pf1c89b915a)">
     <use style="fill:#0000ff;stroke:#0000ff;" x="73.832727" xlink:href="#m6b51504319" y="238.973384"/>
     <use style="fill:#0000ff;stroke:#0000ff;" x="120.211948" xlink:href="#m6b51504319" y="247.535249"/>
     <use style="fill:#0000ff;stroke:#0000ff;" x="166.591169" xlink:href="#m6b51504319" y="227.326163"/>
     <use style="fill:#0000ff;stroke:#0000ff;" x="212.97039" xlink:href="#m6b51504319" y="192.65447"/>
     <use style="fill:#0000ff;stroke:#0000ff;" x="259.34961" xlink:href="#m6b51504319" y="184.555409"/>
     <use style="fill:#0000ff;stroke:#0000ff;" x="305.728831" xlink:href="#m6b51504319" y="210.163868"/>
     <use style="fill:#0000ff;stroke:#0000ff;" x="352.108052" xlink:href="#m6b51504319" y="227.441864"/>
     <use style="fill:#0000ff;stroke:#0000ff;" x="398.487273" xlink:href="#m6b51504319" y="232.1856"/>
    </g>
   </g>
   <g id="matplotlib.axis_1">
    <g id="xtick_1">
     <g id="line2d_1">
      <defs>
       <path d="M 0 0 
L 0 3.5 
" id="m31dbe2a992" style="stroke:#000000;stroke-width:0.8;"/>
      </defs>
      <g>
       <use style="stroke:#000000;stroke-width:0.8;" x="120.211948" xlink:href="#m31dbe2a992" y="307.584"/>
      </g>
     </g>
     <g id="text_1">
      <!-- 5 -->
      <g transform="translate(117.030698 322.182437)scale(0.1 -0.1)">
       <defs>
        <path d="M 10.796875 72.90625 
L 49.515625 72.90625 
L 49.515625 64.59375 
L 19.828125 64.59375 
L 19.828125 46.734375 
Q 21.96875 47.46875 24.109375 47.828125 
Q 26.265625 48.1875 28.421875 48.1875 
Q 40.625 48.1875 47.75 41.5 
Q 54.890625 34.8125 54.890625 23.390625 
Q 54.890625 11.625 47.5625 5.09375 
Q 40.234375 -1.421875 26.90625 -1.421875 
Q 22.3125 -1.421875 17.546875 -0.640625 
Q 12.796875 0.140625 7.71875 1.703125 
L 7.71875 11.625 
Q 12.109375 9.234375 16.796875 8.0625 
Q 21.484375 6.890625 26.703125 6.890625 
Q 35.15625 6.890625 40.078125 11.328125 
Q 45.015625 15.765625 45.015625 23.390625 
Q 45.015625 31 40.078125 35.4375 
Q 35.15625 39.890625 26.703125 39.890625 
Q 22.75 39.890625 18.8125 39.015625 
Q 14.890625 38.140625 10.796875 36.28125 
z
" id="DejaVuSans-53"/>
       </defs>
       <use xlink:href="#DejaVuSans-53"/>
      </g>
     </g>
    </g>
    <g id="xtick_2">
     <g id="line2d_2">
      <g>
       <use style="stroke:#000000;stroke-width:0.8;" x="197.510649" xlink:href="#m31dbe2a992" y="307.584"/>
      </g>
     </g>
     <g id="text_2">
      <!-- 10 -->
      <g transform="translate(191.148149 322.182437)scale(0.1 -0.1)">
       <defs>
        <path d="M 12.40625 8.296875 
L 28.515625 8.296875 
L 28.515625 63.921875 
L 10.984375 60.40625 
L 10.984375 69.390625 
L 28.421875 72.90625 
L 38.28125 72.90625 
L 38.28125 8.296875 
L 54.390625 8.296875 
L 54.390625 0 
L 12.40625 0 
z
" id="DejaVuSans-49"/>
        <path d="M 31.78125 66.40625 
Q 24.171875 66.40625 20.328125 58.90625 
Q 16.5 51.421875 16.5 36.375 
Q 16.5 21.390625 20.328125 13.890625 
Q 24.171875 6.390625 31.78125 6.390625 
Q 39.453125 6.390625 43.28125 13.890625 
Q 47.125 21.390625 47.125 36.375 
Q 47.125 51.421875 43.28125 58.90625 
Q 39.453125 66.40625 31.78125 66.40625 
z
M 31.78125 74.21875 
Q 44.046875 74.21875 50.515625 64.515625 
Q 56.984375 54.828125 56.984375 36.375 
Q 56.984375 17.96875 50.515625 8.265625 
Q 44.046875 -1.421875 31.78125 -1.421875 
Q 19.53125 -1.421875 13.0625 8.265625 
Q 6.59375 17.96875 6.59375 36.375 
Q 6.59375 54.828125 13.0625 64.515625 
Q 19.53125 74.21875 31.78125 74.21875 
z
" id="DejaVuSans-48"/>
       </defs>
       <use xlink:href="#DejaVuSans-49"/>
       <use x="63.623047" xlink:href="#DejaVuSans-48"/>
      </g>
     </g>
    </g>
    <g id="xtick_3">
     <g id="line2d_3">
      <g>
       <use style="stroke:#000000;stroke-width:0.8;" x="274.809351" xlink:href="#m31dbe2a992" y="307.584"/>
      </g>
     </g>
     <g id="text_3">
      <!-- 15 -->
      <g transform="translate(268.446851 322.182437)scale(0.1 -0.1)">
       <use xlink:href="#DejaVuSans-49"/>
       <use x="63.623047" xlink:href="#DejaVuSans-53"/>
      </g>
     </g>
    </g>
    <g id="xtick_4">
     <g id="line2d_4">
      <g>
       <use style="stroke:#000000;stroke-width:0.8;" x="352.108052" xlink:href="#m31dbe2a992" y="307.584"/>
      </g>
     </g>
     <g id="text_4">
      <!-- 20 -->
      <g transform="translate(345.745552 322.182437)scale(0.1 -0.1)">
       <defs>
        <path d="M 19.1875 8.296875 
L 53.609375 8.296875 
L 53.609375 0 
L 7.328125 0 
L 7.328125 8.296875 
Q 12.9375 14.109375 22.625 23.890625 
Q 32.328125 33.6875 34.8125 36.53125 
Q 39.546875 41.84375 41.421875 45.53125 
Q 43.3125 49.21875 43.3125 52.78125 
Q 43.3125 58.59375 39.234375 62.25 
Q 35.15625 65.921875 28.609375 65.921875 
Q 23.96875 65.921875 18.8125 64.3125 
Q 13.671875 62.703125 7.8125 59.421875 
L 7.8125 69.390625 
Q 13.765625 71.78125 18.9375 73 
Q 24.125 74.21875 28.421875 74.21875 
Q 39.75 74.21875 46.484375 68.546875 
Q 53.21875 62.890625 53.21875 53.421875 
Q 53.21875 48.921875 51.53125 44.890625 
Q 49.859375 40.875 45.40625 35.40625 
Q 44.1875 33.984375 37.640625 27.21875 
Q 31.109375 20.453125 19.1875 8.296875 
z
" id="DejaVuSans-50"/>
       </defs>
       <use xlink:href="#DejaVuSans-50"/>
       <use x="63.623047" xlink:href="#DejaVuSans-48"/>
      </g>
     </g>
    </g>
   </g>
   <g id="matplotlib.axis_2">
    <g id="ytick_1">
     <g id="line2d_5">
      <defs>
       <path d="M 0 0 
L -3.5 0 
" id="m2c278baf89" style="stroke:#000000;stroke-width:0.8;"/>
      </defs>
      <g>
       <use style="stroke:#000000;stroke-width:0.8;" x="57.6" xlink:href="#m2c278baf89" y="272.873739"/>
      </g>
     </g>
     <g id="text_5">
      <!-- 10 -->
      <g transform="translate(37.875 276.672958)scale(0.1 -0.1)">
       <use xlink:href="#DejaVuSans-49"/>
       <use x="63.623047" xlink:href="#DejaVuSans-48"/>
      </g>
     </g>
    </g>
    <g id="ytick_2">
     <g id="line2d_6">
      <g>
       <use style="stroke:#000000;stroke-width:0.8;" x="57.6" xlink:href="#m2c278baf89" y="215.023304"/>
      </g>
     </g>
     <g id="text_6">
      <!-- 15 -->
      <g transform="translate(37.875 218.822523)scale(0.1 -0.1)">
       <use xlink:href="#DejaVuSans-49"/>
       <use x="63.623047" xlink:href="#DejaVuSans-53"/>
      </g>
     </g>
    </g>
    <g id="ytick_3">
     <g id="line2d_7">
      <g>
       <use style="stroke:#000000;stroke-width:0.8;" x="57.6" xlink:href="#m2c278baf89" y="157.17287"/>
      </g>
     </g>
     <g id="text_7">
      <!-- 20 -->
      <g transform="translate(37.875 160.972088)scale(0.1 -0.1)">
       <use xlink:href="#DejaVuSans-50"/>
       <use x="63.623047" xlink:href="#DejaVuSans-48"/>
      </g>
     </g>
    </g>
    <g id="ytick_4">
     <g id="line2d_8">
      <g>
       <use style="stroke:#000000;stroke-width:0.8;" x="57.6" xlink:href="#m2c278baf89" y="99.322435"/>
      </g>
     </g>
     <g id="text_8">
      <!-- 25 -->
      <g transform="translate(37.875 103.121654)scale(0.1 -0.1)">
       <use xlink:href="#DejaVuSans-50"/>
       <use x="63.623047" xlink:href="#DejaVuSans-53"/>
      </g>
     </g>
    </g>
    <g id="ytick_5">
     <g id="line2d_9">
      <g>
       <use style="stroke:#000000;stroke-width:0.8;" x="57.6" xlink:href="#m2c278baf89" y="41.472"/>
      </g>
     </g>
     <g id="text_9">
      <!-- 30 -->
      <g transform="translate(37.875 45.271219)scale(0.1 -0.1)">
       <defs>
        <path d="M 40.578125 39.3125 
Q 47.65625 37.796875 51.625 33 
Q 55.609375 28.21875 55.609375 21.1875 
Q 55.609375 10.40625 48.1875 4.484375 
Q 40.765625 -1.421875 27.09375 -1.421875 
Q 22.515625 -1.421875 17.65625 -0.515625 
Q 12.796875 0.390625 7.625 2.203125 
L 7.625 11.71875 
Q 11.71875 9.328125 16.59375 8.109375 
Q 21.484375 6.890625 26.8125 6.890625 
Q 36.078125 6.890625 40.9375 10.546875 
Q 45.796875 14.203125 45.796875 21.1875 
Q 45.796875 27.640625 41.28125 31.265625 
Q 36.765625 34.90625 28.71875 34.90625 
L 20.21875 34.90625 
L 20.21875 43.015625 
L 29.109375 43.015625 
Q 36.375 43.015625 40.234375 45.921875 
Q 44.09375 48.828125 44.09375 54.296875 
Q 44.09375 59.90625 40.109375 62.90625 
Q 36.140625 65.921875 28.71875 65.921875 
Q 24.65625 65.921875 20.015625 65.03125 
Q 15.375 64.15625 9.8125 62.3125 
L 9.8125 71.09375 
Q 15.4375 72.65625 20.34375 73.4375 
Q 25.25 74.21875 29.59375 74.21875 
Q 40.828125 74.21875 47.359375 69.109375 
Q 53.90625 64.015625 53.90625 55.328125 
Q 53.90625 49.265625 50.4375 45.09375 
Q 46.96875 40.921875 40.578125 39.3125 
z
" id="DejaVuSans-51"/>
       </defs>
       <use xlink:href="#DejaVuSans-51"/>
       <use x="63.623047" xlink:href="#DejaVuSans-48"/>
      </g>
     </g>
    </g>
   </g>
   <g id="line2d_10">
    <path clip-path="url(#pf1c89b915a)" d="M 73.832727 232.755339 
L 77.112066 231.632308 
L 80.391405 230.500923 
L 83.670744 229.362114 
L 86.950083 228.216811 
L 90.229421 227.065944 
L 93.50876 225.910444 
L 96.788099 224.751239 
L 100.067438 223.589261 
L 103.346777 222.425439 
L 106.626116 221.260703 
L 109.905455 220.095983 
L 113.184793 218.932209 
L 116.464132 217.77031 
L 119.743471 216.611218 
L 123.02281 215.455862 
L 126.302149 214.305172 
L 129.581488 213.160077 
L 132.860826 212.021509 
L 136.140165 210.890396 
L 139.419504 209.767669 
L 142.698843 208.654258 
L 145.978182 207.551093 
L 149.257521 206.459103 
L 152.53686 205.37922 
L 155.816198 204.312372 
L 159.095537 203.259489 
L 162.374876 202.221503 
L 165.654215 201.199341 
L 168.933554 200.193936 
L 172.212893 199.206216 
L 175.492231 198.237112 
L 178.77157 197.287553 
L 182.050909 196.35847 
L 185.330248 195.450792 
L 188.609587 194.56545 
L 191.888926 193.703373 
L 195.168264 192.865492 
L 198.447603 192.052736 
L 201.726942 191.266036 
L 205.006281 190.506321 
L 208.28562 189.774521 
L 211.564959 189.071566 
L 214.844298 188.398387 
L 218.123636 187.755914 
L 221.402975 187.145075 
L 224.682314 186.566802 
L 227.961653 186.022023 
L 231.240992 185.51167 
L 234.520331 185.036673 
L 237.799669 184.59796 
L 241.079008 184.196463 
L 244.358347 183.83311 
L 247.637686 183.508833 
L 250.917025 183.22456 
L 254.196364 182.981223 
L 257.475702 182.779751 
L 260.755041 182.621074 
L 264.03438 182.506121 
L 267.313719 182.435824 
L 270.593058 182.411112 
L 273.872397 182.432914 
L 277.151736 182.502161 
L 280.431074 182.619784 
L 283.710413 182.786711 
L 286.989752 183.003872 
L 290.269091 183.272199 
L 293.54843 183.59262 
L 296.827769 183.966066 
L 300.107107 184.393467 
L 303.386446 184.875753 
L 306.665785 185.413853 
L 309.945124 186.008698 
L 313.224463 186.661217 
L 316.503802 187.372341 
L 319.78314 188.143 
L 323.062479 188.974123 
L 326.341818 189.866641 
L 329.621157 190.821483 
L 332.900496 191.839579 
L 336.179835 192.921861 
L 339.459174 194.069256 
L 342.738512 195.282696 
L 346.017851 196.563111 
L 349.29719 197.911429 
L 352.576529 199.328582 
L 355.855868 200.8155 
L 359.135207 202.373112 
L 362.414545 204.002348 
L 365.693884 205.704138 
L 368.973223 207.479412 
L 372.252562 209.329101 
L 375.531901 211.254134 
L 378.81124 213.255441 
L 382.090579 215.333952 
L 385.369917 217.490598 
L 388.649256 219.726307 
L 391.928595 222.042011 
L 395.207934 224.438638 
L 398.487273 226.91712 
" style="fill:none;stroke:#1f77b4;stroke-linecap:square;stroke-width:1.5;"/>
   </g>
   <g id="patch_3">
    <path d="M 57.6 307.584 
L 57.6 41.472 
" style="fill:none;stroke:#000000;stroke-linecap:square;stroke-linejoin:miter;stroke-width:0.8;"/>
   </g>
   <g id="patch_4">
    <path d="M 414.72 307.584 
L 414.72 41.472 
" style="fill:none;stroke:#000000;stroke-linecap:square;stroke-linejoin:miter;stroke-width:0.8;"/>
   </g>
   <g id="patch_5">
    <path d="M 57.6 307.584 
L 414.72 307.584 
" style="fill:none;stroke:#000000;stroke-linecap:square;stroke-linejoin:miter;stroke-width:0.8;"/>
   </g>
   <g id="patch_6">
    <path d="M 57.6 41.472 
L 414.72 41.472 
" style="fill:none;stroke:#000000;stroke-linecap:square;stroke-linejoin:miter;stroke-width:0.8;"/>
   </g>
  </g>
 </g>
 <defs>
  <clipPath id="pf1c89b915a">
   <rect height="266.112" width="357.12" x="57.6" y="41.472"/>
  </clipPath>
 </defs>
</svg>
