<?xml version="1.0" encoding="utf-8" standalone="no"?>
<!DOCTYPE svg PUBLIC "-//W3C//DTD SVG 1.1//EN"
  "http://www.w3.org/Graphics/SVG/1.1/DTD/svg11.dtd">
<!-- Created with matplotlib (https://matplotlib.org/) -->
<svg height="345.6pt" version="1.1" viewBox="0 0 460.8 345.6" width="460.8pt" xmlns="http://www.w3.org/2000/svg" xmlns:xlink="http://www.w3.org/1999/xlink">
 <metadata>
  <rdf:RDF xmlns:cc="http://creativecommons.org/ns#" xmlns:dc="http://purl.org/dc/elements/1.1/" xmlns:rdf="http://www.w3.org/1999/02/22-rdf-syntax-ns#">
   <cc:Work>
    <dc:type rdf:resource="http://purl.org/dc/dcmitype/StillImage"/>
    <dc:date>2021-11-24T17:22:58.333173</dc:date>
    <dc:format>image/svg+xml</dc:format>
    <dc:creator>
     <cc:Agent>
      <dc:title>Matplotlib v3.3.4, https://matplotlib.org/</dc:title>
     </cc:Agent>
    </dc:creator>
   </cc:Work>
  </rdf:RDF>
 </metadata>
 <defs>
  <style type="text/css">*{stroke-linecap:butt;stroke-linejoin:round;}</style>
 </defs>
 <g id="figure_1">
  <g id="patch_1">
   <path d="M 0 345.6 
L 460.8 345.6 
L 460.8 0 
L 0 0 
z
" style="fill:#ffffff;"/>
  </g>
  <g id="axes_1">
   <g id="patch_2">
    <path d="M 57.6 307.584 
L 414.72 307.584 
L 414.72 41.472 
L 57.6 41.472 
z
" style="fill:#ffffff;"/>
   </g>
   <g id="PathCollection_1">
    <defs>
     <path d="M 0 0.5 
C 0.132602 0.5 0.25979 0.447317 0.353553 0.353553 
C 0.447317 0.25979 0.5 0.132602 0.5 0 
C 0.5 -0.132602 0.447317 -0.25979 0.353553 -0.353553 
C 0.25979 -0.447317 0.132602 -0.5 0 -0.5 
C -0.132602 -0.5 -0.25979 -0.447317 -0.353553 -0.353553 
C -0.447317 -0.25979 -0.5 -0.132602 -0.5 0 
C -0.5 0.132602 -0.447317 0.25979 -0.353553 0.353553 
C -0.25979 0.447317 -0.132602 0.5 0 0.5 
z
" id="m9545f252e0" style="stroke:#0000ff;"/>
    </defs>
    <g clip-path="url(#p3f8ea26545)">
     <use style="fill:#0000ff;stroke:#0000ff;" x="73.832727" xlink:href="#m9545f252e0" y="238.973384"/>
     <use style="fill:#0000ff;stroke:#0000ff;" x="120.211948" xlink:href="#m9545f252e0" y="247.535249"/>
     <use style="fill:#0000ff;stroke:#0000ff;" x="166.591169" xlink:href="#m9545f252e0" y="227.326163"/>
     <use style="fill:#0000ff;stroke:#0000ff;" x="212.97039" xlink:href="#m9545f252e0" y="192.65447"/>
     <use style="fill:#0000ff;stroke:#0000ff;" x="259.34961" xlink:href="#m9545f252e0" y="184.555409"/>
     <use style="fill:#0000ff;stroke:#0000ff;" x="305.728831" xlink:href="#m9545f252e0" y="210.163868"/>
     <use style="fill:#0000ff;stroke:#0000ff;" x="352.108052" xlink:href="#m9545f252e0" y="227.441864"/>
     <use style="fill:#0000ff;stroke:#0000ff;" x="398.487273" xlink:href="#m9545f252e0" y="232.1856"/>
    </g>
   </g>
   <g id="PathCollection_2">
    <g clip-path="url(#p3f8ea26545)">
     <use style="fill:#0000ff;stroke:#0000ff;" x="73.832727" xlink:href="#m9545f252e0" y="227.094762"/>
     <use style="fill:#0000ff;stroke:#0000ff;" x="120.211948" xlink:href="#m9545f252e0" y="233.034073"/>
     <use style="fill:#0000ff;stroke:#0000ff;" x="166.591169" xlink:href="#m9545f252e0" y="209.199694"/>
     <use style="fill:#0000ff;stroke:#0000ff;" x="212.97039" xlink:href="#m9545f252e0" y="174.219464"/>
     <use style="fill:#0000ff;stroke:#0000ff;" x="259.34961" xlink:href="#m9545f252e0" y="166.197537"/>
     <use style="fill:#0000ff;stroke:#0000ff;" x="305.728831" xlink:href="#m9545f252e0" y="199.326553"/>
     <use style="fill:#0000ff;stroke:#0000ff;" x="352.108052" xlink:href="#m9545f252e0" y="218.687165"/>
     <use style="fill:#0000ff;stroke:#0000ff;" x="398.487273" xlink:href="#m9545f252e0" y="223.508035"/>
    </g>
   </g>
   <g id="PathCollection_3">
    <g clip-path="url(#p3f8ea26545)">
     <use style="fill:#0000ff;stroke:#0000ff;" x="73.832727" xlink:href="#m9545f252e0" y="219.612772"/>
     <use style="fill:#0000ff;stroke:#0000ff;" x="120.211948" xlink:href="#m9545f252e0" y="226.169155"/>
     <use style="fill:#0000ff;stroke:#0000ff;" x="166.591169" xlink:href="#m9545f252e0" y="202.450477"/>
     <use style="fill:#0000ff;stroke:#0000ff;" x="212.97039" xlink:href="#m9545f252e0" y="168.395854"/>
     <use style="fill:#0000ff;stroke:#0000ff;" x="259.34961" xlink:href="#m9545f252e0" y="158.908383"/>
     <use style="fill:#0000ff;stroke:#0000ff;" x="305.728831" xlink:href="#m9545f252e0" y="189.569113"/>
     <use style="fill:#0000ff;stroke:#0000ff;" x="352.108052" xlink:href="#m9545f252e0" y="206.96281"/>
     <use style="fill:#0000ff;stroke:#0000ff;" x="398.487273" xlink:href="#m9545f252e0" y="214.869037"/>
    </g>
   </g>
   <g id="PathCollection_4">
    <g clip-path="url(#p3f8ea26545)">
     <use style="fill:#0000ff;stroke:#0000ff;" x="73.832727" xlink:href="#m9545f252e0" y="235.926595"/>
     <use style="fill:#0000ff;stroke:#0000ff;" x="120.211948" xlink:href="#m9545f252e0" y="244.21849"/>
     <use style="fill:#0000ff;stroke:#0000ff;" x="166.591169" xlink:href="#m9545f252e0" y="220.114143"/>
     <use style="fill:#0000ff;stroke:#0000ff;" x="212.97039" xlink:href="#m9545f252e0" y="186.676591"/>
     <use style="fill:#0000ff;stroke:#0000ff;" x="259.34961" xlink:href="#m9545f252e0" y="180.004508"/>
     <use style="fill:#0000ff;stroke:#0000ff;" x="305.728831" xlink:href="#m9545f252e0" y="208.004118"/>
     <use style="fill:#0000ff;stroke:#0000ff;" x="352.108052" xlink:href="#m9545f252e0" y="224.047972"/>
     <use style="fill:#0000ff;stroke:#0000ff;" x="398.487273" xlink:href="#m9545f252e0" y="230.758623"/>
    </g>
   </g>
   <g id="PathCollection_5">
    <g clip-path="url(#p3f8ea26545)">
     <use style="fill:#0000ff;stroke:#0000ff;" x="73.832727" xlink:href="#m9545f252e0" y="180.698713"/>
     <use style="fill:#0000ff;stroke:#0000ff;" x="120.211948" xlink:href="#m9545f252e0" y="189.800515"/>
     <use style="fill:#0000ff;stroke:#0000ff;" x="166.591169" xlink:href="#m9545f252e0" y="161.299534"/>
     <use style="fill:#0000ff;stroke:#0000ff;" x="212.97039" xlink:href="#m9545f252e0" y="118.64448"/>
     <use style="fill:#0000ff;stroke:#0000ff;" x="259.34961" xlink:href="#m9545f252e0" y="105.416014"/>
     <use style="fill:#0000ff;stroke:#0000ff;" x="305.728831" xlink:href="#m9545f252e0" y="147.993934"/>
     <use style="fill:#0000ff;stroke:#0000ff;" x="352.108052" xlink:href="#m9545f252e0" y="166.390372"/>
     <use style="fill:#0000ff;stroke:#0000ff;" x="398.487273" xlink:href="#m9545f252e0" y="172.75392"/>
    </g>
   </g>
   <g id="PathCollection_6">
    <g clip-path="url(#p3f8ea26545)">
     <use style="fill:#0000ff;stroke:#0000ff;" x="73.832727" xlink:href="#m9545f252e0" y="265.546017"/>
     <use style="fill:#0000ff;stroke:#0000ff;" x="120.211948" xlink:href="#m9545f252e0" y="269.171311"/>
     <use style="fill:#0000ff;stroke:#0000ff;" x="166.591169" xlink:href="#m9545f252e0" y="246.416807"/>
     <use style="fill:#0000ff;stroke:#0000ff;" x="212.97039" xlink:href="#m9545f252e0" y="219.38137"/>
     <use style="fill:#0000ff;stroke:#0000ff;" x="259.34961" xlink:href="#m9545f252e0" y="212.979256"/>
     <use style="fill:#0000ff;stroke:#0000ff;" x="305.728831" xlink:href="#m9545f252e0" y="236.042296"/>
     <use style="fill:#0000ff;stroke:#0000ff;" x="352.108052" xlink:href="#m9545f252e0" y="253.011757"/>
     <use style="fill:#0000ff;stroke:#0000ff;" x="398.487273" xlink:href="#m9545f252e0" y="261.265085"/>
    </g>
   </g>
   <g id="PathCollection_7">
    <g clip-path="url(#p3f8ea26545)">
     <use style="fill:#0000ff;stroke:#0000ff;" x="73.832727" xlink:href="#m9545f252e0" y="210.780939"/>
     <use style="fill:#0000ff;stroke:#0000ff;" x="120.211948" xlink:href="#m9545f252e0" y="216.064612"/>
     <use style="fill:#0000ff;stroke:#0000ff;" x="166.591169" xlink:href="#m9545f252e0" y="197.08967"/>
     <use style="fill:#0000ff;stroke:#0000ff;" x="212.97039" xlink:href="#m9545f252e0" y="162.148007"/>
     <use style="fill:#0000ff;stroke:#0000ff;" x="259.34961" xlink:href="#m9545f252e0" y="159.641155"/>
     <use style="fill:#0000ff;stroke:#0000ff;" x="305.728831" xlink:href="#m9545f252e0" y="188.296403"/>
     <use style="fill:#0000ff;stroke:#0000ff;" x="352.108052" xlink:href="#m9545f252e0" y="201.756271"/>
     <use style="fill:#0000ff;stroke:#0000ff;" x="398.487273" xlink:href="#m9545f252e0" y="209.12256"/>
    </g>
   </g>
   <g id="PathCollection_8">
    <g clip-path="url(#p3f8ea26545)">
     <use style="fill:#0000ff;stroke:#0000ff;" x="73.832727" xlink:href="#m9545f252e0" y="207.078511"/>
     <use style="fill:#0000ff;stroke:#0000ff;" x="120.211948" xlink:href="#m9545f252e0" y="211.822247"/>
     <use style="fill:#0000ff;stroke:#0000ff;" x="166.591169" xlink:href="#m9545f252e0" y="191.728863"/>
     <use style="fill:#0000ff;stroke:#0000ff;" x="212.97039" xlink:href="#m9545f252e0" y="158.869816"/>
     <use style="fill:#0000ff;stroke:#0000ff;" x="259.34961" xlink:href="#m9545f252e0" y="147.53113"/>
     <use style="fill:#0000ff;stroke:#0000ff;" x="305.728831" xlink:href="#m9545f252e0" y="177.420522"/>
     <use style="fill:#0000ff;stroke:#0000ff;" x="352.108052" xlink:href="#m9545f252e0" y="193.001572"/>
     <use style="fill:#0000ff;stroke:#0000ff;" x="398.487273" xlink:href="#m9545f252e0" y="201.833405"/>
    </g>
   </g>
   <g id="PathCollection_9">
    <g clip-path="url(#p3f8ea26545)">
     <use style="fill:#0000ff;stroke:#0000ff;" x="73.832727" xlink:href="#m9545f252e0" y="237.199304"/>
     <use style="fill:#0000ff;stroke:#0000ff;" x="120.211948" xlink:href="#m9545f252e0" y="245.066963"/>
     <use style="fill:#0000ff;stroke:#0000ff;" x="166.591169" xlink:href="#m9545f252e0" y="223.430901"/>
     <use style="fill:#0000ff;stroke:#0000ff;" x="212.97039" xlink:href="#m9545f252e0" y="194.621384"/>
     <use style="fill:#0000ff;stroke:#0000ff;" x="259.34961" xlink:href="#m9545f252e0" y="187.640765"/>
     <use style="fill:#0000ff;stroke:#0000ff;" x="305.728831" xlink:href="#m9545f252e0" y="212.207917"/>
     <use style="fill:#0000ff;stroke:#0000ff;" x="352.108052" xlink:href="#m9545f252e0" y="225.667784"/>
     <use style="fill:#0000ff;stroke:#0000ff;" x="398.487273" xlink:href="#m9545f252e0" y="230.720056"/>
    </g>
   </g>
   <g id="PathCollection_10">
    <g clip-path="url(#p3f8ea26545)">
     <use style="fill:#0000ff;stroke:#0000ff;" x="73.832727" xlink:href="#m9545f252e0" y="219.38137"/>
     <use style="fill:#0000ff;stroke:#0000ff;" x="120.211948" xlink:href="#m9545f252e0" y="225.629217"/>
     <use style="fill:#0000ff;stroke:#0000ff;" x="166.591169" xlink:href="#m9545f252e0" y="208.042685"/>
     <use style="fill:#0000ff;stroke:#0000ff;" x="212.97039" xlink:href="#m9545f252e0" y="183.436967"/>
     <use style="fill:#0000ff;stroke:#0000ff;" x="259.34961" xlink:href="#m9545f252e0" y="173.795228"/>
     <use style="fill:#0000ff;stroke:#0000ff;" x="305.728831" xlink:href="#m9545f252e0" y="195.161322"/>
     <use style="fill:#0000ff;stroke:#0000ff;" x="352.108052" xlink:href="#m9545f252e0" y="206.422873"/>
     <use style="fill:#0000ff;stroke:#0000ff;" x="398.487273" xlink:href="#m9545f252e0" y="214.714769"/>
    </g>
   </g>
   <g id="PathCollection_11">
    <g clip-path="url(#p3f8ea26545)">
     <use style="fill:#0000ff;stroke:#0000ff;" x="73.832727" xlink:href="#m9545f252e0" y="223.585169"/>
     <use style="fill:#0000ff;stroke:#0000ff;" x="120.211948" xlink:href="#m9545f252e0" y="233.805412"/>
     <use style="fill:#0000ff;stroke:#0000ff;" x="166.591169" xlink:href="#m9545f252e0" y="209.739631"/>
     <use style="fill:#0000ff;stroke:#0000ff;" x="212.97039" xlink:href="#m9545f252e0" y="173.756661"/>
     <use style="fill:#0000ff;stroke:#0000ff;" x="259.34961" xlink:href="#m9545f252e0" y="163.729252"/>
     <use style="fill:#0000ff;stroke:#0000ff;" x="305.728831" xlink:href="#m9545f252e0" y="193.580077"/>
     <use style="fill:#0000ff;stroke:#0000ff;" x="352.108052" xlink:href="#m9545f252e0" y="208.042685"/>
     <use style="fill:#0000ff;stroke:#0000ff;" x="398.487273" xlink:href="#m9545f252e0" y="214.560501"/>
    </g>
   </g>
   <g id="PathCollection_12">
    <g clip-path="url(#p3f8ea26545)">
     <use style="fill:#0000ff;stroke:#0000ff;" x="73.832727" xlink:href="#m9545f252e0" y="233.149774"/>
     <use style="fill:#0000ff;stroke:#0000ff;" x="120.211948" xlink:href="#m9545f252e0" y="239.28192"/>
     <use style="fill:#0000ff;stroke:#0000ff;" x="166.591169" xlink:href="#m9545f252e0" y="212.28505"/>
     <use style="fill:#0000ff;stroke:#0000ff;" x="212.97039" xlink:href="#m9545f252e0" y="178.808932"/>
     <use style="fill:#0000ff;stroke:#0000ff;" x="259.34961" xlink:href="#m9545f252e0" y="172.985322"/>
     <use style="fill:#0000ff;stroke:#0000ff;" x="305.728831" xlink:href="#m9545f252e0" y="204.957329"/>
     <use style="fill:#0000ff;stroke:#0000ff;" x="352.108052" xlink:href="#m9545f252e0" y="222.312459"/>
     <use style="fill:#0000ff;stroke:#0000ff;" x="398.487273" xlink:href="#m9545f252e0" y="230.180118"/>
    </g>
   </g>
   <g id="PathCollection_13">
    <g clip-path="url(#p3f8ea26545)">
     <use style="fill:#0000ff;stroke:#0000ff;" x="73.832727" xlink:href="#m9545f252e0" y="228.676007"/>
     <use style="fill:#0000ff;stroke:#0000ff;" x="120.211948" xlink:href="#m9545f252e0" y="233.304042"/>
     <use style="fill:#0000ff;stroke:#0000ff;" x="166.591169" xlink:href="#m9545f252e0" y="215.871777"/>
     <use style="fill:#0000ff;stroke:#0000ff;" x="212.97039" xlink:href="#m9545f252e0" y="184.902511"/>
     <use style="fill:#0000ff;stroke:#0000ff;" x="259.34961" xlink:href="#m9545f252e0" y="177.150553"/>
     <use style="fill:#0000ff;stroke:#0000ff;" x="305.728831" xlink:href="#m9545f252e0" y="202.450477"/>
     <use style="fill:#0000ff;stroke:#0000ff;" x="352.108052" xlink:href="#m9545f252e0" y="216.103179"/>
     <use style="fill:#0000ff;stroke:#0000ff;" x="398.487273" xlink:href="#m9545f252e0" y="224.58791"/>
    </g>
   </g>
   <g id="PathCollection_14">
    <g clip-path="url(#p3f8ea26545)">
     <use style="fill:#0000ff;stroke:#0000ff;" x="73.832727" xlink:href="#m9545f252e0" y="210.472403"/>
     <use style="fill:#0000ff;stroke:#0000ff;" x="120.211948" xlink:href="#m9545f252e0" y="219.882741"/>
     <use style="fill:#0000ff;stroke:#0000ff;" x="166.591169" xlink:href="#m9545f252e0" y="196.549732"/>
     <use style="fill:#0000ff;stroke:#0000ff;" x="212.97039" xlink:href="#m9545f252e0" y="160.181092"/>
     <use style="fill:#0000ff;stroke:#0000ff;" x="259.34961" xlink:href="#m9545f252e0" y="146.991193"/>
     <use style="fill:#0000ff;stroke:#0000ff;" x="305.728831" xlink:href="#m9545f252e0" y="178.037593"/>
     <use style="fill:#0000ff;stroke:#0000ff;" x="352.108052" xlink:href="#m9545f252e0" y="195.084188"/>
     <use style="fill:#0000ff;stroke:#0000ff;" x="398.487273" xlink:href="#m9545f252e0" y="202.219075"/>
    </g>
   </g>
   <g id="PathCollection_15">
    <g clip-path="url(#p3f8ea26545)">
     <use style="fill:#0000ff;stroke:#0000ff;" x="73.832727" xlink:href="#m9545f252e0" y="238.973384"/>
     <use style="fill:#0000ff;stroke:#0000ff;" x="120.211948" xlink:href="#m9545f252e0" y="247.535249"/>
     <use style="fill:#0000ff;stroke:#0000ff;" x="166.591169" xlink:href="#m9545f252e0" y="227.326163"/>
     <use style="fill:#0000ff;stroke:#0000ff;" x="212.97039" xlink:href="#m9545f252e0" y="192.65447"/>
     <use style="fill:#0000ff;stroke:#0000ff;" x="259.34961" xlink:href="#m9545f252e0" y="184.555409"/>
     <use style="fill:#0000ff;stroke:#0000ff;" x="305.728831" xlink:href="#m9545f252e0" y="210.163868"/>
     <use style="fill:#0000ff;stroke:#0000ff;" x="352.108052" xlink:href="#m9545f252e0" y="227.441864"/>
     <use style="fill:#0000ff;stroke:#0000ff;" x="398.487273" xlink:href="#m9545f252e0" y="232.1856"/>
    </g>
   </g>
   <g id="PolyCollection_1">
    <path clip-path="url(#p3f8ea26545)" d="M 73.832727 199.858888 
L 73.832727 237.46043 
L 77.112066 236.990648 
L 80.391405 236.530939 
L 83.670744 236.081154 
L 86.950083 235.641152 
L 90.229421 235.210795 
L 93.50876 234.789952 
L 96.788099 234.378497 
L 100.067438 233.976311 
L 103.346777 233.583277 
L 106.626116 233.199285 
L 109.905455 232.82423 
L 113.184793 232.458011 
L 116.464132 232.100531 
L 119.743471 231.751699 
L 123.02281 231.411425 
L 126.302149 231.079628 
L 129.581488 230.756226 
L 132.860826 230.441144 
L 136.140165 230.134309 
L 139.419504 229.835653 
L 142.698843 229.54511 
L 145.978182 229.262617 
L 149.257521 228.988116 
L 152.53686 228.721552 
L 155.816198 228.462869 
L 159.095537 228.21202 
L 162.374876 227.968956 
L 165.654215 227.733632 
L 168.933554 227.506007 
L 172.212893 227.286041 
L 175.492231 227.073697 
L 178.77157 226.868941 
L 182.050909 226.671739 
L 185.330248 226.482061 
L 188.609587 226.29988 
L 191.888926 226.125169 
L 195.168264 225.957905 
L 198.447603 225.798065 
L 201.726942 225.645631 
L 205.006281 225.500584 
L 208.28562 225.362907 
L 211.564959 225.232588 
L 214.844298 225.109613 
L 218.123636 224.993972 
L 221.402975 224.885656 
L 224.682314 224.784658 
L 227.961653 224.690974 
L 231.240992 224.604599 
L 234.520331 224.525532 
L 237.799669 224.453773 
L 241.079008 224.389323 
L 244.358347 224.332185 
L 247.637686 224.282366 
L 250.917025 224.239871 
L 254.196364 224.204709 
L 257.475702 224.17689 
L 260.755041 224.156426 
L 264.03438 224.14333 
L 267.313719 224.137619 
L 270.593058 224.139309 
L 273.872397 224.148419 
L 277.151736 224.164971 
L 280.431074 224.188986 
L 283.710413 224.22049 
L 286.989752 224.259509 
L 290.269091 224.306071 
L 293.54843 224.360207 
L 296.827769 224.42195 
L 300.107107 224.491334 
L 303.386446 224.568396 
L 306.665785 224.653175 
L 309.945124 224.745712 
L 313.224463 224.846051 
L 316.503802 224.954238 
L 319.78314 225.070321 
L 323.062479 225.194352 
L 326.341818 225.326383 
L 329.621157 225.466471 
L 332.900496 225.614675 
L 336.179835 225.771057 
L 339.459174 225.935681 
L 342.738512 226.108614 
L 346.017851 226.289929 
L 349.29719 226.479698 
L 352.576529 226.677999 
L 355.855868 226.884912 
L 359.135207 227.100522 
L 362.414545 227.324915 
L 365.693884 227.558184 
L 368.973223 227.800423 
L 372.252562 228.051731 
L 375.531901 228.31221 
L 378.81124 228.581969 
L 382.090579 228.861117 
L 385.369917 229.14977 
L 388.649256 229.448048 
L 391.928595 229.756076 
L 395.207934 230.07398 
L 398.487273 230.401896 
L 398.487273 190.381726 
L 398.487273 190.381726 
L 395.207934 189.914574 
L 391.928595 189.457047 
L 388.649256 189.009276 
L 385.369917 188.571391 
L 382.090579 188.143516 
L 378.81124 187.72577 
L 375.531901 187.318268 
L 372.252562 186.921123 
L 368.973223 186.53444 
L 365.693884 186.158323 
L 362.414545 185.792871 
L 359.135207 185.438178 
L 355.855868 185.094335 
L 352.576529 184.761431 
L 349.29719 184.439549 
L 346.017851 184.12877 
L 342.738512 183.82917 
L 339.459174 183.540825 
L 336.179835 183.263804 
L 332.900496 182.998176 
L 329.621157 182.744004 
L 326.341818 182.501352 
L 323.062479 182.270276 
L 319.78314 182.050835 
L 316.503802 181.843081 
L 313.224463 181.647066 
L 309.945124 181.462837 
L 306.665785 181.29044 
L 303.386446 181.129921 
L 300.107107 180.981318 
L 296.827769 180.844672 
L 293.54843 180.72002 
L 290.269091 180.607396 
L 286.989752 180.506832 
L 283.710413 180.418359 
L 280.431074 180.342006 
L 277.151736 180.277799 
L 273.872397 180.225763 
L 270.593058 180.18592 
L 267.313719 180.158292 
L 264.03438 180.142896 
L 260.755041 180.139752 
L 257.475702 180.148873 
L 254.196364 180.170273 
L 250.917025 180.203966 
L 247.637686 180.24996 
L 244.358347 180.308264 
L 241.079008 180.378884 
L 237.799669 180.461827 
L 234.520331 180.557095 
L 231.240992 180.66469 
L 227.961653 180.784611 
L 224.682314 180.916858 
L 221.402975 181.061426 
L 218.123636 181.21831 
L 214.844298 181.387504 
L 211.564959 181.568998 
L 208.28562 181.762782 
L 205.006281 181.968844 
L 201.726942 182.18717 
L 198.447603 182.417743 
L 195.168264 182.660546 
L 191.888926 182.915559 
L 188.609587 183.182759 
L 185.330248 183.462124 
L 182.050909 183.753627 
L 178.77157 184.05724 
L 175.492231 184.372932 
L 172.212893 184.700673 
L 168.933554 185.040425 
L 165.654215 185.392154 
L 162.374876 185.755818 
L 159.095537 186.131377 
L 155.816198 186.518784 
L 152.53686 186.917994 
L 149.257521 187.328955 
L 145.978182 187.751615 
L 142.698843 188.185918 
L 139.419504 188.631805 
L 136.140165 189.089213 
L 132.860826 189.558077 
L 129.581488 190.038329 
L 126.302149 190.529896 
L 123.02281 191.032701 
L 119.743471 191.546665 
L 116.464132 192.071704 
L 113.184793 192.607731 
L 109.905455 193.154653 
L 106.626116 193.712374 
L 103.346777 194.280792 
L 100.067438 194.859803 
L 96.788099 195.449296 
L 93.50876 196.049156 
L 90.229421 196.659262 
L 86.950083 197.279488 
L 83.670744 197.909703 
L 80.391405 198.549771 
L 77.112066 199.199549 
L 73.832727 199.858888 
z
" style="fill:#1f77b4;fill-opacity:0.5;"/>
   </g>
   <g id="matplotlib.axis_1">
    <g id="xtick_1">
     <g id="line2d_1">
      <defs>
       <path d="M 0 0 
L 0 3.5 
" id="m97f79ea4df" style="stroke:#000000;stroke-width:0.8;"/>
      </defs>
      <g>
       <use style="stroke:#000000;stroke-width:0.8;" x="120.211948" xlink:href="#m97f79ea4df" y="307.584"/>
      </g>
     </g>
     <g id="text_1">
      <!-- 5 -->
      <g transform="translate(117.030698 322.182437)scale(0.1 -0.1)">
       <defs>
        <path d="M 10.796875 72.90625 
L 49.515625 72.90625 
L 49.515625 64.59375 
L 19.828125 64.59375 
L 19.828125 46.734375 
Q 21.96875 47.46875 24.109375 47.828125 
Q 26.265625 48.1875 28.421875 48.1875 
Q 40.625 48.1875 47.75 41.5 
Q 54.890625 34.8125 54.890625 23.390625 
Q 54.890625 11.625 47.5625 5.09375 
Q 40.234375 -1.421875 26.90625 -1.421875 
Q 22.3125 -1.421875 17.546875 -0.640625 
Q 12.796875 0.140625 7.71875 1.703125 
L 7.71875 11.625 
Q 12.109375 9.234375 16.796875 8.0625 
Q 21.484375 6.890625 26.703125 6.890625 
Q 35.15625 6.890625 40.078125 11.328125 
Q 45.015625 15.765625 45.015625 23.390625 
Q 45.015625 31 40.078125 35.4375 
Q 35.15625 39.890625 26.703125 39.890625 
Q 22.75 39.890625 18.8125 39.015625 
Q 14.890625 38.140625 10.796875 36.28125 
z
" id="DejaVuSans-53"/>
       </defs>
       <use xlink:href="#DejaVuSans-53"/>
      </g>
     </g>
    </g>
    <g id="xtick_2">
     <g id="line2d_2">
      <g>
       <use style="stroke:#000000;stroke-width:0.8;" x="197.510649" xlink:href="#m97f79ea4df" y="307.584"/>
      </g>
     </g>
     <g id="text_2">
      <!-- 10 -->
      <g transform="translate(191.148149 322.182437)scale(0.1 -0.1)">
       <defs>
        <path d="M 12.40625 8.296875 
L 28.515625 8.296875 
L 28.515625 63.921875 
L 10.984375 60.40625 
L 10.984375 69.390625 
L 28.421875 72.90625 
L 38.28125 72.90625 
L 38.28125 8.296875 
L 54.390625 8.296875 
L 54.390625 0 
L 12.40625 0 
z
" id="DejaVuSans-49"/>
        <path d="M 31.78125 66.40625 
Q 24.171875 66.40625 20.328125 58.90625 
Q 16.5 51.421875 16.5 36.375 
Q 16.5 21.390625 20.328125 13.890625 
Q 24.171875 6.390625 31.78125 6.390625 
Q 39.453125 6.390625 43.28125 13.890625 
Q 47.125 21.390625 47.125 36.375 
Q 47.125 51.421875 43.28125 58.90625 
Q 39.453125 66.40625 31.78125 66.40625 
z
M 31.78125 74.21875 
Q 44.046875 74.21875 50.515625 64.515625 
Q 56.984375 54.828125 56.984375 36.375 
Q 56.984375 17.96875 50.515625 8.265625 
Q 44.046875 -1.421875 31.78125 -1.421875 
Q 19.53125 -1.421875 13.0625 8.265625 
Q 6.59375 17.96875 6.59375 36.375 
Q 6.59375 54.828125 13.0625 64.515625 
Q 19.53125 74.21875 31.78125 74.21875 
z
" id="DejaVuSans-48"/>
       </defs>
       <use xlink:href="#DejaVuSans-49"/>
       <use x="63.623047" xlink:href="#DejaVuSans-48"/>
      </g>
     </g>
    </g>
    <g id="xtick_3">
     <g id="line2d_3">
      <g>
       <use style="stroke:#000000;stroke-width:0.8;" x="274.809351" xlink:href="#m97f79ea4df" y="307.584"/>
      </g>
     </g>
     <g id="text_3">
      <!-- 15 -->
      <g transform="translate(268.446851 322.182437)scale(0.1 -0.1)">
       <use xlink:href="#DejaVuSans-49"/>
       <use x="63.623047" xlink:href="#DejaVuSans-53"/>
      </g>
     </g>
    </g>
    <g id="xtick_4">
     <g id="line2d_4">
      <g>
       <use style="stroke:#000000;stroke-width:0.8;" x="352.108052" xlink:href="#m97f79ea4df" y="307.584"/>
      </g>
     </g>
     <g id="text_4">
      <!-- 20 -->
      <g transform="translate(345.745552 322.182437)scale(0.1 -0.1)">
       <defs>
        <path d="M 19.1875 8.296875 
L 53.609375 8.296875 
L 53.609375 0 
L 7.328125 0 
L 7.328125 8.296875 
Q 12.9375 14.109375 22.625 23.890625 
Q 32.328125 33.6875 34.8125 36.53125 
Q 39.546875 41.84375 41.421875 45.53125 
Q 43.3125 49.21875 43.3125 52.78125 
Q 43.3125 58.59375 39.234375 62.25 
Q 35.15625 65.921875 28.609375 65.921875 
Q 23.96875 65.921875 18.8125 64.3125 
Q 13.671875 62.703125 7.8125 59.421875 
L 7.8125 69.390625 
Q 13.765625 71.78125 18.9375 73 
Q 24.125 74.21875 28.421875 74.21875 
Q 39.75 74.21875 46.484375 68.546875 
Q 53.21875 62.890625 53.21875 53.421875 
Q 53.21875 48.921875 51.53125 44.890625 
Q 49.859375 40.875 45.40625 35.40625 
Q 44.1875 33.984375 37.640625 27.21875 
Q 31.109375 20.453125 19.1875 8.296875 
z
" id="DejaVuSans-50"/>
       </defs>
       <use xlink:href="#DejaVuSans-50"/>
       <use x="63.623047" xlink:href="#DejaVuSans-48"/>
      </g>
     </g>
    </g>
   </g>
   <g id="matplotlib.axis_2">
    <g id="ytick_1">
     <g id="line2d_5">
      <defs>
       <path d="M 0 0 
L -3.5 0 
" id="m4f732cd1c2" style="stroke:#000000;stroke-width:0.8;"/>
      </defs>
      <g>
       <use style="stroke:#000000;stroke-width:0.8;" x="57.6" xlink:href="#m4f732cd1c2" y="272.873739"/>
      </g>
     </g>
     <g id="text_5">
      <!-- 10 -->
      <g transform="translate(37.875 276.672958)scale(0.1 -0.1)">
       <use xlink:href="#DejaVuSans-49"/>
       <use x="63.623047" xlink:href="#DejaVuSans-48"/>
      </g>
     </g>
    </g>
    <g id="ytick_2">
     <g id="line2d_6">
      <g>
       <use style="stroke:#000000;stroke-width:0.8;" x="57.6" xlink:href="#m4f732cd1c2" y="215.023304"/>
      </g>
     </g>
     <g id="text_6">
      <!-- 15 -->
      <g transform="translate(37.875 218.822523)scale(0.1 -0.1)">
       <use xlink:href="#DejaVuSans-49"/>
       <use x="63.623047" xlink:href="#DejaVuSans-53"/>
      </g>
     </g>
    </g>
    <g id="ytick_3">
     <g id="line2d_7">
      <g>
       <use style="stroke:#000000;stroke-width:0.8;" x="57.6" xlink:href="#m4f732cd1c2" y="157.17287"/>
      </g>
     </g>
     <g id="text_7">
      <!-- 20 -->
      <g transform="translate(37.875 160.972088)scale(0.1 -0.1)">
       <use xlink:href="#DejaVuSans-50"/>
       <use x="63.623047" xlink:href="#DejaVuSans-48"/>
      </g>
     </g>
    </g>
    <g id="ytick_4">
     <g id="line2d_8">
      <g>
       <use style="stroke:#000000;stroke-width:0.8;" x="57.6" xlink:href="#m4f732cd1c2" y="99.322435"/>
      </g>
     </g>
     <g id="text_8">
      <!-- 25 -->
      <g transform="translate(37.875 103.121654)scale(0.1 -0.1)">
       <use xlink:href="#DejaVuSans-50"/>
       <use x="63.623047" xlink:href="#DejaVuSans-53"/>
      </g>
     </g>
    </g>
    <g id="ytick_5">
     <g id="line2d_9">
      <g>
       <use style="stroke:#000000;stroke-width:0.8;" x="57.6" xlink:href="#m4f732cd1c2" y="41.472"/>
      </g>
     </g>
     <g id="text_9">
      <!-- 30 -->
      <g transform="translate(37.875 45.271219)scale(0.1 -0.1)">
       <defs>
        <path d="M 40.578125 39.3125 
Q 47.65625 37.796875 51.625 33 
Q 55.609375 28.21875 55.609375 21.1875 
Q 55.609375 10.40625 48.1875 4.484375 
Q 40.765625 -1.421875 27.09375 -1.421875 
Q 22.515625 -1.421875 17.65625 -0.515625 
Q 12.796875 0.390625 7.625 2.203125 
L 7.625 11.71875 
Q 11.71875 9.328125 16.59375 8.109375 
Q 21.484375 6.890625 26.8125 6.890625 
Q 36.078125 6.890625 40.9375 10.546875 
Q 45.796875 14.203125 45.796875 21.1875 
Q 45.796875 27.640625 41.28125 31.265625 
Q 36.765625 34.90625 28.71875 34.90625 
L 20.21875 34.90625 
L 20.21875 43.015625 
L 29.109375 43.015625 
Q 36.375 43.015625 40.234375 45.921875 
Q 44.09375 48.828125 44.09375 54.296875 
Q 44.09375 59.90625 40.109375 62.90625 
Q 36.140625 65.921875 28.71875 65.921875 
Q 24.65625 65.921875 20.015625 65.03125 
Q 15.375 64.15625 9.8125 62.3125 
L 9.8125 71.09375 
Q 15.4375 72.65625 20.34375 73.4375 
Q 25.25 74.21875 29.59375 74.21875 
Q 40.828125 74.21875 47.359375 69.109375 
Q 53.90625 64.015625 53.90625 55.328125 
Q 53.90625 49.265625 50.4375 45.09375 
Q 46.96875 40.921875 40.578125 39.3125 
z
" id="DejaVuSans-51"/>
       </defs>
       <use xlink:href="#DejaVuSans-51"/>
       <use x="63.623047" xlink:href="#DejaVuSans-48"/>
      </g>
     </g>
    </g>
   </g>
   <g id="line2d_10">
    <path clip-path="url(#p3f8ea26545)" d="M 73.832727 218.659659 
L 77.112066 218.095098 
L 80.391405 217.540355 
L 83.670744 216.995429 
L 86.950083 216.46032 
L 90.229421 215.935028 
L 93.50876 215.419554 
L 96.788099 214.913897 
L 100.067438 214.418057 
L 103.346777 213.932035 
L 106.626116 213.45583 
L 109.905455 212.989442 
L 113.184793 212.532871 
L 116.464132 212.086118 
L 119.743471 211.649182 
L 123.02281 211.222063 
L 126.302149 210.804762 
L 129.581488 210.397278 
L 132.860826 209.999611 
L 136.140165 209.611761 
L 139.419504 209.233729 
L 142.698843 208.865514 
L 145.978182 208.507116 
L 149.257521 208.158536 
L 152.53686 207.819773 
L 155.816198 207.490827 
L 159.095537 207.171698 
L 162.374876 206.862387 
L 165.654215 206.562893 
L 168.933554 206.273216 
L 172.212893 205.993357 
L 175.492231 205.723315 
L 178.77157 205.46309 
L 182.050909 205.212683 
L 185.330248 204.972092 
L 188.609587 204.741319 
L 191.888926 204.520364 
L 195.168264 204.309225 
L 198.447603 204.107904 
L 201.726942 203.916401 
L 205.006281 203.734714 
L 208.28562 203.562845 
L 211.564959 203.400793 
L 214.844298 203.248558 
L 218.123636 203.106141 
L 221.402975 202.973541 
L 224.682314 202.850758 
L 227.961653 202.737793 
L 231.240992 202.634644 
L 234.520331 202.541313 
L 237.799669 202.4578 
L 241.079008 202.384104 
L 244.358347 202.320224 
L 247.637686 202.266163 
L 250.917025 202.221918 
L 254.196364 202.187491 
L 257.475702 202.162881 
L 260.755041 202.148089 
L 264.03438 202.143113 
L 267.313719 202.147955 
L 270.593058 202.162615 
L 273.872397 202.187091 
L 277.151736 202.221385 
L 280.431074 202.265496 
L 283.710413 202.319424 
L 286.989752 202.38317 
L 290.269091 202.456733 
L 293.54843 202.540113 
L 296.827769 202.633311 
L 300.107107 202.736326 
L 303.386446 202.849158 
L 306.665785 202.971808 
L 309.945124 203.104274 
L 313.224463 203.246558 
L 316.503802 203.39866 
L 319.78314 203.560578 
L 323.062479 203.732314 
L 326.341818 203.913867 
L 329.621157 204.105238 
L 332.900496 204.306425 
L 336.179835 204.51743 
L 339.459174 204.738253 
L 342.738512 204.968892 
L 346.017851 205.209349 
L 349.29719 205.459623 
L 352.576529 205.719715 
L 355.855868 205.989624 
L 359.135207 206.26935 
L 362.414545 206.558893 
L 365.693884 206.858254 
L 368.973223 207.167432 
L 372.252562 207.486427 
L 375.531901 207.815239 
L 378.81124 208.153869 
L 382.090579 208.502316 
L 385.369917 208.860581 
L 388.649256 209.228662 
L 391.928595 209.606561 
L 395.207934 209.994277 
L 398.487273 210.391811 
" style="fill:none;stroke:#1f77b4;stroke-linecap:square;stroke-width:1.5;"/>
   </g>
   <g id="line2d_11">
    <path clip-path="url(#p3f8ea26545)" d="M 73.832727 243.95631 
L 77.112066 242.025884 
L 80.391405 240.132292 
L 83.670744 238.275533 
L 86.950083 236.455608 
L 90.229421 234.672517 
L 93.50876 232.92626 
L 96.788099 231.216837 
L 100.067438 229.544247 
L 103.346777 227.908491 
L 106.626116 226.309569 
L 109.905455 224.74748 
L 113.184793 223.222226 
L 116.464132 221.733805 
L 119.743471 220.282218 
L 123.02281 218.867465 
L 126.302149 217.489546 
L 129.581488 216.14846 
L 132.860826 214.844208 
L 136.140165 213.57679 
L 139.419504 212.346206 
L 142.698843 211.152455 
L 145.978182 209.995538 
L 149.257521 208.875455 
L 152.53686 207.792206 
L 155.816198 206.745791 
L 159.095537 205.736209 
L 162.374876 204.763462 
L 165.654215 203.827547 
L 168.933554 202.928467 
L 172.212893 202.066221 
L 175.492231 201.240808 
L 178.77157 200.452229 
L 182.050909 199.700484 
L 185.330248 198.985573 
L 188.609587 198.307495 
L 191.888926 197.666251 
L 195.168264 197.061841 
L 198.447603 196.494265 
L 201.726942 195.963523 
L 205.006281 195.469614 
L 208.28562 195.012539 
L 211.564959 194.592298 
L 214.844298 194.208891 
L 218.123636 193.862318 
L 221.402975 193.552578 
L 224.682314 193.279672 
L 227.961653 193.0436 
L 231.240992 192.844361 
L 234.520331 192.681957 
L 237.799669 192.556386 
L 241.079008 192.467649 
L 244.358347 192.415746 
L 247.637686 192.400676 
L 250.917025 192.422441 
L 254.196364 192.481039 
L 257.475702 192.576471 
L 260.755041 192.708736 
L 264.03438 192.877836 
L 267.313719 193.083769 
L 270.593058 193.326536 
L 273.872397 193.606137 
L 277.151736 193.922571 
L 280.431074 194.27584 
L 283.710413 194.665942 
L 286.989752 195.092878 
L 290.269091 195.556648 
L 293.54843 196.057251 
L 296.827769 196.594688 
L 300.107107 197.168959 
L 303.386446 197.780064 
L 306.665785 198.428003 
L 309.945124 199.112775 
L 313.224463 199.834382 
L 316.503802 200.592822 
L 319.78314 201.388095 
L 323.062479 202.220203 
L 326.341818 203.089144 
L 329.621157 203.994919 
L 332.900496 204.937528 
L 336.179835 205.916971 
L 339.459174 206.933247 
L 342.738512 207.986358 
L 346.017851 209.076302 
L 349.29719 210.20308 
L 352.576529 211.366691 
L 355.855868 212.567137 
L 359.135207 213.804416 
L 362.414545 215.078529 
L 365.693884 216.389475 
L 368.973223 217.737256 
L 372.252562 219.12187 
L 375.531901 220.543318 
L 378.81124 222.0016 
L 382.090579 223.496716 
L 385.369917 225.028665 
L 388.649256 226.597449 
L 391.928595 228.203066 
L 395.207934 229.845516 
L 398.487273 231.524801 
" style="fill:none;stroke:#ff7f0e;stroke-linecap:square;stroke-width:1.5;"/>
   </g>
   <g id="line2d_12">
    <path clip-path="url(#p3f8ea26545)" d="M 73.832727 241.288815 
L 77.112066 239.428014 
L 80.391405 237.601592 
L 83.670744 235.809547 
L 86.950083 234.051881 
L 90.229421 232.328593 
L 93.50876 230.639683 
L 96.788099 228.985152 
L 100.067438 227.364998 
L 103.346777 225.779223 
L 106.626116 224.227826 
L 109.905455 222.710807 
L 113.184793 221.228166 
L 116.464132 219.779903 
L 119.743471 218.366018 
L 123.02281 216.986512 
L 126.302149 215.641384 
L 129.581488 214.330633 
L 132.860826 213.054261 
L 136.140165 211.812268 
L 139.419504 210.604652 
L 142.698843 209.431414 
L 145.978182 208.292555 
L 149.257521 207.188074 
L 152.53686 206.117971 
L 155.816198 205.082246 
L 159.095537 204.080899 
L 162.374876 203.113931 
L 165.654215 202.18134 
L 168.933554 201.283128 
L 172.212893 200.419294 
L 175.492231 199.589838 
L 178.77157 198.79476 
L 182.050909 198.03406 
L 185.330248 197.307739 
L 188.609587 196.615796 
L 191.888926 195.95823 
L 195.168264 195.335043 
L 198.447603 194.746234 
L 201.726942 194.191804 
L 205.006281 193.671751 
L 208.28562 193.186077 
L 211.564959 192.734781 
L 214.844298 192.317862 
L 218.123636 191.935323 
L 221.402975 191.587161 
L 224.682314 191.273377 
L 227.961653 190.993972 
L 231.240992 190.748944 
L 234.520331 190.538295 
L 237.799669 190.362024 
L 241.079008 190.220131 
L 244.358347 190.112617 
L 247.637686 190.03948 
L 250.917025 190.000722 
L 254.196364 189.996341 
L 257.475702 190.026339 
L 260.755041 190.090715 
L 264.03438 190.18947 
L 267.313719 190.322602 
L 270.593058 190.490113 
L 273.872397 190.692001 
L 277.151736 190.928268 
L 280.431074 191.198913 
L 283.710413 191.503936 
L 286.989752 191.843338 
L 290.269091 192.217117 
L 293.54843 192.625275 
L 296.827769 193.067811 
L 300.107107 193.544725 
L 303.386446 194.056017 
L 306.665785 194.601687 
L 309.945124 195.181735 
L 313.224463 195.796162 
L 316.503802 196.444967 
L 319.78314 197.128149 
L 323.062479 197.84571 
L 326.341818 198.59765 
L 329.621157 199.383967 
L 332.900496 200.204662 
L 336.179835 201.059736 
L 339.459174 201.949188 
L 342.738512 202.873018 
L 346.017851 203.831226 
L 349.29719 204.823812 
L 352.576529 205.850777 
L 355.855868 206.912119 
L 359.135207 208.00784 
L 362.414545 209.137939 
L 365.693884 210.302416 
L 368.973223 211.501271 
L 372.252562 212.734505 
L 375.531901 214.002116 
L 378.81124 215.304106 
L 382.090579 216.640474 
L 385.369917 218.01122 
L 388.649256 219.416344 
L 391.928595 220.855846 
L 395.207934 222.329726 
L 398.487273 223.837985 
" style="fill:none;stroke:#2ca02c;stroke-linecap:square;stroke-width:1.5;"/>
   </g>
   <g id="line2d_13">
    <path clip-path="url(#p3f8ea26545)" d="M 73.832727 220.075947 
L 77.112066 218.153363 
L 80.391405 216.267218 
L 83.670744 214.417512 
L 86.950083 212.604244 
L 90.229421 210.827416 
L 93.50876 209.087027 
L 96.788099 207.383077 
L 100.067438 205.715565 
L 103.346777 204.084493 
L 106.626116 202.48986 
L 109.905455 200.931665 
L 113.184793 199.40991 
L 116.464132 197.924593 
L 119.743471 196.475716 
L 123.02281 195.063277 
L 126.302149 193.687277 
L 129.581488 192.347717 
L 132.860826 191.044595 
L 136.140165 189.777912 
L 139.419504 188.547668 
L 142.698843 187.353863 
L 145.978182 186.196497 
L 149.257521 185.07557 
L 152.53686 183.991082 
L 155.816198 182.943033 
L 159.095537 181.931423 
L 162.374876 180.956252 
L 165.654215 180.01752 
L 168.933554 179.115226 
L 172.212893 178.249372 
L 175.492231 177.419957 
L 178.77157 176.62698 
L 182.050909 175.870443 
L 185.330248 175.150344 
L 188.609587 174.466685 
L 191.888926 173.819464 
L 195.168264 173.208683 
L 198.447603 172.63434 
L 201.726942 172.096436 
L 205.006281 171.594971 
L 208.28562 171.129946 
L 211.564959 170.701359 
L 214.844298 170.309211 
L 218.123636 169.953502 
L 221.402975 169.634232 
L 224.682314 169.351401 
L 227.961653 169.105009 
L 231.240992 168.895056 
L 234.520331 168.721542 
L 237.799669 168.584466 
L 241.079008 168.48383 
L 244.358347 168.419633 
L 247.637686 168.391874 
L 250.917025 168.400555 
L 254.196364 168.445675 
L 257.475702 168.527233 
L 260.755041 168.645231 
L 264.03438 168.799667 
L 267.313719 168.990542 
L 270.593058 169.217857 
L 273.872397 169.48161 
L 277.151736 169.781802 
L 280.431074 170.118433 
L 283.710413 170.491504 
L 286.989752 170.901013 
L 290.269091 171.346961 
L 293.54843 171.829348 
L 296.827769 172.348174 
L 300.107107 172.903439 
L 303.386446 173.495143 
L 306.665785 174.123285 
L 309.945124 174.787867 
L 313.224463 175.488888 
L 316.503802 176.226348 
L 319.78314 177.000246 
L 323.062479 177.810584 
L 326.341818 178.657361 
L 329.621157 179.540576 
L 332.900496 180.460231 
L 336.179835 181.416324 
L 339.459174 182.408856 
L 342.738512 183.437828 
L 346.017851 184.503238 
L 349.29719 185.605087 
L 352.576529 186.743375 
L 355.855868 187.918103 
L 359.135207 189.129269 
L 362.414545 190.376874 
L 365.693884 191.660918 
L 368.973223 192.981401 
L 372.252562 194.338323 
L 375.531901 195.731684 
L 378.81124 197.161483 
L 382.090579 198.627722 
L 385.369917 200.1304 
L 388.649256 201.669517 
L 391.928595 203.245072 
L 395.207934 204.857067 
L 398.487273 206.505501 
" style="fill:none;stroke:#d62728;stroke-linecap:square;stroke-width:1.5;"/>
   </g>
   <g id="line2d_14">
    <path clip-path="url(#p3f8ea26545)" d="M 73.832727 201.637234 
L 77.112066 199.681301 
L 80.391405 197.762345 
L 83.670744 195.880367 
L 86.950083 194.035367 
L 90.229421 192.227345 
L 93.50876 190.456301 
L 96.788099 188.722234 
L 100.067438 187.025146 
L 103.346777 185.365035 
L 106.626116 183.741901 
L 109.905455 182.155746 
L 113.184793 180.606569 
L 116.464132 179.094369 
L 119.743471 177.619147 
L 123.02281 176.180903 
L 126.302149 174.779637 
L 129.581488 173.415348 
L 132.860826 172.088038 
L 136.140165 170.797705 
L 139.419504 169.54435 
L 142.698843 168.327972 
L 145.978182 167.148573 
L 149.257521 166.006151 
L 152.53686 164.900708 
L 155.816198 163.832242 
L 159.095537 162.800754 
L 162.374876 161.806243 
L 165.654215 160.848711 
L 168.933554 159.928156 
L 172.212893 159.044579 
L 175.492231 158.19798 
L 178.77157 157.388358 
L 182.050909 156.615715 
L 185.330248 155.880049 
L 188.609587 155.181361 
L 191.888926 154.519651 
L 195.168264 153.894919 
L 198.447603 153.307165 
L 201.726942 152.756388 
L 205.006281 152.242589 
L 208.28562 151.765768 
L 211.564959 151.325925 
L 214.844298 150.92306 
L 218.123636 150.557172 
L 221.402975 150.228262 
L 224.682314 149.93633 
L 227.961653 149.681376 
L 231.240992 149.4634 
L 234.520331 149.282401 
L 237.799669 149.13838 
L 241.079008 149.031338 
L 244.358347 148.961272 
L 247.637686 148.928185 
L 250.917025 148.932076 
L 254.196364 148.972944 
L 257.475702 149.05079 
L 260.755041 149.165614 
L 264.03438 149.317416 
L 267.313719 149.506195 
L 270.593058 149.731953 
L 273.872397 149.994688 
L 277.151736 150.294401 
L 280.431074 150.631092 
L 283.710413 151.00476 
L 286.989752 151.415407 
L 290.269091 151.863031 
L 293.54843 152.347633 
L 296.827769 152.869213 
L 300.107107 153.427771 
L 303.386446 154.023306 
L 306.665785 154.655819 
L 309.945124 155.32531 
L 313.224463 156.031779 
L 316.503802 156.775226 
L 319.78314 157.555651 
L 323.062479 158.373053 
L 326.341818 159.227433 
L 329.621157 160.118791 
L 332.900496 161.047127 
L 336.179835 162.01244 
L 339.459174 163.014732 
L 342.738512 164.054001 
L 346.017851 165.130248 
L 349.29719 166.243473 
L 352.576529 167.393675 
L 355.855868 168.580856 
L 359.135207 169.805014 
L 362.414545 171.06615 
L 365.693884 172.364264 
L 368.973223 173.699356 
L 372.252562 175.071425 
L 375.531901 176.480473 
L 378.81124 177.926498 
L 382.090579 179.409501 
L 385.369917 180.929481 
L 388.649256 182.48644 
L 391.928595 184.080376 
L 395.207934 185.71129 
L 398.487273 187.379182 
" style="fill:none;stroke:#9467bd;stroke-linecap:square;stroke-width:1.5;"/>
   </g>
   <g id="line2d_15">
    <path clip-path="url(#p3f8ea26545)" d="M 73.832727 260.114624 
L 77.112066 258.259353 
L 80.391405 256.440843 
L 83.670744 254.659094 
L 86.950083 252.914106 
L 90.229421 251.20588 
L 93.50876 249.534416 
L 96.788099 247.899712 
L 100.067438 246.30177 
L 103.346777 244.740589 
L 106.626116 243.21617 
L 109.905455 241.728512 
L 113.184793 240.277615 
L 116.464132 238.86348 
L 119.743471 237.486105 
L 123.02281 236.145493 
L 126.302149 234.841641 
L 129.581488 233.574551 
L 132.860826 232.344222 
L 136.140165 231.150655 
L 139.419504 229.993849 
L 142.698843 228.873804 
L 145.978182 227.79052 
L 149.257521 226.743998 
L 152.53686 225.734237 
L 155.816198 224.761238 
L 159.095537 223.825 
L 162.374876 222.925523 
L 165.654215 222.062807 
L 168.933554 221.236853 
L 172.212893 220.44766 
L 175.492231 219.695229 
L 178.77157 218.979558 
L 182.050909 218.300649 
L 185.330248 217.658502 
L 188.609587 217.053116 
L 191.888926 216.484491 
L 195.168264 215.952627 
L 198.447603 215.457525 
L 201.726942 214.999184 
L 205.006281 214.577604 
L 208.28562 214.192786 
L 211.564959 213.844729 
L 214.844298 213.533434 
L 218.123636 213.258899 
L 221.402975 213.021126 
L 224.682314 212.820115 
L 227.961653 212.655864 
L 231.240992 212.528375 
L 234.520331 212.437648 
L 237.799669 212.383681 
L 241.079008 212.366476 
L 244.358347 212.386033 
L 247.637686 212.44235 
L 250.917025 212.535429 
L 254.196364 212.66527 
L 257.475702 212.831871 
L 260.755041 213.035234 
L 264.03438 213.275359 
L 267.313719 213.552244 
L 270.593058 213.865891 
L 273.872397 214.2163 
L 277.151736 214.603469 
L 280.431074 215.0274 
L 283.710413 215.488092 
L 286.989752 215.985546 
L 290.269091 216.519761 
L 293.54843 217.090737 
L 296.827769 217.698475 
L 300.107107 218.342974 
L 303.386446 219.024234 
L 306.665785 219.742255 
L 309.945124 220.497038 
L 313.224463 221.288583 
L 316.503802 222.116888 
L 319.78314 222.981955 
L 323.062479 223.883783 
L 326.341818 224.822373 
L 329.621157 225.797724 
L 332.900496 226.809836 
L 336.179835 227.858709 
L 339.459174 228.944344 
L 342.738512 230.06674 
L 346.017851 231.225898 
L 349.29719 232.421817 
L 352.576529 233.654497 
L 355.855868 234.923938 
L 359.135207 236.230141 
L 362.414545 237.573105 
L 365.693884 238.952831 
L 368.973223 240.369318 
L 372.252562 241.822566 
L 375.531901 243.312575 
L 378.81124 244.839346 
L 382.090579 246.402878 
L 385.369917 248.003172 
L 388.649256 249.640226 
L 391.928595 251.314042 
L 395.207934 253.02462 
L 398.487273 254.771959 
" style="fill:none;stroke:#8c564b;stroke-linecap:square;stroke-width:1.5;"/>
   </g>
   <g id="patch_3">
    <path d="M 57.6 307.584 
L 57.6 41.472 
" style="fill:none;stroke:#000000;stroke-linecap:square;stroke-linejoin:miter;stroke-width:0.8;"/>
   </g>
   <g id="patch_4">
    <path d="M 414.72 307.584 
L 414.72 41.472 
" style="fill:none;stroke:#000000;stroke-linecap:square;stroke-linejoin:miter;stroke-width:0.8;"/>
   </g>
   <g id="patch_5">
    <path d="M 57.6 307.584 
L 414.72 307.584 
" style="fill:none;stroke:#000000;stroke-linecap:square;stroke-linejoin:miter;stroke-width:0.8;"/>
   </g>
   <g id="patch_6">
    <path d="M 57.6 41.472 
L 414.72 41.472 
" style="fill:none;stroke:#000000;stroke-linecap:square;stroke-linejoin:miter;stroke-width:0.8;"/>
   </g>
  </g>
 </g>
 <defs>
  <clipPath id="p3f8ea26545">
   <rect height="266.112" width="357.12" x="57.6" y="41.472"/>
  </clipPath>
 </defs>
</svg>
