<?xml version="1.0" encoding="utf-8" standalone="no"?>
<!DOCTYPE svg PUBLIC "-//W3C//DTD SVG 1.1//EN"
  "http://www.w3.org/Graphics/SVG/1.1/DTD/svg11.dtd">
<!-- Created with matplotlib (https://matplotlib.org/) -->
<svg height="345.6pt" version="1.1" viewBox="0 0 460.8 345.6" width="460.8pt" xmlns="http://www.w3.org/2000/svg" xmlns:xlink="http://www.w3.org/1999/xlink">
 <metadata>
  <rdf:RDF xmlns:cc="http://creativecommons.org/ns#" xmlns:dc="http://purl.org/dc/elements/1.1/" xmlns:rdf="http://www.w3.org/1999/02/22-rdf-syntax-ns#">
   <cc:Work>
    <dc:type rdf:resource="http://purl.org/dc/dcmitype/StillImage"/>
    <dc:date>2021-11-24T17:22:58.718273</dc:date>
    <dc:format>image/svg+xml</dc:format>
    <dc:creator>
     <cc:Agent>
      <dc:title>Matplotlib v3.3.4, https://matplotlib.org/</dc:title>
     </cc:Agent>
    </dc:creator>
   </cc:Work>
  </rdf:RDF>
 </metadata>
 <defs>
  <style type="text/css">*{stroke-linecap:butt;stroke-linejoin:round;}</style>
 </defs>
 <g id="figure_1">
  <g id="patch_1">
   <path d="M 0 345.6 
L 460.8 345.6 
L 460.8 0 
L 0 0 
z
" style="fill:#ffffff;"/>
  </g>
  <g id="axes_1">
   <g id="patch_2">
    <path d="M 57.6 307.584 
L 414.72 307.584 
L 414.72 41.472 
L 57.6 41.472 
z
" style="fill:#ffffff;"/>
   </g>
   <g id="PathCollection_1">
    <defs>
     <path d="M 0 0.5 
C 0.132602 0.5 0.25979 0.447317 0.353553 0.353553 
C 0.447317 0.25979 0.5 0.132602 0.5 0 
C 0.5 -0.132602 0.447317 -0.25979 0.353553 -0.353553 
C 0.25979 -0.447317 0.132602 -0.5 0 -0.5 
C -0.132602 -0.5 -0.25979 -0.447317 -0.353553 -0.353553 
C -0.447317 -0.25979 -0.5 -0.132602 -0.5 0 
C -0.5 0.132602 -0.447317 0.25979 -0.353553 0.353553 
C -0.25979 0.447317 -0.132602 0.5 0 0.5 
z
" id="m1c50272fad" style="stroke:#0000ff;"/>
    </defs>
    <g clip-path="url(#pea3dab3273)">
     <use style="fill:#0000ff;stroke:#0000ff;" x="73.832727" xlink:href="#m1c50272fad" y="238.973384"/>
     <use style="fill:#0000ff;stroke:#0000ff;" x="120.211948" xlink:href="#m1c50272fad" y="247.535249"/>
     <use style="fill:#0000ff;stroke:#0000ff;" x="166.591169" xlink:href="#m1c50272fad" y="227.326163"/>
     <use style="fill:#0000ff;stroke:#0000ff;" x="212.97039" xlink:href="#m1c50272fad" y="192.65447"/>
     <use style="fill:#0000ff;stroke:#0000ff;" x="259.34961" xlink:href="#m1c50272fad" y="184.555409"/>
     <use style="fill:#0000ff;stroke:#0000ff;" x="305.728831" xlink:href="#m1c50272fad" y="210.163868"/>
     <use style="fill:#0000ff;stroke:#0000ff;" x="352.108052" xlink:href="#m1c50272fad" y="227.441864"/>
     <use style="fill:#0000ff;stroke:#0000ff;" x="398.487273" xlink:href="#m1c50272fad" y="232.1856"/>
    </g>
   </g>
   <g id="PathCollection_2">
    <g clip-path="url(#pea3dab3273)">
     <use style="fill:#0000ff;stroke:#0000ff;" x="73.832727" xlink:href="#m1c50272fad" y="227.094762"/>
     <use style="fill:#0000ff;stroke:#0000ff;" x="120.211948" xlink:href="#m1c50272fad" y="233.034073"/>
     <use style="fill:#0000ff;stroke:#0000ff;" x="166.591169" xlink:href="#m1c50272fad" y="209.199694"/>
     <use style="fill:#0000ff;stroke:#0000ff;" x="212.97039" xlink:href="#m1c50272fad" y="174.219464"/>
     <use style="fill:#0000ff;stroke:#0000ff;" x="259.34961" xlink:href="#m1c50272fad" y="166.197537"/>
     <use style="fill:#0000ff;stroke:#0000ff;" x="305.728831" xlink:href="#m1c50272fad" y="199.326553"/>
     <use style="fill:#0000ff;stroke:#0000ff;" x="352.108052" xlink:href="#m1c50272fad" y="218.687165"/>
     <use style="fill:#0000ff;stroke:#0000ff;" x="398.487273" xlink:href="#m1c50272fad" y="223.508035"/>
    </g>
   </g>
   <g id="PathCollection_3">
    <g clip-path="url(#pea3dab3273)">
     <use style="fill:#0000ff;stroke:#0000ff;" x="73.832727" xlink:href="#m1c50272fad" y="219.612772"/>
     <use style="fill:#0000ff;stroke:#0000ff;" x="120.211948" xlink:href="#m1c50272fad" y="226.169155"/>
     <use style="fill:#0000ff;stroke:#0000ff;" x="166.591169" xlink:href="#m1c50272fad" y="202.450477"/>
     <use style="fill:#0000ff;stroke:#0000ff;" x="212.97039" xlink:href="#m1c50272fad" y="168.395854"/>
     <use style="fill:#0000ff;stroke:#0000ff;" x="259.34961" xlink:href="#m1c50272fad" y="158.908383"/>
     <use style="fill:#0000ff;stroke:#0000ff;" x="305.728831" xlink:href="#m1c50272fad" y="189.569113"/>
     <use style="fill:#0000ff;stroke:#0000ff;" x="352.108052" xlink:href="#m1c50272fad" y="206.96281"/>
     <use style="fill:#0000ff;stroke:#0000ff;" x="398.487273" xlink:href="#m1c50272fad" y="214.869037"/>
    </g>
   </g>
   <g id="PathCollection_4">
    <g clip-path="url(#pea3dab3273)">
     <use style="fill:#0000ff;stroke:#0000ff;" x="73.832727" xlink:href="#m1c50272fad" y="235.926595"/>
     <use style="fill:#0000ff;stroke:#0000ff;" x="120.211948" xlink:href="#m1c50272fad" y="244.21849"/>
     <use style="fill:#0000ff;stroke:#0000ff;" x="166.591169" xlink:href="#m1c50272fad" y="220.114143"/>
     <use style="fill:#0000ff;stroke:#0000ff;" x="212.97039" xlink:href="#m1c50272fad" y="186.676591"/>
     <use style="fill:#0000ff;stroke:#0000ff;" x="259.34961" xlink:href="#m1c50272fad" y="180.004508"/>
     <use style="fill:#0000ff;stroke:#0000ff;" x="305.728831" xlink:href="#m1c50272fad" y="208.004118"/>
     <use style="fill:#0000ff;stroke:#0000ff;" x="352.108052" xlink:href="#m1c50272fad" y="224.047972"/>
     <use style="fill:#0000ff;stroke:#0000ff;" x="398.487273" xlink:href="#m1c50272fad" y="230.758623"/>
    </g>
   </g>
   <g id="PathCollection_5">
    <g clip-path="url(#pea3dab3273)">
     <use style="fill:#0000ff;stroke:#0000ff;" x="73.832727" xlink:href="#m1c50272fad" y="180.698713"/>
     <use style="fill:#0000ff;stroke:#0000ff;" x="120.211948" xlink:href="#m1c50272fad" y="189.800515"/>
     <use style="fill:#0000ff;stroke:#0000ff;" x="166.591169" xlink:href="#m1c50272fad" y="161.299534"/>
     <use style="fill:#0000ff;stroke:#0000ff;" x="212.97039" xlink:href="#m1c50272fad" y="118.64448"/>
     <use style="fill:#0000ff;stroke:#0000ff;" x="259.34961" xlink:href="#m1c50272fad" y="105.416014"/>
     <use style="fill:#0000ff;stroke:#0000ff;" x="305.728831" xlink:href="#m1c50272fad" y="147.993934"/>
     <use style="fill:#0000ff;stroke:#0000ff;" x="352.108052" xlink:href="#m1c50272fad" y="166.390372"/>
     <use style="fill:#0000ff;stroke:#0000ff;" x="398.487273" xlink:href="#m1c50272fad" y="172.75392"/>
    </g>
   </g>
   <g id="PathCollection_6">
    <g clip-path="url(#pea3dab3273)">
     <use style="fill:#0000ff;stroke:#0000ff;" x="73.832727" xlink:href="#m1c50272fad" y="265.546017"/>
     <use style="fill:#0000ff;stroke:#0000ff;" x="120.211948" xlink:href="#m1c50272fad" y="269.171311"/>
     <use style="fill:#0000ff;stroke:#0000ff;" x="166.591169" xlink:href="#m1c50272fad" y="246.416807"/>
     <use style="fill:#0000ff;stroke:#0000ff;" x="212.97039" xlink:href="#m1c50272fad" y="219.38137"/>
     <use style="fill:#0000ff;stroke:#0000ff;" x="259.34961" xlink:href="#m1c50272fad" y="212.979256"/>
     <use style="fill:#0000ff;stroke:#0000ff;" x="305.728831" xlink:href="#m1c50272fad" y="236.042296"/>
     <use style="fill:#0000ff;stroke:#0000ff;" x="352.108052" xlink:href="#m1c50272fad" y="253.011757"/>
     <use style="fill:#0000ff;stroke:#0000ff;" x="398.487273" xlink:href="#m1c50272fad" y="261.265085"/>
    </g>
   </g>
   <g id="PathCollection_7">
    <g clip-path="url(#pea3dab3273)">
     <use style="fill:#0000ff;stroke:#0000ff;" x="73.832727" xlink:href="#m1c50272fad" y="210.780939"/>
     <use style="fill:#0000ff;stroke:#0000ff;" x="120.211948" xlink:href="#m1c50272fad" y="216.064612"/>
     <use style="fill:#0000ff;stroke:#0000ff;" x="166.591169" xlink:href="#m1c50272fad" y="197.08967"/>
     <use style="fill:#0000ff;stroke:#0000ff;" x="212.97039" xlink:href="#m1c50272fad" y="162.148007"/>
     <use style="fill:#0000ff;stroke:#0000ff;" x="259.34961" xlink:href="#m1c50272fad" y="159.641155"/>
     <use style="fill:#0000ff;stroke:#0000ff;" x="305.728831" xlink:href="#m1c50272fad" y="188.296403"/>
     <use style="fill:#0000ff;stroke:#0000ff;" x="352.108052" xlink:href="#m1c50272fad" y="201.756271"/>
     <use style="fill:#0000ff;stroke:#0000ff;" x="398.487273" xlink:href="#m1c50272fad" y="209.12256"/>
    </g>
   </g>
   <g id="PathCollection_8">
    <g clip-path="url(#pea3dab3273)">
     <use style="fill:#0000ff;stroke:#0000ff;" x="73.832727" xlink:href="#m1c50272fad" y="207.078511"/>
     <use style="fill:#0000ff;stroke:#0000ff;" x="120.211948" xlink:href="#m1c50272fad" y="211.822247"/>
     <use style="fill:#0000ff;stroke:#0000ff;" x="166.591169" xlink:href="#m1c50272fad" y="191.728863"/>
     <use style="fill:#0000ff;stroke:#0000ff;" x="212.97039" xlink:href="#m1c50272fad" y="158.869816"/>
     <use style="fill:#0000ff;stroke:#0000ff;" x="259.34961" xlink:href="#m1c50272fad" y="147.53113"/>
     <use style="fill:#0000ff;stroke:#0000ff;" x="305.728831" xlink:href="#m1c50272fad" y="177.420522"/>
     <use style="fill:#0000ff;stroke:#0000ff;" x="352.108052" xlink:href="#m1c50272fad" y="193.001572"/>
     <use style="fill:#0000ff;stroke:#0000ff;" x="398.487273" xlink:href="#m1c50272fad" y="201.833405"/>
    </g>
   </g>
   <g id="PathCollection_9">
    <g clip-path="url(#pea3dab3273)">
     <use style="fill:#0000ff;stroke:#0000ff;" x="73.832727" xlink:href="#m1c50272fad" y="237.199304"/>
     <use style="fill:#0000ff;stroke:#0000ff;" x="120.211948" xlink:href="#m1c50272fad" y="245.066963"/>
     <use style="fill:#0000ff;stroke:#0000ff;" x="166.591169" xlink:href="#m1c50272fad" y="223.430901"/>
     <use style="fill:#0000ff;stroke:#0000ff;" x="212.97039" xlink:href="#m1c50272fad" y="194.621384"/>
     <use style="fill:#0000ff;stroke:#0000ff;" x="259.34961" xlink:href="#m1c50272fad" y="187.640765"/>
     <use style="fill:#0000ff;stroke:#0000ff;" x="305.728831" xlink:href="#m1c50272fad" y="212.207917"/>
     <use style="fill:#0000ff;stroke:#0000ff;" x="352.108052" xlink:href="#m1c50272fad" y="225.667784"/>
     <use style="fill:#0000ff;stroke:#0000ff;" x="398.487273" xlink:href="#m1c50272fad" y="230.720056"/>
    </g>
   </g>
   <g id="PathCollection_10">
    <g clip-path="url(#pea3dab3273)">
     <use style="fill:#0000ff;stroke:#0000ff;" x="73.832727" xlink:href="#m1c50272fad" y="219.38137"/>
     <use style="fill:#0000ff;stroke:#0000ff;" x="120.211948" xlink:href="#m1c50272fad" y="225.629217"/>
     <use style="fill:#0000ff;stroke:#0000ff;" x="166.591169" xlink:href="#m1c50272fad" y="208.042685"/>
     <use style="fill:#0000ff;stroke:#0000ff;" x="212.97039" xlink:href="#m1c50272fad" y="183.436967"/>
     <use style="fill:#0000ff;stroke:#0000ff;" x="259.34961" xlink:href="#m1c50272fad" y="173.795228"/>
     <use style="fill:#0000ff;stroke:#0000ff;" x="305.728831" xlink:href="#m1c50272fad" y="195.161322"/>
     <use style="fill:#0000ff;stroke:#0000ff;" x="352.108052" xlink:href="#m1c50272fad" y="206.422873"/>
     <use style="fill:#0000ff;stroke:#0000ff;" x="398.487273" xlink:href="#m1c50272fad" y="214.714769"/>
    </g>
   </g>
   <g id="PathCollection_11">
    <g clip-path="url(#pea3dab3273)">
     <use style="fill:#0000ff;stroke:#0000ff;" x="73.832727" xlink:href="#m1c50272fad" y="223.585169"/>
     <use style="fill:#0000ff;stroke:#0000ff;" x="120.211948" xlink:href="#m1c50272fad" y="233.805412"/>
     <use style="fill:#0000ff;stroke:#0000ff;" x="166.591169" xlink:href="#m1c50272fad" y="209.739631"/>
     <use style="fill:#0000ff;stroke:#0000ff;" x="212.97039" xlink:href="#m1c50272fad" y="173.756661"/>
     <use style="fill:#0000ff;stroke:#0000ff;" x="259.34961" xlink:href="#m1c50272fad" y="163.729252"/>
     <use style="fill:#0000ff;stroke:#0000ff;" x="305.728831" xlink:href="#m1c50272fad" y="193.580077"/>
     <use style="fill:#0000ff;stroke:#0000ff;" x="352.108052" xlink:href="#m1c50272fad" y="208.042685"/>
     <use style="fill:#0000ff;stroke:#0000ff;" x="398.487273" xlink:href="#m1c50272fad" y="214.560501"/>
    </g>
   </g>
   <g id="PathCollection_12">
    <g clip-path="url(#pea3dab3273)">
     <use style="fill:#0000ff;stroke:#0000ff;" x="73.832727" xlink:href="#m1c50272fad" y="233.149774"/>
     <use style="fill:#0000ff;stroke:#0000ff;" x="120.211948" xlink:href="#m1c50272fad" y="239.28192"/>
     <use style="fill:#0000ff;stroke:#0000ff;" x="166.591169" xlink:href="#m1c50272fad" y="212.28505"/>
     <use style="fill:#0000ff;stroke:#0000ff;" x="212.97039" xlink:href="#m1c50272fad" y="178.808932"/>
     <use style="fill:#0000ff;stroke:#0000ff;" x="259.34961" xlink:href="#m1c50272fad" y="172.985322"/>
     <use style="fill:#0000ff;stroke:#0000ff;" x="305.728831" xlink:href="#m1c50272fad" y="204.957329"/>
     <use style="fill:#0000ff;stroke:#0000ff;" x="352.108052" xlink:href="#m1c50272fad" y="222.312459"/>
     <use style="fill:#0000ff;stroke:#0000ff;" x="398.487273" xlink:href="#m1c50272fad" y="230.180118"/>
    </g>
   </g>
   <g id="PathCollection_13">
    <g clip-path="url(#pea3dab3273)">
     <use style="fill:#0000ff;stroke:#0000ff;" x="73.832727" xlink:href="#m1c50272fad" y="228.676007"/>
     <use style="fill:#0000ff;stroke:#0000ff;" x="120.211948" xlink:href="#m1c50272fad" y="233.304042"/>
     <use style="fill:#0000ff;stroke:#0000ff;" x="166.591169" xlink:href="#m1c50272fad" y="215.871777"/>
     <use style="fill:#0000ff;stroke:#0000ff;" x="212.97039" xlink:href="#m1c50272fad" y="184.902511"/>
     <use style="fill:#0000ff;stroke:#0000ff;" x="259.34961" xlink:href="#m1c50272fad" y="177.150553"/>
     <use style="fill:#0000ff;stroke:#0000ff;" x="305.728831" xlink:href="#m1c50272fad" y="202.450477"/>
     <use style="fill:#0000ff;stroke:#0000ff;" x="352.108052" xlink:href="#m1c50272fad" y="216.103179"/>
     <use style="fill:#0000ff;stroke:#0000ff;" x="398.487273" xlink:href="#m1c50272fad" y="224.58791"/>
    </g>
   </g>
   <g id="PathCollection_14">
    <g clip-path="url(#pea3dab3273)">
     <use style="fill:#0000ff;stroke:#0000ff;" x="73.832727" xlink:href="#m1c50272fad" y="210.472403"/>
     <use style="fill:#0000ff;stroke:#0000ff;" x="120.211948" xlink:href="#m1c50272fad" y="219.882741"/>
     <use style="fill:#0000ff;stroke:#0000ff;" x="166.591169" xlink:href="#m1c50272fad" y="196.549732"/>
     <use style="fill:#0000ff;stroke:#0000ff;" x="212.97039" xlink:href="#m1c50272fad" y="160.181092"/>
     <use style="fill:#0000ff;stroke:#0000ff;" x="259.34961" xlink:href="#m1c50272fad" y="146.991193"/>
     <use style="fill:#0000ff;stroke:#0000ff;" x="305.728831" xlink:href="#m1c50272fad" y="178.037593"/>
     <use style="fill:#0000ff;stroke:#0000ff;" x="352.108052" xlink:href="#m1c50272fad" y="195.084188"/>
     <use style="fill:#0000ff;stroke:#0000ff;" x="398.487273" xlink:href="#m1c50272fad" y="202.219075"/>
    </g>
   </g>
   <g id="PathCollection_15">
    <g clip-path="url(#pea3dab3273)">
     <use style="fill:#0000ff;stroke:#0000ff;" x="73.832727" xlink:href="#m1c50272fad" y="238.973384"/>
     <use style="fill:#0000ff;stroke:#0000ff;" x="120.211948" xlink:href="#m1c50272fad" y="247.535249"/>
     <use style="fill:#0000ff;stroke:#0000ff;" x="166.591169" xlink:href="#m1c50272fad" y="227.326163"/>
     <use style="fill:#0000ff;stroke:#0000ff;" x="212.97039" xlink:href="#m1c50272fad" y="192.65447"/>
     <use style="fill:#0000ff;stroke:#0000ff;" x="259.34961" xlink:href="#m1c50272fad" y="184.555409"/>
     <use style="fill:#0000ff;stroke:#0000ff;" x="305.728831" xlink:href="#m1c50272fad" y="210.163868"/>
     <use style="fill:#0000ff;stroke:#0000ff;" x="352.108052" xlink:href="#m1c50272fad" y="227.441864"/>
     <use style="fill:#0000ff;stroke:#0000ff;" x="398.487273" xlink:href="#m1c50272fad" y="232.1856"/>
    </g>
   </g>
   <g id="PolyCollection_1">
    <path clip-path="url(#pea3dab3273)" d="M 73.832727 283.720114 
L 73.832727 304.991315 
L 77.112066 294.053024 
L 80.391405 283.371582 
L 83.670744 273.053552 
L 86.950083 263.190633 
L 90.229421 253.860417 
L 93.50876 245.127126 
L 96.788099 237.042357 
L 100.067438 229.645849 
L 103.346777 222.966251 
L 106.626116 217.021899 
L 109.905455 211.821583 
L 113.184793 207.365315 
L 116.464132 203.645074 
L 119.743471 200.645541 
L 123.02281 198.34482 
L 126.302149 196.715124 
L 129.581488 195.723463 
L 132.860826 195.332287 
L 136.140165 195.50012 
L 139.419504 196.182169 
L 142.698843 197.330908 
L 145.978182 198.896634 
L 149.257521 200.828006 
L 152.53686 203.072554 
L 155.816198 205.577169 
L 159.095537 208.288565 
L 162.374876 211.153713 
L 165.654215 214.120264 
L 168.933554 217.136932 
L 172.212893 220.153868 
L 175.492231 223.122998 
L 178.77157 225.998352 
L 182.050909 228.736359 
L 185.330248 231.296126 
L 188.609587 233.639695 
L 191.888926 235.732279 
L 195.168264 237.542472 
L 198.447603 239.042446 
L 201.726942 240.208118 
L 205.006281 241.019296 
L 208.28562 241.459804 
L 211.564959 241.517582 
L 214.844298 241.184756 
L 218.123636 240.457689 
L 221.402975 239.336994 
L 224.682314 237.827533 
L 227.961653 235.938373 
L 231.240992 233.682722 
L 234.520331 231.077836 
L 237.799669 228.144892 
L 241.079008 224.908842 
L 244.358347 221.398232 
L 247.637686 217.644998 
L 250.917025 213.684239 
L 254.196364 209.553962 
L 257.475702 205.294806 
L 260.755041 200.949737 
L 264.03438 196.56373 
L 267.313719 192.183417 
L 270.593058 187.856721 
L 273.872397 183.632464 
L 277.151736 179.559951 
L 280.431074 175.688535 
L 283.710413 172.067157 
L 286.989752 168.743863 
L 290.269091 165.765293 
L 293.54843 163.176159 
L 296.827769 161.018683 
L 300.107107 159.332023 
L 303.386446 158.15167 
L 306.665785 157.508821 
L 309.945124 157.429726 
L 313.224463 157.935013 
L 316.503802 159.038988 
L 319.78314 160.748903 
L 323.062479 163.06421 
L 326.341818 165.975777 
L 329.621157 169.465086 
L 332.900496 173.5034 
L 336.179835 178.0509 
L 339.459174 183.0558 
L 342.738512 188.453421 
L 346.017851 194.165242 
L 349.29719 200.097915 
L 352.576529 206.142246 
L 355.855868 212.172147 
L 359.135207 218.043563 
L 362.414545 223.593372 
L 365.693884 228.638298 
L 368.973223 232.973832 
L 372.252562 236.373206 
L 375.531901 238.586445 
L 378.81124 239.339494 
L 382.090579 238.333413 
L 385.369917 235.24356 
L 388.649256 229.718657 
L 391.928595 221.379615 
L 395.207934 209.818045 
L 398.487273 194.594487 
L 398.487273 153.388007 
L 398.487273 153.388007 
L 395.207934 171.671562 
L 391.928595 185.585985 
L 388.649256 195.662048 
L 385.369917 202.39205 
L 382.090579 206.230907 
L 378.81124 207.597485 
L 375.531901 206.876193 
L 372.252562 204.418758 
L 368.973223 200.546066 
L 365.693884 195.549962 
L 362.414545 189.69493 
L 359.135207 183.219644 
L 355.855868 176.338379 
L 352.576529 169.242335 
L 349.29719 162.100876 
L 346.017851 155.06272 
L 342.738512 148.257098 
L 339.459174 141.794878 
L 336.179835 135.769674 
L 332.900496 130.258929 
L 329.621157 125.324982 
L 326.341818 121.01611 
L 323.062479 117.367547 
L 319.78314 114.40248 
L 316.503802 112.13302 
L 313.224463 110.561147 
L 309.945124 109.679625 
L 306.665785 109.472895 
L 303.386446 109.917933 
L 300.107107 110.985089 
L 296.827769 112.63889 
L 293.54843 114.838818 
L 290.269091 117.540056 
L 286.989752 120.694209 
L 283.710413 124.249998 
L 280.431074 128.153911 
L 277.151736 132.350845 
L 273.872397 136.7847 
L 270.593058 141.398952 
L 267.313719 146.137195 
L 264.03438 150.943653 
L 260.755041 155.763656 
L 257.475702 160.54409 
L 254.196364 165.233817 
L 250.917025 169.784063 
L 247.637686 174.148767 
L 244.358347 178.284918 
L 241.079008 182.152841 
L 237.799669 185.716467 
L 234.520331 188.943572 
L 231.240992 191.805982 
L 227.961653 194.279758 
L 224.682314 196.34535 
L 221.402975 197.987727 
L 218.123636 199.19648 
L 214.844298 199.965902 
L 211.564959 200.295043 
L 208.28562 200.18774 
L 205.006281 199.652621 
L 201.726942 198.703083 
L 198.447603 197.357243 
L 195.168264 195.637863 
L 191.888926 193.572245 
L 188.609587 191.192094 
L 185.330248 188.533354 
L 182.050909 185.636011 
L 178.77157 182.543861 
L 175.492231 179.304254 
L 172.212893 175.967798 
L 168.933554 172.588034 
L 165.654215 169.221079 
L 162.374876 165.925241 
L 159.095537 162.760598 
L 155.816198 159.788548 
L 152.53686 157.071333 
L 149.257521 154.671527 
L 145.978182 152.651497 
L 142.698843 151.072839 
L 139.419504 149.995778 
L 136.140165 149.478543 
L 132.860826 149.576709 
L 129.581488 150.342518 
L 126.302149 151.824157 
L 123.02281 154.065023 
L 119.743471 157.102941 
L 116.464132 160.969363 
L 113.184793 165.688531 
L 109.905455 171.276607 
L 106.626116 177.740771 
L 103.346777 185.078285 
L 100.067438 193.275511 
L 96.788099 202.306903 
L 93.50876 212.133938 
L 90.229421 222.704008 
L 86.950083 233.949253 
L 83.670744 245.785327 
L 80.391405 258.110101 
L 77.112066 270.802302 
L 73.832727 283.720114 
z
" style="fill:#1f77b4;fill-opacity:0.5;"/>
   </g>
   <g id="matplotlib.axis_1">
    <g id="xtick_1">
     <g id="line2d_1">
      <defs>
       <path d="M 0 0 
L 0 3.5 
" id="me52682cd4d" style="stroke:#000000;stroke-width:0.8;"/>
      </defs>
      <g>
       <use style="stroke:#000000;stroke-width:0.8;" x="120.211948" xlink:href="#me52682cd4d" y="307.584"/>
      </g>
     </g>
     <g id="text_1">
      <!-- 5 -->
      <g transform="translate(117.030698 322.182437)scale(0.1 -0.1)">
       <defs>
        <path d="M 10.796875 72.90625 
L 49.515625 72.90625 
L 49.515625 64.59375 
L 19.828125 64.59375 
L 19.828125 46.734375 
Q 21.96875 47.46875 24.109375 47.828125 
Q 26.265625 48.1875 28.421875 48.1875 
Q 40.625 48.1875 47.75 41.5 
Q 54.890625 34.8125 54.890625 23.390625 
Q 54.890625 11.625 47.5625 5.09375 
Q 40.234375 -1.421875 26.90625 -1.421875 
Q 22.3125 -1.421875 17.546875 -0.640625 
Q 12.796875 0.140625 7.71875 1.703125 
L 7.71875 11.625 
Q 12.109375 9.234375 16.796875 8.0625 
Q 21.484375 6.890625 26.703125 6.890625 
Q 35.15625 6.890625 40.078125 11.328125 
Q 45.015625 15.765625 45.015625 23.390625 
Q 45.015625 31 40.078125 35.4375 
Q 35.15625 39.890625 26.703125 39.890625 
Q 22.75 39.890625 18.8125 39.015625 
Q 14.890625 38.140625 10.796875 36.28125 
z
" id="DejaVuSans-53"/>
       </defs>
       <use xlink:href="#DejaVuSans-53"/>
      </g>
     </g>
    </g>
    <g id="xtick_2">
     <g id="line2d_2">
      <g>
       <use style="stroke:#000000;stroke-width:0.8;" x="197.510649" xlink:href="#me52682cd4d" y="307.584"/>
      </g>
     </g>
     <g id="text_2">
      <!-- 10 -->
      <g transform="translate(191.148149 322.182437)scale(0.1 -0.1)">
       <defs>
        <path d="M 12.40625 8.296875 
L 28.515625 8.296875 
L 28.515625 63.921875 
L 10.984375 60.40625 
L 10.984375 69.390625 
L 28.421875 72.90625 
L 38.28125 72.90625 
L 38.28125 8.296875 
L 54.390625 8.296875 
L 54.390625 0 
L 12.40625 0 
z
" id="DejaVuSans-49"/>
        <path d="M 31.78125 66.40625 
Q 24.171875 66.40625 20.328125 58.90625 
Q 16.5 51.421875 16.5 36.375 
Q 16.5 21.390625 20.328125 13.890625 
Q 24.171875 6.390625 31.78125 6.390625 
Q 39.453125 6.390625 43.28125 13.890625 
Q 47.125 21.390625 47.125 36.375 
Q 47.125 51.421875 43.28125 58.90625 
Q 39.453125 66.40625 31.78125 66.40625 
z
M 31.78125 74.21875 
Q 44.046875 74.21875 50.515625 64.515625 
Q 56.984375 54.828125 56.984375 36.375 
Q 56.984375 17.96875 50.515625 8.265625 
Q 44.046875 -1.421875 31.78125 -1.421875 
Q 19.53125 -1.421875 13.0625 8.265625 
Q 6.59375 17.96875 6.59375 36.375 
Q 6.59375 54.828125 13.0625 64.515625 
Q 19.53125 74.21875 31.78125 74.21875 
z
" id="DejaVuSans-48"/>
       </defs>
       <use xlink:href="#DejaVuSans-49"/>
       <use x="63.623047" xlink:href="#DejaVuSans-48"/>
      </g>
     </g>
    </g>
    <g id="xtick_3">
     <g id="line2d_3">
      <g>
       <use style="stroke:#000000;stroke-width:0.8;" x="274.809351" xlink:href="#me52682cd4d" y="307.584"/>
      </g>
     </g>
     <g id="text_3">
      <!-- 15 -->
      <g transform="translate(268.446851 322.182437)scale(0.1 -0.1)">
       <use xlink:href="#DejaVuSans-49"/>
       <use x="63.623047" xlink:href="#DejaVuSans-53"/>
      </g>
     </g>
    </g>
    <g id="xtick_4">
     <g id="line2d_4">
      <g>
       <use style="stroke:#000000;stroke-width:0.8;" x="352.108052" xlink:href="#me52682cd4d" y="307.584"/>
      </g>
     </g>
     <g id="text_4">
      <!-- 20 -->
      <g transform="translate(345.745552 322.182437)scale(0.1 -0.1)">
       <defs>
        <path d="M 19.1875 8.296875 
L 53.609375 8.296875 
L 53.609375 0 
L 7.328125 0 
L 7.328125 8.296875 
Q 12.9375 14.109375 22.625 23.890625 
Q 32.328125 33.6875 34.8125 36.53125 
Q 39.546875 41.84375 41.421875 45.53125 
Q 43.3125 49.21875 43.3125 52.78125 
Q 43.3125 58.59375 39.234375 62.25 
Q 35.15625 65.921875 28.609375 65.921875 
Q 23.96875 65.921875 18.8125 64.3125 
Q 13.671875 62.703125 7.8125 59.421875 
L 7.8125 69.390625 
Q 13.765625 71.78125 18.9375 73 
Q 24.125 74.21875 28.421875 74.21875 
Q 39.75 74.21875 46.484375 68.546875 
Q 53.21875 62.890625 53.21875 53.421875 
Q 53.21875 48.921875 51.53125 44.890625 
Q 49.859375 40.875 45.40625 35.40625 
Q 44.1875 33.984375 37.640625 27.21875 
Q 31.109375 20.453125 19.1875 8.296875 
z
" id="DejaVuSans-50"/>
       </defs>
       <use xlink:href="#DejaVuSans-50"/>
       <use x="63.623047" xlink:href="#DejaVuSans-48"/>
      </g>
     </g>
    </g>
   </g>
   <g id="matplotlib.axis_2">
    <g id="ytick_1">
     <g id="line2d_5">
      <defs>
       <path d="M 0 0 
L -3.5 0 
" id="m4234a3a924" style="stroke:#000000;stroke-width:0.8;"/>
      </defs>
      <g>
       <use style="stroke:#000000;stroke-width:0.8;" x="57.6" xlink:href="#m4234a3a924" y="272.873739"/>
      </g>
     </g>
     <g id="text_5">
      <!-- 10 -->
      <g transform="translate(37.875 276.672958)scale(0.1 -0.1)">
       <use xlink:href="#DejaVuSans-49"/>
       <use x="63.623047" xlink:href="#DejaVuSans-48"/>
      </g>
     </g>
    </g>
    <g id="ytick_2">
     <g id="line2d_6">
      <g>
       <use style="stroke:#000000;stroke-width:0.8;" x="57.6" xlink:href="#m4234a3a924" y="215.023304"/>
      </g>
     </g>
     <g id="text_6">
      <!-- 15 -->
      <g transform="translate(37.875 218.822523)scale(0.1 -0.1)">
       <use xlink:href="#DejaVuSans-49"/>
       <use x="63.623047" xlink:href="#DejaVuSans-53"/>
      </g>
     </g>
    </g>
    <g id="ytick_3">
     <g id="line2d_7">
      <g>
       <use style="stroke:#000000;stroke-width:0.8;" x="57.6" xlink:href="#m4234a3a924" y="157.17287"/>
      </g>
     </g>
     <g id="text_7">
      <!-- 20 -->
      <g transform="translate(37.875 160.972088)scale(0.1 -0.1)">
       <use xlink:href="#DejaVuSans-50"/>
       <use x="63.623047" xlink:href="#DejaVuSans-48"/>
      </g>
     </g>
    </g>
    <g id="ytick_4">
     <g id="line2d_8">
      <g>
       <use style="stroke:#000000;stroke-width:0.8;" x="57.6" xlink:href="#m4234a3a924" y="99.322435"/>
      </g>
     </g>
     <g id="text_8">
      <!-- 25 -->
      <g transform="translate(37.875 103.121654)scale(0.1 -0.1)">
       <use xlink:href="#DejaVuSans-50"/>
       <use x="63.623047" xlink:href="#DejaVuSans-53"/>
      </g>
     </g>
    </g>
    <g id="ytick_5">
     <g id="line2d_9">
      <g>
       <use style="stroke:#000000;stroke-width:0.8;" x="57.6" xlink:href="#m4234a3a924" y="41.472"/>
      </g>
     </g>
     <g id="text_9">
      <!-- 30 -->
      <g transform="translate(37.875 45.271219)scale(0.1 -0.1)">
       <defs>
        <path d="M 40.578125 39.3125 
Q 47.65625 37.796875 51.625 33 
Q 55.609375 28.21875 55.609375 21.1875 
Q 55.609375 10.40625 48.1875 4.484375 
Q 40.765625 -1.421875 27.09375 -1.421875 
Q 22.515625 -1.421875 17.65625 -0.515625 
Q 12.796875 0.390625 7.625 2.203125 
L 7.625 11.71875 
Q 11.71875 9.328125 16.59375 8.109375 
Q 21.484375 6.890625 26.8125 6.890625 
Q 36.078125 6.890625 40.9375 10.546875 
Q 45.796875 14.203125 45.796875 21.1875 
Q 45.796875 27.640625 41.28125 31.265625 
Q 36.765625 34.90625 28.71875 34.90625 
L 20.21875 34.90625 
L 20.21875 43.015625 
L 29.109375 43.015625 
Q 36.375 43.015625 40.234375 45.921875 
Q 44.09375 48.828125 44.09375 54.296875 
Q 44.09375 59.90625 40.109375 62.90625 
Q 36.140625 65.921875 28.71875 65.921875 
Q 24.65625 65.921875 20.015625 65.03125 
Q 15.375 64.15625 9.8125 62.3125 
L 9.8125 71.09375 
Q 15.4375 72.65625 20.34375 73.4375 
Q 25.25 74.21875 29.59375 74.21875 
Q 40.828125 74.21875 47.359375 69.109375 
Q 53.90625 64.015625 53.90625 55.328125 
Q 53.90625 49.265625 50.4375 45.09375 
Q 46.96875 40.921875 40.578125 39.3125 
z
" id="DejaVuSans-51"/>
       </defs>
       <use xlink:href="#DejaVuSans-51"/>
       <use x="63.623047" xlink:href="#DejaVuSans-48"/>
      </g>
     </g>
    </g>
   </g>
   <g id="line2d_10">
    <path clip-path="url(#pea3dab3273)" d="M 73.832727 294.355715 
L 77.112066 282.427663 
L 80.391405 270.740842 
L 83.670744 259.419439 
L 86.950083 248.569943 
L 90.229421 238.282213 
L 93.50876 228.630532 
L 96.788099 219.67463 
L 100.067438 211.46068 
L 103.346777 204.022268 
L 106.626116 197.381335 
L 109.905455 191.549095 
L 113.184793 186.526923 
L 116.464132 182.307218 
L 119.743471 178.874241 
L 123.02281 176.204921 
L 126.302149 174.269641 
L 129.581488 173.03299 
L 132.860826 172.454498 
L 136.140165 172.489331 
L 139.419504 173.088974 
L 142.698843 174.201874 
L 145.978182 175.774065 
L 149.257521 177.749766 
L 152.53686 180.071944 
L 155.816198 182.682859 
L 159.095537 185.524581 
L 162.374876 188.539477 
L 165.654215 191.670672 
L 168.933554 194.862483 
L 172.212893 198.060833 
L 175.492231 201.213626 
L 178.77157 204.271107 
L 182.050909 207.186185 
L 185.330248 209.91474 
L 188.609587 212.415894 
L 191.888926 214.652262 
L 195.168264 216.590167 
L 198.447603 218.199845 
L 201.726942 219.455601 
L 205.006281 220.335959 
L 208.28562 220.823772 
L 211.564959 220.906313 
L 214.844298 220.575329 
L 218.123636 219.827084 
L 221.402975 218.662361 
L 224.682314 217.086442 
L 227.961653 215.109065 
L 231.240992 212.744352 
L 234.520331 210.010704 
L 237.799669 206.93068 
L 241.079008 203.530842 
L 244.358347 199.841575 
L 247.637686 195.896883 
L 250.917025 191.734151 
L 254.196364 187.39389 
L 257.475702 182.919448 
L 260.755041 178.356697 
L 264.03438 173.753692 
L 267.313719 169.160306 
L 270.593058 164.627836 
L 273.872397 160.208582 
L 277.151736 155.955398 
L 280.431074 151.921223 
L 283.710413 148.158577 
L 286.989752 144.719036 
L 290.269091 141.652674 
L 293.54843 139.007488 
L 296.827769 136.828787 
L 300.107107 135.158556 
L 303.386446 134.034801 
L 306.665785 133.490858 
L 309.945124 133.554675 
L 313.224463 134.24808 
L 316.503802 135.586004 
L 319.78314 137.575691 
L 323.062479 140.215878 
L 326.341818 143.495944 
L 329.621157 147.395034 
L 332.900496 151.881164 
L 336.179835 156.910287 
L 339.459174 162.425339 
L 342.738512 168.35526 
L 346.017851 174.613981 
L 349.29719 181.099395 
L 352.576529 187.69229 
L 355.855868 194.255263 
L 359.135207 200.631603 
L 362.414545 206.644151 
L 365.693884 212.09413 
L 368.973223 216.759949 
L 372.252562 220.395982 
L 375.531901 222.731319 
L 378.81124 223.46849 
L 382.090579 222.28216 
L 385.369917 218.817805 
L 388.649256 212.690353 
L 391.928595 203.4828 
L 395.207934 190.744804 
L 398.487273 173.991247 
" style="fill:none;stroke:#1f77b4;stroke-linecap:square;stroke-width:1.5;"/>
   </g>
   <g id="line2d_11">
    <path clip-path="url(#pea3dab3273)" d="M 73.832727 315.50672 
L 77.112066 305.887265 
L 80.391405 296.352058 
L 83.670744 286.993767 
L 86.950083 277.892791 
L 90.229421 269.117995 
L 93.50876 260.727427 
L 96.788099 252.769017 
L 100.067438 245.281258 
L 103.346777 238.293868 
L 106.626116 231.828434 
L 109.905455 225.899038 
L 113.184793 220.512864 
L 116.464132 215.670788 
L 119.743471 211.367946 
L 123.02281 207.594292 
L 126.302149 204.335127 
L 129.581488 201.571616 
L 132.860826 199.281288 
L 136.140165 197.438513 
L 139.419504 196.014963 
L 142.698843 194.980057 
L 145.978182 194.301381 
L 149.257521 193.945098 
L 152.53686 193.876336 
L 155.816198 194.059553 
L 159.095537 194.458893 
L 162.374876 195.038517 
L 165.654215 195.762915 
L 168.933554 196.597208 
L 172.212893 197.507419 
L 175.492231 198.460739 
L 178.77157 199.425763 
L 182.050909 200.372718 
L 185.330248 201.273663 
L 188.609587 202.102677 
L 191.888926 202.836031 
L 195.168264 203.452329 
L 198.447603 203.93265 
L 201.726942 204.260652 
L 205.006281 204.422673 
L 208.28562 204.407805 
L 211.564959 204.207952 
L 214.844298 203.81787 
L 218.123636 203.23519 
L 221.402975 202.460421 
L 224.682314 201.496932 
L 227.961653 200.350924 
L 231.240992 199.031374 
L 234.520331 197.549966 
L 237.799669 195.921006 
L 241.079008 194.161309 
L 244.358347 192.290082 
L 247.637686 190.328775 
L 250.917025 188.300921 
L 254.196364 186.231958 
L 257.475702 184.149029 
L 260.755041 182.080767 
L 264.03438 180.057059 
L 267.313719 178.108793 
L 270.593058 176.26759 
L 273.872397 174.565509 
L 277.151736 173.034744 
L 280.431074 171.707296 
L 283.710413 170.614625 
L 286.989752 169.787295 
L 290.269091 169.254585 
L 293.54843 169.044096 
L 296.827769 169.181326 
L 300.107107 169.689243 
L 303.386446 170.587822 
L 306.665785 171.893579 
L 309.945124 173.619075 
L 313.224463 175.772411 
L 316.503802 178.356697 
L 319.78314 181.369509 
L 323.062479 184.802323 
L 326.341818 188.639931 
L 329.621157 192.859845 
L 332.900496 197.431673 
L 336.179835 202.316486 
L 339.459174 207.466158 
L 342.738512 212.822694 
L 346.017851 218.317539 
L 349.29719 223.870864 
L 352.576529 229.390842 
L 355.855868 234.772895 
L 359.135207 239.898934 
L 362.414545 244.636569 
L 365.693884 248.838314 
L 368.973223 252.340761 
L 372.252562 254.963743 
L 375.531901 256.509478 
L 378.81124 256.761691 
L 382.090579 255.484725 
L 385.369917 252.422622 
L 388.649256 247.2982 
L 391.928595 239.8121 
L 395.207934 229.64182 
L 398.487273 216.440729 
" style="fill:none;stroke:#ff7f0e;stroke-linecap:square;stroke-width:1.5;"/>
   </g>
   <g id="line2d_12">
    <path clip-path="url(#pea3dab3273)" d="M 73.832727 327.816097 
L 77.112066 319.756406 
L 80.391405 311.75071 
L 83.670744 303.875827 
L 86.950083 296.198638 
L 90.229421 288.776675 
L 93.50876 281.658699 
L 96.788099 274.885258 
L 100.067438 268.489231 
L 103.346777 262.496365 
L 106.626116 256.925782 
L 109.905455 251.790489 
L 113.184793 247.097862 
L 116.464132 242.850118 
L 119.743471 239.044774 
L 123.02281 235.675091 
L 126.302149 232.730501 
L 129.581488 230.197026 
L 132.860826 228.057671 
L 136.140165 226.292815 
L 139.419504 224.880577 
L 142.698843 223.797179 
L 145.978182 223.017279 
L 149.257521 222.514304 
L 152.53686 222.260762 
L 155.816198 222.228534 
L 159.095537 222.389167 
L 162.374876 222.714134 
L 165.654215 223.175093 
L 168.933554 223.744123 
L 172.212893 224.393955 
L 175.492231 225.098174 
L 178.77157 225.831422 
L 182.050909 226.569577 
L 185.330248 227.289918 
L 188.609587 227.971279 
L 191.888926 228.594187 
L 195.168264 229.140983 
L 198.447603 229.595932 
L 201.726942 229.945316 
L 205.006281 230.177515 
L 208.28562 230.283069 
L 211.564959 230.254731 
L 214.844298 230.087501 
L 218.123636 229.778647 
L 221.402975 229.327712 
L 224.682314 228.736505 
L 227.961653 228.00908 
L 231.240992 227.151699 
L 234.520331 226.172775 
L 237.799669 225.082814 
L 241.079008 223.894327 
L 244.358347 222.621739 
L 247.637686 221.281275 
L 250.917025 219.890839 
L 254.196364 218.469872 
L 257.475702 217.039202 
L 260.755041 215.62087 
L 264.03438 214.237952 
L 267.313719 212.914358 
L 270.593058 211.674624 
L 273.872397 210.543682 
L 277.151736 209.546618 
L 280.431074 208.708421 
L 283.710413 208.053707 
L 286.989752 207.606439 
L 290.269091 207.389624 
L 293.54843 207.425001 
L 296.827769 207.73271 
L 300.107107 208.330953 
L 303.386446 209.235632 
L 306.665785 210.459979 
L 309.945124 212.014169 
L 313.224463 213.904916 
L 316.503802 216.135063 
L 319.78314 218.703142 
L 323.062479 221.602941 
L 326.341818 224.823031 
L 329.621157 228.346303 
L 332.900496 232.149472 
L 336.179835 236.202577 
L 339.459174 240.468462 
L 342.738512 244.902244 
L 346.017851 249.450763 
L 349.29719 254.052025 
L 352.576529 258.634623 
L 355.855868 263.117145 
L 359.135207 267.407571 
L 362.414545 271.402653 
L 365.693884 274.987279 
L 368.973223 278.033823 
L 372.252562 280.401484 
L 375.531901 281.935607 
L 378.81124 282.466989 
L 382.090579 281.811172 
L 385.369917 279.767721 
L 388.649256 276.11949 
L 391.928595 270.631866 
L 395.207934 263.052007 
L 398.487273 253.108061 
" style="fill:none;stroke:#2ca02c;stroke-linecap:square;stroke-width:1.5;"/>
   </g>
   <g id="line2d_13">
    <path clip-path="url(#pea3dab3273)" d="M 73.832727 312.359403 
L 77.112066 302.34458 
L 80.391405 292.42477 
L 83.670744 282.697589 
L 86.950083 273.247839 
L 90.229421 264.148266 
L 93.50876 255.460306 
L 96.788099 247.2348 
L 100.067438 239.512705 
L 103.346777 232.325775 
L 106.626116 225.69723 
L 109.905455 219.642399 
L 113.184793 214.169357 
L 116.464132 209.279525 
L 119.743471 204.96827 
L 123.02281 201.225475 
L 126.302149 198.036089 
L 129.581488 195.380669 
L 132.860826 193.235892 
L 136.140165 191.575054 
L 139.419504 190.368548 
L 142.698843 189.584328 
L 145.978182 189.188346 
L 149.257521 189.144977 
L 152.53686 189.417423 
L 155.816198 189.9681 
L 159.095537 190.759001 
L 162.374876 191.752046 
L 165.654215 192.909413 
L 168.933554 194.193845 
L 172.212893 195.568946 
L 175.492231 196.999448 
L 178.77157 198.451471 
L 182.050909 199.892755 
L 185.330248 201.292881 
L 188.609587 202.623462 
L 191.888926 203.858331 
L 195.168264 204.973693 
L 198.447603 205.948275 
L 201.726942 206.763444 
L 205.006281 207.40331 
L 208.28562 207.854819 
L 211.564959 208.107814 
L 214.844298 208.155082 
L 218.123636 207.992389 
L 221.402975 207.618489 
L 224.682314 207.035112 
L 227.961653 206.246942 
L 231.240992 205.26157 
L 234.520331 204.089431 
L 237.799669 202.743717 
L 241.079008 201.240282 
L 244.358347 199.597515 
L 247.637686 197.836206 
L 250.917025 195.979385 
L 254.196364 194.052149 
L 257.475702 192.08146 
L 260.755041 190.09594 
L 264.03438 188.125632 
L 267.313719 186.20175 
L 270.593058 184.35641 
L 273.872397 182.622338 
L 277.151736 181.032568 
L 280.431074 179.62011 
L 283.710413 178.417608 
L 286.989752 177.456974 
L 290.269091 176.769009 
L 293.54843 176.382997 
L 296.827769 176.326289 
L 300.107107 176.623862 
L 303.386446 177.297863 
L 306.665785 178.367131 
L 309.945124 179.846704 
L 313.224463 181.747303 
L 316.503802 184.074802 
L 319.78314 186.829675 
L 323.062479 190.006428 
L 326.341818 193.593009 
L 329.621157 197.5702 
L 332.900496 201.910994 
L 336.179835 206.579945 
L 339.459174 211.532511 
L 342.738512 216.714366 
L 346.017851 222.060702 
L 349.29719 227.49551 
L 352.576529 232.930837 
L 355.855868 238.266036 
L 359.135207 243.386983 
L 362.414545 248.165287 
L 365.693884 252.457475 
L 368.973223 256.104159 
L 372.252562 258.929188 
L 375.531901 260.738774 
L 378.81124 261.32061 
L 382.090579 260.442955 
L 385.369917 257.853715 
L 388.649256 253.279496 
L 391.928595 246.424641 
L 395.207934 236.970247 
L 398.487273 224.573164 
" style="fill:none;stroke:#d62728;stroke-linecap:square;stroke-width:1.5;"/>
   </g>
   <g id="line2d_14">
    <path clip-path="url(#pea3dab3273)" d="M 73.832727 309.213984 
L 77.112066 298.682366 
L 80.391405 288.219954 
L 83.670744 277.927001 
L 86.950083 267.890798 
L 90.229421 258.186448 
L 93.50876 248.877609 
L 96.788099 240.017235 
L 100.067438 231.648279 
L 103.346777 223.804394 
L 106.626116 216.510603 
L 109.905455 209.783957 
L 113.184793 203.634168 
L 116.464132 198.064229 
L 119.743471 193.071012 
L 123.02281 188.645845 
L 126.302149 184.775072 
L 129.581488 181.440597 
L 132.860826 178.6204 
L 136.140165 176.289047 
L 139.419504 174.418167 
L 142.698843 172.976919 
L 145.978182 171.932439 
L 149.257521 171.250263 
L 152.53686 170.894736 
L 155.816198 170.829402 
L 159.095537 171.01737 
L 162.374876 171.421664 
L 165.654215 172.005556 
L 168.933554 172.732877 
L 172.212893 173.56831 
L 175.492231 174.477661 
L 178.77157 175.428118 
L 182.050909 176.388483 
L 185.330248 177.32939 
L 188.609587 178.223502 
L 191.888926 179.04569 
L 195.168264 179.773189 
L 198.447603 180.385742 
L 201.726942 180.86572 
L 205.006281 181.198222 
L 208.28562 181.37116 
L 211.564959 181.37532 
L 214.844298 181.204412 
L 218.123636 180.855089 
L 221.402975 180.326958 
L 224.682314 179.622565 
L 227.961653 178.747366 
L 231.240992 177.709673 
L 234.520331 176.520586 
L 237.799669 175.193906 
L 241.079008 173.746022 
L 244.358347 172.195788 
L 247.637686 170.564375 
L 250.917025 168.875109 
L 254.196364 167.15328 
L 257.475702 165.425945 
L 260.755041 163.721704 
L 264.03438 162.070456 
L 267.313719 160.50314 
L 270.593058 159.051457 
L 273.872397 157.747567 
L 277.151736 156.623774 
L 280.431074 155.712192 
L 283.710413 155.04438 
L 286.989752 154.650976 
L 290.269091 154.561298 
L 293.54843 154.802932 
L 296.827769 155.401301 
L 300.107107 156.379208 
L 303.386446 157.756373 
L 306.665785 159.548939 
L 309.945124 161.768963 
L 313.224463 164.42389 
L 316.503802 167.516006 
L 319.78314 171.04187 
L 323.062479 174.991731 
L 326.341818 179.348924 
L 329.621157 184.089245 
L 332.900496 189.18031 
L 336.179835 194.580895 
L 339.459174 200.240251 
L 342.738512 206.097409 
L 346.017851 212.08046 
L 349.29719 218.105817 
L 352.576529 224.077458 
L 355.855868 229.886151 
L 359.135207 235.408657 
L 362.414545 240.50692 
L 365.693884 245.027228 
L 368.973223 248.799367 
L 372.252562 251.635747 
L 375.531901 253.330509 
L 378.81124 253.658619 
L 382.090579 252.374942 
L 385.369917 249.213285 
L 388.649256 243.885442 
L 391.928595 236.080198 
L 395.207934 225.462333 
L 398.487273 211.671589 
" style="fill:none;stroke:#9467bd;stroke-linecap:square;stroke-width:1.5;"/>
   </g>
   <g id="line2d_15">
    <path clip-path="url(#pea3dab3273)" d="M 73.832727 301.558224 
L 77.112066 290.113521 
L 80.391405 278.773819 
L 83.670744 267.650248 
L 86.950083 256.839333 
L 90.229421 246.423866 
L 93.50876 236.473747 
L 96.788099 227.046819 
L 100.067438 218.189662 
L 103.346777 209.938383 
L 106.626116 202.319374 
L 109.905455 195.350052 
L 113.184793 189.03958 
L 116.464132 183.389559 
L 119.743471 178.394706 
L 123.02281 174.043511 
L 126.302149 170.318863 
L 129.581488 167.198664 
L 132.860826 164.656421 
L 136.140165 162.66181 
L 139.419504 161.181223 
L 142.698843 160.178295 
L 145.978182 159.614406 
L 149.257521 159.449165 
L 152.53686 159.640865 
L 155.816198 160.146931 
L 159.095537 160.92433 
L 162.374876 161.929969 
L 165.654215 163.121073 
L 168.933554 164.455533 
L 172.212893 165.892242 
L 175.492231 167.391402 
L 178.77157 168.914817 
L 182.050909 170.426155 
L 185.330248 171.891197 
L 188.609587 173.27806 
L 191.888926 174.557401 
L 195.168264 175.702599 
L 198.447603 176.689911 
L 201.726942 177.498615 
L 205.006281 178.111124 
L 208.28562 178.513083 
L 211.564959 178.693442 
L 214.844298 178.644509 
L 218.123636 178.361979 
L 221.402975 177.844949 
L 224.682314 177.0959 
L 227.961653 176.120665 
L 231.240992 174.928377 
L 234.520331 173.531391 
L 237.799669 171.945183 
L 241.079008 170.188236 
L 244.358347 168.281896 
L 247.637686 166.25021 
L 250.917025 164.119744 
L 254.196364 161.919373 
L 257.475702 159.680061 
L 260.755041 157.434608 
L 264.03438 155.217382 
L 267.313719 153.064027 
L 270.593058 151.011152 
L 273.872397 149.095994 
L 277.151736 147.356066 
L 280.431074 145.828777 
L 283.710413 144.551036 
L 286.989752 143.558828 
L 290.269091 142.886778 
L 293.54843 142.567684 
L 296.827769 142.632032 
L 300.107107 143.107493 
L 303.386446 144.018396 
L 306.665785 145.385174 
L 309.945124 147.2238 
L 313.224463 149.545189 
L 316.503802 152.354591 
L 319.78314 155.650952 
L 323.062479 159.426258 
L 326.341818 163.664858 
L 329.621157 168.342766 
L 332.900496 173.426937 
L 336.179835 178.87453 
L 339.459174 184.632138 
L 342.738512 190.635008 
L 346.017851 196.806231 
L 349.29719 203.055918 
L 352.576529 209.280343 
L 355.855868 215.361082 
L 359.135207 221.164112 
L 362.414545 226.538901 
L 365.693884 231.317471 
L 368.973223 235.313443 
L 372.252562 238.321057 
L 375.531901 240.11417 
L 378.81124 240.445241 
L 382.090579 239.04428 
L 385.369917 235.61779 
L 388.649256 229.847679 
L 391.928595 221.390153 
L 395.207934 209.874583 
L 398.487273 194.902364 
" style="fill:none;stroke:#8c564b;stroke-linecap:square;stroke-width:1.5;"/>
   </g>
   <g id="patch_3">
    <path d="M 57.6 307.584 
L 57.6 41.472 
" style="fill:none;stroke:#000000;stroke-linecap:square;stroke-linejoin:miter;stroke-width:0.8;"/>
   </g>
   <g id="patch_4">
    <path d="M 414.72 307.584 
L 414.72 41.472 
" style="fill:none;stroke:#000000;stroke-linecap:square;stroke-linejoin:miter;stroke-width:0.8;"/>
   </g>
   <g id="patch_5">
    <path d="M 57.6 307.584 
L 414.72 307.584 
" style="fill:none;stroke:#000000;stroke-linecap:square;stroke-linejoin:miter;stroke-width:0.8;"/>
   </g>
   <g id="patch_6">
    <path d="M 57.6 41.472 
L 414.72 41.472 
" style="fill:none;stroke:#000000;stroke-linecap:square;stroke-linejoin:miter;stroke-width:0.8;"/>
   </g>
  </g>
 </g>
 <defs>
  <clipPath id="pea3dab3273">
   <rect height="266.112" width="357.12" x="57.6" y="41.472"/>
  </clipPath>
 </defs>
</svg>
