<?xml version="1.0" encoding="utf-8" standalone="no"?>
<!DOCTYPE svg PUBLIC "-//W3C//DTD SVG 1.1//EN"
  "http://www.w3.org/Graphics/SVG/1.1/DTD/svg11.dtd">
<!-- Created with matplotlib (https://matplotlib.org/) -->
<svg height="345.6pt" version="1.1" viewBox="0 0 460.8 345.6" width="460.8pt" xmlns="http://www.w3.org/2000/svg" xmlns:xlink="http://www.w3.org/1999/xlink">
 <metadata>
  <rdf:RDF xmlns:cc="http://creativecommons.org/ns#" xmlns:dc="http://purl.org/dc/elements/1.1/" xmlns:rdf="http://www.w3.org/1999/02/22-rdf-syntax-ns#">
   <cc:Work>
    <dc:type rdf:resource="http://purl.org/dc/dcmitype/StillImage"/>
    <dc:date>2021-11-21T15:41:24.234357</dc:date>
    <dc:format>image/svg+xml</dc:format>
    <dc:creator>
     <cc:Agent>
      <dc:title>Matplotlib v3.3.4, https://matplotlib.org/</dc:title>
     </cc:Agent>
    </dc:creator>
   </cc:Work>
  </rdf:RDF>
 </metadata>
 <defs>
  <style type="text/css">*{stroke-linecap:butt;stroke-linejoin:round;}</style>
 </defs>
 <g id="figure_1">
  <g id="patch_1">
   <path d="M 0 345.6 
L 460.8 345.6 
L 460.8 0 
L 0 0 
z
" style="fill:#ffffff;"/>
  </g>
  <g id="axes_1">
   <g id="patch_2">
    <path d="M 57.6 307.584 
L 414.72 307.584 
L 414.72 41.472 
L 57.6 41.472 
z
" style="fill:#ffffff;"/>
   </g>
   <g id="PathCollection_1">
    <defs>
     <path d="M 0 0.5 
C 0.132602 0.5 0.25979 0.447317 0.353553 0.353553 
C 0.447317 0.25979 0.5 0.132602 0.5 0 
C 0.5 -0.132602 0.447317 -0.25979 0.353553 -0.353553 
C 0.25979 -0.447317 0.132602 -0.5 0 -0.5 
C -0.132602 -0.5 -0.25979 -0.447317 -0.353553 -0.353553 
C -0.447317 -0.25979 -0.5 -0.132602 -0.5 0 
C -0.5 0.132602 -0.447317 0.25979 -0.353553 0.353553 
C -0.25979 0.447317 -0.132602 0.5 0 0.5 
z
" id="ma85a17d876" style="stroke:#0000ff;"/>
    </defs>
    <g clip-path="url(#p552adb3562)">
     <use style="fill:#0000ff;stroke:#0000ff;" x="73.832727" xlink:href="#ma85a17d876" y="181.08053"/>
     <use style="fill:#0000ff;stroke:#0000ff;" x="120.211948" xlink:href="#ma85a17d876" y="189.254882"/>
     <use style="fill:#0000ff;stroke:#0000ff;" x="166.591169" xlink:href="#ma85a17d876" y="169.960465"/>
     <use style="fill:#0000ff;stroke:#0000ff;" x="212.97039" xlink:href="#ma85a17d876" y="136.858021"/>
     <use style="fill:#0000ff;stroke:#0000ff;" x="259.34961" xlink:href="#ma85a17d876" y="129.125526"/>
     <use style="fill:#0000ff;stroke:#0000ff;" x="305.728831" xlink:href="#ma85a17d876" y="153.574939"/>
     <use style="fill:#0000ff;stroke:#0000ff;" x="352.108052" xlink:href="#ma85a17d876" y="170.070929"/>
     <use style="fill:#0000ff;stroke:#0000ff;" x="398.487273" xlink:href="#ma85a17d876" y="174.599962"/>
    </g>
   </g>
   <g id="PathCollection_2">
    <g clip-path="url(#p552adb3562)">
     <use style="fill:#0000ff;stroke:#0000ff;" x="73.832727" xlink:href="#ma85a17d876" y="169.739537"/>
     <use style="fill:#0000ff;stroke:#0000ff;" x="120.211948" xlink:href="#ma85a17d876" y="175.410033"/>
     <use style="fill:#0000ff;stroke:#0000ff;" x="166.591169" xlink:href="#ma85a17d876" y="152.654404"/>
     <use style="fill:#0000ff;stroke:#0000ff;" x="212.97039" xlink:href="#ma85a17d876" y="119.257389"/>
     <use style="fill:#0000ff;stroke:#0000ff;" x="259.34961" xlink:href="#ma85a17d876" y="111.598536"/>
     <use style="fill:#0000ff;stroke:#0000ff;" x="305.728831" xlink:href="#ma85a17d876" y="143.228124"/>
     <use style="fill:#0000ff;stroke:#0000ff;" x="352.108052" xlink:href="#ma85a17d876" y="161.71247"/>
     <use style="fill:#0000ff;stroke:#0000ff;" x="398.487273" xlink:href="#ma85a17d876" y="166.315146"/>
    </g>
   </g>
   <g id="PathCollection_3">
    <g clip-path="url(#p552adb3562)">
     <use style="fill:#0000ff;stroke:#0000ff;" x="73.832727" xlink:href="#ma85a17d876" y="162.596184"/>
     <use style="fill:#0000ff;stroke:#0000ff;" x="120.211948" xlink:href="#ma85a17d876" y="168.855823"/>
     <use style="fill:#0000ff;stroke:#0000ff;" x="166.591169" xlink:href="#ma85a17d876" y="146.210658"/>
     <use style="fill:#0000ff;stroke:#0000ff;" x="212.97039" xlink:href="#ma85a17d876" y="113.697356"/>
     <use style="fill:#0000ff;stroke:#0000ff;" x="259.34961" xlink:href="#ma85a17d876" y="104.63929"/>
     <use style="fill:#0000ff;stroke:#0000ff;" x="305.728831" xlink:href="#ma85a17d876" y="133.912308"/>
     <use style="fill:#0000ff;stroke:#0000ff;" x="352.108052" xlink:href="#ma85a17d876" y="150.518763"/>
     <use style="fill:#0000ff;stroke:#0000ff;" x="398.487273" xlink:href="#ma85a17d876" y="158.067151"/>
    </g>
   </g>
   <g id="PathCollection_4">
    <g clip-path="url(#p552adb3562)">
     <use style="fill:#0000ff;stroke:#0000ff;" x="73.832727" xlink:href="#ma85a17d876" y="178.171639"/>
     <use style="fill:#0000ff;stroke:#0000ff;" x="120.211948" xlink:href="#ma85a17d876" y="186.088241"/>
     <use style="fill:#0000ff;stroke:#0000ff;" x="166.591169" xlink:href="#ma85a17d876" y="163.074862"/>
     <use style="fill:#0000ff;stroke:#0000ff;" x="212.97039" xlink:href="#ma85a17d876" y="131.150703"/>
     <use style="fill:#0000ff;stroke:#0000ff;" x="259.34961" xlink:href="#ma85a17d876" y="124.7806"/>
     <use style="fill:#0000ff;stroke:#0000ff;" x="305.728831" xlink:href="#ma85a17d876" y="151.512941"/>
     <use style="fill:#0000ff;stroke:#0000ff;" x="352.108052" xlink:href="#ma85a17d876" y="166.830646"/>
     <use style="fill:#0000ff;stroke:#0000ff;" x="398.487273" xlink:href="#ma85a17d876" y="173.23757"/>
    </g>
   </g>
   <g id="PathCollection_5">
    <g clip-path="url(#p552adb3562)">
     <use style="fill:#0000ff;stroke:#0000ff;" x="73.832727" xlink:href="#ma85a17d876" y="125.443385"/>
     <use style="fill:#0000ff;stroke:#0000ff;" x="120.211948" xlink:href="#ma85a17d876" y="134.133237"/>
     <use style="fill:#0000ff;stroke:#0000ff;" x="166.591169" xlink:href="#ma85a17d876" y="106.922218"/>
     <use style="fill:#0000ff;stroke:#0000ff;" x="212.97039" xlink:href="#ma85a17d876" y="66.197742"/>
     <use style="fill:#0000ff;stroke:#0000ff;" x="259.34961" xlink:href="#ma85a17d876" y="53.568"/>
     <use style="fill:#0000ff;stroke:#0000ff;" x="305.728831" xlink:href="#ma85a17d876" y="94.218833"/>
     <use style="fill:#0000ff;stroke:#0000ff;" x="352.108052" xlink:href="#ma85a17d876" y="111.782643"/>
     <use style="fill:#0000ff;stroke:#0000ff;" x="398.487273" xlink:href="#ma85a17d876" y="117.858175"/>
    </g>
   </g>
   <g id="PathCollection_6">
    <g clip-path="url(#p552adb3562)">
     <use style="fill:#0000ff;stroke:#0000ff;" x="73.832727" xlink:href="#ma85a17d876" y="206.450479"/>
     <use style="fill:#0000ff;stroke:#0000ff;" x="120.211948" xlink:href="#ma85a17d876" y="209.911691"/>
     <use style="fill:#0000ff;stroke:#0000ff;" x="166.591169" xlink:href="#ma85a17d876" y="188.187061"/>
     <use style="fill:#0000ff;stroke:#0000ff;" x="212.97039" xlink:href="#ma85a17d876" y="162.375256"/>
     <use style="fill:#0000ff;stroke:#0000ff;" x="259.34961" xlink:href="#ma85a17d876" y="156.262902"/>
     <use style="fill:#0000ff;stroke:#0000ff;" x="305.728831" xlink:href="#ma85a17d876" y="178.282103"/>
     <use style="fill:#0000ff;stroke:#0000ff;" x="352.108052" xlink:href="#ma85a17d876" y="194.483522"/>
     <use style="fill:#0000ff;stroke:#0000ff;" x="398.487273" xlink:href="#ma85a17d876" y="202.363303"/>
    </g>
   </g>
   <g id="PathCollection_7">
    <g clip-path="url(#p552adb3562)">
     <use style="fill:#0000ff;stroke:#0000ff;" x="73.832727" xlink:href="#ma85a17d876" y="154.164082"/>
     <use style="fill:#0000ff;stroke:#0000ff;" x="120.211948" xlink:href="#ma85a17d876" y="159.208615"/>
     <use style="fill:#0000ff;stroke:#0000ff;" x="166.591169" xlink:href="#ma85a17d876" y="141.092483"/>
     <use style="fill:#0000ff;stroke:#0000ff;" x="212.97039" xlink:href="#ma85a17d876" y="107.732289"/>
     <use style="fill:#0000ff;stroke:#0000ff;" x="259.34961" xlink:href="#ma85a17d876" y="105.338897"/>
     <use style="fill:#0000ff;stroke:#0000ff;" x="305.728831" xlink:href="#ma85a17d876" y="132.697202"/>
     <use style="fill:#0000ff;stroke:#0000ff;" x="352.108052" xlink:href="#ma85a17d876" y="145.547873"/>
     <use style="fill:#0000ff;stroke:#0000ff;" x="398.487273" xlink:href="#ma85a17d876" y="152.580761"/>
    </g>
   </g>
   <g id="PathCollection_8">
    <g clip-path="url(#p552adb3562)">
     <use style="fill:#0000ff;stroke:#0000ff;" x="73.832727" xlink:href="#ma85a17d876" y="150.629227"/>
     <use style="fill:#0000ff;stroke:#0000ff;" x="120.211948" xlink:href="#ma85a17d876" y="155.15826"/>
     <use style="fill:#0000ff;stroke:#0000ff;" x="166.591169" xlink:href="#ma85a17d876" y="135.974307"/>
     <use style="fill:#0000ff;stroke:#0000ff;" x="212.97039" xlink:href="#ma85a17d876" y="104.602469"/>
     <use style="fill:#0000ff;stroke:#0000ff;" x="259.34961" xlink:href="#ma85a17d876" y="93.776976"/>
     <use style="fill:#0000ff;stroke:#0000ff;" x="305.728831" xlink:href="#ma85a17d876" y="122.313565"/>
     <use style="fill:#0000ff;stroke:#0000ff;" x="352.108052" xlink:href="#ma85a17d876" y="137.189414"/>
     <use style="fill:#0000ff;stroke:#0000ff;" x="398.487273" xlink:href="#ma85a17d876" y="145.621516"/>
    </g>
   </g>
   <g id="PathCollection_9">
    <g clip-path="url(#p552adb3562)">
     <use style="fill:#0000ff;stroke:#0000ff;" x="73.832727" xlink:href="#ma85a17d876" y="179.386745"/>
     <use style="fill:#0000ff;stroke:#0000ff;" x="120.211948" xlink:href="#ma85a17d876" y="186.898312"/>
     <use style="fill:#0000ff;stroke:#0000ff;" x="166.591169" xlink:href="#ma85a17d876" y="166.241503"/>
     <use style="fill:#0000ff;stroke:#0000ff;" x="212.97039" xlink:href="#ma85a17d876" y="138.735913"/>
     <use style="fill:#0000ff;stroke:#0000ff;" x="259.34961" xlink:href="#ma85a17d876" y="132.071238"/>
     <use style="fill:#0000ff;stroke:#0000ff;" x="305.728831" xlink:href="#ma85a17d876" y="155.526474"/>
     <use style="fill:#0000ff;stroke:#0000ff;" x="352.108052" xlink:href="#ma85a17d876" y="168.377145"/>
     <use style="fill:#0000ff;stroke:#0000ff;" x="398.487273" xlink:href="#ma85a17d876" y="173.200749"/>
    </g>
   </g>
   <g id="PathCollection_10">
    <g clip-path="url(#p552adb3562)">
     <use style="fill:#0000ff;stroke:#0000ff;" x="73.832727" xlink:href="#ma85a17d876" y="162.375256"/>
     <use style="fill:#0000ff;stroke:#0000ff;" x="120.211948" xlink:href="#ma85a17d876" y="168.340323"/>
     <use style="fill:#0000ff;stroke:#0000ff;" x="166.591169" xlink:href="#ma85a17d876" y="151.549762"/>
     <use style="fill:#0000ff;stroke:#0000ff;" x="212.97039" xlink:href="#ma85a17d876" y="128.057705"/>
     <use style="fill:#0000ff;stroke:#0000ff;" x="259.34961" xlink:href="#ma85a17d876" y="118.852353"/>
     <use style="fill:#0000ff;stroke:#0000ff;" x="305.728831" xlink:href="#ma85a17d876" y="139.251412"/>
     <use style="fill:#0000ff;stroke:#0000ff;" x="352.108052" xlink:href="#ma85a17d876" y="150.003263"/>
     <use style="fill:#0000ff;stroke:#0000ff;" x="398.487273" xlink:href="#ma85a17d876" y="157.919865"/>
    </g>
   </g>
   <g id="PathCollection_11">
    <g clip-path="url(#p552adb3562)">
     <use style="fill:#0000ff;stroke:#0000ff;" x="73.832727" xlink:href="#ma85a17d876" y="166.388789"/>
     <use style="fill:#0000ff;stroke:#0000ff;" x="120.211948" xlink:href="#ma85a17d876" y="176.146461"/>
     <use style="fill:#0000ff;stroke:#0000ff;" x="166.591169" xlink:href="#ma85a17d876" y="153.169904"/>
     <use style="fill:#0000ff;stroke:#0000ff;" x="212.97039" xlink:href="#ma85a17d876" y="118.815532"/>
     <use style="fill:#0000ff;stroke:#0000ff;" x="259.34961" xlink:href="#ma85a17d876" y="109.241966"/>
     <use style="fill:#0000ff;stroke:#0000ff;" x="305.728831" xlink:href="#ma85a17d876" y="137.741735"/>
     <use style="fill:#0000ff;stroke:#0000ff;" x="352.108052" xlink:href="#ma85a17d876" y="151.549762"/>
     <use style="fill:#0000ff;stroke:#0000ff;" x="398.487273" xlink:href="#ma85a17d876" y="157.77258"/>
    </g>
   </g>
   <g id="PathCollection_12">
    <g clip-path="url(#p552adb3562)">
     <use style="fill:#0000ff;stroke:#0000ff;" x="73.832727" xlink:href="#ma85a17d876" y="175.520498"/>
     <use style="fill:#0000ff;stroke:#0000ff;" x="120.211948" xlink:href="#ma85a17d876" y="181.375101"/>
     <use style="fill:#0000ff;stroke:#0000ff;" x="166.591169" xlink:href="#ma85a17d876" y="155.600117"/>
     <use style="fill:#0000ff;stroke:#0000ff;" x="212.97039" xlink:href="#ma85a17d876" y="123.639136"/>
     <use style="fill:#0000ff;stroke:#0000ff;" x="259.34961" xlink:href="#ma85a17d876" y="118.079104"/>
     <use style="fill:#0000ff;stroke:#0000ff;" x="305.728831" xlink:href="#ma85a17d876" y="148.60405"/>
     <use style="fill:#0000ff;stroke:#0000ff;" x="352.108052" xlink:href="#ma85a17d876" y="165.173682"/>
     <use style="fill:#0000ff;stroke:#0000ff;" x="398.487273" xlink:href="#ma85a17d876" y="172.685249"/>
    </g>
   </g>
   <g id="PathCollection_13">
    <g clip-path="url(#p552adb3562)">
     <use style="fill:#0000ff;stroke:#0000ff;" x="73.832727" xlink:href="#ma85a17d876" y="171.249214"/>
     <use style="fill:#0000ff;stroke:#0000ff;" x="120.211948" xlink:href="#ma85a17d876" y="175.667783"/>
     <use style="fill:#0000ff;stroke:#0000ff;" x="166.591169" xlink:href="#ma85a17d876" y="159.024508"/>
     <use style="fill:#0000ff;stroke:#0000ff;" x="212.97039" xlink:href="#ma85a17d876" y="129.456918"/>
     <use style="fill:#0000ff;stroke:#0000ff;" x="259.34961" xlink:href="#ma85a17d876" y="122.055816"/>
     <use style="fill:#0000ff;stroke:#0000ff;" x="305.728831" xlink:href="#ma85a17d876" y="146.210658"/>
     <use style="fill:#0000ff;stroke:#0000ff;" x="352.108052" xlink:href="#ma85a17d876" y="159.245436"/>
     <use style="fill:#0000ff;stroke:#0000ff;" x="398.487273" xlink:href="#ma85a17d876" y="167.346145"/>
    </g>
   </g>
   <g id="PathCollection_14">
    <g clip-path="url(#p552adb3562)">
     <use style="fill:#0000ff;stroke:#0000ff;" x="73.832727" xlink:href="#ma85a17d876" y="153.869511"/>
     <use style="fill:#0000ff;stroke:#0000ff;" x="120.211948" xlink:href="#ma85a17d876" y="162.853934"/>
     <use style="fill:#0000ff;stroke:#0000ff;" x="166.591169" xlink:href="#ma85a17d876" y="140.576983"/>
     <use style="fill:#0000ff;stroke:#0000ff;" x="212.97039" xlink:href="#ma85a17d876" y="105.854397"/>
     <use style="fill:#0000ff;stroke:#0000ff;" x="259.34961" xlink:href="#ma85a17d876" y="93.261476"/>
     <use style="fill:#0000ff;stroke:#0000ff;" x="305.728831" xlink:href="#ma85a17d876" y="122.902708"/>
     <use style="fill:#0000ff;stroke:#0000ff;" x="352.108052" xlink:href="#ma85a17d876" y="139.17777"/>
     <use style="fill:#0000ff;stroke:#0000ff;" x="398.487273" xlink:href="#ma85a17d876" y="145.98973"/>
    </g>
   </g>
   <g id="PathCollection_15">
    <g clip-path="url(#p552adb3562)">
     <use style="fill:#0000ff;stroke:#0000ff;" x="73.832727" xlink:href="#ma85a17d876" y="181.08053"/>
     <use style="fill:#0000ff;stroke:#0000ff;" x="120.211948" xlink:href="#ma85a17d876" y="189.254882"/>
     <use style="fill:#0000ff;stroke:#0000ff;" x="166.591169" xlink:href="#ma85a17d876" y="169.960465"/>
     <use style="fill:#0000ff;stroke:#0000ff;" x="212.97039" xlink:href="#ma85a17d876" y="136.858021"/>
     <use style="fill:#0000ff;stroke:#0000ff;" x="259.34961" xlink:href="#ma85a17d876" y="129.125526"/>
     <use style="fill:#0000ff;stroke:#0000ff;" x="305.728831" xlink:href="#ma85a17d876" y="153.574939"/>
     <use style="fill:#0000ff;stroke:#0000ff;" x="352.108052" xlink:href="#ma85a17d876" y="170.070929"/>
     <use style="fill:#0000ff;stroke:#0000ff;" x="398.487273" xlink:href="#ma85a17d876" y="174.599962"/>
    </g>
   </g>
   <g id="matplotlib.axis_1">
    <g id="xtick_1">
     <g id="line2d_1">
      <defs>
       <path d="M 0 0 
L 0 3.5 
" id="mcaf2870bb9" style="stroke:#000000;stroke-width:0.8;"/>
      </defs>
      <g>
       <use style="stroke:#000000;stroke-width:0.8;" x="120.211948" xlink:href="#mcaf2870bb9" y="307.584"/>
      </g>
     </g>
     <g id="text_1">
      <!-- 5 -->
      <g transform="translate(117.030698 322.182437)scale(0.1 -0.1)">
       <defs>
        <path d="M 10.796875 72.90625 
L 49.515625 72.90625 
L 49.515625 64.59375 
L 19.828125 64.59375 
L 19.828125 46.734375 
Q 21.96875 47.46875 24.109375 47.828125 
Q 26.265625 48.1875 28.421875 48.1875 
Q 40.625 48.1875 47.75 41.5 
Q 54.890625 34.8125 54.890625 23.390625 
Q 54.890625 11.625 47.5625 5.09375 
Q 40.234375 -1.421875 26.90625 -1.421875 
Q 22.3125 -1.421875 17.546875 -0.640625 
Q 12.796875 0.140625 7.71875 1.703125 
L 7.71875 11.625 
Q 12.109375 9.234375 16.796875 8.0625 
Q 21.484375 6.890625 26.703125 6.890625 
Q 35.15625 6.890625 40.078125 11.328125 
Q 45.015625 15.765625 45.015625 23.390625 
Q 45.015625 31 40.078125 35.4375 
Q 35.15625 39.890625 26.703125 39.890625 
Q 22.75 39.890625 18.8125 39.015625 
Q 14.890625 38.140625 10.796875 36.28125 
z
" id="DejaVuSans-53"/>
       </defs>
       <use xlink:href="#DejaVuSans-53"/>
      </g>
     </g>
    </g>
    <g id="xtick_2">
     <g id="line2d_2">
      <g>
       <use style="stroke:#000000;stroke-width:0.8;" x="197.510649" xlink:href="#mcaf2870bb9" y="307.584"/>
      </g>
     </g>
     <g id="text_2">
      <!-- 10 -->
      <g transform="translate(191.148149 322.182437)scale(0.1 -0.1)">
       <defs>
        <path d="M 12.40625 8.296875 
L 28.515625 8.296875 
L 28.515625 63.921875 
L 10.984375 60.40625 
L 10.984375 69.390625 
L 28.421875 72.90625 
L 38.28125 72.90625 
L 38.28125 8.296875 
L 54.390625 8.296875 
L 54.390625 0 
L 12.40625 0 
z
" id="DejaVuSans-49"/>
        <path d="M 31.78125 66.40625 
Q 24.171875 66.40625 20.328125 58.90625 
Q 16.5 51.421875 16.5 36.375 
Q 16.5 21.390625 20.328125 13.890625 
Q 24.171875 6.390625 31.78125 6.390625 
Q 39.453125 6.390625 43.28125 13.890625 
Q 47.125 21.390625 47.125 36.375 
Q 47.125 51.421875 43.28125 58.90625 
Q 39.453125 66.40625 31.78125 66.40625 
z
M 31.78125 74.21875 
Q 44.046875 74.21875 50.515625 64.515625 
Q 56.984375 54.828125 56.984375 36.375 
Q 56.984375 17.96875 50.515625 8.265625 
Q 44.046875 -1.421875 31.78125 -1.421875 
Q 19.53125 -1.421875 13.0625 8.265625 
Q 6.59375 17.96875 6.59375 36.375 
Q 6.59375 54.828125 13.0625 64.515625 
Q 19.53125 74.21875 31.78125 74.21875 
z
" id="DejaVuSans-48"/>
       </defs>
       <use xlink:href="#DejaVuSans-49"/>
       <use x="63.623047" xlink:href="#DejaVuSans-48"/>
      </g>
     </g>
    </g>
    <g id="xtick_3">
     <g id="line2d_3">
      <g>
       <use style="stroke:#000000;stroke-width:0.8;" x="274.809351" xlink:href="#mcaf2870bb9" y="307.584"/>
      </g>
     </g>
     <g id="text_3">
      <!-- 15 -->
      <g transform="translate(268.446851 322.182437)scale(0.1 -0.1)">
       <use xlink:href="#DejaVuSans-49"/>
       <use x="63.623047" xlink:href="#DejaVuSans-53"/>
      </g>
     </g>
    </g>
    <g id="xtick_4">
     <g id="line2d_4">
      <g>
       <use style="stroke:#000000;stroke-width:0.8;" x="352.108052" xlink:href="#mcaf2870bb9" y="307.584"/>
      </g>
     </g>
     <g id="text_4">
      <!-- 20 -->
      <g transform="translate(345.745552 322.182437)scale(0.1 -0.1)">
       <defs>
        <path d="M 19.1875 8.296875 
L 53.609375 8.296875 
L 53.609375 0 
L 7.328125 0 
L 7.328125 8.296875 
Q 12.9375 14.109375 22.625 23.890625 
Q 32.328125 33.6875 34.8125 36.53125 
Q 39.546875 41.84375 41.421875 45.53125 
Q 43.3125 49.21875 43.3125 52.78125 
Q 43.3125 58.59375 39.234375 62.25 
Q 35.15625 65.921875 28.609375 65.921875 
Q 23.96875 65.921875 18.8125 64.3125 
Q 13.671875 62.703125 7.8125 59.421875 
L 7.8125 69.390625 
Q 13.765625 71.78125 18.9375 73 
Q 24.125 74.21875 28.421875 74.21875 
Q 39.75 74.21875 46.484375 68.546875 
Q 53.21875 62.890625 53.21875 53.421875 
Q 53.21875 48.921875 51.53125 44.890625 
Q 49.859375 40.875 45.40625 35.40625 
Q 44.1875 33.984375 37.640625 27.21875 
Q 31.109375 20.453125 19.1875 8.296875 
z
" id="DejaVuSans-50"/>
       </defs>
       <use xlink:href="#DejaVuSans-50"/>
       <use x="63.623047" xlink:href="#DejaVuSans-48"/>
      </g>
     </g>
    </g>
   </g>
   <g id="matplotlib.axis_2">
    <g id="ytick_1">
     <g id="line2d_5">
      <defs>
       <path d="M 0 0 
L -3.5 0 
" id="m1b762e74ee" style="stroke:#000000;stroke-width:0.8;"/>
      </defs>
      <g>
       <use style="stroke:#000000;stroke-width:0.8;" x="57.6" xlink:href="#m1b762e74ee" y="268.678655"/>
      </g>
     </g>
     <g id="text_5">
      <!-- 5 -->
      <g transform="translate(44.2375 272.477874)scale(0.1 -0.1)">
       <use xlink:href="#DejaVuSans-53"/>
      </g>
     </g>
    </g>
    <g id="ytick_2">
     <g id="line2d_6">
      <g>
       <use style="stroke:#000000;stroke-width:0.8;" x="57.6" xlink:href="#m1b762e74ee" y="213.446546"/>
      </g>
     </g>
     <g id="text_6">
      <!-- 10 -->
      <g transform="translate(37.875 217.245765)scale(0.1 -0.1)">
       <use xlink:href="#DejaVuSans-49"/>
       <use x="63.623047" xlink:href="#DejaVuSans-48"/>
      </g>
     </g>
    </g>
    <g id="ytick_3">
     <g id="line2d_7">
      <g>
       <use style="stroke:#000000;stroke-width:0.8;" x="57.6" xlink:href="#m1b762e74ee" y="158.214437"/>
      </g>
     </g>
     <g id="text_7">
      <!-- 15 -->
      <g transform="translate(37.875 162.013655)scale(0.1 -0.1)">
       <use xlink:href="#DejaVuSans-49"/>
       <use x="63.623047" xlink:href="#DejaVuSans-53"/>
      </g>
     </g>
    </g>
    <g id="ytick_4">
     <g id="line2d_8">
      <g>
       <use style="stroke:#000000;stroke-width:0.8;" x="57.6" xlink:href="#m1b762e74ee" y="102.982327"/>
      </g>
     </g>
     <g id="text_8">
      <!-- 20 -->
      <g transform="translate(37.875 106.781546)scale(0.1 -0.1)">
       <use xlink:href="#DejaVuSans-50"/>
       <use x="63.623047" xlink:href="#DejaVuSans-48"/>
      </g>
     </g>
    </g>
    <g id="ytick_5">
     <g id="line2d_9">
      <g>
       <use style="stroke:#000000;stroke-width:0.8;" x="57.6" xlink:href="#m1b762e74ee" y="47.750218"/>
      </g>
     </g>
     <g id="text_9">
      <!-- 25 -->
      <g transform="translate(37.875 51.549437)scale(0.1 -0.1)">
       <use xlink:href="#DejaVuSans-50"/>
       <use x="63.623047" xlink:href="#DejaVuSans-53"/>
      </g>
     </g>
    </g>
   </g>
   <g id="line2d_10">
    <path clip-path="url(#p552adb3562)" d="M 73.832727 273.254443 
L 77.112066 266.080807 
L 80.391405 258.36066 
L 83.670744 250.137077 
L 86.950083 241.469461 
L 90.229421 232.433561 
L 93.50876 223.120853 
L 96.788099 213.637187 
L 100.067438 204.100715 
L 103.346777 194.639092 
L 106.626116 185.386016 
L 109.905455 176.477195 
L 113.184793 168.045894 
L 116.464132 160.218219 
L 119.743471 153.108345 
L 123.02281 146.813915 
L 126.302149 141.411831 
L 129.581488 136.954666 
L 132.860826 133.467903 
L 136.140165 130.948175 
L 139.419504 129.362655 
L 142.698843 128.649653 
L 145.978182 128.720472 
L 149.257521 129.46247 
L 152.53686 130.743228 
L 155.816198 132.415678 
L 159.095537 134.32396 
L 162.374876 136.309768 
L 165.654215 138.21889 
L 168.933554 139.907644 
L 172.212893 141.248911 
L 175.492231 142.137457 
L 178.77157 142.494312 
L 182.050909 142.269957 
L 185.330248 141.446177 
L 188.609587 140.03647 
L 191.888926 138.084979 
L 195.168264 135.663983 
L 198.447603 132.870068 
L 201.726942 129.819133 
L 205.006281 126.640483 
L 208.28562 123.470272 
L 211.564959 120.44462 
L 214.844298 117.692733 
L 218.123636 115.330358 
L 221.402975 113.453901 
L 224.682314 112.135486 
L 227.961653 111.41922 
L 231.240992 111.318839 
L 234.520331 111.816863 
L 237.799669 112.865308 
L 241.079008 114.387935 
L 244.358347 116.283921 
L 247.637686 118.432793 
L 250.917025 120.700384 
L 254.196364 122.945525 
L 257.475702 125.027157 
L 260.755041 126.811514 
L 264.03438 128.179035 
L 267.313719 129.030672 
L 270.593058 129.293285 
L 273.872397 128.92387 
L 277.151736 127.912407 
L 280.431074 126.283201 
L 283.710413 124.094641 
L 286.989752 121.437403 
L 290.269091 118.431159 
L 293.54843 115.21998 
L 296.827769 111.966624 
L 300.107107 108.845999 
L 303.386446 106.038099 
L 306.665785 103.720748 
L 309.945124 102.062482 
L 313.224463 101.215898 
L 316.503802 101.311755 
L 319.78314 102.454088 
L 323.062479 104.716522 
L 326.341818 108.139924 
L 329.621157 112.731448 
L 332.900496 118.464974 
L 336.179835 125.282861 
L 339.459174 133.098875 
L 342.738512 141.802107 
L 346.017851 151.261656 
L 349.29719 161.331827 
L 352.576529 171.857579 
L 355.855868 182.679972 
L 359.135207 193.641377 
L 362.414545 204.590238 
L 365.693884 215.38522 
L 368.973223 225.898624 
L 372.252562 236.018978 
L 375.531901 245.652793 
L 378.81124 254.725487 
L 382.090579 263.181526 
L 385.369917 270.983884 
L 388.649256 278.112898 
L 391.928595 284.564679 
L 395.207934 290.34917 
L 398.487273 295.488 
" style="fill:none;stroke:#1f77b4;stroke-linecap:square;stroke-width:1.5;"/>
   </g>
   <g id="patch_3">
    <path d="M 57.6 307.584 
L 57.6 41.472 
" style="fill:none;stroke:#000000;stroke-linecap:square;stroke-linejoin:miter;stroke-width:0.8;"/>
   </g>
   <g id="patch_4">
    <path d="M 414.72 307.584 
L 414.72 41.472 
" style="fill:none;stroke:#000000;stroke-linecap:square;stroke-linejoin:miter;stroke-width:0.8;"/>
   </g>
   <g id="patch_5">
    <path d="M 57.6 307.584 
L 414.72 307.584 
" style="fill:none;stroke:#000000;stroke-linecap:square;stroke-linejoin:miter;stroke-width:0.8;"/>
   </g>
   <g id="patch_6">
    <path d="M 57.6 41.472 
L 414.72 41.472 
" style="fill:none;stroke:#000000;stroke-linecap:square;stroke-linejoin:miter;stroke-width:0.8;"/>
   </g>
  </g>
 </g>
 <defs>
  <clipPath id="p552adb3562">
   <rect height="266.112" width="357.12" x="57.6" y="41.472"/>
  </clipPath>
 </defs>
</svg>
