<?xml version="1.0" encoding="utf-8" standalone="no"?>
<!DOCTYPE svg PUBLIC "-//W3C//DTD SVG 1.1//EN"
  "http://www.w3.org/Graphics/SVG/1.1/DTD/svg11.dtd">
<!-- Created with matplotlib (https://matplotlib.org/) -->
<svg height="345.6pt" version="1.1" viewBox="0 0 460.8 345.6" width="460.8pt" xmlns="http://www.w3.org/2000/svg" xmlns:xlink="http://www.w3.org/1999/xlink">
 <metadata>
  <rdf:RDF xmlns:cc="http://creativecommons.org/ns#" xmlns:dc="http://purl.org/dc/elements/1.1/" xmlns:rdf="http://www.w3.org/1999/02/22-rdf-syntax-ns#">
   <cc:Work>
    <dc:type rdf:resource="http://purl.org/dc/dcmitype/StillImage"/>
    <dc:date>2021-11-21T15:41:25.371362</dc:date>
    <dc:format>image/svg+xml</dc:format>
    <dc:creator>
     <cc:Agent>
      <dc:title>Matplotlib v3.3.4, https://matplotlib.org/</dc:title>
     </cc:Agent>
    </dc:creator>
   </cc:Work>
  </rdf:RDF>
 </metadata>
 <defs>
  <style type="text/css">*{stroke-linecap:butt;stroke-linejoin:round;}</style>
 </defs>
 <g id="figure_1">
  <g id="patch_1">
   <path d="M 0 345.6 
L 460.8 345.6 
L 460.8 0 
L 0 0 
z
" style="fill:#ffffff;"/>
  </g>
  <g id="axes_1">
   <g id="patch_2">
    <path d="M 57.6 307.584 
L 414.72 307.584 
L 414.72 41.472 
L 57.6 41.472 
z
" style="fill:#ffffff;"/>
   </g>
   <g id="PathCollection_1">
    <defs>
     <path d="M 0 0.5 
C 0.132602 0.5 0.25979 0.447317 0.353553 0.353553 
C 0.447317 0.25979 0.5 0.132602 0.5 0 
C 0.5 -0.132602 0.447317 -0.25979 0.353553 -0.353553 
C 0.25979 -0.447317 0.132602 -0.5 0 -0.5 
C -0.132602 -0.5 -0.25979 -0.447317 -0.353553 -0.353553 
C -0.447317 -0.25979 -0.5 -0.132602 -0.5 0 
C -0.5 0.132602 -0.447317 0.25979 -0.353553 0.353553 
C -0.25979 0.447317 -0.132602 0.5 0 0.5 
z
" id="ma8db4fe82d" style="stroke:#0000ff;"/>
    </defs>
    <g clip-path="url(#p6948faa6ae)">
     <use style="fill:#0000ff;stroke:#0000ff;" x="73.832727" xlink:href="#ma8db4fe82d" y="250.87581"/>
     <use style="fill:#0000ff;stroke:#0000ff;" x="120.211948" xlink:href="#ma8db4fe82d" y="263.524477"/>
     <use style="fill:#0000ff;stroke:#0000ff;" x="166.591169" xlink:href="#ma8db4fe82d" y="233.669065"/>
     <use style="fill:#0000ff;stroke:#0000ff;" x="212.97039" xlink:href="#ma8db4fe82d" y="182.447661"/>
     <use style="fill:#0000ff;stroke:#0000ff;" x="259.34961" xlink:href="#ma8db4fe82d" y="170.482706"/>
     <use style="fill:#0000ff;stroke:#0000ff;" x="305.728831" xlink:href="#ma8db4fe82d" y="208.314755"/>
     <use style="fill:#0000ff;stroke:#0000ff;" x="352.108052" xlink:href="#ma8db4fe82d" y="233.839992"/>
     <use style="fill:#0000ff;stroke:#0000ff;" x="398.487273" xlink:href="#ma8db4fe82d" y="240.848038"/>
    </g>
   </g>
   <g id="PathCollection_2">
    <g clip-path="url(#p6948faa6ae)">
     <use style="fill:#0000ff;stroke:#0000ff;" x="73.832727" xlink:href="#ma8db4fe82d" y="233.327209"/>
     <use style="fill:#0000ff;stroke:#0000ff;" x="120.211948" xlink:href="#ma8db4fe82d" y="242.101509"/>
     <use style="fill:#0000ff;stroke:#0000ff;" x="166.591169" xlink:href="#ma8db4fe82d" y="206.890355"/>
     <use style="fill:#0000ff;stroke:#0000ff;" x="212.97039" xlink:href="#ma8db4fe82d" y="155.213144"/>
     <use style="fill:#0000ff;stroke:#0000ff;" x="259.34961" xlink:href="#ma8db4fe82d" y="143.36214"/>
     <use style="fill:#0000ff;stroke:#0000ff;" x="305.728831" xlink:href="#ma8db4fe82d" y="192.304505"/>
     <use style="fill:#0000ff;stroke:#0000ff;" x="352.108052" xlink:href="#ma8db4fe82d" y="220.906446"/>
     <use style="fill:#0000ff;stroke:#0000ff;" x="398.487273" xlink:href="#ma8db4fe82d" y="228.028443"/>
    </g>
   </g>
   <g id="PathCollection_3">
    <g clip-path="url(#p6948faa6ae)">
     <use style="fill:#0000ff;stroke:#0000ff;" x="73.832727" xlink:href="#ma8db4fe82d" y="222.273869"/>
     <use style="fill:#0000ff;stroke:#0000ff;" x="120.211948" xlink:href="#ma8db4fe82d" y="231.959785"/>
     <use style="fill:#0000ff;stroke:#0000ff;" x="166.591169" xlink:href="#ma8db4fe82d" y="196.919559"/>
     <use style="fill:#0000ff;stroke:#0000ff;" x="212.97039" xlink:href="#ma8db4fe82d" y="146.609771"/>
     <use style="fill:#0000ff;stroke:#0000ff;" x="259.34961" xlink:href="#ma8db4fe82d" y="132.593681"/>
     <use style="fill:#0000ff;stroke:#0000ff;" x="305.728831" xlink:href="#ma8db4fe82d" y="177.889583"/>
     <use style="fill:#0000ff;stroke:#0000ff;" x="352.108052" xlink:href="#ma8db4fe82d" y="203.585748"/>
     <use style="fill:#0000ff;stroke:#0000ff;" x="398.487273" xlink:href="#ma8db4fe82d" y="215.265824"/>
    </g>
   </g>
   <g id="PathCollection_4">
    <g clip-path="url(#p6948faa6ae)">
     <use style="fill:#0000ff;stroke:#0000ff;" x="73.832727" xlink:href="#ma8db4fe82d" y="246.374707"/>
     <use style="fill:#0000ff;stroke:#0000ff;" x="120.211948" xlink:href="#ma8db4fe82d" y="258.624543"/>
     <use style="fill:#0000ff;stroke:#0000ff;" x="166.591169" xlink:href="#ma8db4fe82d" y="223.014557"/>
     <use style="fill:#0000ff;stroke:#0000ff;" x="212.97039" xlink:href="#ma8db4fe82d" y="173.616384"/>
     <use style="fill:#0000ff;stroke:#0000ff;" x="259.34961" xlink:href="#ma8db4fe82d" y="163.75954"/>
     <use style="fill:#0000ff;stroke:#0000ff;" x="305.728831" xlink:href="#ma8db4fe82d" y="205.1241"/>
     <use style="fill:#0000ff;stroke:#0000ff;" x="352.108052" xlink:href="#ma8db4fe82d" y="228.826106"/>
     <use style="fill:#0000ff;stroke:#0000ff;" x="398.487273" xlink:href="#ma8db4fe82d" y="238.739927"/>
    </g>
   </g>
   <g id="PathCollection_5">
    <g clip-path="url(#p6948faa6ae)">
     <use style="fill:#0000ff;stroke:#0000ff;" x="73.832727" xlink:href="#ma8db4fe82d" y="164.785108"/>
     <use style="fill:#0000ff;stroke:#0000ff;" x="120.211948" xlink:href="#ma8db4fe82d" y="178.231439"/>
     <use style="fill:#0000ff;stroke:#0000ff;" x="166.591169" xlink:href="#ma8db4fe82d" y="136.126191"/>
     <use style="fill:#0000ff;stroke:#0000ff;" x="212.97039" xlink:href="#ma8db4fe82d" y="73.11076"/>
     <use style="fill:#0000ff;stroke:#0000ff;" x="259.34961" xlink:href="#ma8db4fe82d" y="53.568"/>
     <use style="fill:#0000ff;stroke:#0000ff;" x="305.728831" xlink:href="#ma8db4fe82d" y="116.469479"/>
     <use style="fill:#0000ff;stroke:#0000ff;" x="352.108052" xlink:href="#ma8db4fe82d" y="143.64702"/>
     <use style="fill:#0000ff;stroke:#0000ff;" x="398.487273" xlink:href="#ma8db4fe82d" y="153.048057"/>
    </g>
   </g>
   <g id="PathCollection_6">
    <g clip-path="url(#p6948faa6ae)">
     <use style="fill:#0000ff;stroke:#0000ff;" x="73.832727" xlink:href="#ma8db4fe82d" y="290.132258"/>
     <use style="fill:#0000ff;stroke:#0000ff;" x="120.211948" xlink:href="#ma8db4fe82d" y="295.488"/>
     <use style="fill:#0000ff;stroke:#0000ff;" x="166.591169" xlink:href="#ma8db4fe82d" y="261.872173"/>
     <use style="fill:#0000ff;stroke:#0000ff;" x="212.97039" xlink:href="#ma8db4fe82d" y="221.932013"/>
     <use style="fill:#0000ff;stroke:#0000ff;" x="259.34961" xlink:href="#ma8db4fe82d" y="212.474001"/>
     <use style="fill:#0000ff;stroke:#0000ff;" x="305.728831" xlink:href="#ma8db4fe82d" y="246.545635"/>
     <use style="fill:#0000ff;stroke:#0000ff;" x="352.108052" xlink:href="#ma8db4fe82d" y="271.615065"/>
     <use style="fill:#0000ff;stroke:#0000ff;" x="398.487273" xlink:href="#ma8db4fe82d" y="283.807925"/>
    </g>
   </g>
   <g id="PathCollection_7">
    <g clip-path="url(#p6948faa6ae)">
     <use style="fill:#0000ff;stroke:#0000ff;" x="73.832727" xlink:href="#ma8db4fe82d" y="209.22637"/>
     <use style="fill:#0000ff;stroke:#0000ff;" x="120.211948" xlink:href="#ma8db4fe82d" y="217.032079"/>
     <use style="fill:#0000ff;stroke:#0000ff;" x="166.591169" xlink:href="#ma8db4fe82d" y="188.999898"/>
     <use style="fill:#0000ff;stroke:#0000ff;" x="212.97039" xlink:href="#ma8db4fe82d" y="137.379663"/>
     <use style="fill:#0000ff;stroke:#0000ff;" x="259.34961" xlink:href="#ma8db4fe82d" y="133.676224"/>
     <use style="fill:#0000ff;stroke:#0000ff;" x="305.728831" xlink:href="#ma8db4fe82d" y="176.009375"/>
     <use style="fill:#0000ff;stroke:#0000ff;" x="352.108052" xlink:href="#ma8db4fe82d" y="195.893992"/>
     <use style="fill:#0000ff;stroke:#0000ff;" x="398.487273" xlink:href="#ma8db4fe82d" y="206.776403"/>
    </g>
   </g>
   <g id="PathCollection_8">
    <g clip-path="url(#p6948faa6ae)">
     <use style="fill:#0000ff;stroke:#0000ff;" x="73.832727" xlink:href="#ma8db4fe82d" y="203.756676"/>
     <use style="fill:#0000ff;stroke:#0000ff;" x="120.211948" xlink:href="#ma8db4fe82d" y="210.764722"/>
     <use style="fill:#0000ff;stroke:#0000ff;" x="166.591169" xlink:href="#ma8db4fe82d" y="181.080237"/>
     <use style="fill:#0000ff;stroke:#0000ff;" x="212.97039" xlink:href="#ma8db4fe82d" y="132.536705"/>
     <use style="fill:#0000ff;stroke:#0000ff;" x="259.34961" xlink:href="#ma8db4fe82d" y="115.785767"/>
     <use style="fill:#0000ff;stroke:#0000ff;" x="305.728831" xlink:href="#ma8db4fe82d" y="159.94215"/>
     <use style="fill:#0000ff;stroke:#0000ff;" x="352.108052" xlink:href="#ma8db4fe82d" y="182.960445"/>
     <use style="fill:#0000ff;stroke:#0000ff;" x="398.487273" xlink:href="#ma8db4fe82d" y="196.007943"/>
    </g>
   </g>
   <g id="PathCollection_9">
    <g clip-path="url(#p6948faa6ae)">
     <use style="fill:#0000ff;stroke:#0000ff;" x="73.832727" xlink:href="#ma8db4fe82d" y="248.254915"/>
     <use style="fill:#0000ff;stroke:#0000ff;" x="120.211948" xlink:href="#ma8db4fe82d" y="259.878014"/>
     <use style="fill:#0000ff;stroke:#0000ff;" x="166.591169" xlink:href="#ma8db4fe82d" y="227.914491"/>
     <use style="fill:#0000ff;stroke:#0000ff;" x="212.97039" xlink:href="#ma8db4fe82d" y="185.353436"/>
     <use style="fill:#0000ff;stroke:#0000ff;" x="259.34961" xlink:href="#ma8db4fe82d" y="175.040784"/>
     <use style="fill:#0000ff;stroke:#0000ff;" x="305.728831" xlink:href="#ma8db4fe82d" y="211.334481"/>
     <use style="fill:#0000ff;stroke:#0000ff;" x="352.108052" xlink:href="#ma8db4fe82d" y="231.219098"/>
     <use style="fill:#0000ff;stroke:#0000ff;" x="398.487273" xlink:href="#ma8db4fe82d" y="238.682951"/>
    </g>
   </g>
   <g id="PathCollection_10">
    <g clip-path="url(#p6948faa6ae)">
     <use style="fill:#0000ff;stroke:#0000ff;" x="73.832727" xlink:href="#ma8db4fe82d" y="221.932013"/>
     <use style="fill:#0000ff;stroke:#0000ff;" x="120.211948" xlink:href="#ma8db4fe82d" y="231.162122"/>
     <use style="fill:#0000ff;stroke:#0000ff;" x="166.591169" xlink:href="#ma8db4fe82d" y="205.181076"/>
     <use style="fill:#0000ff;stroke:#0000ff;" x="212.97039" xlink:href="#ma8db4fe82d" y="168.830402"/>
     <use style="fill:#0000ff;stroke:#0000ff;" x="259.34961" xlink:href="#ma8db4fe82d" y="154.586408"/>
     <use style="fill:#0000ff;stroke:#0000ff;" x="305.728831" xlink:href="#ma8db4fe82d" y="186.151099"/>
     <use style="fill:#0000ff;stroke:#0000ff;" x="352.108052" xlink:href="#ma8db4fe82d" y="202.788085"/>
     <use style="fill:#0000ff;stroke:#0000ff;" x="398.487273" xlink:href="#ma8db4fe82d" y="215.03792"/>
    </g>
   </g>
   <g id="PathCollection_11">
    <g clip-path="url(#p6948faa6ae)">
     <use style="fill:#0000ff;stroke:#0000ff;" x="73.832727" xlink:href="#ma8db4fe82d" y="228.142395"/>
     <use style="fill:#0000ff;stroke:#0000ff;" x="120.211948" xlink:href="#ma8db4fe82d" y="243.241029"/>
     <use style="fill:#0000ff;stroke:#0000ff;" x="166.591169" xlink:href="#ma8db4fe82d" y="207.688019"/>
     <use style="fill:#0000ff;stroke:#0000ff;" x="212.97039" xlink:href="#ma8db4fe82d" y="154.529432"/>
     <use style="fill:#0000ff;stroke:#0000ff;" x="259.34961" xlink:href="#ma8db4fe82d" y="139.715678"/>
     <use style="fill:#0000ff;stroke:#0000ff;" x="305.728831" xlink:href="#ma8db4fe82d" y="183.815084"/>
     <use style="fill:#0000ff;stroke:#0000ff;" x="352.108052" xlink:href="#ma8db4fe82d" y="205.181076"/>
     <use style="fill:#0000ff;stroke:#0000ff;" x="398.487273" xlink:href="#ma8db4fe82d" y="214.810016"/>
    </g>
   </g>
   <g id="PathCollection_12">
    <g clip-path="url(#p6948faa6ae)">
     <use style="fill:#0000ff;stroke:#0000ff;" x="73.832727" xlink:href="#ma8db4fe82d" y="242.272437"/>
     <use style="fill:#0000ff;stroke:#0000ff;" x="120.211948" xlink:href="#ma8db4fe82d" y="251.331618"/>
     <use style="fill:#0000ff;stroke:#0000ff;" x="166.591169" xlink:href="#ma8db4fe82d" y="211.448433"/>
     <use style="fill:#0000ff;stroke:#0000ff;" x="212.97039" xlink:href="#ma8db4fe82d" y="161.993285"/>
     <use style="fill:#0000ff;stroke:#0000ff;" x="259.34961" xlink:href="#ma8db4fe82d" y="153.389912"/>
     <use style="fill:#0000ff;stroke:#0000ff;" x="305.728831" xlink:href="#ma8db4fe82d" y="200.622998"/>
     <use style="fill:#0000ff;stroke:#0000ff;" x="352.108052" xlink:href="#ma8db4fe82d" y="226.262187"/>
     <use style="fill:#0000ff;stroke:#0000ff;" x="398.487273" xlink:href="#ma8db4fe82d" y="237.885287"/>
    </g>
   </g>
   <g id="PathCollection_13">
    <g clip-path="url(#p6948faa6ae)">
     <use style="fill:#0000ff;stroke:#0000ff;" x="73.832727" xlink:href="#ma8db4fe82d" y="235.663224"/>
     <use style="fill:#0000ff;stroke:#0000ff;" x="120.211948" xlink:href="#ma8db4fe82d" y="242.500341"/>
     <use style="fill:#0000ff;stroke:#0000ff;" x="166.591169" xlink:href="#ma8db4fe82d" y="216.747199"/>
     <use style="fill:#0000ff;stroke:#0000ff;" x="212.97039" xlink:href="#ma8db4fe82d" y="170.995489"/>
     <use style="fill:#0000ff;stroke:#0000ff;" x="259.34961" xlink:href="#ma8db4fe82d" y="159.543318"/>
     <use style="fill:#0000ff;stroke:#0000ff;" x="305.728831" xlink:href="#ma8db4fe82d" y="196.919559"/>
     <use style="fill:#0000ff;stroke:#0000ff;" x="352.108052" xlink:href="#ma8db4fe82d" y="217.089055"/>
     <use style="fill:#0000ff;stroke:#0000ff;" x="398.487273" xlink:href="#ma8db4fe82d" y="229.62377"/>
    </g>
   </g>
   <g id="PathCollection_14">
    <g clip-path="url(#p6948faa6ae)">
     <use style="fill:#0000ff;stroke:#0000ff;" x="73.832727" xlink:href="#ma8db4fe82d" y="208.770562"/>
     <use style="fill:#0000ff;stroke:#0000ff;" x="120.211948" xlink:href="#ma8db4fe82d" y="222.672701"/>
     <use style="fill:#0000ff;stroke:#0000ff;" x="166.591169" xlink:href="#ma8db4fe82d" y="188.202235"/>
     <use style="fill:#0000ff;stroke:#0000ff;" x="212.97039" xlink:href="#ma8db4fe82d" y="134.473888"/>
     <use style="fill:#0000ff;stroke:#0000ff;" x="259.34961" xlink:href="#ma8db4fe82d" y="114.988104"/>
     <use style="fill:#0000ff;stroke:#0000ff;" x="305.728831" xlink:href="#ma8db4fe82d" y="160.853765"/>
     <use style="fill:#0000ff;stroke:#0000ff;" x="352.108052" xlink:href="#ma8db4fe82d" y="186.037147"/>
     <use style="fill:#0000ff;stroke:#0000ff;" x="398.487273" xlink:href="#ma8db4fe82d" y="196.577703"/>
    </g>
   </g>
   <g id="PathCollection_15">
    <g clip-path="url(#p6948faa6ae)">
     <use style="fill:#0000ff;stroke:#0000ff;" x="73.832727" xlink:href="#ma8db4fe82d" y="250.87581"/>
     <use style="fill:#0000ff;stroke:#0000ff;" x="120.211948" xlink:href="#ma8db4fe82d" y="263.524477"/>
     <use style="fill:#0000ff;stroke:#0000ff;" x="166.591169" xlink:href="#ma8db4fe82d" y="233.669065"/>
     <use style="fill:#0000ff;stroke:#0000ff;" x="212.97039" xlink:href="#ma8db4fe82d" y="182.447661"/>
     <use style="fill:#0000ff;stroke:#0000ff;" x="259.34961" xlink:href="#ma8db4fe82d" y="170.482706"/>
     <use style="fill:#0000ff;stroke:#0000ff;" x="305.728831" xlink:href="#ma8db4fe82d" y="208.314755"/>
     <use style="fill:#0000ff;stroke:#0000ff;" x="352.108052" xlink:href="#ma8db4fe82d" y="233.839992"/>
     <use style="fill:#0000ff;stroke:#0000ff;" x="398.487273" xlink:href="#ma8db4fe82d" y="240.848038"/>
    </g>
   </g>
   <g id="PathCollection_16">
    <g clip-path="url(#p6948faa6ae)">
     <use style="fill:#0000ff;stroke:#0000ff;" x="73.832727" xlink:href="#ma8db4fe82d" y="233.327209"/>
     <use style="fill:#0000ff;stroke:#0000ff;" x="120.211948" xlink:href="#ma8db4fe82d" y="242.101509"/>
     <use style="fill:#0000ff;stroke:#0000ff;" x="166.591169" xlink:href="#ma8db4fe82d" y="206.890355"/>
     <use style="fill:#0000ff;stroke:#0000ff;" x="212.97039" xlink:href="#ma8db4fe82d" y="155.213144"/>
     <use style="fill:#0000ff;stroke:#0000ff;" x="259.34961" xlink:href="#ma8db4fe82d" y="143.36214"/>
     <use style="fill:#0000ff;stroke:#0000ff;" x="305.728831" xlink:href="#ma8db4fe82d" y="192.304505"/>
     <use style="fill:#0000ff;stroke:#0000ff;" x="352.108052" xlink:href="#ma8db4fe82d" y="220.906446"/>
     <use style="fill:#0000ff;stroke:#0000ff;" x="398.487273" xlink:href="#ma8db4fe82d" y="228.028443"/>
    </g>
   </g>
   <g id="PathCollection_17">
    <g clip-path="url(#p6948faa6ae)">
     <use style="fill:#0000ff;stroke:#0000ff;" x="73.832727" xlink:href="#ma8db4fe82d" y="222.273869"/>
     <use style="fill:#0000ff;stroke:#0000ff;" x="120.211948" xlink:href="#ma8db4fe82d" y="231.959785"/>
     <use style="fill:#0000ff;stroke:#0000ff;" x="166.591169" xlink:href="#ma8db4fe82d" y="196.919559"/>
     <use style="fill:#0000ff;stroke:#0000ff;" x="212.97039" xlink:href="#ma8db4fe82d" y="146.609771"/>
     <use style="fill:#0000ff;stroke:#0000ff;" x="259.34961" xlink:href="#ma8db4fe82d" y="132.593681"/>
     <use style="fill:#0000ff;stroke:#0000ff;" x="305.728831" xlink:href="#ma8db4fe82d" y="177.889583"/>
     <use style="fill:#0000ff;stroke:#0000ff;" x="352.108052" xlink:href="#ma8db4fe82d" y="203.585748"/>
     <use style="fill:#0000ff;stroke:#0000ff;" x="398.487273" xlink:href="#ma8db4fe82d" y="215.265824"/>
    </g>
   </g>
   <g id="PathCollection_18">
    <g clip-path="url(#p6948faa6ae)">
     <use style="fill:#0000ff;stroke:#0000ff;" x="73.832727" xlink:href="#ma8db4fe82d" y="246.374707"/>
     <use style="fill:#0000ff;stroke:#0000ff;" x="120.211948" xlink:href="#ma8db4fe82d" y="258.624543"/>
     <use style="fill:#0000ff;stroke:#0000ff;" x="166.591169" xlink:href="#ma8db4fe82d" y="223.014557"/>
     <use style="fill:#0000ff;stroke:#0000ff;" x="212.97039" xlink:href="#ma8db4fe82d" y="173.616384"/>
     <use style="fill:#0000ff;stroke:#0000ff;" x="259.34961" xlink:href="#ma8db4fe82d" y="163.75954"/>
     <use style="fill:#0000ff;stroke:#0000ff;" x="305.728831" xlink:href="#ma8db4fe82d" y="205.1241"/>
     <use style="fill:#0000ff;stroke:#0000ff;" x="352.108052" xlink:href="#ma8db4fe82d" y="228.826106"/>
     <use style="fill:#0000ff;stroke:#0000ff;" x="398.487273" xlink:href="#ma8db4fe82d" y="238.739927"/>
    </g>
   </g>
   <g id="PathCollection_19">
    <g clip-path="url(#p6948faa6ae)">
     <use style="fill:#0000ff;stroke:#0000ff;" x="73.832727" xlink:href="#ma8db4fe82d" y="164.785108"/>
     <use style="fill:#0000ff;stroke:#0000ff;" x="120.211948" xlink:href="#ma8db4fe82d" y="178.231439"/>
     <use style="fill:#0000ff;stroke:#0000ff;" x="166.591169" xlink:href="#ma8db4fe82d" y="136.126191"/>
     <use style="fill:#0000ff;stroke:#0000ff;" x="212.97039" xlink:href="#ma8db4fe82d" y="73.11076"/>
     <use style="fill:#0000ff;stroke:#0000ff;" x="259.34961" xlink:href="#ma8db4fe82d" y="53.568"/>
     <use style="fill:#0000ff;stroke:#0000ff;" x="305.728831" xlink:href="#ma8db4fe82d" y="116.469479"/>
     <use style="fill:#0000ff;stroke:#0000ff;" x="352.108052" xlink:href="#ma8db4fe82d" y="143.64702"/>
     <use style="fill:#0000ff;stroke:#0000ff;" x="398.487273" xlink:href="#ma8db4fe82d" y="153.048057"/>
    </g>
   </g>
   <g id="PathCollection_20">
    <g clip-path="url(#p6948faa6ae)">
     <use style="fill:#0000ff;stroke:#0000ff;" x="73.832727" xlink:href="#ma8db4fe82d" y="290.132258"/>
     <use style="fill:#0000ff;stroke:#0000ff;" x="120.211948" xlink:href="#ma8db4fe82d" y="295.488"/>
     <use style="fill:#0000ff;stroke:#0000ff;" x="166.591169" xlink:href="#ma8db4fe82d" y="261.872173"/>
     <use style="fill:#0000ff;stroke:#0000ff;" x="212.97039" xlink:href="#ma8db4fe82d" y="221.932013"/>
     <use style="fill:#0000ff;stroke:#0000ff;" x="259.34961" xlink:href="#ma8db4fe82d" y="212.474001"/>
     <use style="fill:#0000ff;stroke:#0000ff;" x="305.728831" xlink:href="#ma8db4fe82d" y="246.545635"/>
     <use style="fill:#0000ff;stroke:#0000ff;" x="352.108052" xlink:href="#ma8db4fe82d" y="271.615065"/>
     <use style="fill:#0000ff;stroke:#0000ff;" x="398.487273" xlink:href="#ma8db4fe82d" y="283.807925"/>
    </g>
   </g>
   <g id="PathCollection_21">
    <g clip-path="url(#p6948faa6ae)">
     <use style="fill:#0000ff;stroke:#0000ff;" x="73.832727" xlink:href="#ma8db4fe82d" y="209.22637"/>
     <use style="fill:#0000ff;stroke:#0000ff;" x="120.211948" xlink:href="#ma8db4fe82d" y="217.032079"/>
     <use style="fill:#0000ff;stroke:#0000ff;" x="166.591169" xlink:href="#ma8db4fe82d" y="188.999898"/>
     <use style="fill:#0000ff;stroke:#0000ff;" x="212.97039" xlink:href="#ma8db4fe82d" y="137.379663"/>
     <use style="fill:#0000ff;stroke:#0000ff;" x="259.34961" xlink:href="#ma8db4fe82d" y="133.676224"/>
     <use style="fill:#0000ff;stroke:#0000ff;" x="305.728831" xlink:href="#ma8db4fe82d" y="176.009375"/>
     <use style="fill:#0000ff;stroke:#0000ff;" x="352.108052" xlink:href="#ma8db4fe82d" y="195.893992"/>
     <use style="fill:#0000ff;stroke:#0000ff;" x="398.487273" xlink:href="#ma8db4fe82d" y="206.776403"/>
    </g>
   </g>
   <g id="PathCollection_22">
    <g clip-path="url(#p6948faa6ae)">
     <use style="fill:#0000ff;stroke:#0000ff;" x="73.832727" xlink:href="#ma8db4fe82d" y="203.756676"/>
     <use style="fill:#0000ff;stroke:#0000ff;" x="120.211948" xlink:href="#ma8db4fe82d" y="210.764722"/>
     <use style="fill:#0000ff;stroke:#0000ff;" x="166.591169" xlink:href="#ma8db4fe82d" y="181.080237"/>
     <use style="fill:#0000ff;stroke:#0000ff;" x="212.97039" xlink:href="#ma8db4fe82d" y="132.536705"/>
     <use style="fill:#0000ff;stroke:#0000ff;" x="259.34961" xlink:href="#ma8db4fe82d" y="115.785767"/>
     <use style="fill:#0000ff;stroke:#0000ff;" x="305.728831" xlink:href="#ma8db4fe82d" y="159.94215"/>
     <use style="fill:#0000ff;stroke:#0000ff;" x="352.108052" xlink:href="#ma8db4fe82d" y="182.960445"/>
     <use style="fill:#0000ff;stroke:#0000ff;" x="398.487273" xlink:href="#ma8db4fe82d" y="196.007943"/>
    </g>
   </g>
   <g id="PathCollection_23">
    <g clip-path="url(#p6948faa6ae)">
     <use style="fill:#0000ff;stroke:#0000ff;" x="73.832727" xlink:href="#ma8db4fe82d" y="248.254915"/>
     <use style="fill:#0000ff;stroke:#0000ff;" x="120.211948" xlink:href="#ma8db4fe82d" y="259.878014"/>
     <use style="fill:#0000ff;stroke:#0000ff;" x="166.591169" xlink:href="#ma8db4fe82d" y="227.914491"/>
     <use style="fill:#0000ff;stroke:#0000ff;" x="212.97039" xlink:href="#ma8db4fe82d" y="185.353436"/>
     <use style="fill:#0000ff;stroke:#0000ff;" x="259.34961" xlink:href="#ma8db4fe82d" y="175.040784"/>
     <use style="fill:#0000ff;stroke:#0000ff;" x="305.728831" xlink:href="#ma8db4fe82d" y="211.334481"/>
     <use style="fill:#0000ff;stroke:#0000ff;" x="352.108052" xlink:href="#ma8db4fe82d" y="231.219098"/>
     <use style="fill:#0000ff;stroke:#0000ff;" x="398.487273" xlink:href="#ma8db4fe82d" y="238.682951"/>
    </g>
   </g>
   <g id="PathCollection_24">
    <g clip-path="url(#p6948faa6ae)">
     <use style="fill:#0000ff;stroke:#0000ff;" x="73.832727" xlink:href="#ma8db4fe82d" y="221.932013"/>
     <use style="fill:#0000ff;stroke:#0000ff;" x="120.211948" xlink:href="#ma8db4fe82d" y="231.162122"/>
     <use style="fill:#0000ff;stroke:#0000ff;" x="166.591169" xlink:href="#ma8db4fe82d" y="205.181076"/>
     <use style="fill:#0000ff;stroke:#0000ff;" x="212.97039" xlink:href="#ma8db4fe82d" y="168.830402"/>
     <use style="fill:#0000ff;stroke:#0000ff;" x="259.34961" xlink:href="#ma8db4fe82d" y="154.586408"/>
     <use style="fill:#0000ff;stroke:#0000ff;" x="305.728831" xlink:href="#ma8db4fe82d" y="186.151099"/>
     <use style="fill:#0000ff;stroke:#0000ff;" x="352.108052" xlink:href="#ma8db4fe82d" y="202.788085"/>
     <use style="fill:#0000ff;stroke:#0000ff;" x="398.487273" xlink:href="#ma8db4fe82d" y="215.03792"/>
    </g>
   </g>
   <g id="PathCollection_25">
    <g clip-path="url(#p6948faa6ae)">
     <use style="fill:#0000ff;stroke:#0000ff;" x="73.832727" xlink:href="#ma8db4fe82d" y="228.142395"/>
     <use style="fill:#0000ff;stroke:#0000ff;" x="120.211948" xlink:href="#ma8db4fe82d" y="243.241029"/>
     <use style="fill:#0000ff;stroke:#0000ff;" x="166.591169" xlink:href="#ma8db4fe82d" y="207.688019"/>
     <use style="fill:#0000ff;stroke:#0000ff;" x="212.97039" xlink:href="#ma8db4fe82d" y="154.529432"/>
     <use style="fill:#0000ff;stroke:#0000ff;" x="259.34961" xlink:href="#ma8db4fe82d" y="139.715678"/>
     <use style="fill:#0000ff;stroke:#0000ff;" x="305.728831" xlink:href="#ma8db4fe82d" y="183.815084"/>
     <use style="fill:#0000ff;stroke:#0000ff;" x="352.108052" xlink:href="#ma8db4fe82d" y="205.181076"/>
     <use style="fill:#0000ff;stroke:#0000ff;" x="398.487273" xlink:href="#ma8db4fe82d" y="214.810016"/>
    </g>
   </g>
   <g id="PathCollection_26">
    <g clip-path="url(#p6948faa6ae)">
     <use style="fill:#0000ff;stroke:#0000ff;" x="73.832727" xlink:href="#ma8db4fe82d" y="242.272437"/>
     <use style="fill:#0000ff;stroke:#0000ff;" x="120.211948" xlink:href="#ma8db4fe82d" y="251.331618"/>
     <use style="fill:#0000ff;stroke:#0000ff;" x="166.591169" xlink:href="#ma8db4fe82d" y="211.448433"/>
     <use style="fill:#0000ff;stroke:#0000ff;" x="212.97039" xlink:href="#ma8db4fe82d" y="161.993285"/>
     <use style="fill:#0000ff;stroke:#0000ff;" x="259.34961" xlink:href="#ma8db4fe82d" y="153.389912"/>
     <use style="fill:#0000ff;stroke:#0000ff;" x="305.728831" xlink:href="#ma8db4fe82d" y="200.622998"/>
     <use style="fill:#0000ff;stroke:#0000ff;" x="352.108052" xlink:href="#ma8db4fe82d" y="226.262187"/>
     <use style="fill:#0000ff;stroke:#0000ff;" x="398.487273" xlink:href="#ma8db4fe82d" y="237.885287"/>
    </g>
   </g>
   <g id="PathCollection_27">
    <g clip-path="url(#p6948faa6ae)">
     <use style="fill:#0000ff;stroke:#0000ff;" x="73.832727" xlink:href="#ma8db4fe82d" y="235.663224"/>
     <use style="fill:#0000ff;stroke:#0000ff;" x="120.211948" xlink:href="#ma8db4fe82d" y="242.500341"/>
     <use style="fill:#0000ff;stroke:#0000ff;" x="166.591169" xlink:href="#ma8db4fe82d" y="216.747199"/>
     <use style="fill:#0000ff;stroke:#0000ff;" x="212.97039" xlink:href="#ma8db4fe82d" y="170.995489"/>
     <use style="fill:#0000ff;stroke:#0000ff;" x="259.34961" xlink:href="#ma8db4fe82d" y="159.543318"/>
     <use style="fill:#0000ff;stroke:#0000ff;" x="305.728831" xlink:href="#ma8db4fe82d" y="196.919559"/>
     <use style="fill:#0000ff;stroke:#0000ff;" x="352.108052" xlink:href="#ma8db4fe82d" y="217.089055"/>
     <use style="fill:#0000ff;stroke:#0000ff;" x="398.487273" xlink:href="#ma8db4fe82d" y="229.62377"/>
    </g>
   </g>
   <g id="PathCollection_28">
    <g clip-path="url(#p6948faa6ae)">
     <use style="fill:#0000ff;stroke:#0000ff;" x="73.832727" xlink:href="#ma8db4fe82d" y="208.770562"/>
     <use style="fill:#0000ff;stroke:#0000ff;" x="120.211948" xlink:href="#ma8db4fe82d" y="222.672701"/>
     <use style="fill:#0000ff;stroke:#0000ff;" x="166.591169" xlink:href="#ma8db4fe82d" y="188.202235"/>
     <use style="fill:#0000ff;stroke:#0000ff;" x="212.97039" xlink:href="#ma8db4fe82d" y="134.473888"/>
     <use style="fill:#0000ff;stroke:#0000ff;" x="259.34961" xlink:href="#ma8db4fe82d" y="114.988104"/>
     <use style="fill:#0000ff;stroke:#0000ff;" x="305.728831" xlink:href="#ma8db4fe82d" y="160.853765"/>
     <use style="fill:#0000ff;stroke:#0000ff;" x="352.108052" xlink:href="#ma8db4fe82d" y="186.037147"/>
     <use style="fill:#0000ff;stroke:#0000ff;" x="398.487273" xlink:href="#ma8db4fe82d" y="196.577703"/>
    </g>
   </g>
   <g id="PathCollection_29">
    <g clip-path="url(#p6948faa6ae)">
     <use style="fill:#0000ff;stroke:#0000ff;" x="73.832727" xlink:href="#ma8db4fe82d" y="250.87581"/>
     <use style="fill:#0000ff;stroke:#0000ff;" x="120.211948" xlink:href="#ma8db4fe82d" y="263.524477"/>
     <use style="fill:#0000ff;stroke:#0000ff;" x="166.591169" xlink:href="#ma8db4fe82d" y="233.669065"/>
     <use style="fill:#0000ff;stroke:#0000ff;" x="212.97039" xlink:href="#ma8db4fe82d" y="182.447661"/>
     <use style="fill:#0000ff;stroke:#0000ff;" x="259.34961" xlink:href="#ma8db4fe82d" y="170.482706"/>
     <use style="fill:#0000ff;stroke:#0000ff;" x="305.728831" xlink:href="#ma8db4fe82d" y="208.314755"/>
     <use style="fill:#0000ff;stroke:#0000ff;" x="352.108052" xlink:href="#ma8db4fe82d" y="233.839992"/>
     <use style="fill:#0000ff;stroke:#0000ff;" x="398.487273" xlink:href="#ma8db4fe82d" y="240.848038"/>
    </g>
   </g>
   <g id="matplotlib.axis_1">
    <g id="xtick_1">
     <g id="line2d_1">
      <defs>
       <path d="M 0 0 
L 0 3.5 
" id="mdfb2084005" style="stroke:#000000;stroke-width:0.8;"/>
      </defs>
      <g>
       <use style="stroke:#000000;stroke-width:0.8;" x="120.211948" xlink:href="#mdfb2084005" y="307.584"/>
      </g>
     </g>
     <g id="text_1">
      <!-- 5 -->
      <g transform="translate(117.030698 322.182437)scale(0.1 -0.1)">
       <defs>
        <path d="M 10.796875 72.90625 
L 49.515625 72.90625 
L 49.515625 64.59375 
L 19.828125 64.59375 
L 19.828125 46.734375 
Q 21.96875 47.46875 24.109375 47.828125 
Q 26.265625 48.1875 28.421875 48.1875 
Q 40.625 48.1875 47.75 41.5 
Q 54.890625 34.8125 54.890625 23.390625 
Q 54.890625 11.625 47.5625 5.09375 
Q 40.234375 -1.421875 26.90625 -1.421875 
Q 22.3125 -1.421875 17.546875 -0.640625 
Q 12.796875 0.140625 7.71875 1.703125 
L 7.71875 11.625 
Q 12.109375 9.234375 16.796875 8.0625 
Q 21.484375 6.890625 26.703125 6.890625 
Q 35.15625 6.890625 40.078125 11.328125 
Q 45.015625 15.765625 45.015625 23.390625 
Q 45.015625 31 40.078125 35.4375 
Q 35.15625 39.890625 26.703125 39.890625 
Q 22.75 39.890625 18.8125 39.015625 
Q 14.890625 38.140625 10.796875 36.28125 
z
" id="DejaVuSans-53"/>
       </defs>
       <use xlink:href="#DejaVuSans-53"/>
      </g>
     </g>
    </g>
    <g id="xtick_2">
     <g id="line2d_2">
      <g>
       <use style="stroke:#000000;stroke-width:0.8;" x="197.510649" xlink:href="#mdfb2084005" y="307.584"/>
      </g>
     </g>
     <g id="text_2">
      <!-- 10 -->
      <g transform="translate(191.148149 322.182437)scale(0.1 -0.1)">
       <defs>
        <path d="M 12.40625 8.296875 
L 28.515625 8.296875 
L 28.515625 63.921875 
L 10.984375 60.40625 
L 10.984375 69.390625 
L 28.421875 72.90625 
L 38.28125 72.90625 
L 38.28125 8.296875 
L 54.390625 8.296875 
L 54.390625 0 
L 12.40625 0 
z
" id="DejaVuSans-49"/>
        <path d="M 31.78125 66.40625 
Q 24.171875 66.40625 20.328125 58.90625 
Q 16.5 51.421875 16.5 36.375 
Q 16.5 21.390625 20.328125 13.890625 
Q 24.171875 6.390625 31.78125 6.390625 
Q 39.453125 6.390625 43.28125 13.890625 
Q 47.125 21.390625 47.125 36.375 
Q 47.125 51.421875 43.28125 58.90625 
Q 39.453125 66.40625 31.78125 66.40625 
z
M 31.78125 74.21875 
Q 44.046875 74.21875 50.515625 64.515625 
Q 56.984375 54.828125 56.984375 36.375 
Q 56.984375 17.96875 50.515625 8.265625 
Q 44.046875 -1.421875 31.78125 -1.421875 
Q 19.53125 -1.421875 13.0625 8.265625 
Q 6.59375 17.96875 6.59375 36.375 
Q 6.59375 54.828125 13.0625 64.515625 
Q 19.53125 74.21875 31.78125 74.21875 
z
" id="DejaVuSans-48"/>
       </defs>
       <use xlink:href="#DejaVuSans-49"/>
       <use x="63.623047" xlink:href="#DejaVuSans-48"/>
      </g>
     </g>
    </g>
    <g id="xtick_3">
     <g id="line2d_3">
      <g>
       <use style="stroke:#000000;stroke-width:0.8;" x="274.809351" xlink:href="#mdfb2084005" y="307.584"/>
      </g>
     </g>
     <g id="text_3">
      <!-- 15 -->
      <g transform="translate(268.446851 322.182437)scale(0.1 -0.1)">
       <use xlink:href="#DejaVuSans-49"/>
       <use x="63.623047" xlink:href="#DejaVuSans-53"/>
      </g>
     </g>
    </g>
    <g id="xtick_4">
     <g id="line2d_4">
      <g>
       <use style="stroke:#000000;stroke-width:0.8;" x="352.108052" xlink:href="#mdfb2084005" y="307.584"/>
      </g>
     </g>
     <g id="text_4">
      <!-- 20 -->
      <g transform="translate(345.745552 322.182437)scale(0.1 -0.1)">
       <defs>
        <path d="M 19.1875 8.296875 
L 53.609375 8.296875 
L 53.609375 0 
L 7.328125 0 
L 7.328125 8.296875 
Q 12.9375 14.109375 22.625 23.890625 
Q 32.328125 33.6875 34.8125 36.53125 
Q 39.546875 41.84375 41.421875 45.53125 
Q 43.3125 49.21875 43.3125 52.78125 
Q 43.3125 58.59375 39.234375 62.25 
Q 35.15625 65.921875 28.609375 65.921875 
Q 23.96875 65.921875 18.8125 64.3125 
Q 13.671875 62.703125 7.8125 59.421875 
L 7.8125 69.390625 
Q 13.765625 71.78125 18.9375 73 
Q 24.125 74.21875 28.421875 74.21875 
Q 39.75 74.21875 46.484375 68.546875 
Q 53.21875 62.890625 53.21875 53.421875 
Q 53.21875 48.921875 51.53125 44.890625 
Q 49.859375 40.875 45.40625 35.40625 
Q 44.1875 33.984375 37.640625 27.21875 
Q 31.109375 20.453125 19.1875 8.296875 
z
" id="DejaVuSans-50"/>
       </defs>
       <use xlink:href="#DejaVuSans-50"/>
       <use x="63.623047" xlink:href="#DejaVuSans-48"/>
      </g>
     </g>
    </g>
   </g>
   <g id="matplotlib.axis_2">
    <g id="ytick_1">
     <g id="line2d_5">
      <defs>
       <path d="M 0 0 
L -3.5 0 
" id="mcde0d445a0" style="stroke:#000000;stroke-width:0.8;"/>
      </defs>
      <g>
       <use style="stroke:#000000;stroke-width:0.8;" x="57.6" xlink:href="#mcde0d445a0" y="300.957694"/>
      </g>
     </g>
     <g id="text_5">
      <!-- 10 -->
      <g transform="translate(37.875 304.756913)scale(0.1 -0.1)">
       <use xlink:href="#DejaVuSans-49"/>
       <use x="63.623047" xlink:href="#DejaVuSans-48"/>
      </g>
     </g>
    </g>
    <g id="ytick_2">
     <g id="line2d_6">
      <g>
       <use style="stroke:#000000;stroke-width:0.8;" x="57.6" xlink:href="#mcde0d445a0" y="266.772107"/>
      </g>
     </g>
     <g id="text_6">
      <!-- 12 -->
      <g transform="translate(37.875 270.571326)scale(0.1 -0.1)">
       <use xlink:href="#DejaVuSans-49"/>
       <use x="63.623047" xlink:href="#DejaVuSans-50"/>
      </g>
     </g>
    </g>
    <g id="ytick_3">
     <g id="line2d_7">
      <g>
       <use style="stroke:#000000;stroke-width:0.8;" x="57.6" xlink:href="#mcde0d445a0" y="232.586521"/>
      </g>
     </g>
     <g id="text_7">
      <!-- 14 -->
      <g transform="translate(37.875 236.38574)scale(0.1 -0.1)">
       <defs>
        <path d="M 37.796875 64.3125 
L 12.890625 25.390625 
L 37.796875 25.390625 
z
M 35.203125 72.90625 
L 47.609375 72.90625 
L 47.609375 25.390625 
L 58.015625 25.390625 
L 58.015625 17.1875 
L 47.609375 17.1875 
L 47.609375 0 
L 37.796875 0 
L 37.796875 17.1875 
L 4.890625 17.1875 
L 4.890625 26.703125 
z
" id="DejaVuSans-52"/>
       </defs>
       <use xlink:href="#DejaVuSans-49"/>
       <use x="63.623047" xlink:href="#DejaVuSans-52"/>
      </g>
     </g>
    </g>
    <g id="ytick_4">
     <g id="line2d_8">
      <g>
       <use style="stroke:#000000;stroke-width:0.8;" x="57.6" xlink:href="#mcde0d445a0" y="198.400935"/>
      </g>
     </g>
     <g id="text_8">
      <!-- 16 -->
      <g transform="translate(37.875 202.200153)scale(0.1 -0.1)">
       <defs>
        <path d="M 33.015625 40.375 
Q 26.375 40.375 22.484375 35.828125 
Q 18.609375 31.296875 18.609375 23.390625 
Q 18.609375 15.53125 22.484375 10.953125 
Q 26.375 6.390625 33.015625 6.390625 
Q 39.65625 6.390625 43.53125 10.953125 
Q 47.40625 15.53125 47.40625 23.390625 
Q 47.40625 31.296875 43.53125 35.828125 
Q 39.65625 40.375 33.015625 40.375 
z
M 52.59375 71.296875 
L 52.59375 62.3125 
Q 48.875 64.0625 45.09375 64.984375 
Q 41.3125 65.921875 37.59375 65.921875 
Q 27.828125 65.921875 22.671875 59.328125 
Q 17.53125 52.734375 16.796875 39.40625 
Q 19.671875 43.65625 24.015625 45.921875 
Q 28.375 48.1875 33.59375 48.1875 
Q 44.578125 48.1875 50.953125 41.515625 
Q 57.328125 34.859375 57.328125 23.390625 
Q 57.328125 12.15625 50.6875 5.359375 
Q 44.046875 -1.421875 33.015625 -1.421875 
Q 20.359375 -1.421875 13.671875 8.265625 
Q 6.984375 17.96875 6.984375 36.375 
Q 6.984375 53.65625 15.1875 63.9375 
Q 23.390625 74.21875 37.203125 74.21875 
Q 40.921875 74.21875 44.703125 73.484375 
Q 48.484375 72.75 52.59375 71.296875 
z
" id="DejaVuSans-54"/>
       </defs>
       <use xlink:href="#DejaVuSans-49"/>
       <use x="63.623047" xlink:href="#DejaVuSans-54"/>
      </g>
     </g>
    </g>
    <g id="ytick_5">
     <g id="line2d_9">
      <g>
       <use style="stroke:#000000;stroke-width:0.8;" x="57.6" xlink:href="#mcde0d445a0" y="164.215348"/>
      </g>
     </g>
     <g id="text_9">
      <!-- 18 -->
      <g transform="translate(37.875 168.014567)scale(0.1 -0.1)">
       <defs>
        <path d="M 31.78125 34.625 
Q 24.75 34.625 20.71875 30.859375 
Q 16.703125 27.09375 16.703125 20.515625 
Q 16.703125 13.921875 20.71875 10.15625 
Q 24.75 6.390625 31.78125 6.390625 
Q 38.8125 6.390625 42.859375 10.171875 
Q 46.921875 13.96875 46.921875 20.515625 
Q 46.921875 27.09375 42.890625 30.859375 
Q 38.875 34.625 31.78125 34.625 
z
M 21.921875 38.8125 
Q 15.578125 40.375 12.03125 44.71875 
Q 8.5 49.078125 8.5 55.328125 
Q 8.5 64.0625 14.71875 69.140625 
Q 20.953125 74.21875 31.78125 74.21875 
Q 42.671875 74.21875 48.875 69.140625 
Q 55.078125 64.0625 55.078125 55.328125 
Q 55.078125 49.078125 51.53125 44.71875 
Q 48 40.375 41.703125 38.8125 
Q 48.828125 37.15625 52.796875 32.3125 
Q 56.78125 27.484375 56.78125 20.515625 
Q 56.78125 9.90625 50.3125 4.234375 
Q 43.84375 -1.421875 31.78125 -1.421875 
Q 19.734375 -1.421875 13.25 4.234375 
Q 6.78125 9.90625 6.78125 20.515625 
Q 6.78125 27.484375 10.78125 32.3125 
Q 14.796875 37.15625 21.921875 38.8125 
z
M 18.3125 54.390625 
Q 18.3125 48.734375 21.84375 45.5625 
Q 25.390625 42.390625 31.78125 42.390625 
Q 38.140625 42.390625 41.71875 45.5625 
Q 45.3125 48.734375 45.3125 54.390625 
Q 45.3125 60.0625 41.71875 63.234375 
Q 38.140625 66.40625 31.78125 66.40625 
Q 25.390625 66.40625 21.84375 63.234375 
Q 18.3125 60.0625 18.3125 54.390625 
z
" id="DejaVuSans-56"/>
       </defs>
       <use xlink:href="#DejaVuSans-49"/>
       <use x="63.623047" xlink:href="#DejaVuSans-56"/>
      </g>
     </g>
    </g>
    <g id="ytick_6">
     <g id="line2d_10">
      <g>
       <use style="stroke:#000000;stroke-width:0.8;" x="57.6" xlink:href="#mcde0d445a0" y="130.029762"/>
      </g>
     </g>
     <g id="text_10">
      <!-- 20 -->
      <g transform="translate(37.875 133.82898)scale(0.1 -0.1)">
       <use xlink:href="#DejaVuSans-50"/>
       <use x="63.623047" xlink:href="#DejaVuSans-48"/>
      </g>
     </g>
    </g>
    <g id="ytick_7">
     <g id="line2d_11">
      <g>
       <use style="stroke:#000000;stroke-width:0.8;" x="57.6" xlink:href="#mcde0d445a0" y="95.844175"/>
      </g>
     </g>
     <g id="text_11">
      <!-- 22 -->
      <g transform="translate(37.875 99.643394)scale(0.1 -0.1)">
       <use xlink:href="#DejaVuSans-50"/>
       <use x="63.623047" xlink:href="#DejaVuSans-50"/>
      </g>
     </g>
    </g>
    <g id="ytick_8">
     <g id="line2d_12">
      <g>
       <use style="stroke:#000000;stroke-width:0.8;" x="57.6" xlink:href="#mcde0d445a0" y="61.658589"/>
      </g>
     </g>
     <g id="text_12">
      <!-- 24 -->
      <g transform="translate(37.875 65.457808)scale(0.1 -0.1)">
       <use xlink:href="#DejaVuSans-50"/>
       <use x="63.623047" xlink:href="#DejaVuSans-52"/>
      </g>
     </g>
    </g>
   </g>
   <g id="line2d_13">
    <path clip-path="url(#p6948faa6ae)" d="M 73.832727 241.689728 
L 77.112066 240.030644 
L 80.391405 238.359219 
L 83.670744 236.676827 
L 86.950083 234.984841 
L 90.229421 233.284636 
L 93.50876 231.577584 
L 96.788099 229.865061 
L 100.067438 228.14844 
L 103.346777 226.429095 
L 106.626116 224.7084 
L 109.905455 222.987729 
L 113.184793 221.268455 
L 116.464132 219.551952 
L 119.743471 217.839595 
L 123.02281 216.132757 
L 126.302149 214.432812 
L 129.581488 212.741134 
L 132.860826 211.059097 
L 136.140165 209.388074 
L 139.419504 207.72944 
L 142.698843 206.084569 
L 145.978182 204.454834 
L 149.257521 202.841609 
L 152.53686 201.246268 
L 155.816198 199.670186 
L 159.095537 198.114735 
L 162.374876 196.58129 
L 165.654215 195.071225 
L 168.933554 193.585913 
L 172.212893 192.126728 
L 175.492231 190.695045 
L 178.77157 189.292237 
L 182.050909 187.919678 
L 185.330248 186.578742 
L 188.609587 185.270803 
L 191.888926 183.997234 
L 195.168264 182.75941 
L 198.447603 181.558705 
L 201.726942 180.396491 
L 205.006281 179.274144 
L 208.28562 178.193037 
L 211.564959 177.154544 
L 214.844298 176.160039 
L 218.123636 175.210895 
L 221.402975 174.308487 
L 224.682314 173.454189 
L 227.961653 172.649374 
L 231.240992 171.895416 
L 234.520331 171.193689 
L 237.799669 170.545568 
L 241.079008 169.952425 
L 244.358347 169.415635 
L 247.637686 168.936571 
L 250.917025 168.516608 
L 254.196364 168.15712 
L 257.475702 167.85948 
L 260.755041 167.625062 
L 264.03438 167.45524 
L 267.313719 167.351387 
L 270.593058 167.314879 
L 273.872397 167.347088 
L 277.151736 167.449389 
L 280.431074 167.623156 
L 283.710413 167.869761 
L 286.989752 168.19058 
L 290.269091 168.586986 
L 293.54843 169.060353 
L 296.827769 169.612054 
L 300.107107 170.243465 
L 303.386446 170.955958 
L 306.665785 171.750907 
L 309.945124 172.629687 
L 313.224463 173.593671 
L 316.503802 174.644233 
L 319.78314 175.782747 
L 323.062479 177.010588 
L 326.341818 178.329127 
L 329.621157 179.739741 
L 332.900496 181.243802 
L 336.179835 182.842684 
L 339.459174 184.537762 
L 342.738512 186.330408 
L 346.017851 188.221998 
L 349.29719 190.213905 
L 352.576529 192.307502 
L 355.855868 194.504165 
L 359.135207 196.805265 
L 362.414545 199.212178 
L 365.693884 201.726278 
L 368.973223 204.348937 
L 372.252562 207.081531 
L 375.531901 209.925433 
L 378.81124 212.882016 
L 382.090579 215.952656 
L 385.369917 219.138724 
L 388.649256 222.441597 
L 391.928595 225.862646 
L 395.207934 229.403247 
L 398.487273 233.064773 
" style="fill:none;stroke:#1f77b4;stroke-linecap:square;stroke-width:1.5;"/>
   </g>
   <g id="patch_3">
    <path d="M 57.6 307.584 
L 57.6 41.472 
" style="fill:none;stroke:#000000;stroke-linecap:square;stroke-linejoin:miter;stroke-width:0.8;"/>
   </g>
   <g id="patch_4">
    <path d="M 414.72 307.584 
L 414.72 41.472 
" style="fill:none;stroke:#000000;stroke-linecap:square;stroke-linejoin:miter;stroke-width:0.8;"/>
   </g>
   <g id="patch_5">
    <path d="M 57.6 307.584 
L 414.72 307.584 
" style="fill:none;stroke:#000000;stroke-linecap:square;stroke-linejoin:miter;stroke-width:0.8;"/>
   </g>
   <g id="patch_6">
    <path d="M 57.6 41.472 
L 414.72 41.472 
" style="fill:none;stroke:#000000;stroke-linecap:square;stroke-linejoin:miter;stroke-width:0.8;"/>
   </g>
  </g>
 </g>
 <defs>
  <clipPath id="p6948faa6ae">
   <rect height="266.112" width="357.12" x="57.6" y="41.472"/>
  </clipPath>
 </defs>
</svg>
