<?xml version="1.0" encoding="utf-8" standalone="no"?>
<!DOCTYPE svg PUBLIC "-//W3C//DTD SVG 1.1//EN"
  "http://www.w3.org/Graphics/SVG/1.1/DTD/svg11.dtd">
<!-- Created with matplotlib (https://matplotlib.org/) -->
<svg height="345.6pt" version="1.1" viewBox="0 0 460.8 345.6" width="460.8pt" xmlns="http://www.w3.org/2000/svg" xmlns:xlink="http://www.w3.org/1999/xlink">
 <metadata>
  <rdf:RDF xmlns:cc="http://creativecommons.org/ns#" xmlns:dc="http://purl.org/dc/elements/1.1/" xmlns:rdf="http://www.w3.org/1999/02/22-rdf-syntax-ns#">
   <cc:Work>
    <dc:type rdf:resource="http://purl.org/dc/dcmitype/StillImage"/>
    <dc:date>2021-11-21T15:20:27.150351</dc:date>
    <dc:format>image/svg+xml</dc:format>
    <dc:creator>
     <cc:Agent>
      <dc:title>Matplotlib v3.3.4, https://matplotlib.org/</dc:title>
     </cc:Agent>
    </dc:creator>
   </cc:Work>
  </rdf:RDF>
 </metadata>
 <defs>
  <style type="text/css">*{stroke-linecap:butt;stroke-linejoin:round;}</style>
 </defs>
 <g id="figure_1">
  <g id="patch_1">
   <path d="M 0 345.6 
L 460.8 345.6 
L 460.8 0 
L 0 0 
z
" style="fill:#ffffff;"/>
  </g>
  <g id="axes_1">
   <g id="patch_2">
    <path d="M 57.6 307.584 
L 414.72 307.584 
L 414.72 41.472 
L 57.6 41.472 
z
" style="fill:#ffffff;"/>
   </g>
   <g id="PathCollection_1">
    <defs>
     <path d="M 0 0.5 
C 0.132602 0.5 0.25979 0.447317 0.353553 0.353553 
C 0.447317 0.25979 0.5 0.132602 0.5 0 
C 0.5 -0.132602 0.447317 -0.25979 0.353553 -0.353553 
C 0.25979 -0.447317 0.132602 -0.5 0 -0.5 
C -0.132602 -0.5 -0.25979 -0.447317 -0.353553 -0.353553 
C -0.447317 -0.25979 -0.5 -0.132602 -0.5 0 
C -0.5 0.132602 -0.447317 0.25979 -0.353553 0.353553 
C -0.25979 0.447317 -0.132602 0.5 0 0.5 
z
" id="md1492cc094" style="stroke:#0000ff;"/>
    </defs>
    <g clip-path="url(#ped4a86d0a1)">
     <use style="fill:#0000ff;stroke:#0000ff;" x="73.832727" xlink:href="#md1492cc094" y="209.653935"/>
     <use style="fill:#0000ff;stroke:#0000ff;" x="120.211948" xlink:href="#md1492cc094" y="219.660021"/>
     <use style="fill:#0000ff;stroke:#0000ff;" x="166.591169" xlink:href="#md1492cc094" y="196.042051"/>
     <use style="fill:#0000ff;stroke:#0000ff;" x="212.97039" xlink:href="#md1492cc094" y="155.521908"/>
     <use style="fill:#0000ff;stroke:#0000ff;" x="259.34961" xlink:href="#md1492cc094" y="146.056691"/>
     <use style="fill:#0000ff;stroke:#0000ff;" x="305.728831" xlink:href="#md1492cc094" y="175.984806"/>
     <use style="fill:#0000ff;stroke:#0000ff;" x="352.108052" xlink:href="#md1492cc094" y="196.177269"/>
     <use style="fill:#0000ff;stroke:#0000ff;" x="398.487273" xlink:href="#md1492cc094" y="201.721181"/>
    </g>
   </g>
   <g id="PathCollection_2">
    <g clip-path="url(#ped4a86d0a1)">
     <use style="fill:#0000ff;stroke:#0000ff;" x="73.832727" xlink:href="#md1492cc094" y="195.771616"/>
     <use style="fill:#0000ff;stroke:#0000ff;" x="120.211948" xlink:href="#md1492cc094" y="202.712776"/>
     <use style="fill:#0000ff;stroke:#0000ff;" x="166.591169" xlink:href="#md1492cc094" y="174.857994"/>
     <use style="fill:#0000ff;stroke:#0000ff;" x="212.97039" xlink:href="#md1492cc094" y="133.977272"/>
     <use style="fill:#0000ff;stroke:#0000ff;" x="259.34961" xlink:href="#md1492cc094" y="124.6022"/>
     <use style="fill:#0000ff;stroke:#0000ff;" x="305.728831" xlink:href="#md1492cc094" y="163.319444"/>
     <use style="fill:#0000ff;stroke:#0000ff;" x="352.108052" xlink:href="#md1492cc094" y="185.94582"/>
     <use style="fill:#0000ff;stroke:#0000ff;" x="398.487273" xlink:href="#md1492cc094" y="191.579877"/>
    </g>
   </g>
   <g id="PathCollection_3">
    <g clip-path="url(#ped4a86d0a1)">
     <use style="fill:#0000ff;stroke:#0000ff;" x="73.832727" xlink:href="#md1492cc094" y="187.027559"/>
     <use style="fill:#0000ff;stroke:#0000ff;" x="120.211948" xlink:href="#md1492cc094" y="194.689877"/>
     <use style="fill:#0000ff;stroke:#0000ff;" x="166.591169" xlink:href="#md1492cc094" y="166.970313"/>
     <use style="fill:#0000ff;stroke:#0000ff;" x="212.97039" xlink:href="#md1492cc094" y="127.17133"/>
     <use style="fill:#0000ff;stroke:#0000ff;" x="259.34961" xlink:href="#md1492cc094" y="116.083504"/>
     <use style="fill:#0000ff;stroke:#0000ff;" x="305.728831" xlink:href="#md1492cc094" y="151.916111"/>
     <use style="fill:#0000ff;stroke:#0000ff;" x="352.108052" xlink:href="#md1492cc094" y="172.243791"/>
     <use style="fill:#0000ff;stroke:#0000ff;" x="398.487273" xlink:href="#md1492cc094" y="181.483646"/>
    </g>
   </g>
   <g id="PathCollection_4">
    <g clip-path="url(#ped4a86d0a1)">
     <use style="fill:#0000ff;stroke:#0000ff;" x="73.832727" xlink:href="#md1492cc094" y="206.09321"/>
     <use style="fill:#0000ff;stroke:#0000ff;" x="120.211948" xlink:href="#md1492cc094" y="215.783789"/>
     <use style="fill:#0000ff;stroke:#0000ff;" x="166.591169" xlink:href="#md1492cc094" y="187.613501"/>
     <use style="fill:#0000ff;stroke:#0000ff;" x="212.97039" xlink:href="#md1492cc094" y="148.535677"/>
     <use style="fill:#0000ff;stroke:#0000ff;" x="259.34961" xlink:href="#md1492cc094" y="140.738141"/>
     <use style="fill:#0000ff;stroke:#0000ff;" x="305.728831" xlink:href="#md1492cc094" y="173.460748"/>
     <use style="fill:#0000ff;stroke:#0000ff;" x="352.108052" xlink:href="#md1492cc094" y="192.210892"/>
     <use style="fill:#0000ff;stroke:#0000ff;" x="398.487273" xlink:href="#md1492cc094" y="200.0535"/>
    </g>
   </g>
   <g id="PathCollection_5">
    <g clip-path="url(#ped4a86d0a1)">
     <use style="fill:#0000ff;stroke:#0000ff;" x="73.832727" xlink:href="#md1492cc094" y="141.549445"/>
     <use style="fill:#0000ff;stroke:#0000ff;" x="120.211948" xlink:href="#md1492cc094" y="152.186546"/>
     <use style="fill:#0000ff;stroke:#0000ff;" x="166.591169" xlink:href="#md1492cc094" y="118.877997"/>
     <use style="fill:#0000ff;stroke:#0000ff;" x="212.97039" xlink:href="#md1492cc094" y="69.027854"/>
     <use style="fill:#0000ff;stroke:#0000ff;" x="259.34961" xlink:href="#md1492cc094" y="53.568"/>
     <use style="fill:#0000ff;stroke:#0000ff;" x="305.728831" xlink:href="#md1492cc094" y="103.327998"/>
     <use style="fill:#0000ff;stroke:#0000ff;" x="352.108052" xlink:href="#md1492cc094" y="124.827562"/>
     <use style="fill:#0000ff;stroke:#0000ff;" x="398.487273" xlink:href="#md1492cc094" y="132.264518"/>
    </g>
   </g>
   <g id="PathCollection_6">
    <g clip-path="url(#ped4a86d0a1)">
     <use style="fill:#0000ff;stroke:#0000ff;" x="73.832727" xlink:href="#md1492cc094" y="240.708861"/>
     <use style="fill:#0000ff;stroke:#0000ff;" x="120.211948" xlink:href="#md1492cc094" y="244.945672"/>
     <use style="fill:#0000ff;stroke:#0000ff;" x="166.591169" xlink:href="#md1492cc094" y="218.35292"/>
     <use style="fill:#0000ff;stroke:#0000ff;" x="212.97039" xlink:href="#md1492cc094" y="186.757124"/>
     <use style="fill:#0000ff;stroke:#0000ff;" x="259.34961" xlink:href="#md1492cc094" y="179.275095"/>
     <use style="fill:#0000ff;stroke:#0000ff;" x="305.728831" xlink:href="#md1492cc094" y="206.228428"/>
     <use style="fill:#0000ff;stroke:#0000ff;" x="352.108052" xlink:href="#md1492cc094" y="226.060311"/>
     <use style="fill:#0000ff;stroke:#0000ff;" x="398.487273" xlink:href="#md1492cc094" y="235.705817"/>
    </g>
   </g>
   <g id="PathCollection_7">
    <g clip-path="url(#ped4a86d0a1)">
     <use style="fill:#0000ff;stroke:#0000ff;" x="73.832727" xlink:href="#md1492cc094" y="176.705965"/>
     <use style="fill:#0000ff;stroke:#0000ff;" x="120.211948" xlink:href="#md1492cc094" y="182.880892"/>
     <use style="fill:#0000ff;stroke:#0000ff;" x="166.591169" xlink:href="#md1492cc094" y="160.705241"/>
     <use style="fill:#0000ff;stroke:#0000ff;" x="212.97039" xlink:href="#md1492cc094" y="119.869591"/>
     <use style="fill:#0000ff;stroke:#0000ff;" x="259.34961" xlink:href="#md1492cc094" y="116.939881"/>
     <use style="fill:#0000ff;stroke:#0000ff;" x="305.728831" xlink:href="#md1492cc094" y="150.42872"/>
     <use style="fill:#0000ff;stroke:#0000ff;" x="352.108052" xlink:href="#md1492cc094" y="166.159009"/>
     <use style="fill:#0000ff;stroke:#0000ff;" x="398.487273" xlink:href="#md1492cc094" y="174.767849"/>
    </g>
   </g>
   <g id="PathCollection_8">
    <g clip-path="url(#ped4a86d0a1)">
     <use style="fill:#0000ff;stroke:#0000ff;" x="73.832727" xlink:href="#md1492cc094" y="172.379009"/>
     <use style="fill:#0000ff;stroke:#0000ff;" x="120.211948" xlink:href="#md1492cc094" y="177.922922"/>
     <use style="fill:#0000ff;stroke:#0000ff;" x="166.591169" xlink:href="#md1492cc094" y="154.440169"/>
     <use style="fill:#0000ff;stroke:#0000ff;" x="212.97039" xlink:href="#md1492cc094" y="116.038432"/>
     <use style="fill:#0000ff;stroke:#0000ff;" x="259.34961" xlink:href="#md1492cc094" y="102.787128"/>
     <use style="fill:#0000ff;stroke:#0000ff;" x="305.728831" xlink:href="#md1492cc094" y="137.718286"/>
     <use style="fill:#0000ff;stroke:#0000ff;" x="352.108052" xlink:href="#md1492cc094" y="155.92756"/>
     <use style="fill:#0000ff;stroke:#0000ff;" x="398.487273" xlink:href="#md1492cc094" y="166.249154"/>
    </g>
   </g>
   <g id="PathCollection_9">
    <g clip-path="url(#ped4a86d0a1)">
     <use style="fill:#0000ff;stroke:#0000ff;" x="73.832727" xlink:href="#md1492cc094" y="207.580601"/>
     <use style="fill:#0000ff;stroke:#0000ff;" x="120.211948" xlink:href="#md1492cc094" y="216.775384"/>
     <use style="fill:#0000ff;stroke:#0000ff;" x="166.591169" xlink:href="#md1492cc094" y="191.489733"/>
     <use style="fill:#0000ff;stroke:#0000ff;" x="212.97039" xlink:href="#md1492cc094" y="157.820604"/>
     <use style="fill:#0000ff;stroke:#0000ff;" x="259.34961" xlink:href="#md1492cc094" y="149.662488"/>
     <use style="fill:#0000ff;stroke:#0000ff;" x="305.728831" xlink:href="#md1492cc094" y="178.373646"/>
     <use style="fill:#0000ff;stroke:#0000ff;" x="352.108052" xlink:href="#md1492cc094" y="194.103935"/>
     <use style="fill:#0000ff;stroke:#0000ff;" x="398.487273" xlink:href="#md1492cc094" y="200.008428"/>
    </g>
   </g>
   <g id="PathCollection_10">
    <g clip-path="url(#ped4a86d0a1)">
     <use style="fill:#0000ff;stroke:#0000ff;" x="73.832727" xlink:href="#md1492cc094" y="186.757124"/>
     <use style="fill:#0000ff;stroke:#0000ff;" x="120.211948" xlink:href="#md1492cc094" y="194.058863"/>
     <use style="fill:#0000ff;stroke:#0000ff;" x="166.591169" xlink:href="#md1492cc094" y="173.50582"/>
     <use style="fill:#0000ff;stroke:#0000ff;" x="212.97039" xlink:href="#md1492cc094" y="144.74959"/>
     <use style="fill:#0000ff;stroke:#0000ff;" x="259.34961" xlink:href="#md1492cc094" y="133.481474"/>
     <use style="fill:#0000ff;stroke:#0000ff;" x="305.728831" xlink:href="#md1492cc094" y="158.451618"/>
     <use style="fill:#0000ff;stroke:#0000ff;" x="352.108052" xlink:href="#md1492cc094" y="171.612777"/>
     <use style="fill:#0000ff;stroke:#0000ff;" x="398.487273" xlink:href="#md1492cc094" y="181.303356"/>
    </g>
   </g>
   <g id="PathCollection_11">
    <g clip-path="url(#ped4a86d0a1)">
     <use style="fill:#0000ff;stroke:#0000ff;" x="73.832727" xlink:href="#md1492cc094" y="191.670022"/>
     <use style="fill:#0000ff;stroke:#0000ff;" x="120.211948" xlink:href="#md1492cc094" y="203.614225"/>
     <use style="fill:#0000ff;stroke:#0000ff;" x="166.591169" xlink:href="#md1492cc094" y="175.489009"/>
     <use style="fill:#0000ff;stroke:#0000ff;" x="212.97039" xlink:href="#md1492cc094" y="133.436402"/>
     <use style="fill:#0000ff;stroke:#0000ff;" x="259.34961" xlink:href="#md1492cc094" y="121.717562"/>
     <use style="fill:#0000ff;stroke:#0000ff;" x="305.728831" xlink:href="#md1492cc094" y="156.603647"/>
     <use style="fill:#0000ff;stroke:#0000ff;" x="352.108052" xlink:href="#md1492cc094" y="173.50582"/>
     <use style="fill:#0000ff;stroke:#0000ff;" x="398.487273" xlink:href="#md1492cc094" y="181.123066"/>
    </g>
   </g>
   <g id="PathCollection_12">
    <g clip-path="url(#ped4a86d0a1)">
     <use style="fill:#0000ff;stroke:#0000ff;" x="73.832727" xlink:href="#md1492cc094" y="202.847993"/>
     <use style="fill:#0000ff;stroke:#0000ff;" x="120.211948" xlink:href="#md1492cc094" y="210.014514"/>
     <use style="fill:#0000ff;stroke:#0000ff;" x="166.591169" xlink:href="#md1492cc094" y="178.463791"/>
     <use style="fill:#0000ff;stroke:#0000ff;" x="212.97039" xlink:href="#md1492cc094" y="139.340894"/>
     <use style="fill:#0000ff;stroke:#0000ff;" x="259.34961" xlink:href="#md1492cc094" y="132.534953"/>
     <use style="fill:#0000ff;stroke:#0000ff;" x="305.728831" xlink:href="#md1492cc094" y="169.900023"/>
     <use style="fill:#0000ff;stroke:#0000ff;" x="352.108052" xlink:href="#md1492cc094" y="190.182631"/>
     <use style="fill:#0000ff;stroke:#0000ff;" x="398.487273" xlink:href="#md1492cc094" y="199.377413"/>
    </g>
   </g>
   <g id="PathCollection_13">
    <g clip-path="url(#ped4a86d0a1)">
     <use style="fill:#0000ff;stroke:#0000ff;" x="73.832727" xlink:href="#md1492cc094" y="197.619587"/>
     <use style="fill:#0000ff;stroke:#0000ff;" x="120.211948" xlink:href="#md1492cc094" y="203.028283"/>
     <use style="fill:#0000ff;stroke:#0000ff;" x="166.591169" xlink:href="#md1492cc094" y="182.65553"/>
     <use style="fill:#0000ff;stroke:#0000ff;" x="212.97039" xlink:href="#md1492cc094" y="146.462343"/>
     <use style="fill:#0000ff;stroke:#0000ff;" x="259.34961" xlink:href="#md1492cc094" y="137.402779"/>
     <use style="fill:#0000ff;stroke:#0000ff;" x="305.728831" xlink:href="#md1492cc094" y="166.970313"/>
     <use style="fill:#0000ff;stroke:#0000ff;" x="352.108052" xlink:href="#md1492cc094" y="182.925965"/>
     <use style="fill:#0000ff;stroke:#0000ff;" x="398.487273" xlink:href="#md1492cc094" y="192.841906"/>
    </g>
   </g>
   <g id="PathCollection_14">
    <g clip-path="url(#ped4a86d0a1)">
     <use style="fill:#0000ff;stroke:#0000ff;" x="73.832727" xlink:href="#md1492cc094" y="176.345385"/>
     <use style="fill:#0000ff;stroke:#0000ff;" x="120.211948" xlink:href="#md1492cc094" y="187.343066"/>
     <use style="fill:#0000ff;stroke:#0000ff;" x="166.591169" xlink:href="#md1492cc094" y="160.074227"/>
     <use style="fill:#0000ff;stroke:#0000ff;" x="212.97039" xlink:href="#md1492cc094" y="117.570896"/>
     <use style="fill:#0000ff;stroke:#0000ff;" x="259.34961" xlink:href="#md1492cc094" y="102.156114"/>
     <use style="fill:#0000ff;stroke:#0000ff;" x="305.728831" xlink:href="#md1492cc094" y="138.439445"/>
     <use style="fill:#0000ff;stroke:#0000ff;" x="352.108052" xlink:href="#md1492cc094" y="158.361473"/>
     <use style="fill:#0000ff;stroke:#0000ff;" x="398.487273" xlink:href="#md1492cc094" y="166.699879"/>
    </g>
   </g>
   <g id="PathCollection_15">
    <g clip-path="url(#ped4a86d0a1)">
     <use style="fill:#0000ff;stroke:#0000ff;" x="73.832727" xlink:href="#md1492cc094" y="209.653935"/>
     <use style="fill:#0000ff;stroke:#0000ff;" x="120.211948" xlink:href="#md1492cc094" y="219.660021"/>
     <use style="fill:#0000ff;stroke:#0000ff;" x="166.591169" xlink:href="#md1492cc094" y="196.042051"/>
     <use style="fill:#0000ff;stroke:#0000ff;" x="212.97039" xlink:href="#md1492cc094" y="155.521908"/>
     <use style="fill:#0000ff;stroke:#0000ff;" x="259.34961" xlink:href="#md1492cc094" y="146.056691"/>
     <use style="fill:#0000ff;stroke:#0000ff;" x="305.728831" xlink:href="#md1492cc094" y="175.984806"/>
     <use style="fill:#0000ff;stroke:#0000ff;" x="352.108052" xlink:href="#md1492cc094" y="196.177269"/>
     <use style="fill:#0000ff;stroke:#0000ff;" x="398.487273" xlink:href="#md1492cc094" y="201.721181"/>
    </g>
   </g>
   <g id="matplotlib.axis_1">
    <g id="xtick_1">
     <g id="line2d_1">
      <defs>
       <path d="M 0 0 
L 0 3.5 
" id="m3c259e6e3a" style="stroke:#000000;stroke-width:0.8;"/>
      </defs>
      <g>
       <use style="stroke:#000000;stroke-width:0.8;" x="120.211948" xlink:href="#m3c259e6e3a" y="307.584"/>
      </g>
     </g>
     <g id="text_1">
      <!-- 5 -->
      <g transform="translate(117.030698 322.182437)scale(0.1 -0.1)">
       <defs>
        <path d="M 10.796875 72.90625 
L 49.515625 72.90625 
L 49.515625 64.59375 
L 19.828125 64.59375 
L 19.828125 46.734375 
Q 21.96875 47.46875 24.109375 47.828125 
Q 26.265625 48.1875 28.421875 48.1875 
Q 40.625 48.1875 47.75 41.5 
Q 54.890625 34.8125 54.890625 23.390625 
Q 54.890625 11.625 47.5625 5.09375 
Q 40.234375 -1.421875 26.90625 -1.421875 
Q 22.3125 -1.421875 17.546875 -0.640625 
Q 12.796875 0.140625 7.71875 1.703125 
L 7.71875 11.625 
Q 12.109375 9.234375 16.796875 8.0625 
Q 21.484375 6.890625 26.703125 6.890625 
Q 35.15625 6.890625 40.078125 11.328125 
Q 45.015625 15.765625 45.015625 23.390625 
Q 45.015625 31 40.078125 35.4375 
Q 35.15625 39.890625 26.703125 39.890625 
Q 22.75 39.890625 18.8125 39.015625 
Q 14.890625 38.140625 10.796875 36.28125 
z
" id="DejaVuSans-53"/>
       </defs>
       <use xlink:href="#DejaVuSans-53"/>
      </g>
     </g>
    </g>
    <g id="xtick_2">
     <g id="line2d_2">
      <g>
       <use style="stroke:#000000;stroke-width:0.8;" x="197.510649" xlink:href="#m3c259e6e3a" y="307.584"/>
      </g>
     </g>
     <g id="text_2">
      <!-- 10 -->
      <g transform="translate(191.148149 322.182437)scale(0.1 -0.1)">
       <defs>
        <path d="M 12.40625 8.296875 
L 28.515625 8.296875 
L 28.515625 63.921875 
L 10.984375 60.40625 
L 10.984375 69.390625 
L 28.421875 72.90625 
L 38.28125 72.90625 
L 38.28125 8.296875 
L 54.390625 8.296875 
L 54.390625 0 
L 12.40625 0 
z
" id="DejaVuSans-49"/>
        <path d="M 31.78125 66.40625 
Q 24.171875 66.40625 20.328125 58.90625 
Q 16.5 51.421875 16.5 36.375 
Q 16.5 21.390625 20.328125 13.890625 
Q 24.171875 6.390625 31.78125 6.390625 
Q 39.453125 6.390625 43.28125 13.890625 
Q 47.125 21.390625 47.125 36.375 
Q 47.125 51.421875 43.28125 58.90625 
Q 39.453125 66.40625 31.78125 66.40625 
z
M 31.78125 74.21875 
Q 44.046875 74.21875 50.515625 64.515625 
Q 56.984375 54.828125 56.984375 36.375 
Q 56.984375 17.96875 50.515625 8.265625 
Q 44.046875 -1.421875 31.78125 -1.421875 
Q 19.53125 -1.421875 13.0625 8.265625 
Q 6.59375 17.96875 6.59375 36.375 
Q 6.59375 54.828125 13.0625 64.515625 
Q 19.53125 74.21875 31.78125 74.21875 
z
" id="DejaVuSans-48"/>
       </defs>
       <use xlink:href="#DejaVuSans-49"/>
       <use x="63.623047" xlink:href="#DejaVuSans-48"/>
      </g>
     </g>
    </g>
    <g id="xtick_3">
     <g id="line2d_3">
      <g>
       <use style="stroke:#000000;stroke-width:0.8;" x="274.809351" xlink:href="#m3c259e6e3a" y="307.584"/>
      </g>
     </g>
     <g id="text_3">
      <!-- 15 -->
      <g transform="translate(268.446851 322.182437)scale(0.1 -0.1)">
       <use xlink:href="#DejaVuSans-49"/>
       <use x="63.623047" xlink:href="#DejaVuSans-53"/>
      </g>
     </g>
    </g>
    <g id="xtick_4">
     <g id="line2d_4">
      <g>
       <use style="stroke:#000000;stroke-width:0.8;" x="352.108052" xlink:href="#m3c259e6e3a" y="307.584"/>
      </g>
     </g>
     <g id="text_4">
      <!-- 20 -->
      <g transform="translate(345.745552 322.182437)scale(0.1 -0.1)">
       <defs>
        <path d="M 19.1875 8.296875 
L 53.609375 8.296875 
L 53.609375 0 
L 7.328125 0 
L 7.328125 8.296875 
Q 12.9375 14.109375 22.625 23.890625 
Q 32.328125 33.6875 34.8125 36.53125 
Q 39.546875 41.84375 41.421875 45.53125 
Q 43.3125 49.21875 43.3125 52.78125 
Q 43.3125 58.59375 39.234375 62.25 
Q 35.15625 65.921875 28.609375 65.921875 
Q 23.96875 65.921875 18.8125 64.3125 
Q 13.671875 62.703125 7.8125 59.421875 
L 7.8125 69.390625 
Q 13.765625 71.78125 18.9375 73 
Q 24.125 74.21875 28.421875 74.21875 
Q 39.75 74.21875 46.484375 68.546875 
Q 53.21875 62.890625 53.21875 53.421875 
Q 53.21875 48.921875 51.53125 44.890625 
Q 49.859375 40.875 45.40625 35.40625 
Q 44.1875 33.984375 37.640625 27.21875 
Q 31.109375 20.453125 19.1875 8.296875 
z
" id="DejaVuSans-50"/>
       </defs>
       <use xlink:href="#DejaVuSans-50"/>
       <use x="63.623047" xlink:href="#DejaVuSans-48"/>
      </g>
     </g>
    </g>
   </g>
   <g id="matplotlib.axis_2">
    <g id="ytick_1">
     <g id="line2d_5">
      <defs>
       <path d="M 0 0 
L -3.5 0 
" id="mc949de4a4b" style="stroke:#000000;stroke-width:0.8;"/>
      </defs>
      <g>
       <use style="stroke:#000000;stroke-width:0.8;" x="57.6" xlink:href="#mc949de4a4b" y="283.076975"/>
      </g>
     </g>
     <g id="text_5">
      <!-- 7.5 -->
      <g transform="translate(34.696875 286.876193)scale(0.1 -0.1)">
       <defs>
        <path d="M 8.203125 72.90625 
L 55.078125 72.90625 
L 55.078125 68.703125 
L 28.609375 0 
L 18.3125 0 
L 43.21875 64.59375 
L 8.203125 64.59375 
z
" id="DejaVuSans-55"/>
        <path d="M 10.6875 12.40625 
L 21 12.40625 
L 21 0 
L 10.6875 0 
z
" id="DejaVuSans-46"/>
       </defs>
       <use xlink:href="#DejaVuSans-55"/>
       <use x="63.623047" xlink:href="#DejaVuSans-46"/>
       <use x="95.410156" xlink:href="#DejaVuSans-53"/>
      </g>
     </g>
    </g>
    <g id="ytick_2">
     <g id="line2d_6">
      <g>
       <use style="stroke:#000000;stroke-width:0.8;" x="57.6" xlink:href="#mc949de4a4b" y="249.272628"/>
      </g>
     </g>
     <g id="text_6">
      <!-- 10.0 -->
      <g transform="translate(28.334375 253.071847)scale(0.1 -0.1)">
       <use xlink:href="#DejaVuSans-49"/>
       <use x="63.623047" xlink:href="#DejaVuSans-48"/>
       <use x="127.246094" xlink:href="#DejaVuSans-46"/>
       <use x="159.033203" xlink:href="#DejaVuSans-48"/>
      </g>
     </g>
    </g>
    <g id="ytick_3">
     <g id="line2d_7">
      <g>
       <use style="stroke:#000000;stroke-width:0.8;" x="57.6" xlink:href="#mc949de4a4b" y="215.468282"/>
      </g>
     </g>
     <g id="text_7">
      <!-- 12.5 -->
      <g transform="translate(28.334375 219.267501)scale(0.1 -0.1)">
       <use xlink:href="#DejaVuSans-49"/>
       <use x="63.623047" xlink:href="#DejaVuSans-50"/>
       <use x="127.246094" xlink:href="#DejaVuSans-46"/>
       <use x="159.033203" xlink:href="#DejaVuSans-53"/>
      </g>
     </g>
    </g>
    <g id="ytick_4">
     <g id="line2d_8">
      <g>
       <use style="stroke:#000000;stroke-width:0.8;" x="57.6" xlink:href="#mc949de4a4b" y="181.663936"/>
      </g>
     </g>
     <g id="text_8">
      <!-- 15.0 -->
      <g transform="translate(28.334375 185.463155)scale(0.1 -0.1)">
       <use xlink:href="#DejaVuSans-49"/>
       <use x="63.623047" xlink:href="#DejaVuSans-53"/>
       <use x="127.246094" xlink:href="#DejaVuSans-46"/>
       <use x="159.033203" xlink:href="#DejaVuSans-48"/>
      </g>
     </g>
    </g>
    <g id="ytick_5">
     <g id="line2d_9">
      <g>
       <use style="stroke:#000000;stroke-width:0.8;" x="57.6" xlink:href="#mc949de4a4b" y="147.85959"/>
      </g>
     </g>
     <g id="text_9">
      <!-- 17.5 -->
      <g transform="translate(28.334375 151.658808)scale(0.1 -0.1)">
       <use xlink:href="#DejaVuSans-49"/>
       <use x="63.623047" xlink:href="#DejaVuSans-55"/>
       <use x="127.246094" xlink:href="#DejaVuSans-46"/>
       <use x="159.033203" xlink:href="#DejaVuSans-53"/>
      </g>
     </g>
    </g>
    <g id="ytick_6">
     <g id="line2d_10">
      <g>
       <use style="stroke:#000000;stroke-width:0.8;" x="57.6" xlink:href="#mc949de4a4b" y="114.055244"/>
      </g>
     </g>
     <g id="text_10">
      <!-- 20.0 -->
      <g transform="translate(28.334375 117.854462)scale(0.1 -0.1)">
       <use xlink:href="#DejaVuSans-50"/>
       <use x="63.623047" xlink:href="#DejaVuSans-48"/>
       <use x="127.246094" xlink:href="#DejaVuSans-46"/>
       <use x="159.033203" xlink:href="#DejaVuSans-48"/>
      </g>
     </g>
    </g>
    <g id="ytick_7">
     <g id="line2d_11">
      <g>
       <use style="stroke:#000000;stroke-width:0.8;" x="57.6" xlink:href="#mc949de4a4b" y="80.250897"/>
      </g>
     </g>
     <g id="text_11">
      <!-- 22.5 -->
      <g transform="translate(28.334375 84.050116)scale(0.1 -0.1)">
       <use xlink:href="#DejaVuSans-50"/>
       <use x="63.623047" xlink:href="#DejaVuSans-50"/>
       <use x="127.246094" xlink:href="#DejaVuSans-46"/>
       <use x="159.033203" xlink:href="#DejaVuSans-53"/>
      </g>
     </g>
    </g>
    <g id="ytick_8">
     <g id="line2d_12">
      <g>
       <use style="stroke:#000000;stroke-width:0.8;" x="57.6" xlink:href="#mc949de4a4b" y="46.446551"/>
      </g>
     </g>
     <g id="text_12">
      <!-- 25.0 -->
      <g transform="translate(28.334375 50.24577)scale(0.1 -0.1)">
       <use xlink:href="#DejaVuSans-50"/>
       <use x="63.623047" xlink:href="#DejaVuSans-53"/>
       <use x="127.246094" xlink:href="#DejaVuSans-46"/>
       <use x="159.033203" xlink:href="#DejaVuSans-48"/>
      </g>
     </g>
    </g>
   </g>
   <g id="line2d_13">
    <path clip-path="url(#ped4a86d0a1)" d="M 73.832727 295.488 
L 77.112066 283.751545 
L 80.391405 272.113336 
L 83.670744 260.686475 
L 86.950083 249.569223 
L 90.229421 238.84589 
L 93.50876 228.587694 
L 96.788099 218.853604 
L 100.067438 209.691154 
L 103.346777 201.137244 
L 106.626116 193.218913 
L 109.905455 185.954091 
L 113.184793 179.352332 
L 116.464132 173.415518 
L 119.743471 168.138553 
L 123.02281 163.510023 
L 126.302149 159.512839 
L 129.581488 156.124863 
L 132.860826 153.319503 
L 136.140165 151.066289 
L 139.419504 149.331435 
L 142.698843 148.078366 
L 145.978182 147.268234 
L 149.257521 146.860405 
L 152.53686 146.812929 
L 155.816198 147.082984 
L 159.095537 147.627302 
L 162.374876 148.402569 
L 165.654215 149.365807 
L 168.933554 150.474733 
L 172.212893 151.688091 
L 175.492231 152.965972 
L 178.77157 154.270103 
L 182.050909 155.56412 
L 185.330248 156.813813 
L 188.609587 157.987358 
L 191.888926 159.055516 
L 195.168264 159.991824 
L 198.447603 160.772746 
L 201.726942 161.377821 
L 205.006281 161.789775 
L 208.28562 161.994619 
L 211.564959 161.981722 
L 214.844298 161.743861 
L 218.123636 161.277251 
L 221.402975 160.581555 
L 224.682314 159.659868 
L 227.961653 158.51868 
L 231.240992 157.167819 
L 234.520331 155.620373 
L 237.799669 153.892583 
L 241.079008 152.003725 
L 244.358347 149.975962 
L 247.637686 147.834173 
L 250.917025 145.605771 
L 254.196364 143.320483 
L 257.475702 141.010123 
L 260.755041 138.708336 
L 264.03438 136.450317 
L 267.313719 134.272515 
L 270.593058 132.212312 
L 273.872397 130.307679 
L 277.151736 128.596812 
L 280.431074 127.117746 
L 283.710413 125.907944 
L 286.989752 125.003867 
L 290.269091 124.440525 
L 293.54843 124.250998 
L 296.827769 124.465943 
L 300.107107 125.113072 
L 303.386446 126.216618 
L 306.665785 127.796767 
L 309.945124 129.869077 
L 313.224463 132.443872 
L 316.503802 135.525614 
L 319.78314 139.112252 
L 323.062479 143.194552 
L 326.341818 147.755405 
L 329.621157 152.769107 
L 332.900496 158.200627 
L 336.179835 164.004843 
L 339.459174 170.125764 
L 342.738512 176.495726 
L 346.017851 183.034567 
L 349.29719 189.64878 
L 352.576529 196.230645 
L 355.855868 202.657336 
L 359.135207 208.790011 
L 362.414545 214.472878 
L 365.693884 219.532235 
L 368.973223 223.775494 
L 372.252562 226.990181 
L 375.531901 228.942913 
L 378.81124 229.378354 
L 382.090579 228.01815 
L 385.369917 224.55984 
L 388.649256 218.675745 
L 391.928595 210.01184 
L 395.207934 198.186596 
L 398.487273 182.789808 
" style="fill:none;stroke:#1f77b4;stroke-linecap:square;stroke-width:1.5;"/>
   </g>
   <g id="patch_3">
    <path d="M 57.6 307.584 
L 57.6 41.472 
" style="fill:none;stroke:#000000;stroke-linecap:square;stroke-linejoin:miter;stroke-width:0.8;"/>
   </g>
   <g id="patch_4">
    <path d="M 414.72 307.584 
L 414.72 41.472 
" style="fill:none;stroke:#000000;stroke-linecap:square;stroke-linejoin:miter;stroke-width:0.8;"/>
   </g>
   <g id="patch_5">
    <path d="M 57.6 307.584 
L 414.72 307.584 
" style="fill:none;stroke:#000000;stroke-linecap:square;stroke-linejoin:miter;stroke-width:0.8;"/>
   </g>
   <g id="patch_6">
    <path d="M 57.6 41.472 
L 414.72 41.472 
" style="fill:none;stroke:#000000;stroke-linecap:square;stroke-linejoin:miter;stroke-width:0.8;"/>
   </g>
  </g>
 </g>
 <defs>
  <clipPath id="ped4a86d0a1">
   <rect height="266.112" width="357.12" x="57.6" y="41.472"/>
  </clipPath>
 </defs>
</svg>
