<?xml version="1.0" encoding="utf-8" standalone="no"?>
<!DOCTYPE svg PUBLIC "-//W3C//DTD SVG 1.1//EN"
  "http://www.w3.org/Graphics/SVG/1.1/DTD/svg11.dtd">
<!-- Created with matplotlib (https://matplotlib.org/) -->
<svg height="345.6pt" version="1.1" viewBox="0 0 460.8 345.6" width="460.8pt" xmlns="http://www.w3.org/2000/svg" xmlns:xlink="http://www.w3.org/1999/xlink">
 <metadata>
  <rdf:RDF xmlns:cc="http://creativecommons.org/ns#" xmlns:dc="http://purl.org/dc/elements/1.1/" xmlns:rdf="http://www.w3.org/1999/02/22-rdf-syntax-ns#">
   <cc:Work>
    <dc:type rdf:resource="http://purl.org/dc/dcmitype/StillImage"/>
    <dc:date>2021-11-21T15:41:23.565236</dc:date>
    <dc:format>image/svg+xml</dc:format>
    <dc:creator>
     <cc:Agent>
      <dc:title>Matplotlib v3.3.4, https://matplotlib.org/</dc:title>
     </cc:Agent>
    </dc:creator>
   </cc:Work>
  </rdf:RDF>
 </metadata>
 <defs>
  <style type="text/css">*{stroke-linecap:butt;stroke-linejoin:round;}</style>
 </defs>
 <g id="figure_1">
  <g id="patch_1">
   <path d="M 0 345.6 
L 460.8 345.6 
L 460.8 0 
L 0 0 
z
" style="fill:#ffffff;"/>
  </g>
  <g id="axes_1">
   <g id="patch_2">
    <path d="M 57.6 307.584 
L 414.72 307.584 
L 414.72 41.472 
L 57.6 41.472 
z
" style="fill:#ffffff;"/>
   </g>
   <g id="PathCollection_1">
    <defs>
     <path d="M 0 0.5 
C 0.132602 0.5 0.25979 0.447317 0.353553 0.353553 
C 0.447317 0.25979 0.5 0.132602 0.5 0 
C 0.5 -0.132602 0.447317 -0.25979 0.353553 -0.353553 
C 0.25979 -0.447317 0.132602 -0.5 0 -0.5 
C -0.132602 -0.5 -0.25979 -0.447317 -0.353553 -0.353553 
C -0.447317 -0.25979 -0.5 -0.132602 -0.5 0 
C -0.5 0.132602 -0.447317 0.25979 -0.353553 0.353553 
C -0.25979 0.447317 -0.132602 0.5 0 0.5 
z
" id="m2b86c58efb" style="stroke:#0000ff;"/>
    </defs>
    <g clip-path="url(#pb2d95111c9)">
     <use style="fill:#0000ff;stroke:#0000ff;" x="73.832727" xlink:href="#m2b86c58efb" y="273.410621"/>
     <use style="fill:#0000ff;stroke:#0000ff;" x="87.948142" xlink:href="#m2b86c58efb" y="281.084097"/>
     <use style="fill:#0000ff;stroke:#0000ff;" x="102.063557" xlink:href="#m2b86c58efb" y="288.757573"/>
     <use style="fill:#0000ff;stroke:#0000ff;" x="116.178972" xlink:href="#m2b86c58efb" y="284.920835"/>
     <use style="fill:#0000ff;stroke:#0000ff;" x="130.294387" xlink:href="#m2b86c58efb" y="284.920835"/>
     <use style="fill:#0000ff;stroke:#0000ff;" x="144.409802" xlink:href="#m2b86c58efb" y="288.757573"/>
     <use style="fill:#0000ff;stroke:#0000ff;" x="158.525217" xlink:href="#m2b86c58efb" y="288.757573"/>
     <use style="fill:#0000ff;stroke:#0000ff;" x="172.640632" xlink:href="#m2b86c58efb" y="284.920835"/>
     <use style="fill:#0000ff;stroke:#0000ff;" x="186.756047" xlink:href="#m2b86c58efb" y="284.920835"/>
     <use style="fill:#0000ff;stroke:#0000ff;" x="200.871462" xlink:href="#m2b86c58efb" y="292.594311"/>
     <use style="fill:#0000ff;stroke:#0000ff;" x="214.986877" xlink:href="#m2b86c58efb" y="292.594311"/>
     <use style="fill:#0000ff;stroke:#0000ff;" x="229.102292" xlink:href="#m2b86c58efb" y="288.757573"/>
     <use style="fill:#0000ff;stroke:#0000ff;" x="243.217708" xlink:href="#m2b86c58efb" y="284.920835"/>
     <use style="fill:#0000ff;stroke:#0000ff;" x="257.333123" xlink:href="#m2b86c58efb" y="288.757573"/>
     <use style="fill:#0000ff;stroke:#0000ff;" x="271.448538" xlink:href="#m2b86c58efb" y="250.390193"/>
     <use style="fill:#0000ff;stroke:#0000ff;" x="285.563953" xlink:href="#m2b86c58efb" y="215.859551"/>
     <use style="fill:#0000ff;stroke:#0000ff;" x="299.679368" xlink:href="#m2b86c58efb" y="177.492171"/>
     <use style="fill:#0000ff;stroke:#0000ff;" x="313.794783" xlink:href="#m2b86c58efb" y="165.981957"/>
     <use style="fill:#0000ff;stroke:#0000ff;" x="327.910198" xlink:href="#m2b86c58efb" y="165.981957"/>
     <use style="fill:#0000ff;stroke:#0000ff;" x="342.025613" xlink:href="#m2b86c58efb" y="139.124791"/>
     <use style="fill:#0000ff;stroke:#0000ff;" x="356.141028" xlink:href="#m2b86c58efb" y="119.941101"/>
     <use style="fill:#0000ff;stroke:#0000ff;" x="370.256443" xlink:href="#m2b86c58efb" y="85.410459"/>
     <use style="fill:#0000ff;stroke:#0000ff;" x="384.371858" xlink:href="#m2b86c58efb" y="70.063507"/>
     <use style="fill:#0000ff;stroke:#0000ff;" x="398.487273" xlink:href="#m2b86c58efb" y="58.553293"/>
    </g>
   </g>
   <g id="matplotlib.axis_1">
    <g id="xtick_1">
     <g id="line2d_1">
      <defs>
       <path d="M 0 0 
L 0 3.5 
" id="m1715ab61a7" style="stroke:#000000;stroke-width:0.8;"/>
      </defs>
      <g>
       <use style="stroke:#000000;stroke-width:0.8;" x="73.832727" xlink:href="#m1715ab61a7" y="307.584"/>
      </g>
     </g>
     <g id="text_1">
      <!-- 0 -->
      <g transform="translate(70.651477 322.182437)scale(0.1 -0.1)">
       <defs>
        <path d="M 31.78125 66.40625 
Q 24.171875 66.40625 20.328125 58.90625 
Q 16.5 51.421875 16.5 36.375 
Q 16.5 21.390625 20.328125 13.890625 
Q 24.171875 6.390625 31.78125 6.390625 
Q 39.453125 6.390625 43.28125 13.890625 
Q 47.125 21.390625 47.125 36.375 
Q 47.125 51.421875 43.28125 58.90625 
Q 39.453125 66.40625 31.78125 66.40625 
z
M 31.78125 74.21875 
Q 44.046875 74.21875 50.515625 64.515625 
Q 56.984375 54.828125 56.984375 36.375 
Q 56.984375 17.96875 50.515625 8.265625 
Q 44.046875 -1.421875 31.78125 -1.421875 
Q 19.53125 -1.421875 13.0625 8.265625 
Q 6.59375 17.96875 6.59375 36.375 
Q 6.59375 54.828125 13.0625 64.515625 
Q 19.53125 74.21875 31.78125 74.21875 
z
" id="DejaVuSans-48"/>
       </defs>
       <use xlink:href="#DejaVuSans-48"/>
      </g>
     </g>
    </g>
    <g id="xtick_2">
     <g id="line2d_2">
      <g>
       <use style="stroke:#000000;stroke-width:0.8;" x="130.294387" xlink:href="#m1715ab61a7" y="307.584"/>
      </g>
     </g>
     <g id="text_2">
      <!-- 2 -->
      <g transform="translate(127.113137 322.182437)scale(0.1 -0.1)">
       <defs>
        <path d="M 19.1875 8.296875 
L 53.609375 8.296875 
L 53.609375 0 
L 7.328125 0 
L 7.328125 8.296875 
Q 12.9375 14.109375 22.625 23.890625 
Q 32.328125 33.6875 34.8125 36.53125 
Q 39.546875 41.84375 41.421875 45.53125 
Q 43.3125 49.21875 43.3125 52.78125 
Q 43.3125 58.59375 39.234375 62.25 
Q 35.15625 65.921875 28.609375 65.921875 
Q 23.96875 65.921875 18.8125 64.3125 
Q 13.671875 62.703125 7.8125 59.421875 
L 7.8125 69.390625 
Q 13.765625 71.78125 18.9375 73 
Q 24.125 74.21875 28.421875 74.21875 
Q 39.75 74.21875 46.484375 68.546875 
Q 53.21875 62.890625 53.21875 53.421875 
Q 53.21875 48.921875 51.53125 44.890625 
Q 49.859375 40.875 45.40625 35.40625 
Q 44.1875 33.984375 37.640625 27.21875 
Q 31.109375 20.453125 19.1875 8.296875 
z
" id="DejaVuSans-50"/>
       </defs>
       <use xlink:href="#DejaVuSans-50"/>
      </g>
     </g>
    </g>
    <g id="xtick_3">
     <g id="line2d_3">
      <g>
       <use style="stroke:#000000;stroke-width:0.8;" x="186.756047" xlink:href="#m1715ab61a7" y="307.584"/>
      </g>
     </g>
     <g id="text_3">
      <!-- 4 -->
      <g transform="translate(183.574797 322.182437)scale(0.1 -0.1)">
       <defs>
        <path d="M 37.796875 64.3125 
L 12.890625 25.390625 
L 37.796875 25.390625 
z
M 35.203125 72.90625 
L 47.609375 72.90625 
L 47.609375 25.390625 
L 58.015625 25.390625 
L 58.015625 17.1875 
L 47.609375 17.1875 
L 47.609375 0 
L 37.796875 0 
L 37.796875 17.1875 
L 4.890625 17.1875 
L 4.890625 26.703125 
z
" id="DejaVuSans-52"/>
       </defs>
       <use xlink:href="#DejaVuSans-52"/>
      </g>
     </g>
    </g>
    <g id="xtick_4">
     <g id="line2d_4">
      <g>
       <use style="stroke:#000000;stroke-width:0.8;" x="243.217708" xlink:href="#m1715ab61a7" y="307.584"/>
      </g>
     </g>
     <g id="text_4">
      <!-- 6 -->
      <g transform="translate(240.036458 322.182437)scale(0.1 -0.1)">
       <defs>
        <path d="M 33.015625 40.375 
Q 26.375 40.375 22.484375 35.828125 
Q 18.609375 31.296875 18.609375 23.390625 
Q 18.609375 15.53125 22.484375 10.953125 
Q 26.375 6.390625 33.015625 6.390625 
Q 39.65625 6.390625 43.53125 10.953125 
Q 47.40625 15.53125 47.40625 23.390625 
Q 47.40625 31.296875 43.53125 35.828125 
Q 39.65625 40.375 33.015625 40.375 
z
M 52.59375 71.296875 
L 52.59375 62.3125 
Q 48.875 64.0625 45.09375 64.984375 
Q 41.3125 65.921875 37.59375 65.921875 
Q 27.828125 65.921875 22.671875 59.328125 
Q 17.53125 52.734375 16.796875 39.40625 
Q 19.671875 43.65625 24.015625 45.921875 
Q 28.375 48.1875 33.59375 48.1875 
Q 44.578125 48.1875 50.953125 41.515625 
Q 57.328125 34.859375 57.328125 23.390625 
Q 57.328125 12.15625 50.6875 5.359375 
Q 44.046875 -1.421875 33.015625 -1.421875 
Q 20.359375 -1.421875 13.671875 8.265625 
Q 6.984375 17.96875 6.984375 36.375 
Q 6.984375 53.65625 15.1875 63.9375 
Q 23.390625 74.21875 37.203125 74.21875 
Q 40.921875 74.21875 44.703125 73.484375 
Q 48.484375 72.75 52.59375 71.296875 
z
" id="DejaVuSans-54"/>
       </defs>
       <use xlink:href="#DejaVuSans-54"/>
      </g>
     </g>
    </g>
    <g id="xtick_5">
     <g id="line2d_5">
      <g>
       <use style="stroke:#000000;stroke-width:0.8;" x="299.679368" xlink:href="#m1715ab61a7" y="307.584"/>
      </g>
     </g>
     <g id="text_5">
      <!-- 8 -->
      <g transform="translate(296.498118 322.182437)scale(0.1 -0.1)">
       <defs>
        <path d="M 31.78125 34.625 
Q 24.75 34.625 20.71875 30.859375 
Q 16.703125 27.09375 16.703125 20.515625 
Q 16.703125 13.921875 20.71875 10.15625 
Q 24.75 6.390625 31.78125 6.390625 
Q 38.8125 6.390625 42.859375 10.171875 
Q 46.921875 13.96875 46.921875 20.515625 
Q 46.921875 27.09375 42.890625 30.859375 
Q 38.875 34.625 31.78125 34.625 
z
M 21.921875 38.8125 
Q 15.578125 40.375 12.03125 44.71875 
Q 8.5 49.078125 8.5 55.328125 
Q 8.5 64.0625 14.71875 69.140625 
Q 20.953125 74.21875 31.78125 74.21875 
Q 42.671875 74.21875 48.875 69.140625 
Q 55.078125 64.0625 55.078125 55.328125 
Q 55.078125 49.078125 51.53125 44.71875 
Q 48 40.375 41.703125 38.8125 
Q 48.828125 37.15625 52.796875 32.3125 
Q 56.78125 27.484375 56.78125 20.515625 
Q 56.78125 9.90625 50.3125 4.234375 
Q 43.84375 -1.421875 31.78125 -1.421875 
Q 19.734375 -1.421875 13.25 4.234375 
Q 6.78125 9.90625 6.78125 20.515625 
Q 6.78125 27.484375 10.78125 32.3125 
Q 14.796875 37.15625 21.921875 38.8125 
z
M 18.3125 54.390625 
Q 18.3125 48.734375 21.84375 45.5625 
Q 25.390625 42.390625 31.78125 42.390625 
Q 38.140625 42.390625 41.71875 45.5625 
Q 45.3125 48.734375 45.3125 54.390625 
Q 45.3125 60.0625 41.71875 63.234375 
Q 38.140625 66.40625 31.78125 66.40625 
Q 25.390625 66.40625 21.84375 63.234375 
Q 18.3125 60.0625 18.3125 54.390625 
z
" id="DejaVuSans-56"/>
       </defs>
       <use xlink:href="#DejaVuSans-56"/>
      </g>
     </g>
    </g>
    <g id="xtick_6">
     <g id="line2d_6">
      <g>
       <use style="stroke:#000000;stroke-width:0.8;" x="356.141028" xlink:href="#m1715ab61a7" y="307.584"/>
      </g>
     </g>
     <g id="text_6">
      <!-- 10 -->
      <g transform="translate(349.778528 322.182437)scale(0.1 -0.1)">
       <defs>
        <path d="M 12.40625 8.296875 
L 28.515625 8.296875 
L 28.515625 63.921875 
L 10.984375 60.40625 
L 10.984375 69.390625 
L 28.421875 72.90625 
L 38.28125 72.90625 
L 38.28125 8.296875 
L 54.390625 8.296875 
L 54.390625 0 
L 12.40625 0 
z
" id="DejaVuSans-49"/>
       </defs>
       <use xlink:href="#DejaVuSans-49"/>
       <use x="63.623047" xlink:href="#DejaVuSans-48"/>
      </g>
     </g>
    </g>
    <g id="xtick_7">
     <g id="line2d_7">
      <g>
       <use style="stroke:#000000;stroke-width:0.8;" x="412.602688" xlink:href="#m1715ab61a7" y="307.584"/>
      </g>
     </g>
     <g id="text_7">
      <!-- 12 -->
      <g transform="translate(406.240188 322.182437)scale(0.1 -0.1)">
       <use xlink:href="#DejaVuSans-49"/>
       <use x="63.623047" xlink:href="#DejaVuSans-50"/>
      </g>
     </g>
    </g>
   </g>
   <g id="matplotlib.axis_2">
    <g id="ytick_1">
     <g id="line2d_8">
      <defs>
       <path d="M 0 0 
L -3.5 0 
" id="m88776c2f76" style="stroke:#000000;stroke-width:0.8;"/>
      </defs>
      <g>
       <use style="stroke:#000000;stroke-width:0.8;" x="57.6" xlink:href="#m88776c2f76" y="273.410621"/>
      </g>
     </g>
     <g id="text_8">
      <!-- 12 -->
      <g transform="translate(37.875 277.20984)scale(0.1 -0.1)">
       <use xlink:href="#DejaVuSans-49"/>
       <use x="63.623047" xlink:href="#DejaVuSans-50"/>
      </g>
     </g>
    </g>
    <g id="ytick_2">
     <g id="line2d_9">
      <g>
       <use style="stroke:#000000;stroke-width:0.8;" x="57.6" xlink:href="#m88776c2f76" y="235.043241"/>
      </g>
     </g>
     <g id="text_9">
      <!-- 13 -->
      <g transform="translate(37.875 238.84246)scale(0.1 -0.1)">
       <defs>
        <path d="M 40.578125 39.3125 
Q 47.65625 37.796875 51.625 33 
Q 55.609375 28.21875 55.609375 21.1875 
Q 55.609375 10.40625 48.1875 4.484375 
Q 40.765625 -1.421875 27.09375 -1.421875 
Q 22.515625 -1.421875 17.65625 -0.515625 
Q 12.796875 0.390625 7.625 2.203125 
L 7.625 11.71875 
Q 11.71875 9.328125 16.59375 8.109375 
Q 21.484375 6.890625 26.8125 6.890625 
Q 36.078125 6.890625 40.9375 10.546875 
Q 45.796875 14.203125 45.796875 21.1875 
Q 45.796875 27.640625 41.28125 31.265625 
Q 36.765625 34.90625 28.71875 34.90625 
L 20.21875 34.90625 
L 20.21875 43.015625 
L 29.109375 43.015625 
Q 36.375 43.015625 40.234375 45.921875 
Q 44.09375 48.828125 44.09375 54.296875 
Q 44.09375 59.90625 40.109375 62.90625 
Q 36.140625 65.921875 28.71875 65.921875 
Q 24.65625 65.921875 20.015625 65.03125 
Q 15.375 64.15625 9.8125 62.3125 
L 9.8125 71.09375 
Q 15.4375 72.65625 20.34375 73.4375 
Q 25.25 74.21875 29.59375 74.21875 
Q 40.828125 74.21875 47.359375 69.109375 
Q 53.90625 64.015625 53.90625 55.328125 
Q 53.90625 49.265625 50.4375 45.09375 
Q 46.96875 40.921875 40.578125 39.3125 
z
" id="DejaVuSans-51"/>
       </defs>
       <use xlink:href="#DejaVuSans-49"/>
       <use x="63.623047" xlink:href="#DejaVuSans-51"/>
      </g>
     </g>
    </g>
    <g id="ytick_3">
     <g id="line2d_10">
      <g>
       <use style="stroke:#000000;stroke-width:0.8;" x="57.6" xlink:href="#m88776c2f76" y="196.675861"/>
      </g>
     </g>
     <g id="text_10">
      <!-- 14 -->
      <g transform="translate(37.875 200.47508)scale(0.1 -0.1)">
       <use xlink:href="#DejaVuSans-49"/>
       <use x="63.623047" xlink:href="#DejaVuSans-52"/>
      </g>
     </g>
    </g>
    <g id="ytick_4">
     <g id="line2d_11">
      <g>
       <use style="stroke:#000000;stroke-width:0.8;" x="57.6" xlink:href="#m88776c2f76" y="158.308481"/>
      </g>
     </g>
     <g id="text_11">
      <!-- 15 -->
      <g transform="translate(37.875 162.1077)scale(0.1 -0.1)">
       <defs>
        <path d="M 10.796875 72.90625 
L 49.515625 72.90625 
L 49.515625 64.59375 
L 19.828125 64.59375 
L 19.828125 46.734375 
Q 21.96875 47.46875 24.109375 47.828125 
Q 26.265625 48.1875 28.421875 48.1875 
Q 40.625 48.1875 47.75 41.5 
Q 54.890625 34.8125 54.890625 23.390625 
Q 54.890625 11.625 47.5625 5.09375 
Q 40.234375 -1.421875 26.90625 -1.421875 
Q 22.3125 -1.421875 17.546875 -0.640625 
Q 12.796875 0.140625 7.71875 1.703125 
L 7.71875 11.625 
Q 12.109375 9.234375 16.796875 8.0625 
Q 21.484375 6.890625 26.703125 6.890625 
Q 35.15625 6.890625 40.078125 11.328125 
Q 45.015625 15.765625 45.015625 23.390625 
Q 45.015625 31 40.078125 35.4375 
Q 35.15625 39.890625 26.703125 39.890625 
Q 22.75 39.890625 18.8125 39.015625 
Q 14.890625 38.140625 10.796875 36.28125 
z
" id="DejaVuSans-53"/>
       </defs>
       <use xlink:href="#DejaVuSans-49"/>
       <use x="63.623047" xlink:href="#DejaVuSans-53"/>
      </g>
     </g>
    </g>
    <g id="ytick_5">
     <g id="line2d_12">
      <g>
       <use style="stroke:#000000;stroke-width:0.8;" x="57.6" xlink:href="#m88776c2f76" y="119.941101"/>
      </g>
     </g>
     <g id="text_12">
      <!-- 16 -->
      <g transform="translate(37.875 123.74032)scale(0.1 -0.1)">
       <use xlink:href="#DejaVuSans-49"/>
       <use x="63.623047" xlink:href="#DejaVuSans-54"/>
      </g>
     </g>
    </g>
    <g id="ytick_6">
     <g id="line2d_13">
      <g>
       <use style="stroke:#000000;stroke-width:0.8;" x="57.6" xlink:href="#m88776c2f76" y="81.573721"/>
      </g>
     </g>
     <g id="text_13">
      <!-- 17 -->
      <g transform="translate(37.875 85.372939)scale(0.1 -0.1)">
       <defs>
        <path d="M 8.203125 72.90625 
L 55.078125 72.90625 
L 55.078125 68.703125 
L 28.609375 0 
L 18.3125 0 
L 43.21875 64.59375 
L 8.203125 64.59375 
z
" id="DejaVuSans-55"/>
       </defs>
       <use xlink:href="#DejaVuSans-49"/>
       <use x="63.623047" xlink:href="#DejaVuSans-55"/>
      </g>
     </g>
    </g>
    <g id="ytick_7">
     <g id="line2d_14">
      <g>
       <use style="stroke:#000000;stroke-width:0.8;" x="57.6" xlink:href="#m88776c2f76" y="43.20634"/>
      </g>
     </g>
     <g id="text_14">
      <!-- 18 -->
      <g transform="translate(37.875 47.005559)scale(0.1 -0.1)">
       <use xlink:href="#DejaVuSans-49"/>
       <use x="63.623047" xlink:href="#DejaVuSans-56"/>
      </g>
     </g>
    </g>
   </g>
   <g id="line2d_15">
    <path clip-path="url(#pb2d95111c9)" d="M 73.832727 271.133772 
L 77.112066 276.119067 
L 80.391405 280.019919 
L 83.670744 282.985417 
L 86.950083 285.152198 
L 90.229421 286.64503 
L 93.50876 287.577376 
L 96.788099 288.051955 
L 100.067438 288.161283 
L 103.346777 287.988206 
L 106.626116 287.606421 
L 109.905455 287.080984 
L 113.184793 286.468804 
L 116.464132 285.819131 
L 119.743471 285.174026 
L 123.02281 284.568821 
L 126.302149 284.032567 
L 129.581488 283.588469 
L 132.860826 283.254315 
L 136.140165 283.042882 
L 139.419504 282.962339 
L 142.698843 283.016634 
L 145.978182 283.205871 
L 149.257521 283.526674 
L 152.53686 283.972537 
L 155.816198 284.534166 
L 159.095537 285.199806 
L 162.374876 285.955556 
L 165.654215 286.785675 
L 168.933554 287.672871 
L 172.212893 288.598584 
L 175.492231 289.543251 
L 178.77157 290.486562 
L 182.050909 291.407706 
L 185.330248 292.285601 
L 188.609587 293.099112 
L 191.888926 293.827263 
L 195.168264 294.449428 
L 198.447603 294.945518 
L 201.726942 295.296152 
L 205.006281 295.482813 
L 208.28562 295.488 
L 211.564959 295.295363 
L 214.844298 294.889824 
L 218.123636 294.257689 
L 221.402975 293.386751 
L 224.682314 292.266371 
L 227.961653 290.887561 
L 231.240992 289.243041 
L 234.520331 287.327292 
L 237.799669 285.136599 
L 241.079008 282.669073 
L 244.358347 279.92467 
L 247.637686 276.905193 
L 250.917025 273.614282 
L 254.196364 270.057396 
L 257.475702 266.241778 
L 260.755041 262.176411 
L 264.03438 257.87196 
L 267.313719 253.340705 
L 270.593058 248.59646 
L 273.872397 243.654478 
L 277.151736 238.531348 
L 280.431074 233.244877 
L 283.710413 227.813962 
L 286.989752 222.258447 
L 290.269091 216.598974 
L 293.54843 210.856814 
L 296.827769 205.053689 
L 300.107107 199.21159 
L 303.386446 193.352567 
L 306.665785 187.498521 
L 309.945124 181.670979 
L 313.224463 175.890855 
L 316.503802 170.178201 
L 319.78314 164.551945 
L 323.062479 159.029622 
L 326.341818 153.627083 
L 329.621157 148.358202 
L 332.900496 143.234563 
L 336.179835 138.265144 
L 339.459174 133.455976 
L 342.738512 128.809806 
L 346.017851 124.325734 
L 349.29719 119.998843 
L 352.576529 115.819824 
L 355.855868 111.774575 
L 359.135207 107.843799 
L 362.414545 104.002588 
L 365.693884 100.21999 
L 368.973223 96.458569 
L 372.252562 92.673953 
L 375.531901 88.814366 
L 378.81124 84.82015 
L 382.090579 80.623279 
L 385.369917 76.146853 
L 388.649256 71.304588 
L 391.928595 66.000288 
L 395.207934 60.127307 
L 398.487273 53.568 
" style="fill:none;stroke:#1f77b4;stroke-linecap:square;stroke-width:1.5;"/>
   </g>
   <g id="patch_3">
    <path d="M 57.6 307.584 
L 57.6 41.472 
" style="fill:none;stroke:#000000;stroke-linecap:square;stroke-linejoin:miter;stroke-width:0.8;"/>
   </g>
   <g id="patch_4">
    <path d="M 414.72 307.584 
L 414.72 41.472 
" style="fill:none;stroke:#000000;stroke-linecap:square;stroke-linejoin:miter;stroke-width:0.8;"/>
   </g>
   <g id="patch_5">
    <path d="M 57.6 307.584 
L 414.72 307.584 
" style="fill:none;stroke:#000000;stroke-linecap:square;stroke-linejoin:miter;stroke-width:0.8;"/>
   </g>
   <g id="patch_6">
    <path d="M 57.6 41.472 
L 414.72 41.472 
" style="fill:none;stroke:#000000;stroke-linecap:square;stroke-linejoin:miter;stroke-width:0.8;"/>
   </g>
  </g>
 </g>
 <defs>
  <clipPath id="pb2d95111c9">
   <rect height="266.112" width="357.12" x="57.6" y="41.472"/>
  </clipPath>
 </defs>
</svg>
